<?xml version="1.0" encoding="utf-8" standalone="no"?>
<!DOCTYPE svg PUBLIC "-//W3C//DTD SVG 1.1//EN"
  "http://www.w3.org/Graphics/SVG/1.1/DTD/svg11.dtd">
<svg xmlns:xlink="http://www.w3.org/1999/xlink" width="648.56pt" height="397.58875pt" viewBox="0 0 648.56 397.58875" xmlns="http://www.w3.org/2000/svg" version="1.1">
 <metadata>
  <rdf:RDF xmlns:dc="http://purl.org/dc/elements/1.1/" xmlns:cc="http://creativecommons.org/ns#" xmlns:rdf="http://www.w3.org/1999/02/22-rdf-syntax-ns#">
   <cc:Work>
    <dc:type rdf:resource="http://purl.org/dc/dcmitype/StillImage"/>
    <dc:date>2025-05-22T13:36:35.930216</dc:date>
    <dc:format>image/svg+xml</dc:format>
    <dc:creator>
     <cc:Agent>
      <dc:title>Matplotlib v3.8.0, https://matplotlib.org/</dc:title>
     </cc:Agent>
    </dc:creator>
   </cc:Work>
  </rdf:RDF>
 </metadata>
 <defs>
  <style type="text/css">*{stroke-linejoin: round; stroke-linecap: butt}</style>
 </defs>
 <g id="figure_1">
  <g id="patch_1">
   <path d="M 0 397.58875 
L 648.56 397.58875 
L 648.56 0 
L 0 0 
z
" style="fill: #ffffff"/>
  </g>
  <g id="axes_1">
   <g id="patch_2">
    <path d="M 73.18 345.91875 
L 631.18 345.91875 
L 631.18 13.27875 
L 73.18 13.27875 
z
" style="fill: #ffffff"/>
   </g>
   <g id="matplotlib.axis_1">
    <g id="xtick_1">
     <g id="line2d_1">
      <defs>
       <path id="m2f5633a22e" d="M 0 0 
L 0 6 
" style="stroke: #262626; stroke-width: 1.25"/>
      </defs>
      <g>
       <use xlink:href="#m2f5633a22e" x="73.18" y="345.91875" style="fill: #262626; stroke: #262626; stroke-width: 1.25"/>
      </g>
     </g>
     <g id="text_1">
      <!-- 0 -->
      <g style="fill: #262626" transform="translate(68.09 367.57625) scale(0.16 -0.16)">
       <defs>
        <path id="DejaVuSans-30" d="M 2034 4250 
Q 1547 4250 1301 3770 
Q 1056 3291 1056 2328 
Q 1056 1369 1301 889 
Q 1547 409 2034 409 
Q 2525 409 2770 889 
Q 3016 1369 3016 2328 
Q 3016 3291 2770 3770 
Q 2525 4250 2034 4250 
z
M 2034 4750 
Q 2819 4750 3233 4129 
Q 3647 3509 3647 2328 
Q 3647 1150 3233 529 
Q 2819 -91 2034 -91 
Q 1250 -91 836 529 
Q 422 1150 422 2328 
Q 422 3509 836 4129 
Q 1250 4750 2034 4750 
z
" transform="scale(0.015625)"/>
       </defs>
       <use xlink:href="#DejaVuSans-30"/>
      </g>
     </g>
    </g>
    <g id="xtick_2">
     <g id="line2d_2">
      <g>
       <use xlink:href="#m2f5633a22e" x="184.78" y="345.91875" style="fill: #262626; stroke: #262626; stroke-width: 1.25"/>
      </g>
     </g>
     <g id="text_2">
      <!-- 10 -->
      <g style="fill: #262626" transform="translate(174.6 367.57625) scale(0.16 -0.16)">
       <defs>
        <path id="DejaVuSans-31" d="M 794 531 
L 1825 531 
L 1825 4091 
L 703 3866 
L 703 4441 
L 1819 4666 
L 2450 4666 
L 2450 531 
L 3481 531 
L 3481 0 
L 794 0 
L 794 531 
z
" transform="scale(0.015625)"/>
       </defs>
       <use xlink:href="#DejaVuSans-31"/>
       <use xlink:href="#DejaVuSans-30" x="63.623047"/>
      </g>
     </g>
    </g>
    <g id="xtick_3">
     <g id="line2d_3">
      <g>
       <use xlink:href="#m2f5633a22e" x="296.38" y="345.91875" style="fill: #262626; stroke: #262626; stroke-width: 1.25"/>
      </g>
     </g>
     <g id="text_3">
      <!-- 20 -->
      <g style="fill: #262626" transform="translate(286.2 367.57625) scale(0.16 -0.16)">
       <defs>
        <path id="DejaVuSans-32" d="M 1228 531 
L 3431 531 
L 3431 0 
L 469 0 
L 469 531 
Q 828 903 1448 1529 
Q 2069 2156 2228 2338 
Q 2531 2678 2651 2914 
Q 2772 3150 2772 3378 
Q 2772 3750 2511 3984 
Q 2250 4219 1831 4219 
Q 1534 4219 1204 4116 
Q 875 4013 500 3803 
L 500 4441 
Q 881 4594 1212 4672 
Q 1544 4750 1819 4750 
Q 2544 4750 2975 4387 
Q 3406 4025 3406 3419 
Q 3406 3131 3298 2873 
Q 3191 2616 2906 2266 
Q 2828 2175 2409 1742 
Q 1991 1309 1228 531 
z
" transform="scale(0.015625)"/>
       </defs>
       <use xlink:href="#DejaVuSans-32"/>
       <use xlink:href="#DejaVuSans-30" x="63.623047"/>
      </g>
     </g>
    </g>
    <g id="xtick_4">
     <g id="line2d_4">
      <g>
       <use xlink:href="#m2f5633a22e" x="407.98" y="345.91875" style="fill: #262626; stroke: #262626; stroke-width: 1.25"/>
      </g>
     </g>
     <g id="text_4">
      <!-- 30 -->
      <g style="fill: #262626" transform="translate(397.8 367.57625) scale(0.16 -0.16)">
       <defs>
        <path id="DejaVuSans-33" d="M 2597 2516 
Q 3050 2419 3304 2112 
Q 3559 1806 3559 1356 
Q 3559 666 3084 287 
Q 2609 -91 1734 -91 
Q 1441 -91 1130 -33 
Q 819 25 488 141 
L 488 750 
Q 750 597 1062 519 
Q 1375 441 1716 441 
Q 2309 441 2620 675 
Q 2931 909 2931 1356 
Q 2931 1769 2642 2001 
Q 2353 2234 1838 2234 
L 1294 2234 
L 1294 2753 
L 1863 2753 
Q 2328 2753 2575 2939 
Q 2822 3125 2822 3475 
Q 2822 3834 2567 4026 
Q 2313 4219 1838 4219 
Q 1578 4219 1281 4162 
Q 984 4106 628 3988 
L 628 4550 
Q 988 4650 1302 4700 
Q 1616 4750 1894 4750 
Q 2613 4750 3031 4423 
Q 3450 4097 3450 3541 
Q 3450 3153 3228 2886 
Q 3006 2619 2597 2516 
z
" transform="scale(0.015625)"/>
       </defs>
       <use xlink:href="#DejaVuSans-33"/>
       <use xlink:href="#DejaVuSans-30" x="63.623047"/>
      </g>
     </g>
    </g>
    <g id="xtick_5">
     <g id="line2d_5">
      <g>
       <use xlink:href="#m2f5633a22e" x="519.58" y="345.91875" style="fill: #262626; stroke: #262626; stroke-width: 1.25"/>
      </g>
     </g>
     <g id="text_5">
      <!-- 40 -->
      <g style="fill: #262626" transform="translate(509.4 367.57625) scale(0.16 -0.16)">
       <defs>
        <path id="DejaVuSans-34" d="M 2419 4116 
L 825 1625 
L 2419 1625 
L 2419 4116 
z
M 2253 4666 
L 3047 4666 
L 3047 1625 
L 3713 1625 
L 3713 1100 
L 3047 1100 
L 3047 0 
L 2419 0 
L 2419 1100 
L 313 1100 
L 313 1709 
L 2253 4666 
z
" transform="scale(0.015625)"/>
       </defs>
       <use xlink:href="#DejaVuSans-34"/>
       <use xlink:href="#DejaVuSans-30" x="63.623047"/>
      </g>
     </g>
    </g>
    <g id="xtick_6">
     <g id="line2d_6">
      <g>
       <use xlink:href="#m2f5633a22e" x="631.18" y="345.91875" style="fill: #262626; stroke: #262626; stroke-width: 1.25"/>
      </g>
     </g>
     <g id="text_6">
      <!-- 50 -->
      <g style="fill: #262626" transform="translate(621 367.57625) scale(0.16 -0.16)">
       <defs>
        <path id="DejaVuSans-35" d="M 691 4666 
L 3169 4666 
L 3169 4134 
L 1269 4134 
L 1269 2991 
Q 1406 3038 1543 3061 
Q 1681 3084 1819 3084 
Q 2600 3084 3056 2656 
Q 3513 2228 3513 1497 
Q 3513 744 3044 326 
Q 2575 -91 1722 -91 
Q 1428 -91 1123 -41 
Q 819 9 494 109 
L 494 744 
Q 775 591 1075 516 
Q 1375 441 1709 441 
Q 2250 441 2565 725 
Q 2881 1009 2881 1497 
Q 2881 1984 2565 2268 
Q 2250 2553 1709 2553 
Q 1456 2553 1204 2497 
Q 953 2441 691 2322 
L 691 4666 
z
" transform="scale(0.015625)"/>
       </defs>
       <use xlink:href="#DejaVuSans-35"/>
       <use xlink:href="#DejaVuSans-30" x="63.623047"/>
      </g>
     </g>
    </g>
    <g id="text_7">
     <!-- Time -->
     <g style="fill: #262626" transform="translate(332.60625 387.06125) scale(0.16 -0.16)">
      <defs>
       <path id="DejaVuSans-54" d="M -19 4666 
L 3928 4666 
L 3928 4134 
L 2272 4134 
L 2272 0 
L 1638 0 
L 1638 4134 
L -19 4134 
L -19 4666 
z
" transform="scale(0.015625)"/>
       <path id="DejaVuSans-69" d="M 603 3500 
L 1178 3500 
L 1178 0 
L 603 0 
L 603 3500 
z
M 603 4863 
L 1178 4863 
L 1178 4134 
L 603 4134 
L 603 4863 
z
" transform="scale(0.015625)"/>
       <path id="DejaVuSans-6d" d="M 3328 2828 
Q 3544 3216 3844 3400 
Q 4144 3584 4550 3584 
Q 5097 3584 5394 3201 
Q 5691 2819 5691 2113 
L 5691 0 
L 5113 0 
L 5113 2094 
Q 5113 2597 4934 2840 
Q 4756 3084 4391 3084 
Q 3944 3084 3684 2787 
Q 3425 2491 3425 1978 
L 3425 0 
L 2847 0 
L 2847 2094 
Q 2847 2600 2669 2842 
Q 2491 3084 2119 3084 
Q 1678 3084 1418 2786 
Q 1159 2488 1159 1978 
L 1159 0 
L 581 0 
L 581 3500 
L 1159 3500 
L 1159 2956 
Q 1356 3278 1631 3431 
Q 1906 3584 2284 3584 
Q 2666 3584 2933 3390 
Q 3200 3197 3328 2828 
z
" transform="scale(0.015625)"/>
       <path id="DejaVuSans-65" d="M 3597 1894 
L 3597 1613 
L 953 1613 
Q 991 1019 1311 708 
Q 1631 397 2203 397 
Q 2534 397 2845 478 
Q 3156 559 3463 722 
L 3463 178 
Q 3153 47 2828 -22 
Q 2503 -91 2169 -91 
Q 1331 -91 842 396 
Q 353 884 353 1716 
Q 353 2575 817 3079 
Q 1281 3584 2069 3584 
Q 2775 3584 3186 3129 
Q 3597 2675 3597 1894 
z
M 3022 2063 
Q 3016 2534 2758 2815 
Q 2500 3097 2075 3097 
Q 1594 3097 1305 2825 
Q 1016 2553 972 2059 
L 3022 2063 
z
" transform="scale(0.015625)"/>
      </defs>
      <use xlink:href="#DejaVuSans-54"/>
      <use xlink:href="#DejaVuSans-69" x="57.958984"/>
      <use xlink:href="#DejaVuSans-6d" x="85.742188"/>
      <use xlink:href="#DejaVuSans-65" x="183.154297"/>
     </g>
    </g>
   </g>
   <g id="matplotlib.axis_2">
    <g id="ytick_1">
     <g id="line2d_7">
      <defs>
       <path id="me6a3f7ad29" d="M 0 0 
L -6 0 
" style="stroke: #262626; stroke-width: 1.25"/>
      </defs>
      <g>
       <use xlink:href="#me6a3f7ad29" x="73.18" y="345.91875" style="fill: #262626; stroke: #262626; stroke-width: 1.25"/>
      </g>
     </g>
     <g id="text_8">
      <!-- $\mathdefault{0.00}$ -->
      <g style="fill: #262626" transform="translate(28 351.9975) scale(0.16 -0.16)">
       <defs>
        <path id="DejaVuSans-2e" d="M 684 794 
L 1344 794 
L 1344 0 
L 684 0 
L 684 794 
z
" transform="scale(0.015625)"/>
       </defs>
       <use xlink:href="#DejaVuSans-30" transform="translate(0 0.78125)"/>
       <use xlink:href="#DejaVuSans-2e" transform="translate(63.623047 0.78125)"/>
       <use xlink:href="#DejaVuSans-30" transform="translate(95.410156 0.78125)"/>
       <use xlink:href="#DejaVuSans-30" transform="translate(159.033203 0.78125)"/>
      </g>
     </g>
    </g>
    <g id="ytick_2">
     <g id="line2d_8">
      <g>
       <use xlink:href="#me6a3f7ad29" x="73.18" y="304.33875" style="fill: #262626; stroke: #262626; stroke-width: 1.25"/>
      </g>
     </g>
     <g id="text_9">
      <!-- $\mathdefault{0.25}$ -->
      <g style="fill: #262626" transform="translate(28.8 310.4175) scale(0.16 -0.16)">
       <use xlink:href="#DejaVuSans-30" transform="translate(0 0.78125)"/>
       <use xlink:href="#DejaVuSans-2e" transform="translate(63.623047 0.78125)"/>
       <use xlink:href="#DejaVuSans-32" transform="translate(89.910156 0.78125)"/>
       <use xlink:href="#DejaVuSans-35" transform="translate(153.533203 0.78125)"/>
      </g>
     </g>
    </g>
    <g id="ytick_3">
     <g id="line2d_9">
      <g>
       <use xlink:href="#me6a3f7ad29" x="73.18" y="262.75875" style="fill: #262626; stroke: #262626; stroke-width: 1.25"/>
      </g>
     </g>
     <g id="text_10">
      <!-- $\mathdefault{0.50}$ -->
      <g style="fill: #262626" transform="translate(28 268.8375) scale(0.16 -0.16)">
       <use xlink:href="#DejaVuSans-30" transform="translate(0 0.78125)"/>
       <use xlink:href="#DejaVuSans-2e" transform="translate(63.623047 0.78125)"/>
       <use xlink:href="#DejaVuSans-35" transform="translate(95.410156 0.78125)"/>
       <use xlink:href="#DejaVuSans-30" transform="translate(159.033203 0.78125)"/>
      </g>
     </g>
    </g>
    <g id="ytick_4">
     <g id="line2d_10">
      <g>
       <use xlink:href="#me6a3f7ad29" x="73.18" y="221.17875" style="fill: #262626; stroke: #262626; stroke-width: 1.25"/>
      </g>
     </g>
     <g id="text_11">
      <!-- $\mathdefault{0.75}$ -->
      <g style="fill: #262626" transform="translate(29.28 227.2575) scale(0.16 -0.16)">
       <defs>
        <path id="DejaVuSans-37" d="M 525 4666 
L 3525 4666 
L 3525 4397 
L 1831 0 
L 1172 0 
L 2766 4134 
L 525 4134 
L 525 4666 
z
" transform="scale(0.015625)"/>
       </defs>
       <use xlink:href="#DejaVuSans-30" transform="translate(0 0.78125)"/>
       <use xlink:href="#DejaVuSans-2e" transform="translate(63.623047 0.78125)"/>
       <use xlink:href="#DejaVuSans-37" transform="translate(87.660156 0.78125)"/>
       <use xlink:href="#DejaVuSans-35" transform="translate(151.283203 0.78125)"/>
      </g>
     </g>
    </g>
    <g id="ytick_5">
     <g id="line2d_11">
      <g>
       <use xlink:href="#me6a3f7ad29" x="73.18" y="179.59875" style="fill: #262626; stroke: #262626; stroke-width: 1.25"/>
      </g>
     </g>
     <g id="text_12">
      <!-- $\mathdefault{1.00}$ -->
      <g style="fill: #262626" transform="translate(28 185.6775) scale(0.16 -0.16)">
       <use xlink:href="#DejaVuSans-31" transform="translate(0 0.78125)"/>
       <use xlink:href="#DejaVuSans-2e" transform="translate(63.623047 0.78125)"/>
       <use xlink:href="#DejaVuSans-30" transform="translate(95.410156 0.78125)"/>
       <use xlink:href="#DejaVuSans-30" transform="translate(159.033203 0.78125)"/>
      </g>
     </g>
    </g>
    <g id="ytick_6">
     <g id="line2d_12">
      <g>
       <use xlink:href="#me6a3f7ad29" x="73.18" y="138.01875" style="fill: #262626; stroke: #262626; stroke-width: 1.25"/>
      </g>
     </g>
     <g id="text_13">
      <!-- $\mathdefault{1.25}$ -->
      <g style="fill: #262626" transform="translate(28.8 144.0975) scale(0.16 -0.16)">
       <use xlink:href="#DejaVuSans-31" transform="translate(0 0.78125)"/>
       <use xlink:href="#DejaVuSans-2e" transform="translate(63.623047 0.78125)"/>
       <use xlink:href="#DejaVuSans-32" transform="translate(89.910156 0.78125)"/>
       <use xlink:href="#DejaVuSans-35" transform="translate(153.533203 0.78125)"/>
      </g>
     </g>
    </g>
    <g id="ytick_7">
     <g id="line2d_13">
      <g>
       <use xlink:href="#me6a3f7ad29" x="73.18" y="96.43875" style="fill: #262626; stroke: #262626; stroke-width: 1.25"/>
      </g>
     </g>
     <g id="text_14">
      <!-- $\mathdefault{1.50}$ -->
      <g style="fill: #262626" transform="translate(28 102.5175) scale(0.16 -0.16)">
       <use xlink:href="#DejaVuSans-31" transform="translate(0 0.78125)"/>
       <use xlink:href="#DejaVuSans-2e" transform="translate(63.623047 0.78125)"/>
       <use xlink:href="#DejaVuSans-35" transform="translate(95.410156 0.78125)"/>
       <use xlink:href="#DejaVuSans-30" transform="translate(159.033203 0.78125)"/>
      </g>
     </g>
    </g>
    <g id="ytick_8">
     <g id="line2d_14">
      <g>
       <use xlink:href="#me6a3f7ad29" x="73.18" y="54.85875" style="fill: #262626; stroke: #262626; stroke-width: 1.25"/>
      </g>
     </g>
     <g id="text_15">
      <!-- $\mathdefault{1.75}$ -->
      <g style="fill: #262626" transform="translate(29.28 60.9375) scale(0.16 -0.16)">
       <use xlink:href="#DejaVuSans-31" transform="translate(0 0.09375)"/>
       <use xlink:href="#DejaVuSans-2e" transform="translate(63.623047 0.09375)"/>
       <use xlink:href="#DejaVuSans-37" transform="translate(87.660156 0.09375)"/>
       <use xlink:href="#DejaVuSans-35" transform="translate(151.283203 0.09375)"/>
      </g>
     </g>
    </g>
    <g id="ytick_9">
     <g id="line2d_15">
      <g>
       <use xlink:href="#me6a3f7ad29" x="73.18" y="13.27875" style="fill: #262626; stroke: #262626; stroke-width: 1.25"/>
      </g>
     </g>
     <g id="text_16">
      <!-- $\mathdefault{2.00}$ -->
      <g style="fill: #262626" transform="translate(28 19.3575) scale(0.16 -0.16)">
       <use xlink:href="#DejaVuSans-32" transform="translate(0 0.78125)"/>
       <use xlink:href="#DejaVuSans-2e" transform="translate(63.623047 0.78125)"/>
       <use xlink:href="#DejaVuSans-30" transform="translate(95.410156 0.78125)"/>
       <use xlink:href="#DejaVuSans-30" transform="translate(159.033203 0.78125)"/>
      </g>
     </g>
    </g>
    <g id="text_17">
     <!-- Detected($\times 10^3$) -->
     <g style="fill: #262626" transform="translate(20.6725 243.27875) rotate(-90) scale(0.16 -0.16)">
      <defs>
       <path id="DejaVuSans-44" d="M 1259 4147 
L 1259 519 
L 2022 519 
Q 2988 519 3436 956 
Q 3884 1394 3884 2338 
Q 3884 3275 3436 3711 
Q 2988 4147 2022 4147 
L 1259 4147 
z
M 628 4666 
L 1925 4666 
Q 3281 4666 3915 4102 
Q 4550 3538 4550 2338 
Q 4550 1131 3912 565 
Q 3275 0 1925 0 
L 628 0 
L 628 4666 
z
" transform="scale(0.015625)"/>
       <path id="DejaVuSans-74" d="M 1172 4494 
L 1172 3500 
L 2356 3500 
L 2356 3053 
L 1172 3053 
L 1172 1153 
Q 1172 725 1289 603 
Q 1406 481 1766 481 
L 2356 481 
L 2356 0 
L 1766 0 
Q 1100 0 847 248 
Q 594 497 594 1153 
L 594 3053 
L 172 3053 
L 172 3500 
L 594 3500 
L 594 4494 
L 1172 4494 
z
" transform="scale(0.015625)"/>
       <path id="DejaVuSans-63" d="M 3122 3366 
L 3122 2828 
Q 2878 2963 2633 3030 
Q 2388 3097 2138 3097 
Q 1578 3097 1268 2742 
Q 959 2388 959 1747 
Q 959 1106 1268 751 
Q 1578 397 2138 397 
Q 2388 397 2633 464 
Q 2878 531 3122 666 
L 3122 134 
Q 2881 22 2623 -34 
Q 2366 -91 2075 -91 
Q 1284 -91 818 406 
Q 353 903 353 1747 
Q 353 2603 823 3093 
Q 1294 3584 2113 3584 
Q 2378 3584 2631 3529 
Q 2884 3475 3122 3366 
z
" transform="scale(0.015625)"/>
       <path id="DejaVuSans-64" d="M 2906 2969 
L 2906 4863 
L 3481 4863 
L 3481 0 
L 2906 0 
L 2906 525 
Q 2725 213 2448 61 
Q 2172 -91 1784 -91 
Q 1150 -91 751 415 
Q 353 922 353 1747 
Q 353 2572 751 3078 
Q 1150 3584 1784 3584 
Q 2172 3584 2448 3432 
Q 2725 3281 2906 2969 
z
M 947 1747 
Q 947 1113 1208 752 
Q 1469 391 1925 391 
Q 2381 391 2643 752 
Q 2906 1113 2906 1747 
Q 2906 2381 2643 2742 
Q 2381 3103 1925 3103 
Q 1469 3103 1208 2742 
Q 947 2381 947 1747 
z
" transform="scale(0.015625)"/>
       <path id="DejaVuSans-28" d="M 1984 4856 
Q 1566 4138 1362 3434 
Q 1159 2731 1159 2009 
Q 1159 1288 1364 580 
Q 1569 -128 1984 -844 
L 1484 -844 
Q 1016 -109 783 600 
Q 550 1309 550 2009 
Q 550 2706 781 3412 
Q 1013 4119 1484 4856 
L 1984 4856 
z
" transform="scale(0.015625)"/>
       <path id="DejaVuSans-d7" d="M 4488 3438 
L 3059 2003 
L 4488 575 
L 4116 197 
L 2681 1631 
L 1247 197 
L 878 575 
L 2303 2003 
L 878 3438 
L 1247 3816 
L 2681 2381 
L 4116 3816 
L 4488 3438 
z
" transform="scale(0.015625)"/>
       <path id="DejaVuSans-29" d="M 513 4856 
L 1013 4856 
Q 1481 4119 1714 3412 
Q 1947 2706 1947 2009 
Q 1947 1309 1714 600 
Q 1481 -109 1013 -844 
L 513 -844 
Q 928 -128 1133 580 
Q 1338 1288 1338 2009 
Q 1338 2731 1133 3434 
Q 928 4138 513 4856 
z
" transform="scale(0.015625)"/>
      </defs>
      <use xlink:href="#DejaVuSans-44" transform="translate(0 0.765625)"/>
      <use xlink:href="#DejaVuSans-65" transform="translate(77.001953 0.765625)"/>
      <use xlink:href="#DejaVuSans-74" transform="translate(138.525391 0.765625)"/>
      <use xlink:href="#DejaVuSans-65" transform="translate(177.734375 0.765625)"/>
      <use xlink:href="#DejaVuSans-63" transform="translate(239.257812 0.765625)"/>
      <use xlink:href="#DejaVuSans-74" transform="translate(294.238281 0.765625)"/>
      <use xlink:href="#DejaVuSans-65" transform="translate(333.447266 0.765625)"/>
      <use xlink:href="#DejaVuSans-64" transform="translate(394.970703 0.765625)"/>
      <use xlink:href="#DejaVuSans-28" transform="translate(458.447266 0.765625)"/>
      <use xlink:href="#DejaVuSans-d7" transform="translate(497.460938 0.765625)"/>
      <use xlink:href="#DejaVuSans-31" transform="translate(581.25 0.765625)"/>
      <use xlink:href="#DejaVuSans-30" transform="translate(644.873047 0.765625)"/>
      <use xlink:href="#DejaVuSans-33" transform="translate(709.453125 39.046875) scale(0.7)"/>
      <use xlink:href="#DejaVuSans-29" transform="translate(756.723633 0.765625)"/>
     </g>
    </g>
   </g>
   <g id="line2d_16">
    <path d="M 73.18 179.59875 
L 631.18 179.59875 
" clip-path="url(#pe87d20db50)" style="fill: none; stroke-dasharray: 5.55,2.4; stroke-dashoffset: 0; stroke: #808080; stroke-width: 1.5"/>
   </g>
   <g id="line2d_17">
    <path d="M 73.18 345.52374 
L 95.5 344.719859 
L 106.66 344.116949 
L 128.98 342.626999 
L 140.14 341.649869 
L 151.3 340.423259 
L 162.46 338.947169 
L 173.62 337.027554 
L 184.78 334.608978 
L 195.94 331.081614 
L 207.1 326.286059 
L 218.26 319.723355 
L 229.42 311.324195 
L 240.58 300.610409 
L 251.74 285.911879 
L 262.9 266.154394 
L 274.06 239.467019 
L 285.22 204.609175 
L 296.38 160.194749 
L 307.54 103.528195 
L 318.7 29.890015 
L 322.419247 -1 
L 322.419247 -1 
" clip-path="url(#pe87d20db50)" style="fill: none; stroke: #fde725; stroke-width: 2; stroke-linecap: round"/>
   </g>
   <g id="line2d_18">
    <path d="M 73.18 345.613831 
L 84.34 345.239611 
L 117.82 343.715012 
L 128.98 343.070522 
L 151.3 341.414252 
L 162.46 340.132203 
L 173.62 338.725413 
L 184.78 336.778089 
L 195.94 334.408029 
L 207.1 331.317254 
L 218.26 326.868194 
L 229.42 321.59447 
L 240.58 314.013056 
L 251.74 304.699136 
L 262.9 292.2182 
L 274.06 275.1704 
L 285.22 254.02697 
L 296.38 225.967455 
L 307.54 190.45115 
L 318.7 145.392235 
L 329.86 87.76934 
L 341.02 16.785295 
L 343.310018 -1 
L 343.310018 -1 
" clip-path="url(#pe87d20db50)" style="fill: none; stroke: #7ad151; stroke-width: 2; stroke-linecap: round"/>
   </g>
   <g id="line2d_19">
    <path d="M 73.18 345.572251 
L 95.5 344.900042 
L 106.66 344.456521 
L 128.98 343.250701 
L 151.3 341.497412 
L 162.46 340.423263 
L 173.62 339.182793 
L 184.78 337.450288 
L 195.94 335.135662 
L 207.1 332.342867 
L 218.26 328.947161 
L 229.42 324.470376 
L 240.58 318.281891 
L 251.74 310.665816 
L 262.9 300.998466 
L 274.06 287.859186 
L 285.22 270.416376 
L 296.38 248.26804 
L 307.54 219.259005 
L 318.7 182.744779 
L 329.86 136.487029 
L 341.02 79.314529 
L 352.18 10.506615 
L 353.722121 -1 
L 353.722121 -1 
" clip-path="url(#pe87d20db50)" style="fill: none; stroke: #22a884; stroke-width: 2; stroke-linecap: round"/>
   </g>
   <g id="line2d_20">
    <path d="M 73.18 345.6069 
L 117.82 344.061509 
L 140.14 342.807181 
L 151.3 342.190411 
L 162.46 341.365742 
L 184.78 339.106562 
L 195.94 337.575033 
L 207.1 335.738577 
L 218.26 332.952717 
L 229.42 329.660962 
L 240.58 325.759377 
L 251.74 320.243092 
L 262.9 313.465552 
L 274.06 304.782267 
L 285.22 293.756632 
L 296.38 279.508546 
L 307.54 261.331101 
L 318.7 238.094866 
L 329.86 208.711611 
L 341.02 173.160711 
L 352.18 129.099715 
L 363.34 77.74143 
L 374.5 16.11987 
L 377.173294 -1 
L 377.173294 -1 
" clip-path="url(#pe87d20db50)" style="fill: none; stroke: #2a788e; stroke-width: 2; stroke-linecap: round"/>
   </g>
   <g id="line2d_21">
    <path d="M 73.18 345.634621 
L 95.5 344.73372 
L 106.66 344.40108 
L 128.98 343.32 
L 162.46 341.358809 
L 173.62 340.651949 
L 184.78 339.674819 
L 195.94 338.441279 
L 218.26 335.593049 
L 229.42 333.472469 
L 240.58 330.575723 
L 251.74 327.270113 
L 262.9 322.973519 
L 274.06 317.755229 
L 285.22 311.171734 
L 296.38 302.543884 
L 307.54 292.05187 
L 318.7 278.462146 
L 329.86 261.982611 
L 341.02 240.998516 
L 352.18 215.156546 
L 363.34 185.496201 
L 374.5 150.007671 
L 385.66 109.716651 
L 396.82 62.849006 
L 407.98 9.543446 
L 409.970979 -1 
L 409.970979 -1 
" clip-path="url(#pe87d20db50)" style="fill: none; stroke: #414487; stroke-width: 2; stroke-linecap: round"/>
   </g>
   <g id="line2d_22">
    <path d="M 73.18 345.572251 
L 151.3 342.876481 
L 173.62 341.774611 
L 184.78 341.185561 
L 207.1 339.53622 
L 218.26 338.572949 
L 240.58 335.842529 
L 251.74 334.137749 
L 262.9 331.920154 
L 274.06 329.314469 
L 285.22 326.279129 
L 296.38 322.245869 
L 307.54 317.159254 
L 318.7 311.15788 
L 329.86 303.909106 
L 341.02 294.67141 
L 352.18 283.493326 
L 363.34 270.083776 
L 374.5 254.602161 
L 385.66 236.452491 
L 396.82 214.962617 
L 407.98 190.873992 
L 419.14 164.533062 
L 430.3 135.232967 
L 441.46 101.941191 
L 452.62 66.771497 
L 463.78 29.515817 
L 472.177543 -1 
L 472.177543 -1 
" clip-path="url(#pe87d20db50)" style="fill: none; stroke: #440154; stroke-width: 2; stroke-linecap: round"/>
   </g>
   <g id="patch_3">
    <path d="M 73.18 345.91875 
L 73.18 13.27875 
" style="fill: none; stroke: #262626; stroke-width: 1.25; stroke-linejoin: miter; stroke-linecap: square"/>
   </g>
   <g id="patch_4">
    <path d="M 631.18 345.91875 
L 631.18 13.27875 
" style="fill: none; stroke: #262626; stroke-width: 1.25; stroke-linejoin: miter; stroke-linecap: square"/>
   </g>
   <g id="patch_5">
    <path d="M 73.18 345.91875 
L 631.18 345.91875 
" style="fill: none; stroke: #262626; stroke-width: 1.25; stroke-linejoin: miter; stroke-linecap: square"/>
   </g>
   <g id="patch_6">
    <path d="M 73.18 13.27875 
L 631.18 13.27875 
" style="fill: none; stroke: #262626; stroke-width: 1.25; stroke-linejoin: miter; stroke-linecap: square"/>
   </g>
   <g id="legend_1">
    <g id="patch_7">
     <path d="M 526.13 118.954375 
L 623.48 118.954375 
Q 625.68 118.954375 625.68 116.754375 
L 625.68 20.97875 
Q 625.68 18.77875 623.48 18.77875 
L 526.13 18.77875 
Q 523.93 18.77875 523.93 20.97875 
L 523.93 116.754375 
Q 523.93 118.954375 526.13 118.954375 
z
" style="fill: #ffffff; opacity: 0.8; stroke: #cccccc; stroke-linejoin: miter"/>
    </g>
    <g id="line2d_23">
     <path d="M 528.33 27.687031 
L 539.33 27.687031 
L 550.33 27.687031 
" style="fill: none; stroke: #fde725; stroke-width: 2; stroke-linecap: round"/>
    </g>
    <g id="text_18">
     <!-- $L = $2$\times 10^3$ -->
     <g style="fill: #262626" transform="translate(559.13 31.537031) scale(0.11 -0.11)">
      <defs>
       <path id="DejaVuSans-Oblique-4c" d="M 1075 4666 
L 1709 4666 
L 909 525 
L 3181 525 
L 3078 0 
L 172 0 
L 1075 4666 
z
" transform="scale(0.015625)"/>
       <path id="DejaVuSans-3d" d="M 678 2906 
L 4684 2906 
L 4684 2381 
L 678 2381 
L 678 2906 
z
M 678 1631 
L 4684 1631 
L 4684 1100 
L 678 1100 
L 678 1631 
z
" transform="scale(0.015625)"/>
      </defs>
      <use xlink:href="#DejaVuSans-Oblique-4c" transform="translate(0 0.765625)"/>
      <use xlink:href="#DejaVuSans-3d" transform="translate(75.195312 0.765625)"/>
      <use xlink:href="#DejaVuSans-32" transform="translate(178.466797 0.765625)"/>
      <use xlink:href="#DejaVuSans-d7" transform="translate(242.089844 0.765625)"/>
      <use xlink:href="#DejaVuSans-31" transform="translate(325.878906 0.765625)"/>
      <use xlink:href="#DejaVuSans-30" transform="translate(389.501953 0.765625)"/>
      <use xlink:href="#DejaVuSans-33" transform="translate(454.082031 39.046875) scale(0.7)"/>
     </g>
    </g>
    <g id="line2d_24">
     <path d="M 528.33 43.832969 
L 539.33 43.832969 
L 550.33 43.832969 
" style="fill: none; stroke: #7ad151; stroke-width: 2; stroke-linecap: round"/>
    </g>
    <g id="text_19">
     <!-- $L = $4$\times 10^3$ -->
     <g style="fill: #262626" transform="translate(559.13 47.682969) scale(0.11 -0.11)">
      <use xlink:href="#DejaVuSans-Oblique-4c" transform="translate(0 0.765625)"/>
      <use xlink:href="#DejaVuSans-3d" transform="translate(75.195312 0.765625)"/>
      <use xlink:href="#DejaVuSans-34" transform="translate(178.466797 0.765625)"/>
      <use xlink:href="#DejaVuSans-d7" transform="translate(242.089844 0.765625)"/>
      <use xlink:href="#DejaVuSans-31" transform="translate(325.878906 0.765625)"/>
      <use xlink:href="#DejaVuSans-30" transform="translate(389.501953 0.765625)"/>
      <use xlink:href="#DejaVuSans-33" transform="translate(454.082031 39.046875) scale(0.7)"/>
     </g>
    </g>
    <g id="line2d_25">
     <path d="M 528.33 59.978906 
L 539.33 59.978906 
L 550.33 59.978906 
" style="fill: none; stroke: #22a884; stroke-width: 2; stroke-linecap: round"/>
    </g>
    <g id="text_20">
     <!-- $L = $6$\times 10^3$ -->
     <g style="fill: #262626" transform="translate(559.13 63.828906) scale(0.11 -0.11)">
      <defs>
       <path id="DejaVuSans-36" d="M 2113 2584 
Q 1688 2584 1439 2293 
Q 1191 2003 1191 1497 
Q 1191 994 1439 701 
Q 1688 409 2113 409 
Q 2538 409 2786 701 
Q 3034 994 3034 1497 
Q 3034 2003 2786 2293 
Q 2538 2584 2113 2584 
z
M 3366 4563 
L 3366 3988 
Q 3128 4100 2886 4159 
Q 2644 4219 2406 4219 
Q 1781 4219 1451 3797 
Q 1122 3375 1075 2522 
Q 1259 2794 1537 2939 
Q 1816 3084 2150 3084 
Q 2853 3084 3261 2657 
Q 3669 2231 3669 1497 
Q 3669 778 3244 343 
Q 2819 -91 2113 -91 
Q 1303 -91 875 529 
Q 447 1150 447 2328 
Q 447 3434 972 4092 
Q 1497 4750 2381 4750 
Q 2619 4750 2861 4703 
Q 3103 4656 3366 4563 
z
" transform="scale(0.015625)"/>
      </defs>
      <use xlink:href="#DejaVuSans-Oblique-4c" transform="translate(0 0.765625)"/>
      <use xlink:href="#DejaVuSans-3d" transform="translate(75.195312 0.765625)"/>
      <use xlink:href="#DejaVuSans-36" transform="translate(178.466797 0.765625)"/>
      <use xlink:href="#DejaVuSans-d7" transform="translate(242.089844 0.765625)"/>
      <use xlink:href="#DejaVuSans-31" transform="translate(325.878906 0.765625)"/>
      <use xlink:href="#DejaVuSans-30" transform="translate(389.501953 0.765625)"/>
      <use xlink:href="#DejaVuSans-33" transform="translate(454.082031 39.046875) scale(0.7)"/>
     </g>
    </g>
    <g id="line2d_26">
     <path d="M 528.33 76.124844 
L 539.33 76.124844 
L 550.33 76.124844 
" style="fill: none; stroke: #2a788e; stroke-width: 2; stroke-linecap: round"/>
    </g>
    <g id="text_21">
     <!-- $L = $10$\times 10^3$ -->
     <g style="fill: #262626" transform="translate(559.13 79.974844) scale(0.11 -0.11)">
      <use xlink:href="#DejaVuSans-Oblique-4c" transform="translate(0 0.765625)"/>
      <use xlink:href="#DejaVuSans-3d" transform="translate(75.195312 0.765625)"/>
      <use xlink:href="#DejaVuSans-31" transform="translate(178.466797 0.765625)"/>
      <use xlink:href="#DejaVuSans-30" transform="translate(242.089844 0.765625)"/>
      <use xlink:href="#DejaVuSans-d7" transform="translate(305.712891 0.765625)"/>
      <use xlink:href="#DejaVuSans-31" transform="translate(389.501953 0.765625)"/>
      <use xlink:href="#DejaVuSans-30" transform="translate(453.125 0.765625)"/>
      <use xlink:href="#DejaVuSans-33" transform="translate(517.705078 39.046875) scale(0.7)"/>
     </g>
    </g>
    <g id="line2d_27">
     <path d="M 528.33 92.270781 
L 539.33 92.270781 
L 550.33 92.270781 
" style="fill: none; stroke: #414487; stroke-width: 2; stroke-linecap: round"/>
    </g>
    <g id="text_22">
     <!-- $L = $20$\times 10^3$ -->
     <g style="fill: #262626" transform="translate(559.13 96.120781) scale(0.11 -0.11)">
      <use xlink:href="#DejaVuSans-Oblique-4c" transform="translate(0 0.765625)"/>
      <use xlink:href="#DejaVuSans-3d" transform="translate(75.195312 0.765625)"/>
      <use xlink:href="#DejaVuSans-32" transform="translate(178.466797 0.765625)"/>
      <use xlink:href="#DejaVuSans-30" transform="translate(242.089844 0.765625)"/>
      <use xlink:href="#DejaVuSans-d7" transform="translate(305.712891 0.765625)"/>
      <use xlink:href="#DejaVuSans-31" transform="translate(389.501953 0.765625)"/>
      <use xlink:href="#DejaVuSans-30" transform="translate(453.125 0.765625)"/>
      <use xlink:href="#DejaVuSans-33" transform="translate(517.705078 39.046875) scale(0.7)"/>
     </g>
    </g>
    <g id="line2d_28">
     <path d="M 528.33 108.416719 
L 539.33 108.416719 
L 550.33 108.416719 
" style="fill: none; stroke: #440154; stroke-width: 2; stroke-linecap: round"/>
    </g>
    <g id="text_23">
     <!-- $L = $45$\times 10^3$ -->
     <g style="fill: #262626" transform="translate(559.13 112.266719) scale(0.11 -0.11)">
      <use xlink:href="#DejaVuSans-Oblique-4c" transform="translate(0 0.765625)"/>
      <use xlink:href="#DejaVuSans-3d" transform="translate(75.195312 0.765625)"/>
      <use xlink:href="#DejaVuSans-34" transform="translate(178.466797 0.765625)"/>
      <use xlink:href="#DejaVuSans-35" transform="translate(242.089844 0.765625)"/>
      <use xlink:href="#DejaVuSans-d7" transform="translate(305.712891 0.765625)"/>
      <use xlink:href="#DejaVuSans-31" transform="translate(389.501953 0.765625)"/>
      <use xlink:href="#DejaVuSans-30" transform="translate(453.125 0.765625)"/>
      <use xlink:href="#DejaVuSans-33" transform="translate(517.705078 39.046875) scale(0.7)"/>
     </g>
    </g>
   </g>
  </g>
 </g>
 <defs>
  <clipPath id="pe87d20db50">
   <rect x="73.18" y="13.27875" width="558" height="332.64"/>
  </clipPath>
 </defs>
</svg>
