<?xml version="1.0" encoding="utf-8" standalone="no"?>
<!DOCTYPE svg PUBLIC "-//W3C//DTD SVG 1.1//EN"
  "http://www.w3.org/Graphics/SVG/1.1/DTD/svg11.dtd">
<svg xmlns:xlink="http://www.w3.org/1999/xlink" width="564.575pt" height="450.748281pt" viewBox="0 0 564.575 450.748281" xmlns="http://www.w3.org/2000/svg" version="1.1">
 <metadata>
  <rdf:RDF xmlns:dc="http://purl.org/dc/elements/1.1/" xmlns:cc="http://creativecommons.org/ns#" xmlns:rdf="http://www.w3.org/1999/02/22-rdf-syntax-ns#">
   <cc:Work>
    <dc:type rdf:resource="http://purl.org/dc/dcmitype/StillImage"/>
    <dc:date>2023-12-21T21:36:38.315638</dc:date>
    <dc:format>image/svg+xml</dc:format>
    <dc:creator>
     <cc:Agent>
      <dc:title>Matplotlib v3.8.0, https://matplotlib.org/</dc:title>
     </cc:Agent>
    </dc:creator>
   </cc:Work>
  </rdf:RDF>
 </metadata>
 <defs>
  <style type="text/css">*{stroke-linejoin: round; stroke-linecap: butt}</style>
 </defs>
 <g id="figure_1">
  <g id="patch_1">
   <path d="M 0 450.748281 
L 564.575 450.748281 
L 564.575 0 
L 0 0 
z
" style="fill: #ffffff"/>
  </g>
  <g id="axes_1">
   <g id="patch_2">
    <path d="M 46.365 399.078281 
L 492.765 399.078281 
L 492.765 18.558281 
L 46.365 18.558281 
z
" style="fill: #ffffff"/>
   </g>
   <g id="matplotlib.axis_1">
    <g id="xtick_1">
     <g id="line2d_1">
      <path d="M 46.365 399.078281 
L 46.365 18.558281 
" clip-path="url(#p4c38f3100e)" style="fill: none; stroke: #cccccc; stroke-linecap: round"/>
     </g>
     <g id="line2d_2">
      <defs>
       <path id="m668c65de72" d="M 0 0 
L 0 6 
" style="stroke: #262626; stroke-width: 1.25"/>
      </defs>
      <g>
       <use xlink:href="#m668c65de72" x="46.365" y="399.078281" style="fill: #262626; stroke: #262626; stroke-width: 1.25"/>
      </g>
     </g>
     <g id="text_1">
      <!-- 0 -->
      <g style="fill: #262626" transform="translate(41.275 420.735781) scale(0.16 -0.16)">
       <defs>
        <path id="DejaVuSans-30" d="M 2034 4250 
Q 1547 4250 1301 3770 
Q 1056 3291 1056 2328 
Q 1056 1369 1301 889 
Q 1547 409 2034 409 
Q 2525 409 2770 889 
Q 3016 1369 3016 2328 
Q 3016 3291 2770 3770 
Q 2525 4250 2034 4250 
z
M 2034 4750 
Q 2819 4750 3233 4129 
Q 3647 3509 3647 2328 
Q 3647 1150 3233 529 
Q 2819 -91 2034 -91 
Q 1250 -91 836 529 
Q 422 1150 422 2328 
Q 422 3509 836 4129 
Q 1250 4750 2034 4750 
z
" transform="scale(0.015625)"/>
       </defs>
       <use xlink:href="#DejaVuSans-30"/>
      </g>
     </g>
    </g>
    <g id="xtick_2">
     <g id="line2d_3">
      <path d="M 102.165 399.078281 
L 102.165 18.558281 
" clip-path="url(#p4c38f3100e)" style="fill: none; stroke: #cccccc; stroke-linecap: round"/>
     </g>
     <g id="line2d_4">
      <g>
       <use xlink:href="#m668c65de72" x="102.165" y="399.078281" style="fill: #262626; stroke: #262626; stroke-width: 1.25"/>
      </g>
     </g>
     <g id="text_2">
      <!-- 2 -->
      <g style="fill: #262626" transform="translate(97.075 420.735781) scale(0.16 -0.16)">
       <defs>
        <path id="DejaVuSans-32" d="M 1228 531 
L 3431 531 
L 3431 0 
L 469 0 
L 469 531 
Q 828 903 1448 1529 
Q 2069 2156 2228 2338 
Q 2531 2678 2651 2914 
Q 2772 3150 2772 3378 
Q 2772 3750 2511 3984 
Q 2250 4219 1831 4219 
Q 1534 4219 1204 4116 
Q 875 4013 500 3803 
L 500 4441 
Q 881 4594 1212 4672 
Q 1544 4750 1819 4750 
Q 2544 4750 2975 4387 
Q 3406 4025 3406 3419 
Q 3406 3131 3298 2873 
Q 3191 2616 2906 2266 
Q 2828 2175 2409 1742 
Q 1991 1309 1228 531 
z
" transform="scale(0.015625)"/>
       </defs>
       <use xlink:href="#DejaVuSans-32"/>
      </g>
     </g>
    </g>
    <g id="xtick_3">
     <g id="line2d_5">
      <path d="M 157.965 399.078281 
L 157.965 18.558281 
" clip-path="url(#p4c38f3100e)" style="fill: none; stroke: #cccccc; stroke-linecap: round"/>
     </g>
     <g id="line2d_6">
      <g>
       <use xlink:href="#m668c65de72" x="157.965" y="399.078281" style="fill: #262626; stroke: #262626; stroke-width: 1.25"/>
      </g>
     </g>
     <g id="text_3">
      <!-- 4 -->
      <g style="fill: #262626" transform="translate(152.875 420.735781) scale(0.16 -0.16)">
       <defs>
        <path id="DejaVuSans-34" d="M 2419 4116 
L 825 1625 
L 2419 1625 
L 2419 4116 
z
M 2253 4666 
L 3047 4666 
L 3047 1625 
L 3713 1625 
L 3713 1100 
L 3047 1100 
L 3047 0 
L 2419 0 
L 2419 1100 
L 313 1100 
L 313 1709 
L 2253 4666 
z
" transform="scale(0.015625)"/>
       </defs>
       <use xlink:href="#DejaVuSans-34"/>
      </g>
     </g>
    </g>
    <g id="xtick_4">
     <g id="line2d_7">
      <path d="M 213.765 399.078281 
L 213.765 18.558281 
" clip-path="url(#p4c38f3100e)" style="fill: none; stroke: #cccccc; stroke-linecap: round"/>
     </g>
     <g id="line2d_8">
      <g>
       <use xlink:href="#m668c65de72" x="213.765" y="399.078281" style="fill: #262626; stroke: #262626; stroke-width: 1.25"/>
      </g>
     </g>
     <g id="text_4">
      <!-- 6 -->
      <g style="fill: #262626" transform="translate(208.675 420.735781) scale(0.16 -0.16)">
       <defs>
        <path id="DejaVuSans-36" d="M 2113 2584 
Q 1688 2584 1439 2293 
Q 1191 2003 1191 1497 
Q 1191 994 1439 701 
Q 1688 409 2113 409 
Q 2538 409 2786 701 
Q 3034 994 3034 1497 
Q 3034 2003 2786 2293 
Q 2538 2584 2113 2584 
z
M 3366 4563 
L 3366 3988 
Q 3128 4100 2886 4159 
Q 2644 4219 2406 4219 
Q 1781 4219 1451 3797 
Q 1122 3375 1075 2522 
Q 1259 2794 1537 2939 
Q 1816 3084 2150 3084 
Q 2853 3084 3261 2657 
Q 3669 2231 3669 1497 
Q 3669 778 3244 343 
Q 2819 -91 2113 -91 
Q 1303 -91 875 529 
Q 447 1150 447 2328 
Q 447 3434 972 4092 
Q 1497 4750 2381 4750 
Q 2619 4750 2861 4703 
Q 3103 4656 3366 4563 
z
" transform="scale(0.015625)"/>
       </defs>
       <use xlink:href="#DejaVuSans-36"/>
      </g>
     </g>
    </g>
    <g id="xtick_5">
     <g id="line2d_9">
      <path d="M 269.565 399.078281 
L 269.565 18.558281 
" clip-path="url(#p4c38f3100e)" style="fill: none; stroke: #cccccc; stroke-linecap: round"/>
     </g>
     <g id="line2d_10">
      <g>
       <use xlink:href="#m668c65de72" x="269.565" y="399.078281" style="fill: #262626; stroke: #262626; stroke-width: 1.25"/>
      </g>
     </g>
     <g id="text_5">
      <!-- 8 -->
      <g style="fill: #262626" transform="translate(264.475 420.735781) scale(0.16 -0.16)">
       <defs>
        <path id="DejaVuSans-38" d="M 2034 2216 
Q 1584 2216 1326 1975 
Q 1069 1734 1069 1313 
Q 1069 891 1326 650 
Q 1584 409 2034 409 
Q 2484 409 2743 651 
Q 3003 894 3003 1313 
Q 3003 1734 2745 1975 
Q 2488 2216 2034 2216 
z
M 1403 2484 
Q 997 2584 770 2862 
Q 544 3141 544 3541 
Q 544 4100 942 4425 
Q 1341 4750 2034 4750 
Q 2731 4750 3128 4425 
Q 3525 4100 3525 3541 
Q 3525 3141 3298 2862 
Q 3072 2584 2669 2484 
Q 3125 2378 3379 2068 
Q 3634 1759 3634 1313 
Q 3634 634 3220 271 
Q 2806 -91 2034 -91 
Q 1263 -91 848 271 
Q 434 634 434 1313 
Q 434 1759 690 2068 
Q 947 2378 1403 2484 
z
M 1172 3481 
Q 1172 3119 1398 2916 
Q 1625 2713 2034 2713 
Q 2441 2713 2670 2916 
Q 2900 3119 2900 3481 
Q 2900 3844 2670 4047 
Q 2441 4250 2034 4250 
Q 1625 4250 1398 4047 
Q 1172 3844 1172 3481 
z
" transform="scale(0.015625)"/>
       </defs>
       <use xlink:href="#DejaVuSans-38"/>
      </g>
     </g>
    </g>
    <g id="xtick_6">
     <g id="line2d_11">
      <path d="M 325.365 399.078281 
L 325.365 18.558281 
" clip-path="url(#p4c38f3100e)" style="fill: none; stroke: #cccccc; stroke-linecap: round"/>
     </g>
     <g id="line2d_12">
      <g>
       <use xlink:href="#m668c65de72" x="325.365" y="399.078281" style="fill: #262626; stroke: #262626; stroke-width: 1.25"/>
      </g>
     </g>
     <g id="text_6">
      <!-- 10 -->
      <g style="fill: #262626" transform="translate(315.185 420.735781) scale(0.16 -0.16)">
       <defs>
        <path id="DejaVuSans-31" d="M 794 531 
L 1825 531 
L 1825 4091 
L 703 3866 
L 703 4441 
L 1819 4666 
L 2450 4666 
L 2450 531 
L 3481 531 
L 3481 0 
L 794 0 
L 794 531 
z
" transform="scale(0.015625)"/>
       </defs>
       <use xlink:href="#DejaVuSans-31"/>
       <use xlink:href="#DejaVuSans-30" x="63.623047"/>
      </g>
     </g>
    </g>
    <g id="xtick_7">
     <g id="line2d_13">
      <path d="M 381.165 399.078281 
L 381.165 18.558281 
" clip-path="url(#p4c38f3100e)" style="fill: none; stroke: #cccccc; stroke-linecap: round"/>
     </g>
     <g id="line2d_14">
      <g>
       <use xlink:href="#m668c65de72" x="381.165" y="399.078281" style="fill: #262626; stroke: #262626; stroke-width: 1.25"/>
      </g>
     </g>
     <g id="text_7">
      <!-- 12 -->
      <g style="fill: #262626" transform="translate(370.985 420.735781) scale(0.16 -0.16)">
       <use xlink:href="#DejaVuSans-31"/>
       <use xlink:href="#DejaVuSans-32" x="63.623047"/>
      </g>
     </g>
    </g>
    <g id="xtick_8">
     <g id="line2d_15">
      <path d="M 436.965 399.078281 
L 436.965 18.558281 
" clip-path="url(#p4c38f3100e)" style="fill: none; stroke: #cccccc; stroke-linecap: round"/>
     </g>
     <g id="line2d_16">
      <g>
       <use xlink:href="#m668c65de72" x="436.965" y="399.078281" style="fill: #262626; stroke: #262626; stroke-width: 1.25"/>
      </g>
     </g>
     <g id="text_8">
      <!-- 14 -->
      <g style="fill: #262626" transform="translate(426.785 420.735781) scale(0.16 -0.16)">
       <use xlink:href="#DejaVuSans-31"/>
       <use xlink:href="#DejaVuSans-34" x="63.623047"/>
      </g>
     </g>
    </g>
    <g id="xtick_9">
     <g id="line2d_17">
      <path d="M 492.765 399.078281 
L 492.765 18.558281 
" clip-path="url(#p4c38f3100e)" style="fill: none; stroke: #cccccc; stroke-linecap: round"/>
     </g>
     <g id="line2d_18">
      <g>
       <use xlink:href="#m668c65de72" x="492.765" y="399.078281" style="fill: #262626; stroke: #262626; stroke-width: 1.25"/>
      </g>
     </g>
     <g id="text_9">
      <!-- 16 -->
      <g style="fill: #262626" transform="translate(482.585 420.735781) scale(0.16 -0.16)">
       <use xlink:href="#DejaVuSans-31"/>
       <use xlink:href="#DejaVuSans-36" x="63.623047"/>
      </g>
     </g>
    </g>
    <g id="text_10">
     <!-- Links -->
     <g style="fill: #262626" transform="translate(249.015 440.220781) scale(0.16 -0.16)">
      <defs>
       <path id="DejaVuSans-4c" d="M 628 4666 
L 1259 4666 
L 1259 531 
L 3531 531 
L 3531 0 
L 628 0 
L 628 4666 
z
" transform="scale(0.015625)"/>
       <path id="DejaVuSans-69" d="M 603 3500 
L 1178 3500 
L 1178 0 
L 603 0 
L 603 3500 
z
M 603 4863 
L 1178 4863 
L 1178 4134 
L 603 4134 
L 603 4863 
z
" transform="scale(0.015625)"/>
       <path id="DejaVuSans-6e" d="M 3513 2113 
L 3513 0 
L 2938 0 
L 2938 2094 
Q 2938 2591 2744 2837 
Q 2550 3084 2163 3084 
Q 1697 3084 1428 2787 
Q 1159 2491 1159 1978 
L 1159 0 
L 581 0 
L 581 3500 
L 1159 3500 
L 1159 2956 
Q 1366 3272 1645 3428 
Q 1925 3584 2291 3584 
Q 2894 3584 3203 3211 
Q 3513 2838 3513 2113 
z
" transform="scale(0.015625)"/>
       <path id="DejaVuSans-6b" d="M 581 4863 
L 1159 4863 
L 1159 1991 
L 2875 3500 
L 3609 3500 
L 1753 1863 
L 3688 0 
L 2938 0 
L 1159 1709 
L 1159 0 
L 581 0 
L 581 4863 
z
" transform="scale(0.015625)"/>
       <path id="DejaVuSans-73" d="M 2834 3397 
L 2834 2853 
Q 2591 2978 2328 3040 
Q 2066 3103 1784 3103 
Q 1356 3103 1142 2972 
Q 928 2841 928 2578 
Q 928 2378 1081 2264 
Q 1234 2150 1697 2047 
L 1894 2003 
Q 2506 1872 2764 1633 
Q 3022 1394 3022 966 
Q 3022 478 2636 193 
Q 2250 -91 1575 -91 
Q 1294 -91 989 -36 
Q 684 19 347 128 
L 347 722 
Q 666 556 975 473 
Q 1284 391 1588 391 
Q 1994 391 2212 530 
Q 2431 669 2431 922 
Q 2431 1156 2273 1281 
Q 2116 1406 1581 1522 
L 1381 1569 
Q 847 1681 609 1914 
Q 372 2147 372 2553 
Q 372 3047 722 3315 
Q 1072 3584 1716 3584 
Q 2034 3584 2315 3537 
Q 2597 3491 2834 3397 
z
" transform="scale(0.015625)"/>
      </defs>
      <use xlink:href="#DejaVuSans-4c"/>
      <use xlink:href="#DejaVuSans-69" x="55.712891"/>
      <use xlink:href="#DejaVuSans-6e" x="83.496094"/>
      <use xlink:href="#DejaVuSans-6b" x="146.875"/>
      <use xlink:href="#DejaVuSans-73" x="204.785156"/>
     </g>
    </g>
    <g id="text_11">
     <!-- 1e3 -->
     <g style="fill: #262626" transform="translate(471.999062 435.421562) scale(0.11 -0.11)">
      <defs>
       <path id="DejaVuSans-65" d="M 3597 1894 
L 3597 1613 
L 953 1613 
Q 991 1019 1311 708 
Q 1631 397 2203 397 
Q 2534 397 2845 478 
Q 3156 559 3463 722 
L 3463 178 
Q 3153 47 2828 -22 
Q 2503 -91 2169 -91 
Q 1331 -91 842 396 
Q 353 884 353 1716 
Q 353 2575 817 3079 
Q 1281 3584 2069 3584 
Q 2775 3584 3186 3129 
Q 3597 2675 3597 1894 
z
M 3022 2063 
Q 3016 2534 2758 2815 
Q 2500 3097 2075 3097 
Q 1594 3097 1305 2825 
Q 1016 2553 972 2059 
L 3022 2063 
z
" transform="scale(0.015625)"/>
       <path id="DejaVuSans-33" d="M 2597 2516 
Q 3050 2419 3304 2112 
Q 3559 1806 3559 1356 
Q 3559 666 3084 287 
Q 2609 -91 1734 -91 
Q 1441 -91 1130 -33 
Q 819 25 488 141 
L 488 750 
Q 750 597 1062 519 
Q 1375 441 1716 441 
Q 2309 441 2620 675 
Q 2931 909 2931 1356 
Q 2931 1769 2642 2001 
Q 2353 2234 1838 2234 
L 1294 2234 
L 1294 2753 
L 1863 2753 
Q 2328 2753 2575 2939 
Q 2822 3125 2822 3475 
Q 2822 3834 2567 4026 
Q 2313 4219 1838 4219 
Q 1578 4219 1281 4162 
Q 984 4106 628 3988 
L 628 4550 
Q 988 4650 1302 4700 
Q 1616 4750 1894 4750 
Q 2613 4750 3031 4423 
Q 3450 4097 3450 3541 
Q 3450 3153 3228 2886 
Q 3006 2619 2597 2516 
z
" transform="scale(0.015625)"/>
      </defs>
      <use xlink:href="#DejaVuSans-31"/>
      <use xlink:href="#DejaVuSans-65" x="63.623047"/>
      <use xlink:href="#DejaVuSans-33" x="125.146484"/>
     </g>
    </g>
   </g>
   <g id="matplotlib.axis_2">
    <g id="ytick_1">
     <g id="line2d_19">
      <path d="M 46.365 389.383139 
L 492.765 389.383139 
" clip-path="url(#p4c38f3100e)" style="fill: none; stroke: #cccccc; stroke-linecap: round"/>
     </g>
     <g id="line2d_20">
      <defs>
       <path id="m288c9c433f" d="M 0 0 
L -6 0 
" style="stroke: #262626; stroke-width: 1.25"/>
      </defs>
      <g>
       <use xlink:href="#m288c9c433f" x="46.365" y="389.383139" style="fill: #262626; stroke: #262626; stroke-width: 1.25"/>
      </g>
     </g>
     <g id="text_12">
      <!-- 0 -->
      <g style="fill: #262626" transform="translate(26.685 395.461889) scale(0.16 -0.16)">
       <use xlink:href="#DejaVuSans-30"/>
      </g>
     </g>
    </g>
    <g id="ytick_2">
     <g id="line2d_21">
      <path d="M 46.365 337.640573 
L 492.765 337.640573 
" clip-path="url(#p4c38f3100e)" style="fill: none; stroke: #cccccc; stroke-linecap: round"/>
     </g>
     <g id="line2d_22">
      <g>
       <use xlink:href="#m288c9c433f" x="46.365" y="337.640573" style="fill: #262626; stroke: #262626; stroke-width: 1.25"/>
      </g>
     </g>
     <g id="text_13">
      <!-- 1 -->
      <g style="fill: #262626" transform="translate(26.685 343.719323) scale(0.16 -0.16)">
       <use xlink:href="#DejaVuSans-31"/>
      </g>
     </g>
    </g>
    <g id="ytick_3">
     <g id="line2d_23">
      <path d="M 46.365 285.898007 
L 492.765 285.898007 
" clip-path="url(#p4c38f3100e)" style="fill: none; stroke: #cccccc; stroke-linecap: round"/>
     </g>
     <g id="line2d_24">
      <g>
       <use xlink:href="#m288c9c433f" x="46.365" y="285.898007" style="fill: #262626; stroke: #262626; stroke-width: 1.25"/>
      </g>
     </g>
     <g id="text_14">
      <!-- 2 -->
      <g style="fill: #262626" transform="translate(26.685 291.976757) scale(0.16 -0.16)">
       <use xlink:href="#DejaVuSans-32"/>
      </g>
     </g>
    </g>
    <g id="ytick_4">
     <g id="line2d_25">
      <path d="M 46.365 234.155441 
L 492.765 234.155441 
" clip-path="url(#p4c38f3100e)" style="fill: none; stroke: #cccccc; stroke-linecap: round"/>
     </g>
     <g id="line2d_26">
      <g>
       <use xlink:href="#m288c9c433f" x="46.365" y="234.155441" style="fill: #262626; stroke: #262626; stroke-width: 1.25"/>
      </g>
     </g>
     <g id="text_15">
      <!-- 3 -->
      <g style="fill: #262626" transform="translate(26.685 240.234191) scale(0.16 -0.16)">
       <use xlink:href="#DejaVuSans-33"/>
      </g>
     </g>
    </g>
    <g id="ytick_5">
     <g id="line2d_27">
      <path d="M 46.365 182.412875 
L 492.765 182.412875 
" clip-path="url(#p4c38f3100e)" style="fill: none; stroke: #cccccc; stroke-linecap: round"/>
     </g>
     <g id="line2d_28">
      <g>
       <use xlink:href="#m288c9c433f" x="46.365" y="182.412875" style="fill: #262626; stroke: #262626; stroke-width: 1.25"/>
      </g>
     </g>
     <g id="text_16">
      <!-- 4 -->
      <g style="fill: #262626" transform="translate(26.685 188.491625) scale(0.16 -0.16)">
       <use xlink:href="#DejaVuSans-34"/>
      </g>
     </g>
    </g>
    <g id="ytick_6">
     <g id="line2d_29">
      <path d="M 46.365 130.67031 
L 492.765 130.67031 
" clip-path="url(#p4c38f3100e)" style="fill: none; stroke: #cccccc; stroke-linecap: round"/>
     </g>
     <g id="line2d_30">
      <g>
       <use xlink:href="#m288c9c433f" x="46.365" y="130.67031" style="fill: #262626; stroke: #262626; stroke-width: 1.25"/>
      </g>
     </g>
     <g id="text_17">
      <!-- 5 -->
      <g style="fill: #262626" transform="translate(26.685 136.74906) scale(0.16 -0.16)">
       <defs>
        <path id="DejaVuSans-35" d="M 691 4666 
L 3169 4666 
L 3169 4134 
L 1269 4134 
L 1269 2991 
Q 1406 3038 1543 3061 
Q 1681 3084 1819 3084 
Q 2600 3084 3056 2656 
Q 3513 2228 3513 1497 
Q 3513 744 3044 326 
Q 2575 -91 1722 -91 
Q 1428 -91 1123 -41 
Q 819 9 494 109 
L 494 744 
Q 775 591 1075 516 
Q 1375 441 1709 441 
Q 2250 441 2565 725 
Q 2881 1009 2881 1497 
Q 2881 1984 2565 2268 
Q 2250 2553 1709 2553 
Q 1456 2553 1204 2497 
Q 953 2441 691 2322 
L 691 4666 
z
" transform="scale(0.015625)"/>
       </defs>
       <use xlink:href="#DejaVuSans-35"/>
      </g>
     </g>
    </g>
    <g id="ytick_7">
     <g id="line2d_31">
      <path d="M 46.365 78.927744 
L 492.765 78.927744 
" clip-path="url(#p4c38f3100e)" style="fill: none; stroke: #cccccc; stroke-linecap: round"/>
     </g>
     <g id="line2d_32">
      <g>
       <use xlink:href="#m288c9c433f" x="46.365" y="78.927744" style="fill: #262626; stroke: #262626; stroke-width: 1.25"/>
      </g>
     </g>
     <g id="text_18">
      <!-- 6 -->
      <g style="fill: #262626" transform="translate(26.685 85.006494) scale(0.16 -0.16)">
       <use xlink:href="#DejaVuSans-36"/>
      </g>
     </g>
    </g>
    <g id="ytick_8">
     <g id="line2d_33">
      <path d="M 46.365 27.185178 
L 492.765 27.185178 
" clip-path="url(#p4c38f3100e)" style="fill: none; stroke: #cccccc; stroke-linecap: round"/>
     </g>
     <g id="line2d_34">
      <g>
       <use xlink:href="#m288c9c433f" x="46.365" y="27.185178" style="fill: #262626; stroke: #262626; stroke-width: 1.25"/>
      </g>
     </g>
     <g id="text_19">
      <!-- 7 -->
      <g style="fill: #262626" transform="translate(26.685 33.263928) scale(0.16 -0.16)">
       <defs>
        <path id="DejaVuSans-37" d="M 525 4666 
L 3525 4666 
L 3525 4397 
L 1831 0 
L 1172 0 
L 2766 4134 
L 525 4134 
L 525 4666 
z
" transform="scale(0.015625)"/>
       </defs>
       <use xlink:href="#DejaVuSans-37"/>
      </g>
     </g>
    </g>
    <g id="text_20">
     <!-- Detected -->
     <g style="fill: #228b22" transform="translate(19.3575 245.495781) rotate(-90) scale(0.16 -0.16)">
      <defs>
       <path id="DejaVuSans-44" d="M 1259 4147 
L 1259 519 
L 2022 519 
Q 2988 519 3436 956 
Q 3884 1394 3884 2338 
Q 3884 3275 3436 3711 
Q 2988 4147 2022 4147 
L 1259 4147 
z
M 628 4666 
L 1925 4666 
Q 3281 4666 3915 4102 
Q 4550 3538 4550 2338 
Q 4550 1131 3912 565 
Q 3275 0 1925 0 
L 628 0 
L 628 4666 
z
" transform="scale(0.015625)"/>
       <path id="DejaVuSans-74" d="M 1172 4494 
L 1172 3500 
L 2356 3500 
L 2356 3053 
L 1172 3053 
L 1172 1153 
Q 1172 725 1289 603 
Q 1406 481 1766 481 
L 2356 481 
L 2356 0 
L 1766 0 
Q 1100 0 847 248 
Q 594 497 594 1153 
L 594 3053 
L 172 3053 
L 172 3500 
L 594 3500 
L 594 4494 
L 1172 4494 
z
" transform="scale(0.015625)"/>
       <path id="DejaVuSans-63" d="M 3122 3366 
L 3122 2828 
Q 2878 2963 2633 3030 
Q 2388 3097 2138 3097 
Q 1578 3097 1268 2742 
Q 959 2388 959 1747 
Q 959 1106 1268 751 
Q 1578 397 2138 397 
Q 2388 397 2633 464 
Q 2878 531 3122 666 
L 3122 134 
Q 2881 22 2623 -34 
Q 2366 -91 2075 -91 
Q 1284 -91 818 406 
Q 353 903 353 1747 
Q 353 2603 823 3093 
Q 1294 3584 2113 3584 
Q 2378 3584 2631 3529 
Q 2884 3475 3122 3366 
z
" transform="scale(0.015625)"/>
       <path id="DejaVuSans-64" d="M 2906 2969 
L 2906 4863 
L 3481 4863 
L 3481 0 
L 2906 0 
L 2906 525 
Q 2725 213 2448 61 
Q 2172 -91 1784 -91 
Q 1150 -91 751 415 
Q 353 922 353 1747 
Q 353 2572 751 3078 
Q 1150 3584 1784 3584 
Q 2172 3584 2448 3432 
Q 2725 3281 2906 2969 
z
M 947 1747 
Q 947 1113 1208 752 
Q 1469 391 1925 391 
Q 2381 391 2643 752 
Q 2906 1113 2906 1747 
Q 2906 2381 2643 2742 
Q 2381 3103 1925 3103 
Q 1469 3103 1208 2742 
Q 947 2381 947 1747 
z
" transform="scale(0.015625)"/>
      </defs>
      <use xlink:href="#DejaVuSans-44"/>
      <use xlink:href="#DejaVuSans-65" x="77.001953"/>
      <use xlink:href="#DejaVuSans-74" x="138.525391"/>
      <use xlink:href="#DejaVuSans-65" x="177.734375"/>
      <use xlink:href="#DejaVuSans-63" x="239.257812"/>
      <use xlink:href="#DejaVuSans-74" x="294.238281"/>
      <use xlink:href="#DejaVuSans-65" x="333.447266"/>
      <use xlink:href="#DejaVuSans-64" x="394.970703"/>
     </g>
    </g>
    <g id="text_21">
     <!-- 1e3 -->
     <g style="fill: #262626" transform="translate(46.365 15.558281) scale(0.11 -0.11)">
      <use xlink:href="#DejaVuSans-31"/>
      <use xlink:href="#DejaVuSans-65" x="63.623047"/>
      <use xlink:href="#DejaVuSans-33" x="125.146484"/>
     </g>
    </g>
   </g>
   <g id="PolyCollection_1">
    <path d="M 48.6249 200.716808 
L 48.6249 36.740478 
L 50.9127 35.854645 
L 53.2005 62.367536 
L 55.4883 88.844103 
L 57.7761 91.013514 
L 60.0639 94.182797 
L 62.3517 113.842696 
L 64.6395 170.81897 
L 66.9273 179.142124 
L 69.2151 181.347962 
L 71.5029 194.06468 
L 73.7907 214.38233 
L 76.0785 225.685442 
L 78.3663 230.471577 
L 80.6541 230.889502 
L 82.9419 244.7666 
L 85.2297 247.933607 
L 87.5175 247.350416 
L 89.8053 253.151482 
L 92.0931 253.19624 
L 94.3809 260.325175 
L 96.6687 270.263215 
L 98.9565 272.823851 
L 101.2443 276.552265 
L 103.5321 277.760298 
L 105.8199 278.800738 
L 108.1077 279.259229 
L 110.3955 282.722514 
L 112.6833 281.465842 
L 114.9711 289.407084 
L 117.2589 289.908004 
L 119.5467 291.170316 
L 121.8345 292.57554 
L 124.1223 295.347545 
L 126.4101 294.562714 
L 128.6979 295.82963 
L 130.9857 298.794065 
L 133.2735 297.567508 
L 135.5613 299.659667 
L 137.8491 298.701446 
L 140.1369 304.151284 
L 142.4247 303.409709 
L 144.7125 306.65402 
L 147.0003 309.808919 
L 149.2881 311.47503 
L 151.5759 313.082878 
L 153.8637 314.412559 
L 156.1515 315.616867 
L 158.4393 317.029129 
L 160.7271 318.168189 
L 163.0149 319.142554 
L 165.3027 321.447789 
L 167.5905 322.916139 
L 169.8783 322.284983 
L 172.1661 323.383167 
L 174.4539 324.058667 
L 176.7417 325.0425 
L 179.0295 325.771035 
L 181.3173 328.849252 
L 183.6051 330.119066 
L 185.8929 331.260559 
L 188.1807 330.679645 
L 190.4685 330.600272 
L 192.7563 333.583645 
L 195.0441 333.710725 
L 197.3319 333.967678 
L 199.6197 336.006077 
L 201.9075 335.161483 
L 204.1953 336.526555 
L 206.4831 338.635013 
L 208.7709 338.119916 
L 211.0587 337.959514 
L 213.3465 338.70471 
L 215.6343 339.424501 
L 217.9221 338.265933 
L 220.2099 339.78939 
L 222.4977 338.924306 
L 224.7855 340.814617 
L 227.0733 341.55169 
L 229.3611 341.213759 
L 231.6489 341.490685 
L 233.9367 342.06627 
L 236.2245 342.391937 
L 238.5123 343.19255 
L 240.8001 342.656497 
L 243.0879 343.860184 
L 245.3757 343.80482 
L 247.6635 344.185024 
L 249.9513 344.340976 
L 252.2391 345.364496 
L 254.5269 347.043516 
L 256.8147 346.68419 
L 259.1025 346.780638 
L 261.3903 346.456678 
L 263.6781 347.647171 
L 265.9659 347.871268 
L 268.2537 348.258509 
L 270.5415 348.149436 
L 272.8293 348.528295 
L 275.1171 348.239779 
L 277.4049 348.365772 
L 279.6927 349.485191 
L 281.9805 350.012686 
L 284.2683 349.12794 
L 286.5561 351.154039 
L 288.8439 351.053436 
L 291.1317 352.160271 
L 293.4195 352.231392 
L 295.7073 351.676882 
L 297.9951 351.980921 
L 300.2829 352.711583 
L 302.5707 352.427237 
L 304.8585 352.609237 
L 307.1463 352.534929 
L 309.4341 353.305495 
L 311.7219 354.246899 
L 314.0097 353.785045 
L 316.2975 354.223423 
L 318.5853 353.641997 
L 320.8731 353.94939 
L 323.1609 354.410499 
L 325.4487 354.157835 
L 327.7365 355.936697 
L 330.0243 354.861989 
L 332.3121 354.465755 
L 334.5999 355.957234 
L 336.8877 355.202103 
L 339.1755 355.973611 
L 341.4633 356.112508 
L 343.7511 356.321279 
L 346.0389 356.759146 
L 348.3267 356.207409 
L 350.6145 356.065516 
L 352.9023 357.114074 
L 355.1901 356.196719 
L 357.4779 356.971911 
L 359.7657 356.958127 
L 362.0535 357.558325 
L 364.3413 357.256412 
L 366.6291 357.499623 
L 368.9169 356.974094 
L 371.2047 358.875365 
L 373.4925 357.89876 
L 375.7803 358.277055 
L 378.0681 358.307966 
L 380.3559 358.222544 
L 382.6437 357.46703 
L 384.9315 358.201288 
L 387.2193 357.406129 
L 389.5071 359.487091 
L 391.7949 358.027454 
L 394.0827 359.269519 
L 396.3705 358.615814 
L 398.6583 359.743176 
L 400.9461 359.581356 
L 403.2339 359.767117 
L 405.5217 359.032067 
L 407.8095 359.703225 
L 410.0973 359.667373 
L 412.3851 360.026259 
L 414.6729 360.453021 
L 416.9607 360.175133 
L 419.2485 360.449208 
L 421.5363 361.372746 
L 423.8241 361.488271 
L 426.1119 362.062552 
L 428.3997 361.548629 
L 430.6875 361.166727 
L 432.9753 361.851452 
L 435.2631 361.687568 
L 437.5509 361.427262 
L 439.8387 361.545674 
L 442.1265 362.981888 
L 444.4143 361.48912 
L 446.7021 361.732646 
L 448.9899 362.06488 
L 451.2777 361.720114 
L 453.5655 361.769373 
L 455.8533 363.126456 
L 458.1411 362.663283 
L 460.4289 362.809875 
L 462.7167 362.924112 
L 465.0045 362.53924 
L 467.2923 361.558827 
L 469.5801 362.321057 
L 471.8679 363.328061 
L 474.1557 363.812925 
L 476.4435 364.631073 
L 478.7313 363.78591 
L 481.0191 363.509776 
L 483.3069 363.33145 
L 485.5947 363.311886 
L 487.8825 363.109355 
L 490.1703 363.375742 
L 492.4581 364.448836 
L 494.7459 363.872646 
L 497.0337 363.626652 
L 499.3215 364.150359 
L 501.6093 364.106517 
L 503.8971 364.196141 
L 506.1849 364.334154 
L 508.4727 364.001816 
L 510.7605 364.263877 
L 513.0483 364.822578 
L 515.3361 365.091856 
L 517.6239 364.321647 
L 519.9117 365.677065 
L 522.1995 365.226951 
L 524.4873 366.155627 
L 526.7751 364.783352 
L 529.0629 365.456579 
L 531.3507 365.636799 
L 533.6385 365.713517 
L 535.9263 365.701363 
L 538.2141 365.768163 
L 540.5019 366.460499 
L 542.7897 365.136748 
L 545.0775 365.731901 
L 547.3653 365.988094 
L 549.6531 365.878245 
L 551.9409 366.74365 
L 554.2287 365.880548 
L 556.5165 366.629682 
L 558.8043 366.451656 
L 561.0921 366.46589 
L 563.3799 366.019745 
L 565.6677 366.88737 
L 567.9555 366.46112 
L 570.2433 366.688606 
L 572.5311 366.109405 
L 574.8189 366.006908 
L 577.1067 366.862006 
L 579.3945 367.789812 
L 581.6823 367.022247 
L 583.9701 367.367349 
L 586.2579 367.618172 
L 588.5457 367.592957 
L 590.8335 367.316538 
L 593.1213 367.25823 
L 595.4091 367.043193 
L 597.6969 367.444984 
L 599.9847 367.719732 
L 602.2725 368.132431 
L 604.5603 367.637368 
L 606.8481 367.930195 
L 609.1359 367.260641 
L 611.4237 367.620102 
L 613.7115 367.273297 
L 615.9993 367.444834 
L 618.2871 367.967325 
L 620.5749 368.482531 
L 622.8627 368.469818 
L 625.1505 368.12292 
L 627.4383 367.811001 
L 629.7261 368.426965 
L 632.0139 368.431554 
L 634.2738 368.081531 
L 636.5616 368.90176 
L 638.8494 368.472876 
L 641.1372 368.823773 
L 643.425 369.005079 
L 645.7128 368.621729 
L 648.0006 369.030961 
L 650.2884 369.143496 
L 652.5762 368.685264 
L 654.864 368.720117 
L 657.1518 368.578638 
L 659.4396 368.08371 
L 661.7274 369.0768 
L 664.0152 368.296615 
L 666.303 369.140593 
L 668.5908 369.263187 
L 670.8786 369.615005 
L 673.1664 368.217707 
L 675.4542 369.325821 
L 677.742 369.629757 
L 680.0298 369.20376 
L 682.3176 368.869348 
L 684.6054 368.850333 
L 686.8932 370.301448 
L 689.181 369.795214 
L 691.4688 369.81631 
L 693.7566 369.497172 
L 696.0444 369.534944 
L 698.3322 370.826619 
L 700.62 369.932932 
L 702.9078 371.053117 
L 705.1956 370.191541 
L 707.4834 369.517646 
L 709.7712 370.130475 
L 712.059 370.710105 
L 714.3468 370.814553 
L 716.6346 369.573295 
L 718.9224 370.064638 
L 721.2102 370.659982 
L 723.498 369.874241 
L 725.7858 370.257751 
L 728.0736 370.285175 
L 730.3614 370.89745 
L 732.6492 371.204309 
L 734.937 370.712884 
L 737.2248 371.328481 
L 739.5126 370.880354 
L 741.8004 370.732169 
L 744.0882 370.903473 
L 746.376 371.628577 
L 748.6638 370.808494 
L 750.9516 371.290807 
L 753.2394 372.258662 
L 755.5272 371.929285 
L 757.815 371.253428 
L 760.1028 371.651137 
L 762.3906 371.157875 
L 764.6784 371.295216 
L 766.9662 371.618394 
L 769.254 372.185824 
L 771.5418 372.024522 
L 773.8296 372.378146 
L 776.1174 371.980142 
L 778.4052 371.167768 
L 780.693 372.063598 
L 782.9808 372.135479 
L 785.2686 371.547766 
L 787.5564 371.855696 
L 789.8442 371.846455 
L 792.132 371.955487 
L 794.4198 371.869801 
L 796.7076 372.425842 
L 798.9954 371.844039 
L 801.2832 372.154297 
L 803.571 371.952962 
L 805.8588 372.550977 
L 808.1466 373.154062 
L 810.4344 372.219343 
L 812.7222 372.089681 
L 815.01 372.74719 
L 817.2978 372.223855 
L 819.5856 372.610149 
L 821.8734 372.176919 
L 824.1612 372.971768 
L 826.449 372.6985 
L 828.7368 372.482821 
L 831.0246 372.589339 
L 833.3124 372.138775 
L 835.6002 372.627706 
L 837.888 373.544889 
L 840.1758 372.233991 
L 842.4636 372.27286 
L 844.7514 373.193728 
L 847.0392 372.522751 
L 849.327 372.628192 
L 851.6148 372.969403 
L 853.9026 372.923099 
L 856.1904 373.176441 
L 858.4782 372.669684 
L 860.766 373.468171 
L 863.0538 373.606453 
L 865.3416 373.371991 
L 867.6294 373.236084 
L 869.9172 374.119584 
L 872.205 373.860684 
L 874.4928 373.258856 
L 876.7806 372.812318 
L 879.0684 374.029691 
L 881.3562 373.693685 
L 883.644 374.230225 
L 885.9318 373.728539 
L 888.2196 373.935256 
L 890.5074 374.328349 
L 892.7952 374.102276 
L 895.083 373.647101 
L 897.3708 373.931401 
L 899.6586 374.218288 
L 901.9464 374.346811 
L 904.2342 374.048086 
L 906.522 373.957505 
L 908.8098 374.335195 
L 911.0976 373.781989 
L 913.3854 373.999965 
L 915.6732 373.587577 
L 917.961 373.5553 
L 920.2488 373.979837 
L 922.5366 374.330409 
L 924.8244 374.136239 
L 927.1122 374.189943 
L 929.4 373.318795 
L 931.6878 374.568347 
L 933.9756 373.879017 
L 936.2634 374.30045 
L 938.5512 374.527863 
L 940.839 374.5003 
L 943.1268 374.337233 
L 945.4146 374.806316 
L 947.7024 374.564802 
L 949.9902 374.207841 
L 952.278 374.202729 
L 954.5658 374.28027 
L 956.8536 374.644677 
L 959.1414 374.462285 
L 961.4292 374.603154 
L 963.717 374.541011 
L 966.0048 374.735693 
L 968.2926 373.856323 
L 970.5804 374.066263 
L 972.8682 373.924928 
L 975.156 374.08502 
L 977.4438 374.41791 
L 979.7316 375.235355 
L 982.0194 374.570282 
L 984.3072 374.750905 
L 986.595 374.640523 
L 988.8828 374.993076 
L 991.1706 374.196147 
L 993.4584 374.688923 
L 995.7462 374.928936 
L 998.034 375.404424 
L 1000.3218 374.669084 
L 1002.6096 375.004878 
L 1004.8974 374.692193 
L 1007.1852 375.505011 
L 1009.473 374.988258 
L 1011.7608 374.638598 
L 1014.0486 374.891717 
L 1016.3364 374.756571 
L 1018.6242 374.647285 
L 1020.912 375.464145 
L 1023.1998 375.160277 
L 1025.4876 374.965999 
L 1027.7754 375.234429 
L 1030.0632 375.920991 
L 1032.351 375.43548 
L 1034.6388 374.708988 
L 1036.9266 375.492272 
L 1039.2144 375.059125 
L 1041.5022 375.873605 
L 1043.79 375.358694 
L 1046.0778 375.162041 
L 1048.3656 375.552408 
L 1050.6534 375.194504 
L 1052.9412 375.511277 
L 1055.229 375.615906 
L 1057.5168 375.713705 
L 1059.8046 374.837206 
L 1062.0924 374.89358 
L 1064.3802 375.874821 
L 1066.668 375.568448 
L 1068.9558 375.180032 
L 1071.2436 375.171613 
L 1073.5314 375.293959 
L 1075.8192 376.04553 
L 1078.107 375.74384 
L 1080.3948 375.964713 
L 1082.6826 376.387833 
L 1084.9704 375.241869 
L 1087.2582 376.387848 
L 1089.546 376.437314 
L 1091.8338 375.531529 
L 1094.1216 375.432639 
L 1096.4094 375.905763 
L 1098.6972 375.687088 
L 1100.985 375.908722 
L 1103.2728 376.437366 
L 1105.5606 376.4853 
L 1107.8484 375.851107 
L 1110.1362 375.61379 
L 1112.424 376.621549 
L 1114.7118 376.253602 
L 1116.9996 376.384847 
L 1119.2874 376.112604 
L 1121.5752 376.988222 
L 1123.863 376.214066 
L 1126.1508 375.954013 
L 1128.4386 376.140198 
L 1130.7264 376.771364 
L 1133.0142 376.601638 
L 1135.302 376.627323 
L 1137.5898 376.828384 
L 1139.8776 376.046083 
L 1142.1654 376.591259 
L 1144.4532 376.690413 
L 1146.741 377.37521 
L 1149.0288 376.823883 
L 1151.3166 376.262704 
L 1153.6044 376.447621 
L 1155.8922 376.9868 
L 1158.18 376.400779 
L 1160.4678 376.00589 
L 1162.7556 376.925205 
L 1165.0434 376.838505 
L 1167.3312 376.747526 
L 1169.619 377.119514 
L 1171.9068 376.733675 
L 1174.1946 376.809178 
L 1176.4824 376.515378 
L 1178.7702 376.442178 
L 1181.058 377.1396 
L 1183.3458 377.039965 
L 1185.6336 377.234595 
L 1187.9214 376.947154 
L 1190.2092 376.781759 
L 1192.497 376.483391 
L 1194.7848 376.312097 
L 1197.0726 376.776683 
L 1199.3604 376.855353 
L 1201.6482 377.363817 
L 1203.936 376.973522 
L 1206.2238 377.336455 
L 1208.5116 377.003455 
L 1210.7994 377.345463 
L 1213.0872 376.924103 
L 1215.375 377.014394 
L 1217.6628 376.817979 
L 1219.9506 376.895308 
L 1219.9506 381.781918 
L 1219.9506 381.781918 
L 1217.6628 381.307361 
L 1215.375 381.460208 
L 1213.0872 381.313311 
L 1210.7994 380.3055 
L 1208.5116 381.156345 
L 1206.2238 380.788885 
L 1203.936 380.789619 
L 1201.6482 380.658038 
L 1199.3604 381.226834 
L 1197.0726 381.094186 
L 1194.7848 381.304406 
L 1192.497 381.154637 
L 1190.2092 380.813219 
L 1187.9214 381.182428 
L 1185.6336 380.688018 
L 1183.3458 381.055157 
L 1181.058 380.571799 
L 1178.7702 380.94583 
L 1176.4824 381.161457 
L 1174.1946 380.997014 
L 1171.9068 381.063927 
L 1169.619 381.005826 
L 1167.3312 380.592982 
L 1165.0434 381.157478 
L 1162.7556 380.436932 
L 1160.4678 380.76545 
L 1158.18 380.758631 
L 1155.8922 380.405452 
L 1153.6044 381.306828 
L 1151.3166 380.500047 
L 1149.0288 380.693482 
L 1146.741 380.413803 
L 1144.4532 380.59411 
L 1142.1654 380.223235 
L 1139.8776 380.919291 
L 1137.5898 380.223297 
L 1135.302 380.320873 
L 1133.0142 380.523311 
L 1130.7264 380.685565 
L 1128.4386 380.872677 
L 1126.1508 380.463822 
L 1123.863 380.27269 
L 1121.5752 379.869424 
L 1119.2874 380.693301 
L 1116.9996 380.649552 
L 1114.7118 380.146951 
L 1112.424 379.852272 
L 1110.1362 380.558268 
L 1107.8484 380.467486 
L 1105.5606 380.061891 
L 1103.2728 380.415935 
L 1100.985 380.530637 
L 1098.6972 380.316806 
L 1096.4094 380.253359 
L 1094.1216 380.523756 
L 1091.8338 380.588786 
L 1089.546 379.471684 
L 1087.2582 380.193804 
L 1084.9704 380.792139 
L 1082.6826 380.142077 
L 1080.3948 379.909825 
L 1078.107 379.60458 
L 1075.8192 379.923801 
L 1073.5314 379.843248 
L 1071.2436 380.487262 
L 1068.9558 380.591021 
L 1066.668 380.146516 
L 1064.3802 380.055703 
L 1062.0924 380.450597 
L 1059.8046 380.222386 
L 1057.5168 379.772764 
L 1055.229 379.965355 
L 1052.9412 379.927692 
L 1050.6534 380.003034 
L 1048.3656 379.882319 
L 1046.0778 380.328671 
L 1043.79 380.110493 
L 1041.5022 379.461879 
L 1039.2144 380.082324 
L 1036.9266 379.368939 
L 1034.6388 380.354847 
L 1032.351 379.693034 
L 1030.0632 379.349815 
L 1027.7754 379.704397 
L 1025.4876 380.115119 
L 1023.1998 379.584514 
L 1020.912 379.371195 
L 1018.6242 380.136313 
L 1016.3364 380.126166 
L 1014.0486 379.590015 
L 1011.7608 379.916505 
L 1009.473 379.631522 
L 1007.1852 379.554581 
L 1004.8974 380.121623 
L 1002.6096 379.528596 
L 1000.3218 380.054182 
L 998.034 378.728046 
L 995.7462 379.095806 
L 993.4584 378.986557 
L 991.1706 379.901862 
L 988.8828 379.182547 
L 986.595 379.375526 
L 984.3072 379.377322 
L 982.0194 379.221618 
L 979.7316 379.259312 
L 977.4438 379.361054 
L 975.156 379.594702 
L 972.8682 379.42716 
L 970.5804 379.044291 
L 968.2926 380.047652 
L 966.0048 379.23296 
L 963.717 379.371552 
L 961.4292 378.848073 
L 959.1414 379.221783 
L 956.8536 378.677193 
L 954.5658 378.912244 
L 952.278 379.890934 
L 949.9902 379.35546 
L 947.7024 378.72685 
L 945.4146 378.584579 
L 943.1268 379.170082 
L 940.839 379.15355 
L 938.5512 378.729329 
L 936.2634 378.73249 
L 933.9756 378.834878 
L 931.6878 378.805266 
L 929.4 379.239873 
L 927.1122 379.062903 
L 924.8244 379.254655 
L 922.5366 378.767209 
L 920.2488 378.863414 
L 917.961 379.016303 
L 915.6732 378.703789 
L 913.3854 378.718277 
L 911.0976 378.79396 
L 908.8098 378.900472 
L 906.522 378.657251 
L 904.2342 378.635592 
L 901.9464 378.242074 
L 899.6586 378.978573 
L 897.3708 378.924786 
L 895.083 379.118536 
L 892.7952 379.038496 
L 890.5074 378.342393 
L 888.2196 378.334481 
L 885.9318 378.110079 
L 883.644 379.014032 
L 881.3562 378.81324 
L 879.0684 377.942526 
L 876.7806 378.823573 
L 874.4928 379.019573 
L 872.205 377.921845 
L 869.9172 378.521044 
L 867.6294 378.283385 
L 865.3416 378.000943 
L 863.0538 378.25369 
L 860.766 378.659274 
L 858.4782 378.522151 
L 856.1904 378.351722 
L 853.9026 377.928064 
L 851.6148 378.114601 
L 849.327 378.119486 
L 847.0392 378.712135 
L 844.7514 377.872994 
L 842.4636 378.694723 
L 840.1758 378.164424 
L 837.888 377.836635 
L 835.6002 377.783645 
L 833.3124 378.009517 
L 831.0246 377.774616 
L 828.7368 377.71297 
L 826.449 378.204406 
L 824.1612 377.409366 
L 821.8734 377.803209 
L 819.5856 377.460529 
L 817.2978 377.661481 
L 815.01 377.025969 
L 812.7222 377.567056 
L 810.4344 377.877206 
L 808.1466 376.86063 
L 805.8588 376.760845 
L 803.571 377.121672 
L 801.2832 376.980772 
L 798.9954 377.312555 
L 796.7076 376.955004 
L 794.4198 377.334189 
L 792.132 376.894998 
L 789.8442 377.202307 
L 787.5564 377.667442 
L 785.2686 377.522625 
L 782.9808 377.417774 
L 780.693 376.713516 
L 778.4052 377.566296 
L 776.1174 377.668006 
L 773.8296 376.636156 
L 771.5418 377.408067 
L 769.254 376.75521 
L 766.9662 376.865546 
L 764.6784 376.800656 
L 762.3906 377.317476 
L 760.1028 376.259289 
L 757.815 377.139963 
L 755.5272 376.218329 
L 753.2394 375.901887 
L 750.9516 376.248832 
L 748.6638 376.91659 
L 746.376 376.350873 
L 744.0882 376.847483 
L 741.8004 376.415055 
L 739.5126 376.516993 
L 737.2248 375.999841 
L 734.937 376.835344 
L 732.6492 375.61528 
L 730.3614 375.986818 
L 728.0736 376.314508 
L 725.7858 376.678259 
L 723.498 376.462383 
L 721.2102 375.870676 
L 718.9224 375.797714 
L 716.6346 375.965665 
L 714.3468 375.552289 
L 712.059 376.113727 
L 709.7712 376.206149 
L 707.4834 376.198067 
L 705.1956 376.162365 
L 702.9078 375.274917 
L 700.62 375.502543 
L 698.3322 375.290099 
L 696.0444 375.788354 
L 693.7566 375.864933 
L 691.4688 375.347517 
L 689.181 375.506559 
L 686.8932 374.655409 
L 684.6054 375.701173 
L 682.3176 375.621825 
L 680.0298 374.920869 
L 677.742 375.378842 
L 675.4542 375.06611 
L 673.1664 375.76463 
L 670.8786 374.677788 
L 668.5908 374.632947 
L 666.303 374.919358 
L 664.0152 375.92291 
L 661.7274 375.125443 
L 659.4396 375.372613 
L 657.1518 375.01563 
L 654.864 374.598156 
L 652.5762 374.999554 
L 650.2884 374.675024 
L 648.0006 374.438297 
L 645.7128 373.898881 
L 643.425 374.91258 
L 641.1372 374.74897 
L 638.8494 374.957575 
L 636.5616 374.300093 
L 634.2738 374.710727 
L 632.0139 374.330486 
L 629.7261 374.645531 
L 627.4383 374.778634 
L 625.1505 374.988383 
L 622.8627 374.516475 
L 620.5749 373.356836 
L 618.2871 374.165215 
L 615.9993 374.420404 
L 613.7115 375.074803 
L 611.4237 374.288187 
L 609.1359 373.716281 
L 606.8481 373.835801 
L 604.5603 373.882851 
L 602.2725 373.607694 
L 599.9847 374.197249 
L 597.6969 373.618245 
L 595.4091 373.683709 
L 593.1213 374.098172 
L 590.8335 373.768215 
L 588.5457 373.724638 
L 586.2579 373.194934 
L 583.9701 373.700122 
L 581.6823 373.484749 
L 579.3945 372.98014 
L 577.1067 373.028322 
L 574.8189 374.120608 
L 572.5311 374.272478 
L 570.2433 373.240529 
L 567.9555 373.545629 
L 565.6677 373.123725 
L 563.3799 373.607627 
L 561.0921 372.980383 
L 558.8043 373.179959 
L 556.5165 372.648429 
L 554.2287 373.34582 
L 551.9409 372.939708 
L 549.6531 373.373994 
L 547.3653 371.992105 
L 545.0775 373.511645 
L 542.7897 373.265981 
L 540.5019 371.696453 
L 538.2141 372.531082 
L 535.9263 372.48146 
L 533.6385 372.227875 
L 531.3507 372.339055 
L 529.0629 372.329586 
L 526.7751 373.015749 
L 524.4873 372.497226 
L 522.1995 372.175491 
L 519.9117 372.290199 
L 517.6239 372.29172 
L 515.3361 372.047527 
L 513.0483 371.954607 
L 510.7605 372.181328 
L 508.4727 372.400235 
L 506.1849 371.050328 
L 503.8971 371.705767 
L 501.6093 371.493524 
L 499.3215 371.428158 
L 497.0337 371.762073 
L 494.7459 371.261712 
L 492.4581 370.250057 
L 490.1703 371.292934 
L 487.8825 371.481706 
L 485.5947 371.296457 
L 483.3069 371.393314 
L 481.0191 370.805291 
L 478.7313 371.607161 
L 476.4435 370.11087 
L 474.1557 370.338325 
L 471.8679 369.956501 
L 469.5801 370.191712 
L 467.2923 370.764151 
L 465.0045 370.331381 
L 462.7167 370.101737 
L 460.4289 370.332395 
L 458.1411 370.198749 
L 455.8533 370.287462 
L 453.5655 370.156946 
L 451.2777 369.56377 
L 448.9899 370.283969 
L 446.7021 369.844411 
L 444.4143 370.087937 
L 442.1265 368.741808 
L 439.8387 370.234007 
L 437.5509 369.787598 
L 435.2631 369.747197 
L 432.9753 369.143501 
L 430.6875 369.43581 
L 428.3997 368.648661 
L 426.1119 369.50157 
L 423.8241 368.993603 
L 421.5363 368.518332 
L 419.2485 368.419954 
L 416.9607 368.922627 
L 414.6729 368.79562 
L 412.3851 368.295363 
L 410.0973 368.701645 
L 407.8095 367.622352 
L 405.5217 368.03904 
L 403.2339 368.037079 
L 400.9461 368.218494 
L 398.6583 368.129942 
L 396.3705 367.187601 
L 394.0827 368.224222 
L 391.7949 368.45296 
L 389.5071 367.083873 
L 387.2193 369.238102 
L 384.9315 367.597883 
L 382.6437 367.823305 
L 380.3559 367.261826 
L 378.0681 367.159122 
L 375.7803 367.030562 
L 373.4925 366.365313 
L 371.2047 366.880654 
L 368.9169 366.876038 
L 366.6291 367.126648 
L 364.3413 366.218587 
L 362.0535 365.972763 
L 359.7657 366.771342 
L 357.4779 367.262048 
L 355.1901 366.06233 
L 352.9023 365.865128 
L 350.6145 365.219117 
L 348.3267 364.831446 
L 346.0389 364.823007 
L 343.7511 365.437626 
L 341.4633 364.969397 
L 339.1755 365.241998 
L 336.8877 366.543867 
L 334.5999 364.546914 
L 332.3121 364.835379 
L 330.0243 365.025595 
L 327.7365 364.248406 
L 325.4487 364.099858 
L 323.1609 363.851437 
L 320.8731 363.946105 
L 318.5853 362.5373 
L 316.2975 362.550913 
L 314.0097 363.666292 
L 311.7219 362.096319 
L 309.4341 362.304634 
L 307.1463 362.907037 
L 304.8585 362.479224 
L 302.5707 361.803125 
L 300.2829 362.22165 
L 297.9951 363.262767 
L 295.7073 362.148129 
L 293.4195 360.472565 
L 291.1317 361.647561 
L 288.8439 361.827273 
L 286.5561 360.50213 
L 284.2683 360.984542 
L 281.9805 360.224909 
L 279.6927 359.795166 
L 277.4049 358.944022 
L 275.1171 359.97551 
L 272.8293 360.135395 
L 270.5415 358.862838 
L 268.2537 359.848948 
L 265.9659 359.429936 
L 263.6781 358.912355 
L 261.3903 358.537636 
L 259.1025 357.842888 
L 256.8147 357.51246 
L 254.5269 356.782243 
L 252.2391 356.771041 
L 249.9513 356.332833 
L 247.6635 356.514657 
L 245.3757 356.27395 
L 243.0879 355.218195 
L 240.8001 356.283937 
L 238.5123 354.855324 
L 236.2245 355.220472 
L 233.9367 354.847615 
L 231.6489 354.5651 
L 229.3611 353.966749 
L 227.0733 353.710675 
L 224.7855 352.904164 
L 222.4977 353.936376 
L 220.2099 352.864322 
L 217.9221 353.840135 
L 215.6343 352.487533 
L 213.3465 352.396725 
L 211.0587 352.581342 
L 208.7709 351.261079 
L 206.4831 351.134051 
L 204.1953 351.496197 
L 201.9075 350.317294 
L 199.6197 350.78779 
L 197.3319 349.820773 
L 195.0441 349.167989 
L 192.7563 348.717207 
L 190.4685 346.759165 
L 188.1807 345.73549 
L 185.8929 345.240883 
L 183.6051 346.468579 
L 181.3173 345.436366 
L 179.0295 344.417607 
L 176.7417 342.330312 
L 174.4539 341.512469 
L 172.1661 341.463572 
L 169.8783 341.031211 
L 167.5905 340.016126 
L 165.3027 338.823873 
L 163.0149 339.020081 
L 160.7271 337.277961 
L 158.4393 337.270406 
L 156.1515 337.190412 
L 153.8637 336.575452 
L 151.5759 333.592907 
L 149.2881 332.364228 
L 147.0003 331.796095 
L 144.7125 327.370708 
L 142.4247 328.006159 
L 140.1369 326.14798 
L 137.8491 322.392815 
L 135.5613 321.968577 
L 133.2735 322.279757 
L 130.9857 321.01491 
L 128.6979 319.809929 
L 126.4101 319.825711 
L 124.1223 316.670035 
L 121.8345 316.958397 
L 119.5467 317.199413 
L 117.2589 316.973609 
L 114.9711 313.977766 
L 112.6833 310.621536 
L 110.3955 309.193079 
L 108.1077 306.887068 
L 105.8199 307.560808 
L 103.5321 306.1828 
L 101.2443 304.169342 
L 98.9565 302.594143 
L 96.6687 301.894997 
L 94.3809 297.301655 
L 92.0931 286.445909 
L 89.8053 286.818714 
L 87.5175 283.71178 
L 85.2297 282.377288 
L 82.9419 280.650483 
L 80.6541 271.364503 
L 78.3663 270.118387 
L 76.0785 267.280773 
L 73.7907 256.722651 
L 71.5029 243.377622 
L 69.2151 233.198255 
L 66.9273 231.997362 
L 64.6395 223.03436 
L 62.3517 186.167212 
L 60.0639 169.145771 
L 57.7761 167.640632 
L 55.4883 168.400575 
L 53.2005 184.890827 
L 50.9127 201.386357 
L 48.6249 200.716808 
z
" clip-path="url(#p4c38f3100e)" style="fill: #808080; fill-opacity: 0.4; stroke: #808080; stroke-opacity: 0.4"/>
   </g>
   <g id="line2d_35">
    <path d="M 48.6249 118.728643 
L 50.9127 118.620501 
L 55.4883 128.622339 
L 57.7761 129.327073 
L 60.0639 131.664284 
L 62.3517 150.004954 
L 64.6395 196.926665 
L 66.9273 205.569743 
L 69.2151 207.273109 
L 71.5029 218.721151 
L 73.7907 235.55249 
L 76.0785 246.483107 
L 78.3663 250.294982 
L 80.6541 251.127003 
L 82.9419 262.708541 
L 85.2297 265.155447 
L 87.5175 265.531098 
L 89.8053 269.985098 
L 92.0931 269.821074 
L 94.3809 278.813415 
L 96.6687 286.079106 
L 98.9565 287.708997 
L 101.2443 290.360803 
L 103.5321 291.971549 
L 105.8199 293.180773 
L 108.1077 293.073149 
L 110.3955 295.957797 
L 112.6833 296.043689 
L 114.9711 301.692425 
L 117.2589 303.440806 
L 119.5467 304.184865 
L 121.8345 304.766968 
L 126.4101 307.194212 
L 128.6979 307.81978 
L 130.9857 309.904488 
L 133.2735 309.923633 
L 135.5613 310.814122 
L 137.8491 310.54713 
L 140.1369 315.149632 
L 142.4247 315.707934 
L 144.7125 317.012364 
L 147.0003 320.802507 
L 149.2881 321.919629 
L 151.5759 323.337893 
L 153.8637 325.494005 
L 156.1515 326.40364 
L 158.4393 327.149768 
L 160.7271 327.723075 
L 163.0149 329.081318 
L 165.3027 330.135831 
L 167.5905 331.466132 
L 169.8783 331.658097 
L 172.1661 332.42337 
L 174.4539 332.785568 
L 176.7417 333.686406 
L 179.0295 335.094321 
L 181.3173 337.142809 
L 183.6051 338.293823 
L 188.1807 338.207568 
L 190.4685 338.679719 
L 192.7563 341.150426 
L 195.0441 341.439357 
L 197.3319 341.894226 
L 199.6197 343.396933 
L 201.9075 342.739389 
L 204.1953 344.011376 
L 206.4831 344.884532 
L 208.7709 344.690497 
L 211.0587 345.270428 
L 213.3465 345.550717 
L 215.6343 345.956017 
L 217.9221 346.053034 
L 220.2099 346.326856 
L 222.4977 346.430341 
L 224.7855 346.85939 
L 227.0733 347.631183 
L 229.3611 347.590254 
L 236.2245 348.806205 
L 238.5123 349.023937 
L 240.8001 349.470217 
L 243.0879 349.53919 
L 245.3757 350.039385 
L 247.6635 350.34984 
L 249.9513 350.336905 
L 254.5269 351.91288 
L 261.3903 352.497157 
L 263.6781 353.279763 
L 268.2537 354.053729 
L 270.5415 353.506137 
L 272.8293 354.331845 
L 275.1171 354.107644 
L 277.4049 353.654897 
L 279.6927 354.640179 
L 281.9805 355.118798 
L 284.2683 355.056241 
L 286.5561 355.828085 
L 288.8439 356.440354 
L 291.1317 356.903916 
L 293.4195 356.351978 
L 295.7073 356.912505 
L 297.9951 357.621844 
L 300.2829 357.466616 
L 302.5707 357.115181 
L 304.8585 357.54423 
L 311.7219 358.171609 
L 314.0097 358.725668 
L 318.5853 358.089649 
L 320.8731 358.947747 
L 323.1609 359.130968 
L 325.4487 359.128846 
L 327.7365 360.092552 
L 330.0243 359.943792 
L 332.3121 359.650567 
L 336.8877 360.872985 
L 339.1755 360.607804 
L 341.4633 360.540953 
L 343.7511 360.879453 
L 346.0389 360.791076 
L 348.3267 360.519428 
L 350.6145 360.642316 
L 352.9023 361.489601 
L 355.1901 361.129524 
L 357.4779 362.11698 
L 359.7657 361.864735 
L 364.3413 361.7375 
L 366.6291 362.313136 
L 368.9169 361.925066 
L 371.2047 362.878009 
L 373.4925 362.132037 
L 375.7803 362.653809 
L 380.3559 362.742185 
L 382.6437 362.645168 
L 384.9315 362.899586 
L 387.2193 363.322116 
L 391.7949 363.240207 
L 394.0827 363.74687 
L 396.3705 362.901707 
L 398.6583 363.936559 
L 403.2339 363.902098 
L 405.5217 363.535554 
L 407.8095 363.662789 
L 410.0973 364.184509 
L 412.3851 364.160811 
L 414.6729 364.624321 
L 419.2485 364.434581 
L 421.5363 364.945539 
L 423.8241 365.240937 
L 426.1119 365.782061 
L 428.3997 365.098645 
L 435.2631 365.717383 
L 437.5509 365.60743 
L 439.8387 365.88984 
L 446.7021 365.788529 
L 448.9899 366.174425 
L 451.2777 365.641942 
L 453.5655 365.96316 
L 455.8533 366.706959 
L 458.1411 366.431016 
L 460.4289 366.571135 
L 465.0045 366.435311 
L 467.2923 366.161489 
L 469.5801 366.256385 
L 478.7313 367.696536 
L 481.0191 367.157533 
L 483.3069 367.362382 
L 487.8825 367.295531 
L 492.4581 367.349447 
L 497.0337 367.694362 
L 503.8971 367.950954 
L 506.1849 367.692241 
L 508.4727 368.201026 
L 510.7605 368.222602 
L 515.3361 368.569691 
L 517.6239 368.306684 
L 519.9117 368.983632 
L 522.1995 368.701221 
L 524.4873 369.326426 
L 526.7751 368.89955 
L 533.6385 368.970696 
L 538.2141 369.149622 
L 540.5019 369.078476 
L 542.7897 369.201365 
L 545.0775 369.621773 
L 547.3653 368.9901 
L 549.6531 369.626119 
L 551.9409 369.841679 
L 554.2287 369.613184 
L 556.5165 369.639055 
L 558.8043 369.815808 
L 561.0921 369.723137 
L 565.575 369.997774 
L 565.575 369.997774 
" clip-path="url(#p4c38f3100e)" style="fill: none; stroke: #228b22; stroke-width: 2; stroke-linecap: round"/>
   </g>
   <g id="patch_3">
    <path d="M 46.365 399.078281 
L 46.365 18.558281 
" style="fill: none; stroke: #262626; stroke-width: 1.25; stroke-linejoin: miter; stroke-linecap: square"/>
   </g>
   <g id="patch_4">
    <path d="M 492.765 399.078281 
L 492.765 18.558281 
" style="fill: none; stroke: #262626; stroke-width: 1.25; stroke-linejoin: miter; stroke-linecap: square"/>
   </g>
   <g id="patch_5">
    <path d="M 46.365 399.078281 
L 492.765 399.078281 
" style="fill: none; stroke: #262626; stroke-width: 1.25; stroke-linejoin: miter; stroke-linecap: square"/>
   </g>
   <g id="patch_6">
    <path d="M 46.365 18.558281 
L 492.765 18.558281 
" style="fill: none; stroke: #262626; stroke-width: 1.25; stroke-linejoin: miter; stroke-linecap: square"/>
   </g>
  </g>
  <g id="axes_2">
   <g id="matplotlib.axis_3">
    <g id="ytick_9">
     <g id="line2d_36">
      <defs>
       <path id="m8bd46b4258" d="M 0 0 
L 6 0 
" style="stroke: #262626; stroke-width: 1.25"/>
      </defs>
      <g>
       <use xlink:href="#m8bd46b4258" x="492.765" y="368.01721" style="fill: #262626; stroke: #262626; stroke-width: 1.25"/>
      </g>
     </g>
     <g id="text_22">
      <!-- 15.0 -->
      <g style="fill: #262626" transform="translate(502.265 374.09596) scale(0.16 -0.16)">
       <defs>
        <path id="DejaVuSans-2e" d="M 684 794 
L 1344 794 
L 1344 0 
L 684 0 
L 684 794 
z
" transform="scale(0.015625)"/>
       </defs>
       <use xlink:href="#DejaVuSans-31"/>
       <use xlink:href="#DejaVuSans-35" x="63.623047"/>
       <use xlink:href="#DejaVuSans-2e" x="127.246094"/>
       <use xlink:href="#DejaVuSans-30" x="159.033203"/>
      </g>
     </g>
    </g>
    <g id="ytick_10">
     <g id="line2d_37">
      <g>
       <use xlink:href="#m8bd46b4258" x="492.765" y="315.589816" style="fill: #262626; stroke: #262626; stroke-width: 1.25"/>
      </g>
     </g>
     <g id="text_23">
      <!-- 17.5 -->
      <g style="fill: #262626" transform="translate(502.265 321.668566) scale(0.16 -0.16)">
       <use xlink:href="#DejaVuSans-31"/>
       <use xlink:href="#DejaVuSans-37" x="63.623047"/>
       <use xlink:href="#DejaVuSans-2e" x="127.246094"/>
       <use xlink:href="#DejaVuSans-35" x="159.033203"/>
      </g>
     </g>
    </g>
    <g id="ytick_11">
     <g id="line2d_38">
      <g>
       <use xlink:href="#m8bd46b4258" x="492.765" y="263.162421" style="fill: #262626; stroke: #262626; stroke-width: 1.25"/>
      </g>
     </g>
     <g id="text_24">
      <!-- 20.0 -->
      <g style="fill: #262626" transform="translate(502.265 269.241171) scale(0.16 -0.16)">
       <use xlink:href="#DejaVuSans-32"/>
       <use xlink:href="#DejaVuSans-30" x="63.623047"/>
       <use xlink:href="#DejaVuSans-2e" x="127.246094"/>
       <use xlink:href="#DejaVuSans-30" x="159.033203"/>
      </g>
     </g>
    </g>
    <g id="ytick_12">
     <g id="line2d_39">
      <g>
       <use xlink:href="#m8bd46b4258" x="492.765" y="210.735027" style="fill: #262626; stroke: #262626; stroke-width: 1.25"/>
      </g>
     </g>
     <g id="text_25">
      <!-- 22.5 -->
      <g style="fill: #262626" transform="translate(502.265 216.813777) scale(0.16 -0.16)">
       <use xlink:href="#DejaVuSans-32"/>
       <use xlink:href="#DejaVuSans-32" x="63.623047"/>
       <use xlink:href="#DejaVuSans-2e" x="127.246094"/>
       <use xlink:href="#DejaVuSans-35" x="159.033203"/>
      </g>
     </g>
    </g>
    <g id="ytick_13">
     <g id="line2d_40">
      <g>
       <use xlink:href="#m8bd46b4258" x="492.765" y="158.307632" style="fill: #262626; stroke: #262626; stroke-width: 1.25"/>
      </g>
     </g>
     <g id="text_26">
      <!-- 25.0 -->
      <g style="fill: #262626" transform="translate(502.265 164.386382) scale(0.16 -0.16)">
       <use xlink:href="#DejaVuSans-32"/>
       <use xlink:href="#DejaVuSans-35" x="63.623047"/>
       <use xlink:href="#DejaVuSans-2e" x="127.246094"/>
       <use xlink:href="#DejaVuSans-30" x="159.033203"/>
      </g>
     </g>
    </g>
    <g id="ytick_14">
     <g id="line2d_41">
      <g>
       <use xlink:href="#m8bd46b4258" x="492.765" y="105.880238" style="fill: #262626; stroke: #262626; stroke-width: 1.25"/>
      </g>
     </g>
     <g id="text_27">
      <!-- 27.5 -->
      <g style="fill: #262626" transform="translate(502.265 111.958988) scale(0.16 -0.16)">
       <use xlink:href="#DejaVuSans-32"/>
       <use xlink:href="#DejaVuSans-37" x="63.623047"/>
       <use xlink:href="#DejaVuSans-2e" x="127.246094"/>
       <use xlink:href="#DejaVuSans-35" x="159.033203"/>
      </g>
     </g>
    </g>
    <g id="ytick_15">
     <g id="line2d_42">
      <g>
       <use xlink:href="#m8bd46b4258" x="492.765" y="53.452844" style="fill: #262626; stroke: #262626; stroke-width: 1.25"/>
      </g>
     </g>
     <g id="text_28">
      <!-- 30.0 -->
      <g style="fill: #262626" transform="translate(502.265 59.531594) scale(0.16 -0.16)">
       <use xlink:href="#DejaVuSans-33"/>
       <use xlink:href="#DejaVuSans-30" x="63.623047"/>
       <use xlink:href="#DejaVuSans-2e" x="127.246094"/>
       <use xlink:href="#DejaVuSans-30" x="159.033203"/>
      </g>
     </g>
    </g>
    <g id="text_29">
     <!-- Time -->
     <g style="fill: #000080" transform="translate(554.0475 228.392031) rotate(-90) scale(0.16 -0.16)">
      <defs>
       <path id="DejaVuSans-54" d="M -19 4666 
L 3928 4666 
L 3928 4134 
L 2272 4134 
L 2272 0 
L 1638 0 
L 1638 4134 
L -19 4134 
L -19 4666 
z
" transform="scale(0.015625)"/>
       <path id="DejaVuSans-6d" d="M 3328 2828 
Q 3544 3216 3844 3400 
Q 4144 3584 4550 3584 
Q 5097 3584 5394 3201 
Q 5691 2819 5691 2113 
L 5691 0 
L 5113 0 
L 5113 2094 
Q 5113 2597 4934 2840 
Q 4756 3084 4391 3084 
Q 3944 3084 3684 2787 
Q 3425 2491 3425 1978 
L 3425 0 
L 2847 0 
L 2847 2094 
Q 2847 2600 2669 2842 
Q 2491 3084 2119 3084 
Q 1678 3084 1418 2786 
Q 1159 2488 1159 1978 
L 1159 0 
L 581 0 
L 581 3500 
L 1159 3500 
L 1159 2956 
Q 1356 3278 1631 3431 
Q 1906 3584 2284 3584 
Q 2666 3584 2933 3390 
Q 3200 3197 3328 2828 
z
" transform="scale(0.015625)"/>
      </defs>
      <use xlink:href="#DejaVuSans-54"/>
      <use xlink:href="#DejaVuSans-69" x="57.958984"/>
      <use xlink:href="#DejaVuSans-6d" x="85.742188"/>
      <use xlink:href="#DejaVuSans-65" x="183.154297"/>
     </g>
    </g>
   </g>
   <g id="PolyCollection_2">
    <path d="M 50.9127 381.781918 
L 50.9127 279.105172 
L 55.4883 289.721091 
L 60.0639 294.618858 
L 64.6116 277.339628 
L 69.1872 267.545561 
L 73.7628 259.918214 
L 78.3105 251.223382 
L 82.8861 243.378629 
L 87.4617 243.474047 
L 92.0094 232.634369 
L 96.585 223.494596 
L 101.1606 219.692142 
L 105.7083 225.607001 
L 110.2839 212.975983 
L 114.8595 207.733244 
L 119.4072 209.491239 
L 123.9828 206.679453 
L 128.5584 206.679453 
L 133.1061 201.713111 
L 137.6817 205.443844 
L 142.2573 192.626814 
L 146.805 186.79542 
L 151.3806 185.708495 
L 155.9562 187.46756 
L 160.5039 180.561174 
L 165.0795 176.791435 
L 169.6551 168.864413 
L 174.2028 168.864413 
L 178.7784 166.486516 
L 183.354 162.74882 
L 187.9017 161.170378 
L 192.4773 153.993277 
L 197.0529 148.080935 
L 201.6006 142.342442 
L 206.1762 145.515558 
L 210.7518 141.719814 
L 215.2995 138.312663 
L 219.8751 136.08387 
L 224.4507 138.523841 
L 228.9984 133.022319 
L 233.574 128.212001 
L 238.1496 129.092152 
L 242.6973 133.65019 
L 247.2729 128.656376 
L 251.8485 123.882547 
L 256.3962 124.5446 
L 260.9718 122.795622 
L 265.5474 110.342019 
L 270.0951 120.870279 
L 274.6707 109.570917 
L 279.2463 112.236745 
L 283.8219 109.632781 
L 288.3696 107.685418 
L 292.9452 102.878455 
L 297.5208 107.162822 
L 302.0685 105.831795 
L 306.6441 103.573642 
L 311.2197 99.777899 
L 315.7674 101.824664 
L 320.343 91.664026 
L 324.9186 96.677343 
L 329.4663 91.03972 
L 334.0419 87.150237 
L 338.6175 98.176368 
L 343.1652 89.685626 
L 347.7408 76.899842 
L 352.3164 80.554241 
L 356.8641 79.311293 
L 361.4397 79.429569 
L 366.0153 79.737842 
L 370.563 74.659934 
L 375.1386 80.780308 
L 379.7142 74.682583 
L 384.2619 77.286547 
L 388.8375 82.612772 
L 393.4131 65.450328 
L 397.9608 63.157364 
L 402.5364 69.686252 
L 407.112 68.321462 
L 411.6597 68.714668 
L 416.2353 62.409959 
L 420.8109 57.143522 
L 425.3586 54.813649 
L 429.9342 57.957405 
L 434.5098 57.143522 
L 439.0575 57.835983 
L 443.6331 55.726934 
L 448.2087 54.916407 
L 452.7564 61.982864 
L 457.332 57.835983 
L 461.9076 51.92448 
L 466.4553 51.764262 
L 471.0309 58.148052 
L 475.6065 45.83011 
L 480.1542 42.106087 
L 484.7298 41.382589 
L 489.3054 40.449591 
L 493.8531 35.854645 
L 498.4287 39.998716 
L 503.0043 38.069597 
L 507.552 43.038666 
L 512.1276 42.68195 
L 516.7032 38.229816 
L 521.2788 37.258231 
L 525.8265 38.911791 
L 530.4021 36.865026 
L 534.9777 38.229816 
L 539.5254 40.506234 
L 544.101 40.506234 
L 548.6766 41.011907 
L 553.2243 37.258231 
L 557.7999 40.534209 
L 562.3755 40.78779 
L 566.9232 43.607587 
L 571.4988 41.317873 
L 576.0744 36.923073 
L 580.6221 45.946226 
L 585.1977 45.946226 
L 589.7733 45.946226 
L 594.321 45.946226 
L 598.8966 45.946226 
L 603.4722 45.946226 
L 608.0199 43.607587 
L 612.5955 45.946226 
L 617.1711 43.607587 
L 621.7188 45.946226 
L 626.2944 45.946226 
L 630.87 45.946226 
L 635.4177 45.946226 
L 639.9933 45.946226 
L 644.5689 45.946226 
L 649.1166 45.946226 
L 653.6922 53.452844 
L 658.2678 53.452844 
L 662.8155 53.452844 
L 667.3911 53.452844 
L 671.9667 53.452844 
L 676.5144 45.946226 
L 681.09 53.452844 
L 685.6656 45.946226 
L 690.2133 53.452844 
L 694.7889 53.452844 
L 699.3645 53.452844 
L 703.9122 53.452844 
L 708.4878 53.452844 
L 713.0634 53.452844 
L 717.6111 53.452844 
L 722.1867 53.452844 
L 726.7623 53.452844 
L 731.31 53.452844 
L 735.8856 53.452844 
L 740.4612 53.452844 
L 745.0089 53.452844 
L 749.5845 53.452844 
L 754.1601 53.452844 
L 758.7357 53.452844 
L 763.2834 53.452844 
L 767.859 53.452844 
L 772.4346 53.452844 
L 776.9823 53.452844 
L 781.5579 53.452844 
L 786.1335 53.452844 
L 790.6812 53.452844 
L 795.2568 53.452844 
L 799.8324 53.452844 
L 804.3801 53.452844 
L 808.9557 53.452844 
L 813.5313 53.452844 
L 818.079 53.452844 
L 822.6546 53.452844 
L 827.2302 53.452844 
L 831.7779 53.452844 
L 836.3535 53.452844 
L 840.9291 53.452844 
L 845.4768 53.452844 
L 850.0524 53.452844 
L 854.628 53.452844 
L 859.1757 53.452844 
L 863.7513 53.452844 
L 868.3269 53.452844 
L 872.8746 53.452844 
L 877.4502 53.452844 
L 882.0258 53.452844 
L 886.5735 53.452844 
L 891.1491 53.452844 
L 895.7247 53.452844 
L 900.2724 53.452844 
L 904.848 53.452844 
L 909.4236 53.452844 
L 913.9713 53.452844 
L 918.5469 53.452844 
L 923.1225 53.452844 
L 927.6702 53.452844 
L 932.2458 53.452844 
L 936.8214 53.452844 
L 941.3691 53.452844 
L 945.9447 53.452844 
L 950.5203 53.452844 
L 955.068 53.452844 
L 959.6436 53.452844 
L 964.2192 53.452844 
L 968.7669 53.452844 
L 973.3425 53.452844 
L 977.9181 53.452844 
L 982.4658 53.452844 
L 987.0414 53.452844 
L 991.617 53.452844 
L 996.1926 53.452844 
L 1000.7403 53.452844 
L 1005.3159 53.452844 
L 1009.8915 53.452844 
L 1014.4392 53.452844 
L 1019.0148 53.452844 
L 1023.5904 53.452844 
L 1028.1381 53.452844 
L 1032.7137 53.452844 
L 1037.2893 53.452844 
L 1041.837 53.452844 
L 1046.4126 53.452844 
L 1050.9882 53.452844 
L 1055.5359 53.452844 
L 1060.1115 53.452844 
L 1064.6871 53.452844 
L 1069.2348 53.452844 
L 1073.8104 53.452844 
L 1078.386 53.452844 
L 1082.9337 53.452844 
L 1087.5093 53.452844 
L 1092.0849 53.452844 
L 1096.6326 53.452844 
L 1101.2082 53.452844 
L 1105.7838 53.452844 
L 1110.3315 53.452844 
L 1114.9071 53.452844 
L 1119.4827 53.452844 
L 1124.0304 53.452844 
L 1128.606 53.452844 
L 1133.1816 53.452844 
L 1137.7293 53.452844 
L 1142.3049 53.452844 
L 1146.8805 53.452844 
L 1151.4282 53.452844 
L 1156.0038 53.452844 
L 1160.5794 53.452844 
L 1165.1271 53.452844 
L 1169.7027 53.452844 
L 1174.2783 53.452844 
L 1178.826 53.452844 
L 1183.4016 53.452844 
L 1187.9772 53.452844 
L 1192.5249 53.452844 
L 1197.1005 53.452844 
L 1201.6761 53.452844 
L 1206.2238 53.452844 
L 1210.7994 53.452844 
L 1215.375 53.452844 
L 1219.9506 53.452844 
L 1219.9506 53.452844 
L 1219.9506 53.452844 
L 1215.375 53.452844 
L 1210.7994 53.452844 
L 1206.2238 53.452844 
L 1201.6761 53.452844 
L 1197.1005 53.452844 
L 1192.5249 53.452844 
L 1187.9772 53.452844 
L 1183.4016 53.452844 
L 1178.826 53.452844 
L 1174.2783 53.452844 
L 1169.7027 53.452844 
L 1165.1271 53.452844 
L 1160.5794 53.452844 
L 1156.0038 53.452844 
L 1151.4282 53.452844 
L 1146.8805 53.452844 
L 1142.3049 53.452844 
L 1137.7293 53.452844 
L 1133.1816 53.452844 
L 1128.606 53.452844 
L 1124.0304 53.452844 
L 1119.4827 53.452844 
L 1114.9071 53.452844 
L 1110.3315 53.452844 
L 1105.7838 53.452844 
L 1101.2082 53.452844 
L 1096.6326 53.452844 
L 1092.0849 53.452844 
L 1087.5093 53.452844 
L 1082.9337 53.452844 
L 1078.386 53.452844 
L 1073.8104 53.452844 
L 1069.2348 53.452844 
L 1064.6871 53.452844 
L 1060.1115 53.452844 
L 1055.5359 53.452844 
L 1050.9882 53.452844 
L 1046.4126 53.452844 
L 1041.837 53.452844 
L 1037.2893 53.452844 
L 1032.7137 53.452844 
L 1028.1381 53.452844 
L 1023.5904 53.452844 
L 1019.0148 53.452844 
L 1014.4392 53.452844 
L 1009.8915 53.452844 
L 1005.3159 53.452844 
L 1000.7403 53.452844 
L 996.1926 53.452844 
L 991.617 53.452844 
L 987.0414 53.452844 
L 982.4658 53.452844 
L 977.9181 53.452844 
L 973.3425 53.452844 
L 968.7669 53.452844 
L 964.2192 53.452844 
L 959.6436 53.452844 
L 955.068 53.452844 
L 950.5203 53.452844 
L 945.9447 53.452844 
L 941.3691 53.452844 
L 936.8214 53.452844 
L 932.2458 53.452844 
L 927.6702 53.452844 
L 923.1225 53.452844 
L 918.5469 53.452844 
L 913.9713 53.452844 
L 909.4236 53.452844 
L 904.848 53.452844 
L 900.2724 53.452844 
L 895.7247 53.452844 
L 891.1491 53.452844 
L 886.5735 53.452844 
L 882.0258 53.452844 
L 877.4502 53.452844 
L 872.8746 53.452844 
L 868.3269 53.452844 
L 863.7513 53.452844 
L 859.1757 53.452844 
L 854.628 53.452844 
L 850.0524 53.452844 
L 845.4768 53.452844 
L 840.9291 53.452844 
L 836.3535 53.452844 
L 831.7779 53.452844 
L 827.2302 53.452844 
L 822.6546 53.452844 
L 818.079 53.452844 
L 813.5313 53.452844 
L 808.9557 53.452844 
L 804.3801 53.452844 
L 799.8324 53.452844 
L 795.2568 53.452844 
L 790.6812 53.452844 
L 786.1335 53.452844 
L 781.5579 53.452844 
L 776.9823 53.452844 
L 772.4346 53.452844 
L 767.859 53.452844 
L 763.2834 53.452844 
L 758.7357 53.452844 
L 754.1601 53.452844 
L 749.5845 53.452844 
L 745.0089 53.452844 
L 740.4612 53.452844 
L 735.8856 53.452844 
L 731.31 53.452844 
L 726.7623 53.452844 
L 722.1867 53.452844 
L 717.6111 53.452844 
L 713.0634 53.452844 
L 708.4878 53.452844 
L 703.9122 53.452844 
L 699.3645 53.452844 
L 694.7889 53.452844 
L 690.2133 53.452844 
L 685.6656 62.708439 
L 681.09 53.452844 
L 676.5144 62.708439 
L 671.9667 53.452844 
L 667.3911 53.452844 
L 662.8155 53.452844 
L 658.2678 53.452844 
L 653.6922 53.452844 
L 649.1166 62.708439 
L 644.5689 62.708439 
L 639.9933 62.708439 
L 635.4177 62.708439 
L 630.87 62.708439 
L 626.2944 62.708439 
L 621.7188 62.708439 
L 617.1711 66.791862 
L 612.5955 62.708439 
L 608.0199 66.791862 
L 603.4722 62.708439 
L 598.8966 62.708439 
L 594.321 62.708439 
L 589.7733 62.708439 
L 585.1977 62.708439 
L 580.6221 62.708439 
L 576.0744 78.719115 
L 571.4988 72.579531 
L 566.9232 66.791862 
L 562.3755 74.854398 
L 557.7999 76.856957 
L 553.2243 83.626696 
L 548.6766 81.621999 
L 544.101 78.63391 
L 539.5254 78.63391 
L 534.9777 86.153068 
L 530.4021 91.011619 
L 525.8265 87.215876 
L 521.2788 83.626696 
L 516.7032 86.153068 
L 512.1276 93.931196 
L 507.552 97.072436 
L 503.0043 102.041504 
L 498.4287 93.120668 
L 493.8531 104.256457 
L 489.3054 99.66151 
L 484.7298 102.222274 
L 480.1542 99.749798 
L 475.6065 99.523731 
L 471.0309 97.691268 
L 466.4553 104.075058 
L 461.9076 107.408601 
L 457.332 111.982577 
L 452.7564 102.592956 
L 448.2087 106.165653 
L 443.6331 108.848887 
L 439.0575 111.982577 
L 434.5098 119.666755 
L 429.9342 103.124654 
L 425.3586 118.498673 
L 420.8109 119.666755 
L 416.2353 117.89408 
L 411.6597 115.083133 
L 407.112 122.468056 
L 402.5364 117.609504 
L 397.9608 129.381132 
L 393.4131 127.088168 
L 388.8375 122.155987 
L 384.2619 130.980168 
L 379.7142 133.584131 
L 375.1386 134.473929 
L 370.563 142.343281 
L 366.0153 133.771612 
L 361.4397 141.067408 
L 356.8641 137.691923 
L 352.3164 138.197952 
L 347.7408 140.103373 
L 343.1652 136.054091 
L 338.6175 136.304044 
L 334.0419 143.832219 
L 329.4663 148.683431 
L 324.9186 143.045808 
L 320.343 153.301865 
L 315.7674 150.128749 
L 311.2197 153.924492 
L 306.6441 151.877727 
L 302.0685 153.113336 
L 297.5208 153.531287 
L 292.9452 159.560437 
L 288.3696 159.996214 
L 283.8219 168.53433 
L 279.2463 165.930366 
L 274.6707 172.09415 
L 270.0951 166.037527 
L 265.5474 176.565787 
L 260.9718 171.099707 
L 256.3962 172.848685 
L 251.8485 177.004499 
L 247.2729 180.967172 
L 242.6973 177.722335 
L 238.1496 185.774135 
L 233.574 191.897025 
L 228.9984 188.835685 
L 224.4507 186.827925 
L 219.8751 192.765852 
L 215.2995 197.524582 
L 210.7518 195.866408 
L 206.1762 193.819643 
L 201.6006 203.980281 
L 197.0529 206.982484 
L 192.4773 209.806642 
L 187.9017 214.863999 
L 183.354 204.544861 
L 178.7784 214.7906 
L 174.2028 222.898182 
L 169.6551 222.898182 
L 165.0795 221.958683 
L 160.5039 226.929639 
L 155.9562 227.010776 
L 151.3806 234.01258 
L 146.805 239.917373 
L 142.2573 246.320435 
L 137.6817 252.725385 
L 133.1061 252.962357 
L 128.5584 254.983538 
L 123.9828 254.983538 
L 119.4072 257.414491 
L 114.8595 264.415226 
L 110.2839 269.657966 
L 105.7083 269.261405 
L 101.1606 275.176264 
L 96.585 276.616549 
L 92.0094 288.447734 
L 87.4617 289.842513 
L 82.8861 291.682714 
L 78.3105 292.578656 
L 73.7628 308.348544 
L 69.1872 321.692155 
L 64.6116 327.626307 
L 60.0639 336.560773 
L 55.4883 353.692997 
L 50.9127 381.781918 
z
" clip-path="url(#p4c38f3100e)" style="fill: #808080; fill-opacity: 0.4; stroke: #808080; stroke-opacity: 0.4"/>
   </g>
   <g id="line2d_43">
    <path d="M 50.9127 330.443545 
L 55.4883 321.707044 
L 60.0639 315.589816 
L 64.6116 302.482967 
L 69.1872 294.618858 
L 73.7628 284.133379 
L 78.3105 271.901019 
L 82.8861 267.530672 
L 87.4617 266.65828 
L 92.0094 260.541051 
L 96.585 250.055573 
L 101.1606 247.434203 
L 105.7083 247.434203 
L 110.2839 241.316975 
L 114.8595 236.074235 
L 123.9828 230.831496 
L 128.5584 230.831496 
L 133.1061 227.337734 
L 137.6817 229.084615 
L 142.2573 219.473625 
L 146.805 213.356397 
L 151.3806 209.860538 
L 155.9562 207.239168 
L 160.5039 203.745407 
L 165.0795 199.375059 
L 169.6551 195.881297 
L 174.2028 195.881297 
L 178.7784 190.638558 
L 183.354 183.646841 
L 187.9017 188.017188 
L 192.4773 181.89996 
L 201.6006 173.161362 
L 206.1762 169.6676 
L 215.2995 167.918622 
L 219.8751 164.424861 
L 228.9984 160.929002 
L 233.574 160.054513 
L 238.1496 157.433143 
L 242.6973 155.686263 
L 247.2729 154.811774 
L 251.8485 150.443523 
L 260.9718 146.947665 
L 265.5474 143.453903 
L 270.0951 143.453903 
L 274.6707 140.832533 
L 279.2463 139.083555 
L 283.8219 139.083555 
L 288.3696 133.840816 
L 292.9452 131.219446 
L 302.0685 129.472565 
L 306.6441 127.725685 
L 315.7674 125.976707 
L 320.343 122.482945 
L 324.9186 119.861575 
L 329.4663 119.861575 
L 334.0419 115.491228 
L 338.6175 117.240206 
L 347.7408 108.501608 
L 352.3164 109.376097 
L 356.8641 108.501608 
L 361.4397 110.248488 
L 366.0153 106.754727 
L 370.563 108.501608 
L 375.1386 107.627119 
L 379.7142 104.133357 
L 384.2619 104.133357 
L 388.8375 102.384379 
L 393.4131 96.269248 
L 397.9608 96.269248 
L 402.5364 93.647878 
L 407.112 95.394759 
L 411.6597 91.8989 
L 425.3586 86.656161 
L 429.9342 80.54103 
L 434.5098 88.405139 
L 439.0575 84.90928 
L 443.6331 82.28791 
L 448.2087 80.54103 
L 452.7564 82.28791 
L 457.332 84.90928 
L 461.9076 79.666541 
L 466.4553 77.91966 
L 471.0309 77.91966 
L 475.6065 72.676921 
L 480.1542 70.927943 
L 484.7298 71.802432 
L 489.3054 70.055551 
L 493.8531 70.055551 
L 498.4287 66.559692 
L 503.0043 70.055551 
L 507.552 70.055551 
L 512.1276 68.306573 
L 516.7032 62.191442 
L 521.2788 60.442464 
L 525.8265 63.063833 
L 530.4021 63.938322 
L 534.9777 62.191442 
L 539.5254 59.570072 
L 544.101 59.570072 
L 548.6766 61.316953 
L 553.2243 60.442464 
L 557.7999 58.695583 
L 562.3755 57.821094 
L 565.575 55.976849 
L 565.575 55.976849 
" clip-path="url(#p4c38f3100e)" style="fill: none; stroke: #000080; stroke-width: 2; stroke-linecap: round"/>
   </g>
   <g id="patch_7">
    <path d="M 46.365 399.078281 
L 46.365 18.558281 
" style="fill: none; stroke: #262626; stroke-width: 1.25; stroke-linejoin: miter; stroke-linecap: square"/>
   </g>
   <g id="patch_8">
    <path d="M 492.765 399.078281 
L 492.765 18.558281 
" style="fill: none; stroke: #262626; stroke-width: 1.25; stroke-linejoin: miter; stroke-linecap: square"/>
   </g>
   <g id="patch_9">
    <path d="M 46.365 399.078281 
L 492.765 399.078281 
" style="fill: none; stroke: #262626; stroke-width: 1.25; stroke-linejoin: miter; stroke-linecap: square"/>
   </g>
   <g id="patch_10">
    <path d="M 46.365 18.558281 
L 492.765 18.558281 
" style="fill: none; stroke: #262626; stroke-width: 1.25; stroke-linejoin: miter; stroke-linecap: square"/>
   </g>
  </g>
 </g>
 <defs>
  <clipPath id="p4c38f3100e">
   <rect x="46.365" y="18.558281" width="446.4" height="380.52"/>
  </clipPath>
 </defs>
</svg>
