<?xml version="1.0" encoding="utf-8" standalone="no"?>
<!DOCTYPE svg PUBLIC "-//W3C//DTD SVG 1.1//EN"
  "http://www.w3.org/Graphics/SVG/1.1/DTD/svg11.dtd">
<svg xmlns:xlink="http://www.w3.org/1999/xlink" width="525.41pt" height="388.35685pt" viewBox="0 0 525.41 388.35685" xmlns="http://www.w3.org/2000/svg" version="1.1">
 <metadata>
  <rdf:RDF xmlns:dc="http://purl.org/dc/elements/1.1/" xmlns:cc="http://creativecommons.org/ns#" xmlns:rdf="http://www.w3.org/1999/02/22-rdf-syntax-ns#">
   <cc:Work>
    <dc:type rdf:resource="http://purl.org/dc/dcmitype/StillImage"/>
    <dc:date>2024-01-15T13:03:36.408890</dc:date>
    <dc:format>image/svg+xml</dc:format>
    <dc:creator>
     <cc:Agent>
      <dc:title>Matplotlib v3.8.0, https://matplotlib.org/</dc:title>
     </cc:Agent>
    </dc:creator>
   </cc:Work>
  </rdf:RDF>
 </metadata>
 <defs>
  <style type="text/css">*{stroke-linejoin: round; stroke-linecap: butt}</style>
 </defs>
 <g id="figure_1">
  <g id="patch_1">
   <path d="M 0 388.35685 
L 525.41 388.35685 
L 525.41 0 
L 0 0 
z
" style="fill: #ffffff"/>
  </g>
  <g id="axes_1">
   <g id="patch_2">
    <path d="M 71.81 336.68685 
L 518.21 336.68685 
L 518.21 10.52685 
L 71.81 10.52685 
z
" style="fill: #ffffff"/>
   </g>
   <g id="matplotlib.axis_1">
    <g id="xtick_1">
     <g id="line2d_1">
      <path d="M 71.81 336.68685 
L 71.81 10.52685 
" clip-path="url(#p65b89ac665)" style="fill: none; stroke: #cccccc; stroke-linecap: round"/>
     </g>
     <g id="line2d_2">
      <defs>
       <path id="m3368df90f0" d="M 0 0 
L 0 6 
" style="stroke: #262626; stroke-width: 1.25"/>
      </defs>
      <g>
       <use xlink:href="#m3368df90f0" x="71.81" y="336.68685" style="fill: #262626; stroke: #262626; stroke-width: 1.25"/>
      </g>
     </g>
     <g id="text_1">
      <!-- 0.0 -->
      <g style="fill: #262626" transform="translate(59.0875 358.34435) scale(0.16 -0.16)">
       <defs>
        <path id="DejaVuSans-30" d="M 2034 4250 
Q 1547 4250 1301 3770 
Q 1056 3291 1056 2328 
Q 1056 1369 1301 889 
Q 1547 409 2034 409 
Q 2525 409 2770 889 
Q 3016 1369 3016 2328 
Q 3016 3291 2770 3770 
Q 2525 4250 2034 4250 
z
M 2034 4750 
Q 2819 4750 3233 4129 
Q 3647 3509 3647 2328 
Q 3647 1150 3233 529 
Q 2819 -91 2034 -91 
Q 1250 -91 836 529 
Q 422 1150 422 2328 
Q 422 3509 836 4129 
Q 1250 4750 2034 4750 
z
" transform="scale(0.015625)"/>
        <path id="DejaVuSans-2e" d="M 684 794 
L 1344 794 
L 1344 0 
L 684 0 
L 684 794 
z
" transform="scale(0.015625)"/>
       </defs>
       <use xlink:href="#DejaVuSans-30"/>
       <use xlink:href="#DejaVuSans-2e" x="63.623047"/>
       <use xlink:href="#DejaVuSans-30" x="95.410156"/>
      </g>
     </g>
    </g>
    <g id="xtick_2">
     <g id="line2d_3">
      <path d="M 123.460329 336.68685 
L 123.460329 10.52685 
" clip-path="url(#p65b89ac665)" style="fill: none; stroke: #cccccc; stroke-linecap: round"/>
     </g>
     <g id="line2d_4">
      <g>
       <use xlink:href="#m3368df90f0" x="123.460329" y="336.68685" style="fill: #262626; stroke: #262626; stroke-width: 1.25"/>
      </g>
     </g>
     <g id="text_2">
      <!-- 0.5 -->
      <g style="fill: #262626" transform="translate(110.737829 358.34435) scale(0.16 -0.16)">
       <defs>
        <path id="DejaVuSans-35" d="M 691 4666 
L 3169 4666 
L 3169 4134 
L 1269 4134 
L 1269 2991 
Q 1406 3038 1543 3061 
Q 1681 3084 1819 3084 
Q 2600 3084 3056 2656 
Q 3513 2228 3513 1497 
Q 3513 744 3044 326 
Q 2575 -91 1722 -91 
Q 1428 -91 1123 -41 
Q 819 9 494 109 
L 494 744 
Q 775 591 1075 516 
Q 1375 441 1709 441 
Q 2250 441 2565 725 
Q 2881 1009 2881 1497 
Q 2881 1984 2565 2268 
Q 2250 2553 1709 2553 
Q 1456 2553 1204 2497 
Q 953 2441 691 2322 
L 691 4666 
z
" transform="scale(0.015625)"/>
       </defs>
       <use xlink:href="#DejaVuSans-30"/>
       <use xlink:href="#DejaVuSans-2e" x="63.623047"/>
       <use xlink:href="#DejaVuSans-35" x="95.410156"/>
      </g>
     </g>
    </g>
    <g id="xtick_3">
     <g id="line2d_5">
      <path d="M 175.110659 336.68685 
L 175.110659 10.52685 
" clip-path="url(#p65b89ac665)" style="fill: none; stroke: #cccccc; stroke-linecap: round"/>
     </g>
     <g id="line2d_6">
      <g>
       <use xlink:href="#m3368df90f0" x="175.110659" y="336.68685" style="fill: #262626; stroke: #262626; stroke-width: 1.25"/>
      </g>
     </g>
     <g id="text_3">
      <!-- 1.0 -->
      <g style="fill: #262626" transform="translate(162.388159 358.34435) scale(0.16 -0.16)">
       <defs>
        <path id="DejaVuSans-31" d="M 794 531 
L 1825 531 
L 1825 4091 
L 703 3866 
L 703 4441 
L 1819 4666 
L 2450 4666 
L 2450 531 
L 3481 531 
L 3481 0 
L 794 0 
L 794 531 
z
" transform="scale(0.015625)"/>
       </defs>
       <use xlink:href="#DejaVuSans-31"/>
       <use xlink:href="#DejaVuSans-2e" x="63.623047"/>
       <use xlink:href="#DejaVuSans-30" x="95.410156"/>
      </g>
     </g>
    </g>
    <g id="xtick_4">
     <g id="line2d_7">
      <path d="M 226.760988 336.68685 
L 226.760988 10.52685 
" clip-path="url(#p65b89ac665)" style="fill: none; stroke: #cccccc; stroke-linecap: round"/>
     </g>
     <g id="line2d_8">
      <g>
       <use xlink:href="#m3368df90f0" x="226.760988" y="336.68685" style="fill: #262626; stroke: #262626; stroke-width: 1.25"/>
      </g>
     </g>
     <g id="text_4">
      <!-- 1.5 -->
      <g style="fill: #262626" transform="translate(214.038488 358.34435) scale(0.16 -0.16)">
       <use xlink:href="#DejaVuSans-31"/>
       <use xlink:href="#DejaVuSans-2e" x="63.623047"/>
       <use xlink:href="#DejaVuSans-35" x="95.410156"/>
      </g>
     </g>
    </g>
    <g id="xtick_5">
     <g id="line2d_9">
      <path d="M 278.411317 336.68685 
L 278.411317 10.52685 
" clip-path="url(#p65b89ac665)" style="fill: none; stroke: #cccccc; stroke-linecap: round"/>
     </g>
     <g id="line2d_10">
      <g>
       <use xlink:href="#m3368df90f0" x="278.411317" y="336.68685" style="fill: #262626; stroke: #262626; stroke-width: 1.25"/>
      </g>
     </g>
     <g id="text_5">
      <!-- 2.0 -->
      <g style="fill: #262626" transform="translate(265.688817 358.34435) scale(0.16 -0.16)">
       <defs>
        <path id="DejaVuSans-32" d="M 1228 531 
L 3431 531 
L 3431 0 
L 469 0 
L 469 531 
Q 828 903 1448 1529 
Q 2069 2156 2228 2338 
Q 2531 2678 2651 2914 
Q 2772 3150 2772 3378 
Q 2772 3750 2511 3984 
Q 2250 4219 1831 4219 
Q 1534 4219 1204 4116 
Q 875 4013 500 3803 
L 500 4441 
Q 881 4594 1212 4672 
Q 1544 4750 1819 4750 
Q 2544 4750 2975 4387 
Q 3406 4025 3406 3419 
Q 3406 3131 3298 2873 
Q 3191 2616 2906 2266 
Q 2828 2175 2409 1742 
Q 1991 1309 1228 531 
z
" transform="scale(0.015625)"/>
       </defs>
       <use xlink:href="#DejaVuSans-32"/>
       <use xlink:href="#DejaVuSans-2e" x="63.623047"/>
       <use xlink:href="#DejaVuSans-30" x="95.410156"/>
      </g>
     </g>
    </g>
    <g id="xtick_6">
     <g id="line2d_11">
      <path d="M 330.061646 336.68685 
L 330.061646 10.52685 
" clip-path="url(#p65b89ac665)" style="fill: none; stroke: #cccccc; stroke-linecap: round"/>
     </g>
     <g id="line2d_12">
      <g>
       <use xlink:href="#m3368df90f0" x="330.061646" y="336.68685" style="fill: #262626; stroke: #262626; stroke-width: 1.25"/>
      </g>
     </g>
     <g id="text_6">
      <!-- 2.5 -->
      <g style="fill: #262626" transform="translate(317.339146 358.34435) scale(0.16 -0.16)">
       <use xlink:href="#DejaVuSans-32"/>
       <use xlink:href="#DejaVuSans-2e" x="63.623047"/>
       <use xlink:href="#DejaVuSans-35" x="95.410156"/>
      </g>
     </g>
    </g>
    <g id="xtick_7">
     <g id="line2d_13">
      <path d="M 381.711976 336.68685 
L 381.711976 10.52685 
" clip-path="url(#p65b89ac665)" style="fill: none; stroke: #cccccc; stroke-linecap: round"/>
     </g>
     <g id="line2d_14">
      <g>
       <use xlink:href="#m3368df90f0" x="381.711976" y="336.68685" style="fill: #262626; stroke: #262626; stroke-width: 1.25"/>
      </g>
     </g>
     <g id="text_7">
      <!-- 3.0 -->
      <g style="fill: #262626" transform="translate(368.989476 358.34435) scale(0.16 -0.16)">
       <defs>
        <path id="DejaVuSans-33" d="M 2597 2516 
Q 3050 2419 3304 2112 
Q 3559 1806 3559 1356 
Q 3559 666 3084 287 
Q 2609 -91 1734 -91 
Q 1441 -91 1130 -33 
Q 819 25 488 141 
L 488 750 
Q 750 597 1062 519 
Q 1375 441 1716 441 
Q 2309 441 2620 675 
Q 2931 909 2931 1356 
Q 2931 1769 2642 2001 
Q 2353 2234 1838 2234 
L 1294 2234 
L 1294 2753 
L 1863 2753 
Q 2328 2753 2575 2939 
Q 2822 3125 2822 3475 
Q 2822 3834 2567 4026 
Q 2313 4219 1838 4219 
Q 1578 4219 1281 4162 
Q 984 4106 628 3988 
L 628 4550 
Q 988 4650 1302 4700 
Q 1616 4750 1894 4750 
Q 2613 4750 3031 4423 
Q 3450 4097 3450 3541 
Q 3450 3153 3228 2886 
Q 3006 2619 2597 2516 
z
" transform="scale(0.015625)"/>
       </defs>
       <use xlink:href="#DejaVuSans-33"/>
       <use xlink:href="#DejaVuSans-2e" x="63.623047"/>
       <use xlink:href="#DejaVuSans-30" x="95.410156"/>
      </g>
     </g>
    </g>
    <g id="xtick_8">
     <g id="line2d_15">
      <path d="M 433.362305 336.68685 
L 433.362305 10.52685 
" clip-path="url(#p65b89ac665)" style="fill: none; stroke: #cccccc; stroke-linecap: round"/>
     </g>
     <g id="line2d_16">
      <g>
       <use xlink:href="#m3368df90f0" x="433.362305" y="336.68685" style="fill: #262626; stroke: #262626; stroke-width: 1.25"/>
      </g>
     </g>
     <g id="text_8">
      <!-- 3.5 -->
      <g style="fill: #262626" transform="translate(420.639805 358.34435) scale(0.16 -0.16)">
       <use xlink:href="#DejaVuSans-33"/>
       <use xlink:href="#DejaVuSans-2e" x="63.623047"/>
       <use xlink:href="#DejaVuSans-35" x="95.410156"/>
      </g>
     </g>
    </g>
    <g id="xtick_9">
     <g id="line2d_17">
      <path d="M 485.012634 336.68685 
L 485.012634 10.52685 
" clip-path="url(#p65b89ac665)" style="fill: none; stroke: #cccccc; stroke-linecap: round"/>
     </g>
     <g id="line2d_18">
      <g>
       <use xlink:href="#m3368df90f0" x="485.012634" y="336.68685" style="fill: #262626; stroke: #262626; stroke-width: 1.25"/>
      </g>
     </g>
     <g id="text_9">
      <!-- 4.0 -->
      <g style="fill: #262626" transform="translate(472.290134 358.34435) scale(0.16 -0.16)">
       <defs>
        <path id="DejaVuSans-34" d="M 2419 4116 
L 825 1625 
L 2419 1625 
L 2419 4116 
z
M 2253 4666 
L 3047 4666 
L 3047 1625 
L 3713 1625 
L 3713 1100 
L 3047 1100 
L 3047 0 
L 2419 0 
L 2419 1100 
L 313 1100 
L 313 1709 
L 2253 4666 
z
" transform="scale(0.015625)"/>
       </defs>
       <use xlink:href="#DejaVuSans-34"/>
       <use xlink:href="#DejaVuSans-2e" x="63.623047"/>
       <use xlink:href="#DejaVuSans-30" x="95.410156"/>
      </g>
     </g>
    </g>
    <g id="text_10">
     <!-- Links -->
     <g style="fill: #262626" transform="translate(274.46 377.82935) scale(0.16 -0.16)">
      <defs>
       <path id="DejaVuSans-4c" d="M 628 4666 
L 1259 4666 
L 1259 531 
L 3531 531 
L 3531 0 
L 628 0 
L 628 4666 
z
" transform="scale(0.015625)"/>
       <path id="DejaVuSans-69" d="M 603 3500 
L 1178 3500 
L 1178 0 
L 603 0 
L 603 3500 
z
M 603 4863 
L 1178 4863 
L 1178 4134 
L 603 4134 
L 603 4863 
z
" transform="scale(0.015625)"/>
       <path id="DejaVuSans-6e" d="M 3513 2113 
L 3513 0 
L 2938 0 
L 2938 2094 
Q 2938 2591 2744 2837 
Q 2550 3084 2163 3084 
Q 1697 3084 1428 2787 
Q 1159 2491 1159 1978 
L 1159 0 
L 581 0 
L 581 3500 
L 1159 3500 
L 1159 2956 
Q 1366 3272 1645 3428 
Q 1925 3584 2291 3584 
Q 2894 3584 3203 3211 
Q 3513 2838 3513 2113 
z
" transform="scale(0.015625)"/>
       <path id="DejaVuSans-6b" d="M 581 4863 
L 1159 4863 
L 1159 1991 
L 2875 3500 
L 3609 3500 
L 1753 1863 
L 3688 0 
L 2938 0 
L 1159 1709 
L 1159 0 
L 581 0 
L 581 4863 
z
" transform="scale(0.015625)"/>
       <path id="DejaVuSans-73" d="M 2834 3397 
L 2834 2853 
Q 2591 2978 2328 3040 
Q 2066 3103 1784 3103 
Q 1356 3103 1142 2972 
Q 928 2841 928 2578 
Q 928 2378 1081 2264 
Q 1234 2150 1697 2047 
L 1894 2003 
Q 2506 1872 2764 1633 
Q 3022 1394 3022 966 
Q 3022 478 2636 193 
Q 2250 -91 1575 -91 
Q 1294 -91 989 -36 
Q 684 19 347 128 
L 347 722 
Q 666 556 975 473 
Q 1284 391 1588 391 
Q 1994 391 2212 530 
Q 2431 669 2431 922 
Q 2431 1156 2273 1281 
Q 2116 1406 1581 1522 
L 1381 1569 
Q 847 1681 609 1914 
Q 372 2147 372 2553 
Q 372 3047 722 3315 
Q 1072 3584 1716 3584 
Q 2034 3584 2315 3537 
Q 2597 3491 2834 3397 
z
" transform="scale(0.015625)"/>
      </defs>
      <use xlink:href="#DejaVuSans-4c"/>
      <use xlink:href="#DejaVuSans-69" x="55.712891"/>
      <use xlink:href="#DejaVuSans-6e" x="83.496094"/>
      <use xlink:href="#DejaVuSans-6b" x="146.875"/>
      <use xlink:href="#DejaVuSans-73" x="204.785156"/>
     </g>
    </g>
    <g id="text_11">
     <!-- 1e6 -->
     <g style="fill: #262626" transform="translate(497.444063 373.030131) scale(0.11 -0.11)">
      <defs>
       <path id="DejaVuSans-65" d="M 3597 1894 
L 3597 1613 
L 953 1613 
Q 991 1019 1311 708 
Q 1631 397 2203 397 
Q 2534 397 2845 478 
Q 3156 559 3463 722 
L 3463 178 
Q 3153 47 2828 -22 
Q 2503 -91 2169 -91 
Q 1331 -91 842 396 
Q 353 884 353 1716 
Q 353 2575 817 3079 
Q 1281 3584 2069 3584 
Q 2775 3584 3186 3129 
Q 3597 2675 3597 1894 
z
M 3022 2063 
Q 3016 2534 2758 2815 
Q 2500 3097 2075 3097 
Q 1594 3097 1305 2825 
Q 1016 2553 972 2059 
L 3022 2063 
z
" transform="scale(0.015625)"/>
       <path id="DejaVuSans-36" d="M 2113 2584 
Q 1688 2584 1439 2293 
Q 1191 2003 1191 1497 
Q 1191 994 1439 701 
Q 1688 409 2113 409 
Q 2538 409 2786 701 
Q 3034 994 3034 1497 
Q 3034 2003 2786 2293 
Q 2538 2584 2113 2584 
z
M 3366 4563 
L 3366 3988 
Q 3128 4100 2886 4159 
Q 2644 4219 2406 4219 
Q 1781 4219 1451 3797 
Q 1122 3375 1075 2522 
Q 1259 2794 1537 2939 
Q 1816 3084 2150 3084 
Q 2853 3084 3261 2657 
Q 3669 2231 3669 1497 
Q 3669 778 3244 343 
Q 2819 -91 2113 -91 
Q 1303 -91 875 529 
Q 447 1150 447 2328 
Q 447 3434 972 4092 
Q 1497 4750 2381 4750 
Q 2619 4750 2861 4703 
Q 3103 4656 3366 4563 
z
" transform="scale(0.015625)"/>
      </defs>
      <use xlink:href="#DejaVuSans-31"/>
      <use xlink:href="#DejaVuSans-65" x="63.623047"/>
      <use xlink:href="#DejaVuSans-36" x="125.146484"/>
     </g>
    </g>
   </g>
   <g id="matplotlib.axis_2">
    <g id="ytick_1">
     <g id="line2d_19">
      <path d="M 71.81 300.374097 
L 518.21 300.374097 
" clip-path="url(#p65b89ac665)" style="fill: none; stroke: #cccccc; stroke-linecap: round"/>
     </g>
     <g id="line2d_20">
      <defs>
       <path id="m8cce15a04b" d="M 0 0 
L -6 0 
" style="stroke: #262626; stroke-width: 1.25"/>
      </defs>
      <g>
       <use xlink:href="#m8cce15a04b" x="71.81" y="300.374097" style="fill: #262626; stroke: #262626; stroke-width: 1.25"/>
      </g>
     </g>
     <g id="text_12">
      <!-- 15.0 -->
      <g style="fill: #262626" transform="translate(26.685 306.452847) scale(0.16 -0.16)">
       <use xlink:href="#DejaVuSans-31"/>
       <use xlink:href="#DejaVuSans-35" x="63.623047"/>
       <use xlink:href="#DejaVuSans-2e" x="127.246094"/>
       <use xlink:href="#DejaVuSans-30" x="159.033203"/>
      </g>
     </g>
    </g>
    <g id="ytick_2">
     <g id="line2d_21">
      <path d="M 71.81 259.360476 
L 518.21 259.360476 
" clip-path="url(#p65b89ac665)" style="fill: none; stroke: #cccccc; stroke-linecap: round"/>
     </g>
     <g id="line2d_22">
      <g>
       <use xlink:href="#m8cce15a04b" x="71.81" y="259.360476" style="fill: #262626; stroke: #262626; stroke-width: 1.25"/>
      </g>
     </g>
     <g id="text_13">
      <!-- 17.5 -->
      <g style="fill: #262626" transform="translate(26.685 265.439226) scale(0.16 -0.16)">
       <defs>
        <path id="DejaVuSans-37" d="M 525 4666 
L 3525 4666 
L 3525 4397 
L 1831 0 
L 1172 0 
L 2766 4134 
L 525 4134 
L 525 4666 
z
" transform="scale(0.015625)"/>
       </defs>
       <use xlink:href="#DejaVuSans-31"/>
       <use xlink:href="#DejaVuSans-37" x="63.623047"/>
       <use xlink:href="#DejaVuSans-2e" x="127.246094"/>
       <use xlink:href="#DejaVuSans-35" x="159.033203"/>
      </g>
     </g>
    </g>
    <g id="ytick_3">
     <g id="line2d_23">
      <path d="M 71.81 218.346855 
L 518.21 218.346855 
" clip-path="url(#p65b89ac665)" style="fill: none; stroke: #cccccc; stroke-linecap: round"/>
     </g>
     <g id="line2d_24">
      <g>
       <use xlink:href="#m8cce15a04b" x="71.81" y="218.346855" style="fill: #262626; stroke: #262626; stroke-width: 1.25"/>
      </g>
     </g>
     <g id="text_14">
      <!-- 20.0 -->
      <g style="fill: #262626" transform="translate(26.685 224.425605) scale(0.16 -0.16)">
       <use xlink:href="#DejaVuSans-32"/>
       <use xlink:href="#DejaVuSans-30" x="63.623047"/>
       <use xlink:href="#DejaVuSans-2e" x="127.246094"/>
       <use xlink:href="#DejaVuSans-30" x="159.033203"/>
      </g>
     </g>
    </g>
    <g id="ytick_4">
     <g id="line2d_25">
      <path d="M 71.81 177.333234 
L 518.21 177.333234 
" clip-path="url(#p65b89ac665)" style="fill: none; stroke: #cccccc; stroke-linecap: round"/>
     </g>
     <g id="line2d_26">
      <g>
       <use xlink:href="#m8cce15a04b" x="71.81" y="177.333234" style="fill: #262626; stroke: #262626; stroke-width: 1.25"/>
      </g>
     </g>
     <g id="text_15">
      <!-- 22.5 -->
      <g style="fill: #262626" transform="translate(26.685 183.411984) scale(0.16 -0.16)">
       <use xlink:href="#DejaVuSans-32"/>
       <use xlink:href="#DejaVuSans-32" x="63.623047"/>
       <use xlink:href="#DejaVuSans-2e" x="127.246094"/>
       <use xlink:href="#DejaVuSans-35" x="159.033203"/>
      </g>
     </g>
    </g>
    <g id="ytick_5">
     <g id="line2d_27">
      <path d="M 71.81 136.319613 
L 518.21 136.319613 
" clip-path="url(#p65b89ac665)" style="fill: none; stroke: #cccccc; stroke-linecap: round"/>
     </g>
     <g id="line2d_28">
      <g>
       <use xlink:href="#m8cce15a04b" x="71.81" y="136.319613" style="fill: #262626; stroke: #262626; stroke-width: 1.25"/>
      </g>
     </g>
     <g id="text_16">
      <!-- 25.0 -->
      <g style="fill: #262626" transform="translate(26.685 142.398363) scale(0.16 -0.16)">
       <use xlink:href="#DejaVuSans-32"/>
       <use xlink:href="#DejaVuSans-35" x="63.623047"/>
       <use xlink:href="#DejaVuSans-2e" x="127.246094"/>
       <use xlink:href="#DejaVuSans-30" x="159.033203"/>
      </g>
     </g>
    </g>
    <g id="ytick_6">
     <g id="line2d_29">
      <path d="M 71.81 95.305992 
L 518.21 95.305992 
" clip-path="url(#p65b89ac665)" style="fill: none; stroke: #cccccc; stroke-linecap: round"/>
     </g>
     <g id="line2d_30">
      <g>
       <use xlink:href="#m8cce15a04b" x="71.81" y="95.305992" style="fill: #262626; stroke: #262626; stroke-width: 1.25"/>
      </g>
     </g>
     <g id="text_17">
      <!-- 27.5 -->
      <g style="fill: #262626" transform="translate(26.685 101.384742) scale(0.16 -0.16)">
       <use xlink:href="#DejaVuSans-32"/>
       <use xlink:href="#DejaVuSans-37" x="63.623047"/>
       <use xlink:href="#DejaVuSans-2e" x="127.246094"/>
       <use xlink:href="#DejaVuSans-35" x="159.033203"/>
      </g>
     </g>
    </g>
    <g id="ytick_7">
     <g id="line2d_31">
      <path d="M 71.81 54.292371 
L 518.21 54.292371 
" clip-path="url(#p65b89ac665)" style="fill: none; stroke: #cccccc; stroke-linecap: round"/>
     </g>
     <g id="line2d_32">
      <g>
       <use xlink:href="#m8cce15a04b" x="71.81" y="54.292371" style="fill: #262626; stroke: #262626; stroke-width: 1.25"/>
      </g>
     </g>
     <g id="text_18">
      <!-- 30.0 -->
      <g style="fill: #262626" transform="translate(26.685 60.371121) scale(0.16 -0.16)">
       <use xlink:href="#DejaVuSans-33"/>
       <use xlink:href="#DejaVuSans-30" x="63.623047"/>
       <use xlink:href="#DejaVuSans-2e" x="127.246094"/>
       <use xlink:href="#DejaVuSans-30" x="159.033203"/>
      </g>
     </g>
    </g>
    <g id="ytick_8">
     <g id="line2d_33">
      <path d="M 71.81 13.27875 
L 518.21 13.27875 
" clip-path="url(#p65b89ac665)" style="fill: none; stroke: #cccccc; stroke-linecap: round"/>
     </g>
     <g id="line2d_34">
      <g>
       <use xlink:href="#m8cce15a04b" x="71.81" y="13.27875" style="fill: #262626; stroke: #262626; stroke-width: 1.25"/>
      </g>
     </g>
     <g id="text_19">
      <!-- 32.5 -->
      <g style="fill: #262626" transform="translate(26.685 19.3575) scale(0.16 -0.16)">
       <use xlink:href="#DejaVuSans-33"/>
       <use xlink:href="#DejaVuSans-32" x="63.623047"/>
       <use xlink:href="#DejaVuSans-2e" x="127.246094"/>
       <use xlink:href="#DejaVuSans-35" x="159.033203"/>
      </g>
     </g>
    </g>
    <g id="text_20">
     <!-- Time -->
     <g style="fill: #228b22" transform="translate(19.3575 193.1806) rotate(-90) scale(0.16 -0.16)">
      <defs>
       <path id="DejaVuSans-54" d="M -19 4666 
L 3928 4666 
L 3928 4134 
L 2272 4134 
L 2272 0 
L 1638 0 
L 1638 4134 
L -19 4134 
L -19 4666 
z
" transform="scale(0.015625)"/>
       <path id="DejaVuSans-6d" d="M 3328 2828 
Q 3544 3216 3844 3400 
Q 4144 3584 4550 3584 
Q 5097 3584 5394 3201 
Q 5691 2819 5691 2113 
L 5691 0 
L 5113 0 
L 5113 2094 
Q 5113 2597 4934 2840 
Q 4756 3084 4391 3084 
Q 3944 3084 3684 2787 
Q 3425 2491 3425 1978 
L 3425 0 
L 2847 0 
L 2847 2094 
Q 2847 2600 2669 2842 
Q 2491 3084 2119 3084 
Q 1678 3084 1418 2786 
Q 1159 2488 1159 1978 
L 1159 0 
L 581 0 
L 581 3500 
L 1159 3500 
L 1159 2956 
Q 1356 3278 1631 3431 
Q 1906 3584 2284 3584 
Q 2666 3584 2933 3390 
Q 3200 3197 3328 2828 
z
" transform="scale(0.015625)"/>
      </defs>
      <use xlink:href="#DejaVuSans-54"/>
      <use xlink:href="#DejaVuSans-69" x="57.958984"/>
      <use xlink:href="#DejaVuSans-6d" x="85.742188"/>
      <use xlink:href="#DejaVuSans-65" x="183.154297"/>
     </g>
    </g>
   </g>
   <g id="PolyCollection_1">
    <defs>
     <path id="m1bdadc1be5" d="M 91.815206 -127.436898 
L 91.815206 -159.606618 
L 93.148817 -159.505628 
L 97.36462 -166.160418 
L 100.564771 -173.738577 
L 103.470309 -179.279781 
L 104.218619 -184.563709 
L 105.39511 -188.36875 
L 110.964565 -192.571901 
L 112.622334 -195.857986 
L 113.535512 -199.069152 
L 114.95228 -202.401451 
L 117.141325 -205.065072 
L 119.441107 -207.457807 
L 120.467193 -209.616893 
L 121.6786 -211.239907 
L 123.224597 -212.006669 
L 123.591005 -212.595465 
L 127.667145 -214.505544 
L 130.9519 -217.601133 
L 133.854958 -220.78623 
L 137.222146 -224.357516 
L 138.199061 -226.920095 
L 141.243331 -228.267921 
L 142.914426 -229.688319 
L 144.767226 -231.598398 
L 148.058902 -233.365766 
L 151.741364 -236.13794 
L 152.307968 -238.968409 
L 155.940226 -240.973357 
L 158.680069 -243.307351 
L 160.471922 -244.37934 
L 164.017201 -245.4033 
L 165.139769 -246.614976 
L 166.098916 -247.442221 
L 168.291266 -248.635977 
L 169.38429 -249.994241 
L 170.886281 -250.988259 
L 172.438684 -252.622191 
L 174.086536 -253.110949 
L 176.267213 -254.680583 
L 178.249242 -256.151747 
L 180.595923 -257.361916 
L 182.886719 -259.324614 
L 184.311855 -260.120989 
L 187.913949 -261.445176 
L 188.690563 -261.960047 
L 190.800582 -262.673395 
L 192.14597 -263.362478 
L 194.956161 -263.67447 
L 196.666304 -264.243661 
L 200.508985 -265.836878 
L 202.009943 -268.110313 
L 202.695033 -269.917444 
L 204.933145 -272.153946 
L 206.218825 -273.476131 
L 207.327551 -273.009829 
L 208.50084 -273.333405 
L 210.496816 -273.851802 
L 214.037962 -274.422916 
L 215.868037 -275.968801 
L 217.873722 -276.689167 
L 218.974391 -277.381585 
L 219.721358 -277.654376 
L 221.511248 -277.748676 
L 223.637796 -278.858362 
L 224.555932 -278.858362 
L 225.986439 -279.200416 
L 227.642452 -279.611627 
L 229.193202 -279.752229 
L 230.500885 -280.406275 
L 231.554035 -281.12131 
L 232.503988 -281.597793 
L 234.18438 -282.482531 
L 235.750004 -282.983988 
L 237.53318 -283.780435 
L 238.403695 -284.171352 
L 239.361602 -284.913541 
L 241.822534 -286.18898 
L 243.573583 -287.288189 
L 245.627613 -289.571742 
L 247.880084 -290.710224 
L 249.893208 -292.382026 
L 251.842388 -293.257852 
L 252.747818 -293.524259 
L 253.440449 -294.055735 
L 254.575516 -293.799358 
L 255.3856 -294.037112 
L 255.862126 -294.38245 
L 257.403992 -294.38245 
L 258.281221 -294.43935 
L 261.704708 -294.816441 
L 263.245024 -294.915283 
L 264.996177 -295.407768 
L 265.915966 -296.259909 
L 267.758643 -295.917856 
L 269.099589 -296.73677 
L 270.015866 -296.479571 
L 271.430465 -296.414512 
L 273.286778 -297.068558 
L 274.800752 -296.489465 
L 277.028844 -297.339957 
L 278.703451 -298.518339 
L 279.582333 -299.435275 
L 281.31045 -300.72438 
L 282.788373 -302.033644 
L 284.153801 -302.006651 
L 285.886876 -303.220423 
L 287.374818 -304.790057 
L 288.674031 -305.180836 
L 290.00413 -306.243691 
L 291.161821 -306.243691 
L 291.886785 -305.619745 
L 293.110381 -306.103585 
L 295.00037 -306.414582 
L 296.407531 -307.732571 
L 297.556751 -308.789597 
L 298.80421 -309.341714 
L 300.631805 -309.732606 
L 303.178993 -309.731226 
L 304.1588 -310.202103 
L 305.511625 -310.597082 
L 306.467156 -310.99523 
L 307.937228 -311.067776 
L 309.28995 -310.99523 
L 310.036917 -311.030267 
L 312.408803 -311.134062 
L 313.615148 -311.403569 
L 314.897523 -311.745623 
L 315.966581 -312.735926 
L 316.886887 -313.58606 
L 318.030632 -313.58606 
L 320.447661 -313.832993 
L 321.57622 -313.496735 
L 322.530822 -313.957864 
L 323.410633 -314.503505 
L 324.24396 -315.283293 
L 325.276347 -315.741632 
L 326.470192 -315.351914 
L 328.234051 -316.401106 
L 329.602165 -315.686377 
L 332.000703 -316.69722 
L 334.247389 -318.505364 
L 335.326881 -318.139459 
L 336.627126 -320.288644 
L 337.877168 -320.626594 
L 340.72589 -320.943951 
L 344.953986 -322.792425 
L 347.645381 -323.403045 
L 348.848007 -324.788234 
L 350.327169 -325.519907 
L 351.526697 -326.051382 
L 353.118043 -326.615618 
L 355.828963 -326.835578 
L 356.984587 -327.519196 
L 359.00928 -327.555832 
L 360.332355 -327.584807 
L 360.864973 -327.309539 
L 361.708733 -326.486049 
L 362.502908 -326.564807 
L 363.370117 -326.659108 
L 364.649909 -327.376904 
L 366.31057 -328.266641 
L 367.294613 -328.6346 
L 368.513044 -329.548179 
L 370.116993 -329.402312 
L 371.050728 -329.497056 
L 372.301905 -329.248988 
L 373.464554 -329.48024 
L 374.360378 -329.218616 
L 375.347105 -329.218616 
L 377.426444 -329.840596 
L 382.134785 -329.106976 
L 383.694625 -331.159038 
L 385.297645 -332.928271 
L 386.648198 -334.074973 
L 390.848712 -335.715823 
L 392.770311 -335.715823 
L 395.596927 -336.303676 
L 398.396375 -337.060832 
L 399.339716 -337.644159 
L 400.563829 -338.376851 
L 401.83577 -338.227487 
L 403.121347 -338.849395 
L 404.71383 -338.849395 
L 405.449021 -339.334593 
L 406.111798 -339.659816 
L 407.082617 -340.130247 
L 408.368401 -341.193603 
L 409.189021 -341.752224 
L 409.828142 -342.620183 
L 410.854847 -342.031379 
L 411.915745 -341.28538 
L 413.160002 -341.434895 
L 413.875049 -340.570584 
L 415.170646 -341.434443 
L 416.424612 -342.329766 
L 417.68643 -342.254946 
L 419.101339 -342.989431 
L 420.517901 -342.989431 
L 421.567126 -343.728866 
L 422.790309 -343.671966 
L 423.275822 -344.502249 
L 423.93457 -344.645093 
L 424.860144 -344.586618 
L 425.683967 -344.806577 
L 427.392766 -344.640535 
L 429.277384 -344.693513 
L 432.273929 -344.693513 
L 433.622313 -344.72855 
L 435.827472 -344.808979 
L 438.328484 -345.164099 
L 439.827273 -345.411409 
L 441.601152 -347.063759 
L 442.27085 -347.477539 
L 443.234026 -348.635224 
L 445.230208 -350.012309 
L 445.975728 -349.945311 
L 446.747488 -350.558252 
L 448.056617 -351.44191 
L 449.696825 -350.975201 
L 451.384758 -350.8829 
L 453.195102 -351.309811 
L 456.554439 -350.840415 
L 457.503152 -352.207809 
L 458.373047 -353.350147 
L 459.27104 -353.489734 
L 460.504759 -354.100811 
L 461.728356 -354.100811 
L 462.791836 -354.076114 
L 463.796848 -354.776232 
L 464.923032 -354.950292 
L 466.296724 -355.193634 
L 468.023808 -355.21833 
L 471.266829 -355.386172 
L 473.755342 -356.153203 
L 474.511606 -356.370966 
L 475.308777 -357.44382 
L 477.536456 -358.262251 
L 478.607683 -358.381814 
L 479.80969 -358.918894 
L 480.584032 -358.909396 
L 481.703501 -359.275301 
L 484.636516 -360.380294 
L 485.521803 -360.436425 
L 487.834395 -360.445923 
L 489.359216 -361.144425 
L 491.516444 -361.483141 
L 492.274567 -362.063583 
L 493.368314 -362.529249 
L 494.000205 -362.211217 
L 496.019216 -362.342355 
L 496.846138 -362.28388 
L 497.242192 -362.843554 
L 497.905486 -363.004545 
L 497.905486 -338.618595 
L 497.905486 -338.618595 
L 497.242192 -337.754246 
L 496.846138 -337.972687 
L 496.019216 -337.572158 
L 494.000205 -336.677956 
L 493.368314 -337.385264 
L 492.274567 -336.141483 
L 491.516444 -336.380692 
L 489.359216 -337.061461 
L 487.834395 -335.709282 
L 485.521803 -336.060834 
L 484.636516 -335.432858 
L 481.703501 -334.487169 
L 480.584032 -335.536361 
L 479.80969 -335.18481 
L 478.607683 -334.013262 
L 477.536456 -332.765431 
L 475.308777 -331.191948 
L 474.511606 -330.556174 
L 473.755342 -329.748597 
L 471.266829 -329.490287 
L 468.023808 -329.316076 
L 466.296724 -328.998718 
L 464.923032 -329.584113 
L 463.796848 -329.41612 
L 462.791836 -329.090897 
L 461.728356 -329.408254 
L 460.504759 -329.408254 
L 459.27104 -328.652758 
L 458.373047 -327.767003 
L 457.503152 -326.85866 
L 456.554439 -325.491266 
L 453.195102 -325.363104 
L 451.384758 -325.106728 
L 449.696825 -324.672373 
L 448.056617 -325.231004 
L 446.747488 -325.089323 
L 445.975728 -325.018156 
L 445.230208 -324.609925 
L 443.234026 -323.595095 
L 442.27085 -323.044153 
L 441.601152 -323.1167 
L 439.827273 -323.059602 
L 438.328484 -322.964858 
L 435.827472 -322.636691 
L 433.622313 -322.375067 
L 432.273929 -321.726817 
L 429.277384 -321.726817 
L 427.392766 -320.754455 
L 425.683967 -320.588412 
L 424.860144 -319.783031 
L 423.93457 -319.382502 
L 423.275822 -319.525346 
L 422.790309 -318.304948 
L 421.567126 -319.273388 
L 420.517901 -317.962142 
L 419.101339 -317.962142 
L 417.68643 -317.329233 
L 416.424612 -316.571126 
L 415.170646 -316.099876 
L 413.875049 -315.254287 
L 413.160002 -316.099424 
L 411.915745 -316.248939 
L 410.854847 -317.211567 
L 409.828142 -317.30687 
L 409.189021 -316.807436 
L 408.368401 -315.998662 
L 407.082617 -315.011337 
L 406.111798 -314.456427 
L 405.449021 -313.75631 
L 404.71383 -313.216167 
L 403.121347 -313.216167 
L 401.83577 -313.153968 
L 400.563829 -313.004604 
L 399.339716 -312.369902 
L 398.396375 -311.585835 
L 395.596927 -310.976417 
L 392.770311 -310.196876 
L 390.848712 -310.196876 
L 386.648198 -309.787045 
L 385.297645 -309.908406 
L 383.694625 -308.943672 
L 382.134785 -307.919711 
L 377.426444 -307.528146 
L 375.347105 -306.782732 
L 374.360378 -306.782732 
L 373.464554 -306.863161 
L 372.301905 -306.752359 
L 371.050728 -306.162238 
L 370.116993 -305.914928 
L 368.513044 -304.743721 
L 367.294613 -304.631959 
L 366.31057 -304.316631 
L 364.649909 -304.523082 
L 363.370117 -304.898824 
L 362.502908 -304.651891 
L 361.708733 -303.705308 
L 360.864973 -302.881819 
L 360.332355 -302.948604 
L 359.00928 -301.952239 
L 356.984587 -302.672162 
L 355.828963 -301.305099 
L 353.118043 -300.499718 
L 351.526697 -299.69656 
L 350.327169 -298.861461 
L 348.848007 -298.909848 
L 347.645381 -297.902302 
L 344.953986 -297.829635 
L 340.72589 -296.943321 
L 337.877168 -296.918624 
L 336.627126 -296.915341 
L 335.326881 -295.646451 
L 334.247389 -294.597259 
L 332.000703 -293.329381 
L 329.602165 -292.630776 
L 328.234051 -292.258101 
L 326.470192 -292.624006 
L 325.276347 -292.576342 
L 324.24396 -292.351394 
L 323.410633 -292.447074 
L 322.530822 -291.967375 
L 321.57622 -291.744397 
L 320.447661 -291.408139 
L 318.030632 -291.313838 
L 316.886887 -291.313838 
L 315.966581 -290.797398 
L 314.897523 -290.420308 
L 313.615148 -290.078254 
L 312.408803 -289.322421 
L 310.036917 -289.084162 
L 309.28995 -288.435912 
L 307.937228 -288.022132 
L 306.467156 -288.435912 
L 305.511625 -288.150773 
L 304.1588 -287.862465 
L 303.178993 -286.282662 
L 300.631805 -285.255941 
L 298.80421 -283.937385 
L 297.556751 -283.122108 
L 296.407531 -283.153793 
L 295.00037 -281.737815 
L 293.110381 -281.707578 
L 291.886785 -281.166077 
L 291.161821 -281.225419 
L 290.00413 -281.225419 
L 288.674031 -280.578826 
L 287.374818 -279.944264 
L 285.886876 -278.77993 
L 284.153801 -278.626308 
L 282.788373 -278.941369 
L 281.31045 -278.883238 
L 279.582333 -278.462896 
L 278.703451 -277.671204 
L 277.028844 -276.456852 
L 274.800752 -275.598716 
L 273.286778 -275.361677 
L 271.430465 -274.648329 
L 270.015866 -274.925323 
L 269.099589 -275.010178 
L 267.758643 -274.461698 
L 265.915966 -274.803752 
L 264.996177 -273.605212 
L 263.245024 -272.388249 
L 261.704708 -272.145858 
L 258.281221 -271.155555 
L 257.403992 -270.187115 
L 255.862126 -270.187115 
L 255.3856 -269.507112 
L 254.575516 -269.061579 
L 253.440449 -269.488489 
L 252.747818 -268.653391 
L 251.842388 -268.235691 
L 249.893208 -267.060836 
L 247.880084 -265.315382 
L 245.627613 -264.403184 
L 243.573583 -262.585374 
L 241.822534 -261.633903 
L 239.361602 -261.541947 
L 238.403695 -261.258796 
L 237.53318 -261.30848 
L 235.750004 -261.079586 
L 234.18438 -260.555703 
L 232.503988 -260.073046 
L 231.554035 -259.865422 
L 230.500885 -259.555117 
L 229.193202 -258.841768 
L 227.642452 -258.299084 
L 225.986439 -257.684955 
L 224.555932 -257.342901 
L 223.637796 -257.342901 
L 221.511248 -256.401906 
L 219.721358 -256.154973 
L 218.974391 -255.06119 
L 217.873722 -253.702927 
L 215.868037 -252.030558 
L 214.037962 -249.816314 
L 210.496816 -248.677981 
L 208.50084 -247.145697 
L 207.327551 -247.127219 
L 206.218825 -247.00297 
L 204.933145 -246.616528 
L 202.695033 -246.119062 
L 202.009943 -245.192226 
L 200.508985 -244.389638 
L 196.666304 -243.248888 
L 194.956161 -242.792738 
L 192.14597 -242.421443 
L 190.800582 -241.059845 
L 188.690563 -240.405799 
L 187.913949 -239.212043 
L 184.311855 -237.118154 
L 182.886719 -235.863848 
L 180.595923 -233.725184 
L 178.249242 -232.200565 
L 176.267213 -230.595708 
L 174.086536 -229.431374 
L 172.438684 -228.552737 
L 170.886281 -227.452701 
L 169.38429 -227.421379 
L 168.291266 -226.728961 
L 166.098916 -226.214091 
L 165.139769 -225.673941 
L 164.017201 -223.809595 
L 160.471922 -221.757534 
L 158.680069 -219.411448 
L 155.940226 -216.960793 
L 152.307968 -215.206433 
L 151.741364 -213.251432 
L 148.058902 -211.581011 
L 144.767226 -209.930304 
L 142.914426 -208.422307 
L 141.243331 -206.083397 
L 138.199061 -203.329861 
L 137.222146 -200.424503 
L 133.854958 -197.16046 
L 130.9519 -195.218854 
L 127.667145 -193.528974 
L 123.591005 -192.020977 
L 123.224597 -190.559093 
L 121.6786 -188.591886 
L 120.467193 -186.455592 
L 119.441107 -184.171262 
L 117.141325 -181.778528 
L 114.95228 -179.65668 
L 113.535512 -176.494882 
L 112.622334 -172.528665 
L 110.964565 -168.97942 
L 105.39511 -165.321899 
L 104.218619 -161.26627 
L 103.470309 -156.296793 
L 100.564771 -151.584592 
L 97.36462 -143.440589 
L 93.148817 -136.765953 
L 91.815206 -127.436898 
z
" style="stroke: #808080; stroke-opacity: 0.4"/>
    </defs>
    <g clip-path="url(#p65b89ac665)">
     <use xlink:href="#m1bdadc1be5" x="0" y="388.35685" style="fill: #808080; fill-opacity: 0.4; stroke: #808080; stroke-opacity: 0.4"/>
    </g>
   </g>
   <g id="PolyCollection_2">
    <defs>
     <path id="mf116ac74e6" d="M 91.815206 -95.828402 
L 91.815206 -149.176973 
L 93.148817 -135.153953 
L 97.36462 -139.813186 
L 100.564771 -146.611027 
L 103.470309 -151.996989 
L 104.218619 -156.508987 
L 105.39511 -160.696852 
L 110.964565 -164.414978 
L 112.622334 -167.946702 
L 113.535512 -171.285358 
L 114.95228 -174.199476 
L 117.141325 -175.486385 
L 119.441107 -176.697833 
L 120.467193 -178.246419 
L 121.6786 -179.998333 
L 123.224597 -182.370002 
L 123.591005 -183.982635 
L 127.667145 -186.88748 
L 130.9519 -189.741503 
L 133.854958 -192.174609 
L 137.222146 -194.935229 
L 138.199061 -196.131746 
L 141.243331 -197.978666 
L 142.914426 -200.510432 
L 144.767226 -202.741336 
L 148.058902 -205.233679 
L 151.741364 -207.28436 
L 152.307968 -208.651754 
L 155.940226 -209.93973 
L 158.680069 -210.713476 
L 160.471922 -211.627176 
L 164.017201 -212.787695 
L 165.139769 -214.961626 
L 166.098916 -216.881476 
L 168.291266 -218.870155 
L 169.38429 -220.98786 
L 170.886281 -221.830023 
L 172.438684 -223.650291 
L 174.086536 -224.497203 
L 176.267213 -225.267435 
L 178.249242 -226.021486 
L 180.595923 -225.930912 
L 182.886719 -226.614199 
L 184.311855 -227.056397 
L 187.913949 -228.353027 
L 188.690563 -229.760369 
L 190.800582 -231.251012 
L 192.14597 -231.902185 
L 194.956161 -233.125153 
L 196.666304 -234.625148 
L 200.508985 -235.947892 
L 202.009943 -237.678183 
L 202.695033 -238.703524 
L 204.933145 -239.994689 
L 206.218825 -240.415277 
L 207.327551 -240.983177 
L 208.50084 -240.604935 
L 210.496816 -240.297556 
L 214.037962 -240.833726 
L 215.868037 -241.596432 
L 217.873722 -242.862315 
L 218.974391 -243.775967 
L 219.721358 -244.43519 
L 221.511248 -244.355771 
L 223.637796 -244.637392 
L 224.555932 -245.059325 
L 225.986439 -245.84947 
L 227.642452 -246.30691 
L 229.193202 -246.887824 
L 230.500885 -248.026648 
L 231.554035 -248.754824 
L 232.503988 -249.543014 
L 234.18438 -250.982991 
L 235.750004 -250.631257 
L 237.53318 -251.434829 
L 238.403695 -252.795093 
L 239.361602 -253.706302 
L 241.822534 -254.73505 
L 243.573583 -255.413004 
L 245.627613 -255.642589 
L 247.880084 -255.834845 
L 249.893208 -256.909219 
L 251.842388 -257.709242 
L 252.747818 -258.71249 
L 253.440449 -259.407874 
L 254.575516 -259.232184 
L 255.3856 -258.874454 
L 255.862126 -258.805871 
L 257.403992 -258.474653 
L 258.281221 -259.237359 
L 261.704708 -259.598603 
L 263.245024 -259.959848 
L 264.996177 -260.370484 
L 265.915966 -260.414315 
L 267.758643 -260.384288 
L 269.099589 -260.512214 
L 270.015866 -260.714416 
L 271.430465 -261.17365 
L 273.286778 -261.506824 
L 274.800752 -261.682046 
L 277.028844 -262.385975 
L 278.703451 -262.528708 
L 279.582333 -263.042691 
L 281.31045 -263.8294 
L 282.788373 -264.894531 
L 284.153801 -266.680013 
L 285.886876 -267.782732 
L 287.374818 -268.255225 
L 288.674031 -268.378474 
L 290.00413 -268.47367 
L 291.161821 -269.034491 
L 291.886785 -269.92766 
L 293.110381 -270.0247 
L 295.00037 -269.780079 
L 296.407531 -270.313941 
L 297.556751 -270.641783 
L 298.80421 -271.34603 
L 300.631805 -272.462213 
L 303.178993 -272.775296 
L 304.1588 -273.732054 
L 305.511625 -274.533546 
L 306.467156 -274.826235 
L 307.937228 -275.535632 
L 309.28995 -275.183563 
L 310.036917 -275.176997 
L 312.408803 -275.587633 
L 313.615148 -275.648468 
L 314.897523 -275.94991 
L 315.966581 -275.94991 
L 316.886887 -275.488647 
L 318.030632 -275.541554 
L 320.447661 -275.923398 
L 321.57622 -276.613251 
L 322.530822 -276.573303 
L 323.410633 -276.493884 
L 324.24396 -276.85252 
L 325.276347 -276.493884 
L 326.470192 -277.197298 
L 328.234051 -277.478919 
L 329.602165 -277.478919 
L 332.000703 -277.76054 
L 334.247389 -278.81199 
L 335.326881 -280.14044 
L 336.627126 -281.027436 
L 337.877168 -282.345822 
L 340.72589 -282.093015 
L 344.953986 -281.728574 
L 347.645381 -282.325321 
L 348.848007 -282.775994 
L 350.327169 -283.766678 
L 351.526697 -284.694978 
L 353.118043 -285.458495 
L 355.828963 -285.581744 
L 356.984587 -286.439923 
L 359.00928 -286.871887 
L 360.332355 -287.593845 
L 360.864973 -288.464474 
L 361.708733 -288.8632 
L 362.502908 -289.675381 
L 363.370117 -289.392088 
L 364.649909 -290.054369 
L 366.31057 -290.144592 
L 367.294613 -289.832565 
L 368.513044 -290.494847 
L 370.116993 -290.265461 
L 371.050728 -289.891946 
L 372.301905 -290.44665 
L 373.464554 -290.459327 
L 374.360378 -290.820598 
L 375.347105 -291.133681 
L 377.426444 -290.94226 
L 382.134785 -290.94226 
L 383.694625 -290.873677 
L 385.297645 -291.286179 
L 386.648198 -291.91821 
L 390.848712 -292.379473 
L 392.770311 -292.992312 
L 395.596927 -293.682165 
L 398.396375 -293.682165 
L 399.339716 -293.884367 
L 400.563829 -294.68301 
L 401.83577 -294.955194 
L 403.121347 -295.510407 
L 404.71383 -296.467287 
L 405.449021 -296.23418 
L 406.111798 -296.158574 
L 407.082617 -295.603361 
L 408.368401 -294.947344 
L 409.189021 -294.962721 
L 409.828142 -296.007516 
L 410.854847 -296.732732 
L 411.915745 -296.885612 
L 413.160002 -297.390398 
L 413.875049 -296.895149 
L 415.170646 -297.38895 
L 416.424612 -298.008883 
L 417.68643 -298.71251 
L 419.101339 -299.217822 
L 420.517901 -299.606628 
L 421.567126 -300.201209 
L 422.790309 -300.080139 
L 423.275822 -300.879384 
L 423.93457 -300.762204 
L 424.860144 -301.105685 
L 425.683967 -301.206489 
L 427.392766 -300.847853 
L 429.277384 -302.286337 
L 432.273929 -303.2067 
L 433.622313 -303.54868 
L 435.827472 -304.103893 
L 438.328484 -304.271055 
L 439.827273 -303.955172 
L 441.601152 -305.282029 
L 442.27085 -305.844966 
L 443.234026 -305.192669 
L 445.230208 -305.508551 
L 445.975728 -305.19501 
L 446.747488 -305.354031 
L 448.056617 -305.9546 
L 449.696825 -306.03006 
L 451.384758 -305.913264 
L 453.195102 -305.743897 
L 456.554439 -306.418855 
L 457.503152 -306.849191 
L 458.373047 -307.279528 
L 459.27104 -307.84056 
L 460.504759 -307.539118 
L 461.728356 -307.589744 
L 462.791836 -307.640371 
L 463.796848 -307.640371 
L 464.923032 -307.992441 
L 466.296724 -308.631389 
L 468.023808 -308.504302 
L 471.266829 -308.965565 
L 473.755342 -309.376202 
L 474.511606 -308.941014 
L 475.308777 -309.310159 
L 477.536456 -309.310159 
L 478.607683 -309.23074 
L 479.80969 -309.989016 
L 480.584032 -310.359797 
L 481.703501 -310.835592 
L 484.636516 -311.507601 
L 485.521803 -311.187373 
L 487.834395 -311.340616 
L 489.359216 -311.865667 
L 491.516444 -311.35161 
L 492.274567 -310.913562 
L 493.368314 -312.078706 
L 494.000205 -311.629261 
L 496.019216 -312.070526 
L 496.846138 -313.316133 
L 497.242192 -312.57866 
L 497.905486 -312.530324 
L 497.905486 -282.457402 
L 497.905486 -282.457402 
L 497.242192 -281.725779 
L 496.846138 -281.671593 
L 496.019216 -280.866519 
L 494.000205 -280.282444 
L 493.368314 -280.858339 
L 492.274567 -280.314856 
L 491.516444 -280.560915 
L 489.359216 -280.388912 
L 487.834395 -280.230676 
L 485.521803 -280.041865 
L 484.636516 -279.379584 
L 481.703501 -279.367486 
L 480.584032 -278.81794 
L 479.80969 -278.163381 
L 478.607683 -278.579603 
L 477.536456 -278.158951 
L 475.308777 -278.158951 
L 474.511606 -278.528096 
L 473.755342 -277.751675 
L 471.266829 -277.820258 
L 468.023808 -277.597414 
L 466.296724 -277.470326 
L 464.923032 -277.767221 
L 463.796848 -277.436003 
L 462.791836 -277.436003 
L 461.728356 -277.144577 
L 460.504759 -276.85315 
L 459.27104 -276.892941 
L 458.373047 -277.11274 
L 457.503152 -276.517736 
L 456.554439 -275.922732 
L 453.195102 -275.572349 
L 451.384758 -274.377642 
L 449.696825 -274.260845 
L 448.056617 -273.995072 
L 446.747488 -273.570301 
L 445.975728 -274.070555 
L 445.230208 -274.782355 
L 443.234026 -274.756183 
L 442.27085 -274.787993 
L 441.601152 -273.984357 
L 439.827273 -272.577245 
L 438.328484 -272.603416 
L 435.827472 -272.08647 
L 433.622313 -271.957576 
L 432.273929 -271.957503 
L 429.277384 -271.168418 
L 427.392766 -270.214987 
L 425.683967 -269.856352 
L 424.860144 -269.615923 
L 423.93457 -269.61817 
L 423.275822 -269.842224 
L 422.790309 -269.274895 
L 421.567126 -269.153824 
L 420.517901 -268.038958 
L 419.101339 -268.427764 
L 417.68643 -267.907735 
L 416.424612 -267.243968 
L 415.170646 -267.522668 
L 413.875049 -266.307841 
L 413.160002 -266.49588 
L 411.915745 -266.317379 
L 410.854847 -265.786152 
L 409.828142 -265.143974 
L 409.189021 -264.480141 
L 408.368401 -264.153464 
L 407.082617 -264.522788 
L 406.111798 -264.651682 
L 405.449021 -264.234022 
L 404.71383 -264.000916 
L 403.121347 -263.249167 
L 401.83577 -263.120273 
L 400.563829 -263.050404 
L 399.339716 -262.823707 
L 398.396375 -262.342622 
L 395.596927 -262.342622 
L 392.770311 -262.349188 
L 390.848712 -261.936686 
L 386.648198 -261.713842 
L 385.297645 -261.320532 
L 383.694625 -260.707694 
L 382.134785 -260.297057 
L 377.426444 -260.297057 
L 375.347105 -259.764403 
L 374.360378 -259.735432 
L 373.464554 -259.413417 
L 372.301905 -258.742806 
L 371.050728 -258.955457 
L 370.116993 -259.266049 
L 368.513044 -259.036664 
L 367.294613 -259.356891 
L 366.31057 -259.386918 
L 364.649909 -258.4518 
L 363.370117 -258.772028 
L 362.502908 -258.147502 
L 361.708733 -256.909002 
L 360.864973 -256.62362 
L 360.332355 -255.443568 
L 359.00928 -255.140186 
L 356.984587 -254.888042 
L 355.828963 -254.379648 
L 353.118043 -254.502897 
L 351.526697 -253.89902 
L 350.327169 -253.118692 
L 348.848007 -251.716641 
L 347.645381 -250.458687 
L 344.953986 -250.030094 
L 340.72589 -250.007706 
L 337.877168 -250.096952 
L 336.627126 -249.364658 
L 335.326881 -247.858919 
L 334.247389 -246.794634 
L 332.000703 -246.478691 
L 329.602165 -246.418258 
L 328.234051 -246.418258 
L 326.470192 -246.357826 
L 325.276347 -246.377952 
L 324.24396 -246.019317 
L 323.410633 -246.377952 
L 322.530822 -245.9573 
L 321.57622 -245.233245 
L 320.447661 -245.239811 
L 318.030632 -244.596315 
L 316.886887 -244.307168 
L 315.966581 -244.530011 
L 314.897523 -244.530011 
L 313.615148 -244.49022 
L 312.408803 -244.209002 
L 310.036917 -244.277585 
L 309.28995 -243.587732 
L 307.937228 -243.918949 
L 306.467156 -243.94506 
L 305.511625 -243.212408 
L 304.1588 -242.98856 
L 303.178993 -241.552583 
L 300.631805 -241.523612 
L 298.80421 -240.931168 
L 297.556751 -240.268021 
L 296.407531 -240.254629 
L 295.00037 -239.079864 
L 293.110381 -238.835242 
L 291.886785 -238.590229 
L 291.161821 -238.116004 
L 290.00413 -237.993538 
L 288.674031 -237.746681 
L 287.374818 -237.86993 
L 285.886876 -237.317082 
L 284.153801 -236.027066 
L 282.788373 -234.736527 
L 281.31045 -233.409744 
L 279.582333 -233.171112 
L 278.703451 -233.685095 
L 277.028844 -233.485774 
L 274.800752 -232.822309 
L 273.286778 -231.97219 
L 271.430465 -230.937971 
L 270.015866 -230.371864 
L 269.099589 -229.890779 
L 267.758643 -230.018705 
L 265.915966 -230.330732 
L 264.996177 -230.033329 
L 263.245024 -230.101912 
L 261.704708 -229.437816 
L 258.281221 -228.77372 
L 257.403992 -228.511085 
L 255.862126 -228.863154 
L 255.3856 -228.452518 
L 254.575516 -228.094788 
L 253.440449 -227.577043 
L 252.747818 -226.221747 
L 251.842388 -226.541708 
L 249.893208 -225.633103 
L 247.880084 -225.682137 
L 245.627613 -225.53316 
L 243.573583 -224.054118 
L 241.822534 -224.390017 
L 239.361602 -222.684797 
L 238.403695 -221.545326 
L 237.53318 -220.512855 
L 235.750004 -218.923692 
L 234.18438 -219.255245 
L 232.503988 -218.644541 
L 231.554035 -218.065337 
L 230.500885 -217.768173 
L 229.193202 -216.514262 
L 227.642452 -215.727782 
L 225.986439 -215.159882 
L 224.555932 -214.924686 
L 223.637796 -214.663331 
L 221.511248 -214.602899 
L 219.721358 -214.182247 
L 218.974391 -213.132843 
L 217.873722 -212.6791 
L 215.868037 -212.236356 
L 214.037962 -211.973721 
L 210.496816 -211.484551 
L 208.50084 -210.835938 
L 207.327551 -209.774409 
L 206.218825 -209.316969 
L 204.933145 -208.370163 
L 202.695033 -207.610647 
L 202.009943 -206.585307 
L 200.508985 -204.897523 
L 196.666304 -203.828352 
L 194.956161 -202.252325 
L 192.14597 -201.082559 
L 190.800582 -200.708391 
L 188.690563 -199.464247 
L 187.913949 -198.820907 
L 184.311855 -198.066856 
L 182.886719 -196.458373 
L 180.595923 -195.775086 
L 178.249242 -195.342458 
L 176.267213 -194.045828 
L 174.086536 -193.79072 
L 172.438684 -192.928185 
L 170.886281 -190.989143 
L 169.38429 -190.463912 
L 168.291266 -188.822309 
L 166.098916 -186.709626 
L 165.139769 -185.211401 
L 164.017201 -183.28397 
L 160.471922 -181.368467 
L 158.680069 -180.57354 
L 155.940226 -179.296605 
L 152.307968 -177.508559 
L 151.741364 -176.141165 
L 148.058902 -174.090484 
L 144.767226 -172.139412 
L 142.914426 -170.268953 
L 141.243331 -168.01607 
L 138.199061 -166.444915 
L 137.222146 -164.907464 
L 133.854958 -162.541382 
L 130.9519 -160.189839 
L 127.667145 -157.233871 
L 123.591005 -154.669961 
L 123.224597 -152.865338 
L 121.6786 -151.135646 
L 120.467193 -149.469485 
L 119.441107 -147.600816 
L 117.141325 -147.102816 
L 114.95228 -144.97165 
L 113.535512 -141.392491 
L 112.622334 -137.553764 
L 110.964565 -133.224816 
L 105.39511 -129.765559 
L 104.218619 -126.433987 
L 103.470309 -122.401208 
L 100.564771 -116.850477 
L 97.36462 -109.635604 
L 93.148817 -104.041432 
L 91.815206 -95.828402 
z
" style="stroke: #808080; stroke-opacity: 0.4"/>
    </defs>
    <g clip-path="url(#p65b89ac665)">
     <use xlink:href="#mf116ac74e6" x="0" y="388.35685" style="fill: #808080; fill-opacity: 0.4; stroke: #808080; stroke-opacity: 0.4"/>
    </g>
   </g>
   <g id="PolyCollection_3">
    <defs>
     <path id="mb352108f6c" d="M 91.815206 -66.495455 
L 91.815206 -116.646615 
L 93.148817 -100.414013 
L 97.36462 -105.275026 
L 100.564771 -111.795749 
L 103.470309 -117.129361 
L 104.218619 -121.547928 
L 105.39511 -125.051172 
L 110.964565 -129.30976 
L 112.622334 -131.937297 
L 113.535512 -135.3794 
L 114.95228 -138.856571 
L 117.141325 -140.84019 
L 119.441107 -143.054516 
L 120.467193 -144.617733 
L 121.6786 -145.377527 
L 123.224597 -146.470645 
L 123.591005 -147.617262 
L 127.667145 -150.435262 
L 130.9519 -154.087667 
L 133.854958 -157.0854 
L 137.222146 -160.118075 
L 138.199061 -161.018585 
L 141.243331 -162.109212 
L 142.914426 -163.021673 
L 144.767226 -164.613757 
L 148.058902 -167.498232 
L 151.741364 -170.670835 
L 152.307968 -173.718435 
L 155.940226 -176.014995 
L 158.680069 -176.945944 
L 160.471922 -177.193607 
L 164.017201 -178.099871 
L 165.139769 -178.480661 
L 166.098916 -178.971813 
L 168.291266 -180.395301 
L 169.38429 -181.313059 
L 170.886281 -183.561574 
L 172.438684 -186.055174 
L 174.086536 -187.838621 
L 176.267213 -189.45901 
L 178.249242 -190.306876 
L 180.595923 -191.032594 
L 182.886719 -191.679358 
L 184.311855 -192.47761 
L 187.913949 -193.236589 
L 188.690563 -193.627481 
L 190.800582 -193.875143 
L 192.14597 -194.369466 
L 194.956161 -195.260018 
L 196.666304 -196.612095 
L 200.508985 -198.271884 
L 202.009943 -198.897646 
L 202.695033 -200.212787 
L 204.933145 -201.509015 
L 206.218825 -202.299005 
L 207.327551 -204.761886 
L 208.50084 -205.544762 
L 210.496816 -206.246237 
L 214.037962 -207.806551 
L 215.868037 -208.030232 
L 217.873722 -208.856748 
L 218.974391 -209.217439 
L 219.721358 -209.217439 
L 221.511248 -209.373163 
L 223.637796 -209.659438 
L 224.555932 -209.815161 
L 225.986439 -209.810255 
L 227.642452 -210.084036 
L 229.193202 -210.045423 
L 230.500885 -211.107126 
L 231.554035 -211.203301 
L 232.503988 -211.725894 
L 234.18438 -211.950842 
L 235.750004 -211.240851 
L 237.53318 -211.837094 
L 238.403695 -212.456838 
L 239.361602 -212.733833 
L 241.822534 -214.203837 
L 243.573583 -215.267383 
L 245.627613 -215.961286 
L 247.880084 -217.909123 
L 249.893208 -219.199792 
L 251.842388 -220.188307 
L 252.747818 -221.663232 
L 253.440449 -222.054306 
L 254.575516 -222.558086 
L 255.3856 -223.116717 
L 255.862126 -222.937351 
L 257.403992 -223.477494 
L 258.281221 -223.62022 
L 261.704708 -224.105118 
L 263.245024 -224.626538 
L 264.996177 -224.956012 
L 265.915966 -225.447988 
L 267.758643 -225.761342 
L 269.099589 -226.085208 
L 270.015866 -226.238624 
L 271.430465 -226.362901 
L 273.286778 -226.362901 
L 274.800752 -226.487177 
L 277.028844 -226.763266 
L 278.703451 -226.781697 
L 279.582333 -227.35084 
L 281.31045 -227.312227 
L 282.788373 -228.136532 
L 284.153801 -228.525299 
L 285.886876 -228.768065 
L 287.374818 -229.483798 
L 288.674031 -228.737423 
L 290.00413 -229.268114 
L 291.161821 -230.397054 
L 291.886785 -230.909785 
L 293.110381 -231.722407 
L 295.00037 -232.405694 
L 296.407531 -232.44928 
L 297.556751 -233.034021 
L 298.80421 -233.993115 
L 300.631805 -234.51492 
L 303.178993 -235.274965 
L 304.1588 -236.197445 
L 305.511625 -236.905044 
L 306.467156 -237.371753 
L 307.937228 -237.459134 
L 309.28995 -237.893862 
L 310.036917 -238.42069 
L 312.408803 -239.080145 
L 313.615148 -239.514872 
L 314.897523 -239.576091 
L 315.966581 -239.940196 
L 316.886887 -240.293053 
L 318.030632 -240.472419 
L 320.447661 -241.094487 
L 321.57622 -241.436541 
L 322.530822 -241.639811 
L 323.410633 -242.143732 
L 324.24396 -241.981865 
L 325.276347 -241.713524 
L 326.470192 -241.54147 
L 328.234051 -241.846177 
L 329.602165 -242.159531 
L 332.000703 -242.462915 
L 334.247389 -242.624782 
L 335.326881 -242.332569 
L 336.627126 -242.467357 
L 337.877168 -242.619169 
L 340.72589 -243.339798 
L 344.953986 -244.020778 
L 347.645381 -244.543372 
L 348.848007 -245.102003 
L 350.327169 -245.074847 
L 351.526697 -245.102003 
L 353.118043 -245.623182 
L 355.828963 -246.153948 
L 356.984587 -246.827869 
L 359.00928 -247.685216 
L 360.332355 -248.26262 
L 360.864973 -248.969231 
L 361.708733 -249.120718 
L 362.502908 -249.500748 
L 363.370117 -249.265397 
L 364.649909 -249.368258 
L 366.31057 -249.179424 
L 367.294613 -249.357339 
L 368.513044 -249.643244 
L 370.116993 -250.011633 
L 371.050728 -251.321176 
L 372.301905 -251.814884 
L 373.464554 -252.697804 
L 374.360378 -252.965988 
L 375.347105 -252.898499 
L 377.426444 -253.581786 
L 382.134785 -254.296281 
L 383.694625 -254.687355 
L 385.297645 -255.670675 
L 386.648198 -255.955201 
L 390.848712 -255.955201 
L 392.770311 -256.63807 
L 395.596927 -256.537246 
L 398.396375 -256.8793 
L 399.339716 -257.437735 
L 400.563829 -257.767712 
L 401.83577 -258.708803 
L 403.121347 -258.708803 
L 404.71383 -259.696793 
L 405.449021 -260.287406 
L 406.111798 -259.99308 
L 407.082617 -260.605732 
L 408.368401 -259.617742 
L 409.189021 -259.616038 
L 409.828142 -260.447838 
L 410.854847 -260.43834 
L 411.915745 -261.146476 
L 413.160002 -260.419339 
L 413.875049 -260.308169 
L 415.170646 -260.596991 
L 416.424612 -260.596991 
L 417.68643 -261.589595 
L 419.101339 -261.589595 
L 420.517901 -261.991784 
L 421.567126 -262.400016 
L 422.790309 -262.134549 
L 423.275822 -262.54278 
L 423.93457 -262.131111 
L 424.860144 -262.131111 
L 425.683967 -262.671063 
L 427.392766 -262.671063 
L 429.277384 -263.079295 
L 432.273929 -263.317828 
L 433.622313 -263.440363 
L 435.827472 -263.535666 
L 438.328484 -263.774199 
L 439.827273 -263.984782 
L 441.601152 -263.984782 
L 442.27085 -264.481321 
L 443.234026 -264.338092 
L 445.230208 -264.376067 
L 445.975728 -265.404413 
L 446.747488 -265.501889 
L 448.056617 -265.998428 
L 449.696825 -266.200655 
L 451.384758 -265.971594 
L 453.195102 -266.289335 
L 456.554439 -267.551979 
L 457.503152 -268.3059 
L 458.373047 -268.39114 
L 459.27104 -268.964331 
L 460.504759 -268.41024 
L 461.728356 -268.250094 
L 462.791836 -268.3022 
L 463.796848 -268.290529 
L 464.923032 -269.093688 
L 466.296724 -269.321324 
L 468.023808 -269.976817 
L 471.266829 -269.976817 
L 473.755342 -269.976817 
L 474.511606 -270.425742 
L 475.308777 -270.857068 
L 477.536456 -271.577701 
L 478.607683 -271.84827 
L 479.80969 -271.99217 
L 480.584032 -273.215622 
L 481.703501 -273.705825 
L 484.636516 -273.800283 
L 485.521803 -274.90336 
L 487.834395 -274.052198 
L 489.359216 -274.052198 
L 491.516444 -274.693464 
L 492.274567 -274.85627 
L 493.368314 -276.142296 
L 494.000205 -276.629706 
L 496.019216 -277.170917 
L 496.846138 -277.572351 
L 497.242192 -276.578684 
L 497.905486 -276.284358 
L 497.905486 -247.271585 
L 497.905486 -247.271585 
L 497.242192 -247.319313 
L 496.846138 -247.350987 
L 496.019216 -247.410367 
L 494.000205 -247.609525 
L 493.368314 -247.071594 
L 492.274567 -247.332279 
L 491.516444 -247.153852 
L 489.359216 -246.769778 
L 487.834395 -246.769778 
L 485.521803 -246.259849 
L 484.636516 -245.995532 
L 481.703501 -245.406702 
L 480.584032 -245.213619 
L 479.80969 -245.070497 
L 478.607683 -245.214397 
L 477.536456 -245.484966 
L 475.308777 -245.180259 
L 474.511606 -244.586244 
L 473.755342 -244.009828 
L 471.266829 -244.009828 
L 468.023808 -244.009828 
L 466.296724 -242.955874 
L 464.923032 -242.15817 
L 463.796848 -241.593934 
L 462.791836 -240.898156 
L 461.728356 -241.292316 
L 460.504759 -241.815456 
L 459.27104 -241.945473 
L 458.373047 -241.835377 
L 457.503152 -241.578563 
L 456.554439 -240.96591 
L 453.195102 -239.835819 
L 451.384758 -239.470273 
L 449.696825 -240.266553 
L 448.056617 -239.784673 
L 446.747488 -239.597925 
L 445.975728 -239.353347 
L 445.230208 -237.647725 
L 443.234026 -238.027755 
L 442.27085 -237.884525 
L 441.601152 -237.697777 
L 439.827273 -237.697777 
L 438.328484 -237.225073 
L 435.827472 -236.779499 
L 433.622313 -236.190695 
L 432.273929 -235.971177 
L 429.277384 -235.525602 
L 427.392766 -235.592601 
L 425.683967 -235.592601 
L 424.860144 -235.449266 
L 423.93457 -235.449266 
L 423.275822 -235.037596 
L 422.790309 -235.104595 
L 421.567126 -234.497074 
L 420.517901 -234.564073 
L 419.101339 -234.624208 
L 417.68643 -234.624208 
L 416.424612 -234.933525 
L 415.170646 -234.933525 
L 413.875049 -235.222347 
L 413.160002 -234.085837 
L 411.915745 -234.38404 
L 410.854847 -233.724782 
L 409.828142 -233.37323 
L 409.189021 -233.520923 
L 408.368401 -233.177166 
L 407.082617 -233.556569 
L 406.111798 -232.802648 
L 405.449021 -232.850375 
L 404.71383 -232.415647 
L 403.121347 -232.036244 
L 401.83577 -232.036244 
L 400.563829 -231.609941 
L 399.339716 -231.256631 
L 398.396375 -230.106438 
L 395.596927 -229.764385 
L 392.770311 -229.322328 
L 390.848712 -228.979857 
L 386.648198 -228.979857 
L 385.297645 -228.239042 
L 383.694625 -227.512914 
L 382.134785 -227.220701 
L 377.426444 -226.225748 
L 375.347105 -225.542461 
L 374.360378 -225.817026 
L 373.464554 -225.401103 
L 372.301905 -224.917449 
L 371.050728 -225.069103 
L 370.116993 -223.985911 
L 368.513044 -224.013067 
L 367.294613 -224.298973 
L 366.31057 -223.7936 
L 364.649909 -224.288873 
L 363.370117 -223.366394 
L 362.502908 -223.472277 
L 361.708733 -223.510253 
L 360.864973 -222.636399 
L 360.332355 -221.975616 
L 359.00928 -221.52768 
L 356.984587 -220.6764 
L 355.828963 -220.666213 
L 353.118043 -220.513692 
L 351.526697 -220.351584 
L 350.327169 -220.719973 
L 348.848007 -220.351584 
L 347.645381 -219.884875 
L 344.953986 -219.382128 
L 340.72589 -218.35448 
L 337.877168 -217.365662 
L 336.627126 -217.517474 
L 335.326881 -217.310208 
L 334.247389 -217.701282 
L 332.000703 -217.521916 
L 329.602165 -217.141193 
L 328.234051 -216.087973 
L 326.470192 -215.367339 
L 325.276347 -216.220626 
L 324.24396 -215.611052 
L 323.410633 -215.790418 
L 322.530822 -215.268998 
L 321.57622 -214.104875 
L 320.447661 -213.762821 
L 318.030632 -213.701602 
L 316.886887 -213.539735 
L 315.966581 -213.209305 
L 314.897523 -212.890123 
L 313.615148 -212.268055 
L 312.408803 -211.677442 
L 310.036917 -211.65279 
L 309.28995 -211.49633 
L 307.937228 -210.905718 
L 306.467156 -211.334332 
L 305.511625 -210.775701 
L 304.1588 -210.115906 
L 303.178993 -210.013045 
L 300.631805 -209.064463 
L 298.80421 -208.560927 
L 297.556751 -208.152627 
L 296.407531 -207.027921 
L 295.00037 -206.388219 
L 293.110381 -205.704932 
L 291.886785 -205.492214 
L 291.161821 -205.321658 
L 290.00413 -205.083204 
L 288.674031 -204.929788 
L 287.374818 -204.525466 
L 285.886876 -204.557912 
L 284.153801 -204.117391 
L 282.788373 -203.480818 
L 281.31045 -203.279783 
L 279.582333 -202.899116 
L 278.703451 -202.784151 
L 277.028844 -203.144637 
L 274.800752 -202.737438 
L 273.286778 -202.178427 
L 271.430465 -202.178427 
L 270.015866 -201.619417 
L 269.099589 -201.088726 
L 267.758643 -200.387251 
L 265.915966 -199.334032 
L 264.996177 -198.458614 
L 263.245024 -198.104801 
L 261.704708 -197.60088 
L 258.281221 -197.401671 
L 257.403992 -197.544397 
L 255.862126 -197.0592 
L 255.3856 -197.221067 
L 254.575516 -196.754357 
L 253.440449 -196.574851 
L 252.747818 -196.282638 
L 251.842388 -195.706882 
L 249.893208 -194.644715 
L 247.880084 -193.54265 
L 245.627613 -192.414465 
L 243.573583 -191.399741 
L 241.822534 -191.437947 
L 239.361602 -190.515215 
L 238.403695 -190.450157 
L 237.53318 -190.044561 
L 235.750004 -189.27423 
L 234.18438 -189.248345 
L 232.503988 -188.790006 
L 231.554035 -188.287259 
L 230.500885 -187.699327 
L 229.193202 -186.368295 
L 227.642452 -185.987629 
L 225.986439 -185.23607 
L 224.555932 -184.547876 
L 223.637796 -184.361546 
L 221.511248 -183.280427 
L 219.721358 -183.094097 
L 218.974391 -183.094097 
L 217.873722 -182.429447 
L 215.868037 -181.88939 
L 214.037962 -181.08773 
L 210.496816 -179.914076 
L 208.50084 -179.590211 
L 207.327551 -179.005693 
L 206.218825 -177.709265 
L 204.933145 -176.789807 
L 202.695033 -176.035354 
L 202.009943 -174.957761 
L 200.508985 -174.558182 
L 196.666304 -173.826057 
L 194.956161 -172.786219 
L 192.14597 -171.968144 
L 190.800582 -171.095073 
L 188.690563 -169.633287 
L 187.913949 -168.314731 
L 184.311855 -167.023029 
L 182.886719 -165.7706 
L 180.595923 -165.392024 
L 178.249242 -164.409114 
L 176.267213 -163.2063 
L 174.086536 -162.09272 
L 172.438684 -161.1422 
L 170.886281 -160.559778 
L 169.38429 -160.757612 
L 168.291266 -159.966742 
L 166.098916 -158.656262 
L 165.139769 -157.438787 
L 164.017201 -155.426842 
L 160.471922 -154.282426 
L 158.680069 -152.82064 
L 155.940226 -150.675568 
L 152.307968 -148.870765 
L 151.741364 -147.132897 
L 148.058902 -145.52085 
L 144.767226 -143.619856 
L 142.914426 -142.135919 
L 141.243331 -139.972358 
L 138.199061 -137.303676 
L 137.222146 -135.128165 
L 133.854958 -132.008797 
L 130.9519 -129.879827 
L 127.667145 -128.063476 
L 123.591005 -126.438881 
L 123.224597 -124.851529 
L 121.6786 -122.527393 
L 120.467193 -120.211166 
L 119.441107 -118.014253 
L 117.141325 -116.127217 
L 114.95228 -114.350707 
L 113.535512 -111.333782 
L 112.622334 -107.940555 
L 110.964565 -104.758103 
L 105.39511 -100.813966 
L 104.218619 -97.823934 
L 103.470309 -93.35649 
L 100.564771 -88.777929 
L 97.36462 -82.31128 
L 93.148817 -77.260121 
L 91.815206 -66.495455 
z
" style="stroke: #808080; stroke-opacity: 0.4"/>
    </defs>
    <g clip-path="url(#p65b89ac665)">
     <use xlink:href="#mb352108f6c" x="0" y="388.35685" style="fill: #808080; fill-opacity: 0.4; stroke: #808080; stroke-opacity: 0.4"/>
    </g>
   </g>
   <g id="line2d_35">
    <path d="M 91.815206 244.835092 
L 93.148817 240.221059 
L 97.36462 233.556346 
L 100.564771 225.695265 
L 103.470309 220.568563 
L 104.218619 215.44186 
L 105.39511 211.511525 
L 110.964565 207.581189 
L 112.622334 204.163524 
L 113.535512 200.574832 
L 114.95228 197.327784 
L 119.441107 192.542315 
L 120.467193 190.320607 
L 121.6786 188.440953 
L 123.224597 187.073969 
L 123.591005 186.048628 
L 127.667145 184.339591 
L 130.9519 181.946856 
L 133.854958 179.383505 
L 137.222146 175.96584 
L 138.199061 173.231872 
L 141.243331 171.181191 
L 142.914426 169.301536 
L 144.767226 167.592499 
L 148.058902 165.883461 
L 151.741364 163.662163 
L 152.307968 161.269429 
L 155.940226 159.389775 
L 160.471922 155.288413 
L 164.017201 153.750402 
L 165.139769 152.212391 
L 166.098916 151.528694 
L 168.291266 150.67438 
L 169.38429 149.64904 
L 170.886281 149.136369 
L 172.438684 147.769385 
L 174.086536 147.085688 
L 176.267213 145.718704 
L 178.249242 144.180694 
L 180.595923 142.813299 
L 182.886719 140.762618 
L 184.311855 139.737278 
L 187.913949 138.02824 
L 188.690563 137.173927 
L 190.800582 136.490229 
L 192.14597 135.464889 
L 194.956161 135.123245 
L 196.666304 134.610575 
L 200.508985 133.243591 
L 202.009943 131.70558 
L 202.695033 130.338596 
L 206.218825 128.117299 
L 207.327551 128.288326 
L 208.50084 128.117299 
L 210.496816 127.091958 
L 214.037962 126.237234 
L 215.868037 124.35717 
L 217.873722 123.160803 
L 219.721358 121.452175 
L 221.511248 121.281559 
L 223.637796 120.256218 
L 224.555932 120.256218 
L 225.986439 119.914164 
L 227.642452 119.401494 
L 229.193202 119.059851 
L 231.554035 117.863483 
L 237.53318 115.812392 
L 238.403695 115.641776 
L 239.361602 115.129105 
L 241.822534 114.445408 
L 243.573583 113.420068 
L 245.627613 111.369387 
L 247.880084 110.344046 
L 249.893208 108.635419 
L 251.842388 107.610078 
L 252.747818 107.268025 
L 253.440449 106.584738 
L 254.575516 106.926381 
L 255.3856 106.584738 
L 255.862126 106.072067 
L 257.403992 106.072067 
L 258.281221 105.559397 
L 261.704708 104.8757 
L 263.245024 104.705083 
L 264.996177 103.85036 
L 265.915966 102.825019 
L 267.758643 103.167073 
L 269.099589 102.483376 
L 271.430465 102.825429 
L 273.286778 102.141732 
L 274.800752 102.312759 
L 277.028844 101.458445 
L 278.703451 100.262078 
L 279.582333 99.407764 
L 282.788373 97.869343 
L 284.153801 98.04037 
L 285.886876 97.356673 
L 287.374818 95.989689 
L 288.674031 95.477019 
L 290.00413 94.622295 
L 291.161821 94.622295 
L 291.886785 94.963938 
L 293.110381 94.451268 
L 295.00037 94.280651 
L 296.407531 92.913667 
L 297.556751 92.400997 
L 298.80421 91.7173 
L 300.631805 90.862576 
L 303.178993 90.349906 
L 304.1588 89.324565 
L 306.467156 88.641278 
L 307.937228 88.811895 
L 309.28995 88.641278 
L 310.036917 88.299635 
L 312.408803 88.128608 
L 313.615148 87.615938 
L 314.897523 87.273884 
L 316.886887 85.9069 
L 318.030632 85.9069 
L 321.57622 85.736284 
L 322.530822 85.39423 
L 323.410633 84.88156 
L 325.276347 84.197863 
L 326.470192 84.36889 
L 328.234051 84.027246 
L 329.602165 84.198273 
L 332.000703 83.343549 
L 334.247389 81.805538 
L 335.326881 81.463895 
L 336.627126 79.754857 
L 337.877168 79.584241 
L 340.72589 79.413214 
L 344.953986 78.04582 
L 347.645381 77.704176 
L 348.848007 76.507809 
L 350.327169 76.166165 
L 351.526697 75.482878 
L 353.118043 74.799181 
L 355.828963 74.286511 
L 356.984587 73.261171 
L 359.00928 73.602814 
L 360.332355 73.090144 
L 360.864973 73.261171 
L 361.708733 73.261171 
L 362.502908 72.7485 
L 367.294613 71.72357 
L 368.513044 71.2109 
L 370.116993 70.698229 
L 373.464554 70.185149 
L 374.360378 70.356176 
L 375.347105 70.356176 
L 377.426444 69.672479 
L 382.134785 69.843506 
L 383.694625 68.305495 
L 385.297645 66.938511 
L 386.648198 66.425841 
L 390.848712 65.4005 
L 392.770311 65.4005 
L 398.396375 64.033516 
L 399.339716 63.349819 
L 400.563829 62.666122 
L 401.83577 62.666122 
L 403.121347 62.324068 
L 404.71383 62.324068 
L 409.189021 59.07702 
L 409.828142 58.393323 
L 410.854847 58.735376 
L 411.915745 59.58969 
L 413.160002 59.58969 
L 413.875049 60.444414 
L 415.170646 59.58969 
L 416.424612 58.906403 
L 417.68643 58.56476 
L 419.101339 57.881063 
L 420.517901 57.881063 
L 421.567126 56.855722 
L 422.790309 57.368393 
L 423.275822 56.343052 
L 423.93457 56.343052 
L 424.860144 56.172025 
L 425.683967 55.659355 
L 427.392766 55.659355 
L 429.277384 55.146685 
L 432.273929 55.146685 
L 433.622313 54.805041 
L 435.827472 54.634014 
L 439.827273 54.121344 
L 441.601152 53.26662 
L 442.27085 53.096004 
L 443.234026 52.24169 
L 445.230208 51.045733 
L 445.975728 50.875116 
L 448.056617 50.020392 
L 449.696825 50.533062 
L 451.384758 50.362036 
L 453.195102 50.020392 
L 456.554439 50.191009 
L 457.503152 48.823615 
L 458.373047 47.798274 
L 460.504759 46.602317 
L 461.728356 46.602317 
L 462.791836 46.773344 
L 463.796848 46.260674 
L 464.923032 46.089647 
L 466.296724 46.260674 
L 468.023808 46.089647 
L 471.266829 45.91862 
L 473.755342 45.40595 
L 474.511606 44.893279 
L 475.308777 44.038966 
L 478.607683 42.159311 
L 479.80969 41.304998 
L 480.584032 41.133971 
L 481.703501 41.475614 
L 485.521803 40.10822 
L 487.834395 40.279247 
L 489.359216 39.253907 
L 491.516444 39.424933 
L 492.274567 39.254317 
L 493.368314 38.399593 
L 494.000205 38.912263 
L 497.242192 38.057949 
L 497.905486 37.545279 
L 497.905486 37.545279 
" clip-path="url(#p65b89ac665)" style="fill: none; stroke: #440154; stroke-width: 2; stroke-linecap: round"/>
   </g>
   <g id="line2d_36">
    <path d="M 91.815206 265.854162 
L 93.148817 268.759157 
L 97.36462 263.632454 
L 100.564771 256.626098 
L 103.470309 251.157751 
L 104.218619 246.885363 
L 105.39511 243.125644 
L 110.964565 239.536952 
L 112.622334 235.606617 
L 113.535512 232.017925 
L 114.95228 228.771287 
L 117.141325 227.062249 
L 119.441107 226.207525 
L 120.467193 224.498898 
L 123.224597 220.739179 
L 123.591005 219.030552 
L 127.667145 216.296174 
L 130.9519 213.391179 
L 133.854958 210.998854 
L 137.222146 208.435503 
L 138.199061 207.068519 
L 141.243331 205.359481 
L 142.914426 202.967157 
L 144.767226 200.916476 
L 148.058902 198.694768 
L 151.741364 196.644087 
L 152.307968 195.276693 
L 155.940226 193.738682 
L 158.680069 192.713342 
L 160.471922 191.859028 
L 164.017201 190.321017 
L 166.098916 186.561298 
L 168.291266 184.510617 
L 169.38429 182.630963 
L 170.886281 181.947266 
L 172.438684 180.067612 
L 174.086536 179.212888 
L 176.267213 178.700218 
L 178.249242 177.674877 
L 180.595923 177.50385 
L 182.886719 176.820564 
L 184.311855 175.795223 
L 187.913949 174.769882 
L 188.690563 173.744542 
L 190.800582 172.377148 
L 192.14597 171.864478 
L 194.956161 170.66811 
L 196.666304 169.130099 
L 200.508985 167.934142 
L 202.009943 166.225105 
L 202.695033 165.199764 
L 208.50084 162.636413 
L 210.496816 162.465796 
L 214.037962 161.953126 
L 215.868037 161.440456 
L 217.873722 160.586142 
L 218.974391 159.902445 
L 219.721358 159.048131 
L 223.637796 158.706488 
L 225.986439 157.852174 
L 227.642452 157.339504 
L 229.193202 156.655807 
L 230.500885 155.459439 
L 231.554035 154.946769 
L 232.503988 154.263072 
L 234.18438 153.237731 
L 235.750004 153.579375 
L 237.53318 152.383008 
L 238.403695 151.18664 
L 239.361602 150.1613 
L 241.822534 148.794316 
L 243.573583 148.623289 
L 245.627613 147.768975 
L 247.880084 147.598359 
L 249.893208 147.085688 
L 252.747818 145.889731 
L 253.440449 144.864391 
L 254.575516 144.693364 
L 255.3856 144.693364 
L 255.862126 144.522337 
L 257.403992 144.86398 
L 258.281221 144.35131 
L 261.704708 143.83864 
L 263.245024 143.32597 
L 265.915966 142.984326 
L 267.758643 143.155353 
L 269.099589 143.155353 
L 274.800752 141.104672 
L 277.028844 140.420975 
L 279.582333 140.249948 
L 281.31045 139.737278 
L 282.788373 138.541321 
L 284.153801 137.00331 
L 285.886876 135.806943 
L 287.374818 135.294272 
L 288.674031 135.294272 
L 290.00413 135.123245 
L 291.161821 134.781602 
L 291.886785 134.097905 
L 293.110381 133.926878 
L 295.00037 133.926878 
L 296.407531 133.072564 
L 297.556751 132.901948 
L 298.80421 132.218251 
L 300.631805 131.363937 
L 303.178993 131.19291 
L 304.1588 129.996543 
L 305.511625 129.483873 
L 306.467156 128.971202 
L 307.937228 128.629559 
L 309.28995 128.971202 
L 310.036917 128.629559 
L 313.615148 128.287505 
L 314.897523 128.116889 
L 315.966581 128.116889 
L 316.886887 128.458942 
L 318.030632 128.287915 
L 321.57622 127.433602 
L 322.530822 127.091548 
L 323.410633 126.920931 
L 325.276347 126.920931 
L 326.470192 126.579288 
L 328.234051 126.408261 
L 329.602165 126.408261 
L 332.000703 126.237234 
L 334.247389 125.553537 
L 335.326881 124.35717 
L 337.877168 122.135462 
L 344.953986 122.477516 
L 347.645381 121.964845 
L 348.848007 121.110532 
L 351.526697 119.059851 
L 353.118043 118.376154 
L 355.828963 118.376154 
L 356.984587 117.692867 
L 359.00928 117.350813 
L 360.332355 116.838143 
L 360.864973 115.812802 
L 361.708733 115.470749 
L 362.502908 114.445408 
L 366.31057 113.591095 
L 367.294613 113.762121 
L 368.513044 113.591095 
L 370.116993 113.591095 
L 371.050728 113.933148 
L 372.301905 113.762121 
L 375.347105 112.907808 
L 377.426444 112.737191 
L 382.134785 112.737191 
L 383.694625 112.566164 
L 386.648198 111.540824 
L 390.848712 111.19877 
L 392.770311 110.6861 
L 395.596927 110.344456 
L 398.396375 110.344456 
L 400.563829 109.490143 
L 401.83577 109.319116 
L 403.121347 108.977062 
L 404.71383 108.122748 
L 405.449021 108.122748 
L 406.111798 107.951722 
L 408.368401 108.806445 
L 409.189021 108.635419 
L 409.828142 107.781105 
L 410.854847 107.097408 
L 413.160002 106.413711 
L 413.875049 106.755354 
L 415.170646 105.901041 
L 416.424612 105.730424 
L 417.68643 105.046727 
L 419.101339 104.534057 
L 420.517901 104.534057 
L 421.567126 103.679333 
L 422.790309 103.679333 
L 423.275822 102.996046 
L 423.93457 103.166662 
L 425.683967 102.825429 
L 427.392766 102.825429 
L 429.277384 101.629472 
L 432.273929 100.774748 
L 438.328484 99.919614 
L 439.827273 100.090641 
L 441.601152 98.723657 
L 442.27085 98.04037 
L 443.234026 98.382424 
L 445.230208 98.211397 
L 445.975728 98.724067 
L 446.747488 98.894684 
L 448.056617 98.382013 
L 449.696825 98.211397 
L 451.384758 98.211397 
L 453.195102 97.698727 
L 456.554439 97.186056 
L 458.373047 96.160716 
L 459.27104 95.990099 
L 460.504759 96.160716 
L 462.791836 95.818662 
L 463.796848 95.818662 
L 464.923032 95.477019 
L 466.296724 95.305992 
L 468.023808 95.305992 
L 475.308777 94.622295 
L 477.536456 94.622295 
L 479.80969 94.280651 
L 480.584032 93.767981 
L 481.703501 93.255311 
L 487.834395 92.571204 
L 489.359216 92.22956 
L 491.516444 92.400587 
L 492.274567 92.742641 
L 493.368314 91.888327 
L 494.000205 92.400997 
L 496.019216 91.888327 
L 496.846138 90.862986 
L 497.242192 91.20463 
L 497.905486 90.862986 
L 497.905486 90.862986 
" clip-path="url(#p65b89ac665)" style="fill: none; stroke: #31688e; stroke-width: 2; stroke-linecap: round"/>
   </g>
   <g id="line2d_37">
    <path d="M 91.815206 296.785815 
L 93.148817 299.519783 
L 97.36462 294.563697 
L 100.564771 288.07001 
L 103.470309 283.113924 
L 104.218619 278.670919 
L 105.39511 275.424281 
L 110.964565 271.322918 
L 112.622334 268.417924 
L 113.535512 265.000259 
L 114.95228 261.75321 
L 119.441107 257.822465 
L 120.467193 255.9424 
L 121.6786 254.40439 
L 123.224597 252.695762 
L 123.591005 251.328778 
L 127.667145 249.107481 
L 130.9519 246.373102 
L 137.222146 240.73373 
L 138.199061 239.195719 
L 141.243331 237.316065 
L 142.914426 235.778054 
L 144.767226 234.240043 
L 148.058902 231.847308 
L 151.741364 229.454984 
L 152.307968 227.062249 
L 158.680069 223.473557 
L 160.471922 222.618833 
L 164.017201 221.593493 
L 165.139769 220.397126 
L 166.098916 219.542812 
L 168.291266 218.175828 
L 169.38429 217.321514 
L 170.886281 216.296174 
L 172.438684 214.758163 
L 174.086536 213.391179 
L 176.267213 212.024195 
L 178.249242 210.998854 
L 180.595923 210.144541 
L 182.886719 209.63187 
L 184.311855 208.60653 
L 187.913949 207.581189 
L 188.690563 206.726465 
L 190.800582 205.871742 
L 192.14597 205.188045 
L 194.956161 204.333731 
L 196.666304 203.137774 
L 202.009943 201.429146 
L 202.695033 200.232779 
L 204.933145 199.207438 
L 206.218825 198.352714 
L 207.327551 196.47306 
L 208.50084 195.789363 
L 210.496816 195.276693 
L 214.037962 193.909709 
L 215.868037 193.397039 
L 217.873722 192.713752 
L 218.974391 192.201081 
L 219.721358 192.201081 
L 221.511248 192.030055 
L 223.637796 191.346358 
L 225.986439 190.833687 
L 227.642452 190.321017 
L 229.193202 190.14999 
L 230.500885 188.953623 
L 231.554035 188.611569 
L 232.503988 188.098899 
L 234.18438 187.757256 
L 235.750004 188.099309 
L 237.53318 187.416022 
L 238.403695 186.903352 
L 239.361602 186.732325 
L 241.822534 185.535958 
L 243.573583 185.023288 
L 245.627613 184.168974 
L 247.880084 182.630963 
L 249.893208 181.434596 
L 251.842388 180.409255 
L 252.747818 179.383915 
L 253.440449 179.042271 
L 254.575516 178.700628 
L 255.3856 178.187958 
L 255.862126 178.358574 
L 257.403992 177.845904 
L 258.281221 177.845904 
L 261.704708 177.50385 
L 263.245024 176.99118 
L 264.996177 176.649537 
L 265.915966 175.96584 
L 270.015866 174.427829 
L 271.430465 174.086185 
L 273.286778 174.086185 
L 274.800752 173.744542 
L 277.028844 173.402898 
L 278.703451 173.573925 
L 279.582333 173.231872 
L 281.31045 173.060845 
L 284.153801 172.035504 
L 287.374818 171.352217 
L 288.674031 171.523244 
L 290.00413 171.181191 
L 291.886785 170.15585 
L 295.00037 168.959893 
L 296.407531 168.618249 
L 297.556751 167.763526 
L 298.80421 167.079829 
L 300.631805 166.567158 
L 303.178993 165.712845 
L 306.467156 164.003807 
L 307.937228 164.174424 
L 310.036917 163.32011 
L 312.408803 162.978056 
L 313.615148 162.465386 
L 315.966581 161.782099 
L 316.886887 161.440456 
L 320.447661 160.928196 
L 321.57622 160.586142 
L 323.410633 159.389775 
L 324.24396 159.560391 
L 325.276347 159.389775 
L 326.470192 159.902445 
L 328.234051 159.389775 
L 329.602165 158.706488 
L 332.000703 158.364434 
L 334.247389 158.193817 
L 335.326881 158.535461 
L 336.627126 158.364434 
L 337.877168 158.364434 
L 340.72589 157.50971 
L 347.645381 156.142726 
L 348.848007 155.630056 
L 350.327169 155.459439 
L 351.526697 155.630056 
L 353.118043 155.288413 
L 355.828963 154.946769 
L 356.984587 154.604715 
L 360.332355 153.237731 
L 360.864973 152.554034 
L 361.708733 152.041364 
L 362.502908 151.870337 
L 363.370117 152.040954 
L 364.649909 151.528284 
L 366.31057 151.870337 
L 367.294613 151.528694 
L 368.513044 151.528694 
L 370.116993 151.358077 
L 371.050728 150.16171 
L 372.301905 149.990683 
L 373.464554 149.307396 
L 374.360378 148.965343 
L 375.347105 149.136369 
L 377.426444 148.453082 
L 383.694625 147.256715 
L 385.297645 146.401991 
L 386.648198 145.889321 
L 390.848712 145.889321 
L 392.770311 145.376651 
L 395.596927 145.206034 
L 398.396375 144.86398 
L 399.339716 144.009667 
L 400.563829 143.668023 
L 401.83577 142.984326 
L 403.121347 142.984326 
L 404.71383 142.300629 
L 405.449021 141.787959 
L 406.111798 141.958986 
L 407.082617 141.275699 
L 408.368401 141.959396 
L 409.189021 141.788369 
L 409.828142 141.446315 
L 410.854847 141.275289 
L 411.915745 140.591592 
L 413.160002 141.104262 
L 413.875049 140.591592 
L 416.424612 140.591592 
L 417.68643 140.249948 
L 419.101339 140.249948 
L 422.790309 139.737278 
L 423.275822 139.566661 
L 424.860144 139.566661 
L 425.683967 139.225018 
L 427.392766 139.225018 
L 432.273929 138.712347 
L 438.328484 137.857213 
L 439.827273 137.51557 
L 441.601152 137.51557 
L 442.27085 137.173927 
L 443.234026 137.173927 
L 445.230208 137.344953 
L 445.975728 135.977969 
L 449.696825 135.123245 
L 451.384758 135.635916 
L 453.195102 135.294272 
L 456.554439 134.097905 
L 457.503152 133.414618 
L 458.373047 133.243591 
L 459.27104 132.901948 
L 461.728356 133.585645 
L 462.791836 133.756672 
L 463.796848 133.414618 
L 464.923032 132.730921 
L 466.296724 132.218251 
L 468.023808 131.363527 
L 473.755342 131.363527 
L 475.308777 130.338186 
L 477.536456 129.825516 
L 479.80969 129.825516 
L 480.584032 129.142229 
L 481.703501 128.800586 
L 484.636516 128.458942 
L 485.521803 127.775245 
L 487.834395 127.945862 
L 489.359216 127.945862 
L 492.274567 127.262575 
L 493.368314 126.749905 
L 494.000205 126.237234 
L 496.846138 125.895181 
L 497.242192 126.407851 
L 497.905486 126.578878 
L 497.905486 126.578878 
" clip-path="url(#p65b89ac665)" style="fill: none; stroke: #35b779; stroke-width: 2; stroke-linecap: round"/>
   </g>
   <g id="patch_3">
    <path d="M 71.81 336.68685 
L 71.81 10.52685 
" style="fill: none; stroke: #262626; stroke-width: 1.25; stroke-linejoin: miter; stroke-linecap: square"/>
   </g>
   <g id="patch_4">
    <path d="M 518.21 336.68685 
L 518.21 10.52685 
" style="fill: none; stroke: #262626; stroke-width: 1.25; stroke-linejoin: miter; stroke-linecap: square"/>
   </g>
   <g id="patch_5">
    <path d="M 71.81 336.68685 
L 518.21 336.68685 
" style="fill: none; stroke: #262626; stroke-width: 1.25; stroke-linejoin: miter; stroke-linecap: square"/>
   </g>
   <g id="patch_6">
    <path d="M 71.81 10.52685 
L 518.21 10.52685 
" style="fill: none; stroke: #262626; stroke-width: 1.25; stroke-linejoin: miter; stroke-linecap: square"/>
   </g>
   <g id="legend_1">
    <g id="patch_7">
     <path d="M 81.89 85.45635 
L 225.602 85.45635 
Q 228.482 85.45635 228.482 82.57635 
L 228.482 20.60685 
Q 228.482 17.72685 225.602 17.72685 
L 81.89 17.72685 
Q 79.01 17.72685 79.01 20.60685 
L 79.01 82.57635 
Q 79.01 85.45635 81.89 85.45635 
z
" style="fill: #ffffff; opacity: 0.8; stroke: #cccccc; stroke-linejoin: miter"/>
    </g>
    <g id="line2d_38">
     <path d="M 84.77 29.3886 
L 99.17 29.3886 
L 113.57 29.3886 
" style="fill: none; stroke: #440154; stroke-width: 2; stroke-linecap: round"/>
    </g>
    <g id="text_21">
     <!-- $n_{tests} = $10000 -->
     <g style="fill: #262626" transform="translate(125.09 34.4286) scale(0.144 -0.144)">
      <defs>
       <path id="DejaVuSans-Oblique-6e" d="M 3566 2113 
L 3156 0 
L 2578 0 
L 2988 2091 
Q 3016 2238 3031 2350 
Q 3047 2463 3047 2528 
Q 3047 2791 2881 2937 
Q 2716 3084 2419 3084 
Q 1956 3084 1622 2776 
Q 1288 2469 1184 1941 
L 800 0 
L 225 0 
L 903 3500 
L 1478 3500 
L 1363 2950 
Q 1603 3253 1940 3418 
Q 2278 3584 2650 3584 
Q 3113 3584 3367 3334 
Q 3622 3084 3622 2631 
Q 3622 2519 3608 2391 
Q 3594 2263 3566 2113 
z
" transform="scale(0.015625)"/>
       <path id="DejaVuSans-Oblique-74" d="M 2706 3500 
L 2619 3053 
L 1472 3053 
L 1100 1153 
Q 1081 1047 1072 975 
Q 1063 903 1063 863 
Q 1063 663 1183 572 
Q 1303 481 1569 481 
L 2150 481 
L 2053 0 
L 1503 0 
Q 991 0 739 200 
Q 488 400 488 806 
Q 488 878 497 964 
Q 506 1050 525 1153 
L 897 3053 
L 409 3053 
L 500 3500 
L 978 3500 
L 1172 4494 
L 1747 4494 
L 1556 3500 
L 2706 3500 
z
" transform="scale(0.015625)"/>
       <path id="DejaVuSans-Oblique-65" d="M 3078 2063 
Q 3088 2113 3092 2166 
Q 3097 2219 3097 2272 
Q 3097 2653 2873 2875 
Q 2650 3097 2266 3097 
Q 1838 3097 1509 2826 
Q 1181 2556 1013 2059 
L 3078 2063 
z
M 3578 1613 
L 903 1613 
Q 884 1494 878 1425 
Q 872 1356 872 1306 
Q 872 872 1139 634 
Q 1406 397 1894 397 
Q 2269 397 2603 481 
Q 2938 566 3225 728 
L 3116 159 
Q 2806 34 2476 -28 
Q 2147 -91 1806 -91 
Q 1078 -91 686 257 
Q 294 606 294 1247 
Q 294 1794 489 2264 
Q 684 2734 1063 3103 
Q 1306 3334 1642 3459 
Q 1978 3584 2356 3584 
Q 2950 3584 3301 3228 
Q 3653 2872 3653 2272 
Q 3653 2128 3634 1964 
Q 3616 1800 3578 1613 
z
" transform="scale(0.015625)"/>
       <path id="DejaVuSans-Oblique-73" d="M 3200 3397 
L 3091 2853 
Q 2863 2978 2609 3040 
Q 2356 3103 2088 3103 
Q 1634 3103 1373 2948 
Q 1113 2794 1113 2528 
Q 1113 2219 1719 2053 
Q 1766 2041 1788 2034 
L 1972 1978 
Q 2547 1819 2739 1644 
Q 2931 1469 2931 1166 
Q 2931 609 2489 259 
Q 2047 -91 1331 -91 
Q 1053 -91 747 -37 
Q 441 16 72 128 
L 184 722 
Q 500 559 806 475 
Q 1113 391 1394 391 
Q 1816 391 2080 572 
Q 2344 753 2344 1031 
Q 2344 1331 1650 1516 
L 1591 1531 
L 1394 1581 
Q 956 1697 753 1886 
Q 550 2075 550 2369 
Q 550 2928 970 3256 
Q 1391 3584 2113 3584 
Q 2397 3584 2667 3537 
Q 2938 3491 3200 3397 
z
" transform="scale(0.015625)"/>
       <path id="DejaVuSans-3d" d="M 678 2906 
L 4684 2906 
L 4684 2381 
L 678 2381 
L 678 2906 
z
M 678 1631 
L 4684 1631 
L 4684 1100 
L 678 1100 
L 678 1631 
z
" transform="scale(0.015625)"/>
      </defs>
      <use xlink:href="#DejaVuSans-Oblique-6e" transform="translate(0 0.78125)"/>
      <use xlink:href="#DejaVuSans-Oblique-74" transform="translate(63.378906 -15.625) scale(0.7)"/>
      <use xlink:href="#DejaVuSans-Oblique-65" transform="translate(90.825195 -15.625) scale(0.7)"/>
      <use xlink:href="#DejaVuSans-Oblique-73" transform="translate(133.891602 -15.625) scale(0.7)"/>
      <use xlink:href="#DejaVuSans-Oblique-74" transform="translate(170.361328 -15.625) scale(0.7)"/>
      <use xlink:href="#DejaVuSans-Oblique-73" transform="translate(197.807617 -15.625) scale(0.7)"/>
      <use xlink:href="#DejaVuSans-3d" transform="translate(256.494141 0.78125)"/>
      <use xlink:href="#DejaVuSans-31" transform="translate(359.765625 0.78125)"/>
      <use xlink:href="#DejaVuSans-30" transform="translate(423.388672 0.78125)"/>
      <use xlink:href="#DejaVuSans-30" transform="translate(487.011719 0.78125)"/>
      <use xlink:href="#DejaVuSans-30" transform="translate(550.634766 0.78125)"/>
      <use xlink:href="#DejaVuSans-30" transform="translate(614.257812 0.78125)"/>
     </g>
    </g>
    <g id="line2d_39">
     <path d="M 84.77 50.5251 
L 99.17 50.5251 
L 113.57 50.5251 
" style="fill: none; stroke: #31688e; stroke-width: 2; stroke-linecap: round"/>
    </g>
    <g id="text_22">
     <!-- $n_{tests} = $20000 -->
     <g style="fill: #262626" transform="translate(125.09 55.5651) scale(0.144 -0.144)">
      <use xlink:href="#DejaVuSans-Oblique-6e" transform="translate(0 0.78125)"/>
      <use xlink:href="#DejaVuSans-Oblique-74" transform="translate(63.378906 -15.625) scale(0.7)"/>
      <use xlink:href="#DejaVuSans-Oblique-65" transform="translate(90.825195 -15.625) scale(0.7)"/>
      <use xlink:href="#DejaVuSans-Oblique-73" transform="translate(133.891602 -15.625) scale(0.7)"/>
      <use xlink:href="#DejaVuSans-Oblique-74" transform="translate(170.361328 -15.625) scale(0.7)"/>
      <use xlink:href="#DejaVuSans-Oblique-73" transform="translate(197.807617 -15.625) scale(0.7)"/>
      <use xlink:href="#DejaVuSans-3d" transform="translate(256.494141 0.78125)"/>
      <use xlink:href="#DejaVuSans-32" transform="translate(359.765625 0.78125)"/>
      <use xlink:href="#DejaVuSans-30" transform="translate(423.388672 0.78125)"/>
      <use xlink:href="#DejaVuSans-30" transform="translate(487.011719 0.78125)"/>
      <use xlink:href="#DejaVuSans-30" transform="translate(550.634766 0.78125)"/>
      <use xlink:href="#DejaVuSans-30" transform="translate(614.257812 0.78125)"/>
     </g>
    </g>
    <g id="line2d_40">
     <path d="M 84.77 71.6616 
L 99.17 71.6616 
L 113.57 71.6616 
" style="fill: none; stroke: #35b779; stroke-width: 2; stroke-linecap: round"/>
    </g>
    <g id="text_23">
     <!-- $n_{tests} = $30000 -->
     <g style="fill: #262626" transform="translate(125.09 76.7016) scale(0.144 -0.144)">
      <use xlink:href="#DejaVuSans-Oblique-6e" transform="translate(0 0.78125)"/>
      <use xlink:href="#DejaVuSans-Oblique-74" transform="translate(63.378906 -15.625) scale(0.7)"/>
      <use xlink:href="#DejaVuSans-Oblique-65" transform="translate(90.825195 -15.625) scale(0.7)"/>
      <use xlink:href="#DejaVuSans-Oblique-73" transform="translate(133.891602 -15.625) scale(0.7)"/>
      <use xlink:href="#DejaVuSans-Oblique-74" transform="translate(170.361328 -15.625) scale(0.7)"/>
      <use xlink:href="#DejaVuSans-Oblique-73" transform="translate(197.807617 -15.625) scale(0.7)"/>
      <use xlink:href="#DejaVuSans-3d" transform="translate(256.494141 0.78125)"/>
      <use xlink:href="#DejaVuSans-33" transform="translate(359.765625 0.78125)"/>
      <use xlink:href="#DejaVuSans-30" transform="translate(423.388672 0.78125)"/>
      <use xlink:href="#DejaVuSans-30" transform="translate(487.011719 0.78125)"/>
      <use xlink:href="#DejaVuSans-30" transform="translate(550.634766 0.78125)"/>
      <use xlink:href="#DejaVuSans-30" transform="translate(614.257812 0.78125)"/>
     </g>
    </g>
   </g>
  </g>
 </g>
 <defs>
  <clipPath id="p65b89ac665">
   <rect x="71.81" y="10.52685" width="446.4" height="326.16"/>
  </clipPath>
 </defs>
</svg>
