<?xml version="1.0" encoding="utf-8" standalone="no"?>
<!DOCTYPE svg PUBLIC "-//W3C//DTD SVG 1.1//EN"
  "http://www.w3.org/Graphics/SVG/1.1/DTD/svg11.dtd">
<svg xmlns:xlink="http://www.w3.org/1999/xlink" width="510.145pt" height="385.03pt" viewBox="0 0 510.145 385.03" xmlns="http://www.w3.org/2000/svg" version="1.1">
 <metadata>
  <rdf:RDF xmlns:dc="http://purl.org/dc/elements/1.1/" xmlns:cc="http://creativecommons.org/ns#" xmlns:rdf="http://www.w3.org/1999/02/22-rdf-syntax-ns#">
   <cc:Work>
    <dc:type rdf:resource="http://purl.org/dc/dcmitype/StillImage"/>
    <dc:date>2023-12-23T15:30:56.414452</dc:date>
    <dc:format>image/svg+xml</dc:format>
    <dc:creator>
     <cc:Agent>
      <dc:title>Matplotlib v3.8.0, https://matplotlib.org/</dc:title>
     </cc:Agent>
    </dc:creator>
   </cc:Work>
  </rdf:RDF>
 </metadata>
 <defs>
  <style type="text/css">*{stroke-linejoin: round; stroke-linecap: butt}</style>
 </defs>
 <g id="figure_1">
  <g id="patch_1">
   <path d="M 0 385.03 
L 510.145 385.03 
L 510.145 0 
L 0 0 
z
" style="fill: #ffffff"/>
  </g>
  <g id="axes_1">
   <g id="patch_2">
    <path d="M 56.545 333.36 
L 502.945 333.36 
L 502.945 7.2 
L 56.545 7.2 
z
" style="fill: #ffffff"/>
   </g>
   <g id="matplotlib.axis_1">
    <g id="xtick_1">
     <g id="line2d_1">
      <path d="M 56.545 333.36 
L 56.545 7.2 
" clip-path="url(#pc39bdac233)" style="fill: none; stroke: #cccccc; stroke-linecap: round"/>
     </g>
     <g id="line2d_2">
      <defs>
       <path id="m89bd3c0c5e" d="M 0 0 
L 0 6 
" style="stroke: #262626; stroke-width: 1.25"/>
      </defs>
      <g>
       <use xlink:href="#m89bd3c0c5e" x="56.545" y="333.36" style="fill: #262626; stroke: #262626; stroke-width: 1.25"/>
      </g>
     </g>
     <g id="text_1">
      <!-- 0.0 -->
      <g style="fill: #262626" transform="translate(43.8225 355.0175) scale(0.16 -0.16)">
       <defs>
        <path id="DejaVuSans-30" d="M 2034 4250 
Q 1547 4250 1301 3770 
Q 1056 3291 1056 2328 
Q 1056 1369 1301 889 
Q 1547 409 2034 409 
Q 2525 409 2770 889 
Q 3016 1369 3016 2328 
Q 3016 3291 2770 3770 
Q 2525 4250 2034 4250 
z
M 2034 4750 
Q 2819 4750 3233 4129 
Q 3647 3509 3647 2328 
Q 3647 1150 3233 529 
Q 2819 -91 2034 -91 
Q 1250 -91 836 529 
Q 422 1150 422 2328 
Q 422 3509 836 4129 
Q 1250 4750 2034 4750 
z
" transform="scale(0.015625)"/>
        <path id="DejaVuSans-2e" d="M 684 794 
L 1344 794 
L 1344 0 
L 684 0 
L 684 794 
z
" transform="scale(0.015625)"/>
       </defs>
       <use xlink:href="#DejaVuSans-30"/>
       <use xlink:href="#DejaVuSans-2e" x="63.623047"/>
       <use xlink:href="#DejaVuSans-30" x="95.410156"/>
      </g>
     </g>
    </g>
    <g id="xtick_2">
     <g id="line2d_3">
      <path d="M 108.195329 333.36 
L 108.195329 7.2 
" clip-path="url(#pc39bdac233)" style="fill: none; stroke: #cccccc; stroke-linecap: round"/>
     </g>
     <g id="line2d_4">
      <g>
       <use xlink:href="#m89bd3c0c5e" x="108.195329" y="333.36" style="fill: #262626; stroke: #262626; stroke-width: 1.25"/>
      </g>
     </g>
     <g id="text_2">
      <!-- 0.5 -->
      <g style="fill: #262626" transform="translate(95.472829 355.0175) scale(0.16 -0.16)">
       <defs>
        <path id="DejaVuSans-35" d="M 691 4666 
L 3169 4666 
L 3169 4134 
L 1269 4134 
L 1269 2991 
Q 1406 3038 1543 3061 
Q 1681 3084 1819 3084 
Q 2600 3084 3056 2656 
Q 3513 2228 3513 1497 
Q 3513 744 3044 326 
Q 2575 -91 1722 -91 
Q 1428 -91 1123 -41 
Q 819 9 494 109 
L 494 744 
Q 775 591 1075 516 
Q 1375 441 1709 441 
Q 2250 441 2565 725 
Q 2881 1009 2881 1497 
Q 2881 1984 2565 2268 
Q 2250 2553 1709 2553 
Q 1456 2553 1204 2497 
Q 953 2441 691 2322 
L 691 4666 
z
" transform="scale(0.015625)"/>
       </defs>
       <use xlink:href="#DejaVuSans-30"/>
       <use xlink:href="#DejaVuSans-2e" x="63.623047"/>
       <use xlink:href="#DejaVuSans-35" x="95.410156"/>
      </g>
     </g>
    </g>
    <g id="xtick_3">
     <g id="line2d_5">
      <path d="M 159.845659 333.36 
L 159.845659 7.2 
" clip-path="url(#pc39bdac233)" style="fill: none; stroke: #cccccc; stroke-linecap: round"/>
     </g>
     <g id="line2d_6">
      <g>
       <use xlink:href="#m89bd3c0c5e" x="159.845659" y="333.36" style="fill: #262626; stroke: #262626; stroke-width: 1.25"/>
      </g>
     </g>
     <g id="text_3">
      <!-- 1.0 -->
      <g style="fill: #262626" transform="translate(147.123159 355.0175) scale(0.16 -0.16)">
       <defs>
        <path id="DejaVuSans-31" d="M 794 531 
L 1825 531 
L 1825 4091 
L 703 3866 
L 703 4441 
L 1819 4666 
L 2450 4666 
L 2450 531 
L 3481 531 
L 3481 0 
L 794 0 
L 794 531 
z
" transform="scale(0.015625)"/>
       </defs>
       <use xlink:href="#DejaVuSans-31"/>
       <use xlink:href="#DejaVuSans-2e" x="63.623047"/>
       <use xlink:href="#DejaVuSans-30" x="95.410156"/>
      </g>
     </g>
    </g>
    <g id="xtick_4">
     <g id="line2d_7">
      <path d="M 211.495988 333.36 
L 211.495988 7.2 
" clip-path="url(#pc39bdac233)" style="fill: none; stroke: #cccccc; stroke-linecap: round"/>
     </g>
     <g id="line2d_8">
      <g>
       <use xlink:href="#m89bd3c0c5e" x="211.495988" y="333.36" style="fill: #262626; stroke: #262626; stroke-width: 1.25"/>
      </g>
     </g>
     <g id="text_4">
      <!-- 1.5 -->
      <g style="fill: #262626" transform="translate(198.773488 355.0175) scale(0.16 -0.16)">
       <use xlink:href="#DejaVuSans-31"/>
       <use xlink:href="#DejaVuSans-2e" x="63.623047"/>
       <use xlink:href="#DejaVuSans-35" x="95.410156"/>
      </g>
     </g>
    </g>
    <g id="xtick_5">
     <g id="line2d_9">
      <path d="M 263.146317 333.36 
L 263.146317 7.2 
" clip-path="url(#pc39bdac233)" style="fill: none; stroke: #cccccc; stroke-linecap: round"/>
     </g>
     <g id="line2d_10">
      <g>
       <use xlink:href="#m89bd3c0c5e" x="263.146317" y="333.36" style="fill: #262626; stroke: #262626; stroke-width: 1.25"/>
      </g>
     </g>
     <g id="text_5">
      <!-- 2.0 -->
      <g style="fill: #262626" transform="translate(250.423817 355.0175) scale(0.16 -0.16)">
       <defs>
        <path id="DejaVuSans-32" d="M 1228 531 
L 3431 531 
L 3431 0 
L 469 0 
L 469 531 
Q 828 903 1448 1529 
Q 2069 2156 2228 2338 
Q 2531 2678 2651 2914 
Q 2772 3150 2772 3378 
Q 2772 3750 2511 3984 
Q 2250 4219 1831 4219 
Q 1534 4219 1204 4116 
Q 875 4013 500 3803 
L 500 4441 
Q 881 4594 1212 4672 
Q 1544 4750 1819 4750 
Q 2544 4750 2975 4387 
Q 3406 4025 3406 3419 
Q 3406 3131 3298 2873 
Q 3191 2616 2906 2266 
Q 2828 2175 2409 1742 
Q 1991 1309 1228 531 
z
" transform="scale(0.015625)"/>
       </defs>
       <use xlink:href="#DejaVuSans-32"/>
       <use xlink:href="#DejaVuSans-2e" x="63.623047"/>
       <use xlink:href="#DejaVuSans-30" x="95.410156"/>
      </g>
     </g>
    </g>
    <g id="xtick_6">
     <g id="line2d_11">
      <path d="M 314.796646 333.36 
L 314.796646 7.2 
" clip-path="url(#pc39bdac233)" style="fill: none; stroke: #cccccc; stroke-linecap: round"/>
     </g>
     <g id="line2d_12">
      <g>
       <use xlink:href="#m89bd3c0c5e" x="314.796646" y="333.36" style="fill: #262626; stroke: #262626; stroke-width: 1.25"/>
      </g>
     </g>
     <g id="text_6">
      <!-- 2.5 -->
      <g style="fill: #262626" transform="translate(302.074146 355.0175) scale(0.16 -0.16)">
       <use xlink:href="#DejaVuSans-32"/>
       <use xlink:href="#DejaVuSans-2e" x="63.623047"/>
       <use xlink:href="#DejaVuSans-35" x="95.410156"/>
      </g>
     </g>
    </g>
    <g id="xtick_7">
     <g id="line2d_13">
      <path d="M 366.446976 333.36 
L 366.446976 7.2 
" clip-path="url(#pc39bdac233)" style="fill: none; stroke: #cccccc; stroke-linecap: round"/>
     </g>
     <g id="line2d_14">
      <g>
       <use xlink:href="#m89bd3c0c5e" x="366.446976" y="333.36" style="fill: #262626; stroke: #262626; stroke-width: 1.25"/>
      </g>
     </g>
     <g id="text_7">
      <!-- 3.0 -->
      <g style="fill: #262626" transform="translate(353.724476 355.0175) scale(0.16 -0.16)">
       <defs>
        <path id="DejaVuSans-33" d="M 2597 2516 
Q 3050 2419 3304 2112 
Q 3559 1806 3559 1356 
Q 3559 666 3084 287 
Q 2609 -91 1734 -91 
Q 1441 -91 1130 -33 
Q 819 25 488 141 
L 488 750 
Q 750 597 1062 519 
Q 1375 441 1716 441 
Q 2309 441 2620 675 
Q 2931 909 2931 1356 
Q 2931 1769 2642 2001 
Q 2353 2234 1838 2234 
L 1294 2234 
L 1294 2753 
L 1863 2753 
Q 2328 2753 2575 2939 
Q 2822 3125 2822 3475 
Q 2822 3834 2567 4026 
Q 2313 4219 1838 4219 
Q 1578 4219 1281 4162 
Q 984 4106 628 3988 
L 628 4550 
Q 988 4650 1302 4700 
Q 1616 4750 1894 4750 
Q 2613 4750 3031 4423 
Q 3450 4097 3450 3541 
Q 3450 3153 3228 2886 
Q 3006 2619 2597 2516 
z
" transform="scale(0.015625)"/>
       </defs>
       <use xlink:href="#DejaVuSans-33"/>
       <use xlink:href="#DejaVuSans-2e" x="63.623047"/>
       <use xlink:href="#DejaVuSans-30" x="95.410156"/>
      </g>
     </g>
    </g>
    <g id="xtick_8">
     <g id="line2d_15">
      <path d="M 418.097305 333.36 
L 418.097305 7.2 
" clip-path="url(#pc39bdac233)" style="fill: none; stroke: #cccccc; stroke-linecap: round"/>
     </g>
     <g id="line2d_16">
      <g>
       <use xlink:href="#m89bd3c0c5e" x="418.097305" y="333.36" style="fill: #262626; stroke: #262626; stroke-width: 1.25"/>
      </g>
     </g>
     <g id="text_8">
      <!-- 3.5 -->
      <g style="fill: #262626" transform="translate(405.374805 355.0175) scale(0.16 -0.16)">
       <use xlink:href="#DejaVuSans-33"/>
       <use xlink:href="#DejaVuSans-2e" x="63.623047"/>
       <use xlink:href="#DejaVuSans-35" x="95.410156"/>
      </g>
     </g>
    </g>
    <g id="xtick_9">
     <g id="line2d_17">
      <path d="M 469.747634 333.36 
L 469.747634 7.2 
" clip-path="url(#pc39bdac233)" style="fill: none; stroke: #cccccc; stroke-linecap: round"/>
     </g>
     <g id="line2d_18">
      <g>
       <use xlink:href="#m89bd3c0c5e" x="469.747634" y="333.36" style="fill: #262626; stroke: #262626; stroke-width: 1.25"/>
      </g>
     </g>
     <g id="text_9">
      <!-- 4.0 -->
      <g style="fill: #262626" transform="translate(457.025134 355.0175) scale(0.16 -0.16)">
       <defs>
        <path id="DejaVuSans-34" d="M 2419 4116 
L 825 1625 
L 2419 1625 
L 2419 4116 
z
M 2253 4666 
L 3047 4666 
L 3047 1625 
L 3713 1625 
L 3713 1100 
L 3047 1100 
L 3047 0 
L 2419 0 
L 2419 1100 
L 313 1100 
L 313 1709 
L 2253 4666 
z
" transform="scale(0.015625)"/>
       </defs>
       <use xlink:href="#DejaVuSans-34"/>
       <use xlink:href="#DejaVuSans-2e" x="63.623047"/>
       <use xlink:href="#DejaVuSans-30" x="95.410156"/>
      </g>
     </g>
    </g>
    <g id="text_10">
     <!-- Population -->
     <g style="fill: #262626" transform="translate(237.71875 374.5025) scale(0.16 -0.16)">
      <defs>
       <path id="DejaVuSans-50" d="M 1259 4147 
L 1259 2394 
L 2053 2394 
Q 2494 2394 2734 2622 
Q 2975 2850 2975 3272 
Q 2975 3691 2734 3919 
Q 2494 4147 2053 4147 
L 1259 4147 
z
M 628 4666 
L 2053 4666 
Q 2838 4666 3239 4311 
Q 3641 3956 3641 3272 
Q 3641 2581 3239 2228 
Q 2838 1875 2053 1875 
L 1259 1875 
L 1259 0 
L 628 0 
L 628 4666 
z
" transform="scale(0.015625)"/>
       <path id="DejaVuSans-6f" d="M 1959 3097 
Q 1497 3097 1228 2736 
Q 959 2375 959 1747 
Q 959 1119 1226 758 
Q 1494 397 1959 397 
Q 2419 397 2687 759 
Q 2956 1122 2956 1747 
Q 2956 2369 2687 2733 
Q 2419 3097 1959 3097 
z
M 1959 3584 
Q 2709 3584 3137 3096 
Q 3566 2609 3566 1747 
Q 3566 888 3137 398 
Q 2709 -91 1959 -91 
Q 1206 -91 779 398 
Q 353 888 353 1747 
Q 353 2609 779 3096 
Q 1206 3584 1959 3584 
z
" transform="scale(0.015625)"/>
       <path id="DejaVuSans-70" d="M 1159 525 
L 1159 -1331 
L 581 -1331 
L 581 3500 
L 1159 3500 
L 1159 2969 
Q 1341 3281 1617 3432 
Q 1894 3584 2278 3584 
Q 2916 3584 3314 3078 
Q 3713 2572 3713 1747 
Q 3713 922 3314 415 
Q 2916 -91 2278 -91 
Q 1894 -91 1617 61 
Q 1341 213 1159 525 
z
M 3116 1747 
Q 3116 2381 2855 2742 
Q 2594 3103 2138 3103 
Q 1681 3103 1420 2742 
Q 1159 2381 1159 1747 
Q 1159 1113 1420 752 
Q 1681 391 2138 391 
Q 2594 391 2855 752 
Q 3116 1113 3116 1747 
z
" transform="scale(0.015625)"/>
       <path id="DejaVuSans-75" d="M 544 1381 
L 544 3500 
L 1119 3500 
L 1119 1403 
Q 1119 906 1312 657 
Q 1506 409 1894 409 
Q 2359 409 2629 706 
Q 2900 1003 2900 1516 
L 2900 3500 
L 3475 3500 
L 3475 0 
L 2900 0 
L 2900 538 
Q 2691 219 2414 64 
Q 2138 -91 1772 -91 
Q 1169 -91 856 284 
Q 544 659 544 1381 
z
M 1991 3584 
L 1991 3584 
z
" transform="scale(0.015625)"/>
       <path id="DejaVuSans-6c" d="M 603 4863 
L 1178 4863 
L 1178 0 
L 603 0 
L 603 4863 
z
" transform="scale(0.015625)"/>
       <path id="DejaVuSans-61" d="M 2194 1759 
Q 1497 1759 1228 1600 
Q 959 1441 959 1056 
Q 959 750 1161 570 
Q 1363 391 1709 391 
Q 2188 391 2477 730 
Q 2766 1069 2766 1631 
L 2766 1759 
L 2194 1759 
z
M 3341 1997 
L 3341 0 
L 2766 0 
L 2766 531 
Q 2569 213 2275 61 
Q 1981 -91 1556 -91 
Q 1019 -91 701 211 
Q 384 513 384 1019 
Q 384 1609 779 1909 
Q 1175 2209 1959 2209 
L 2766 2209 
L 2766 2266 
Q 2766 2663 2505 2880 
Q 2244 3097 1772 3097 
Q 1472 3097 1187 3025 
Q 903 2953 641 2809 
L 641 3341 
Q 956 3463 1253 3523 
Q 1550 3584 1831 3584 
Q 2591 3584 2966 3190 
Q 3341 2797 3341 1997 
z
" transform="scale(0.015625)"/>
       <path id="DejaVuSans-74" d="M 1172 4494 
L 1172 3500 
L 2356 3500 
L 2356 3053 
L 1172 3053 
L 1172 1153 
Q 1172 725 1289 603 
Q 1406 481 1766 481 
L 2356 481 
L 2356 0 
L 1766 0 
Q 1100 0 847 248 
Q 594 497 594 1153 
L 594 3053 
L 172 3053 
L 172 3500 
L 594 3500 
L 594 4494 
L 1172 4494 
z
" transform="scale(0.015625)"/>
       <path id="DejaVuSans-69" d="M 603 3500 
L 1178 3500 
L 1178 0 
L 603 0 
L 603 3500 
z
M 603 4863 
L 1178 4863 
L 1178 4134 
L 603 4134 
L 603 4863 
z
" transform="scale(0.015625)"/>
       <path id="DejaVuSans-6e" d="M 3513 2113 
L 3513 0 
L 2938 0 
L 2938 2094 
Q 2938 2591 2744 2837 
Q 2550 3084 2163 3084 
Q 1697 3084 1428 2787 
Q 1159 2491 1159 1978 
L 1159 0 
L 581 0 
L 581 3500 
L 1159 3500 
L 1159 2956 
Q 1366 3272 1645 3428 
Q 1925 3584 2291 3584 
Q 2894 3584 3203 3211 
Q 3513 2838 3513 2113 
z
" transform="scale(0.015625)"/>
      </defs>
      <use xlink:href="#DejaVuSans-50"/>
      <use xlink:href="#DejaVuSans-6f" x="56.677734"/>
      <use xlink:href="#DejaVuSans-70" x="117.859375"/>
      <use xlink:href="#DejaVuSans-75" x="181.335938"/>
      <use xlink:href="#DejaVuSans-6c" x="244.714844"/>
      <use xlink:href="#DejaVuSans-61" x="272.498047"/>
      <use xlink:href="#DejaVuSans-74" x="333.777344"/>
      <use xlink:href="#DejaVuSans-69" x="372.986328"/>
      <use xlink:href="#DejaVuSans-6f" x="400.769531"/>
      <use xlink:href="#DejaVuSans-6e" x="461.951172"/>
     </g>
    </g>
    <g id="text_11">
     <!-- 1e6 -->
     <g style="fill: #262626" transform="translate(482.179062 369.703281) scale(0.11 -0.11)">
      <defs>
       <path id="DejaVuSans-65" d="M 3597 1894 
L 3597 1613 
L 953 1613 
Q 991 1019 1311 708 
Q 1631 397 2203 397 
Q 2534 397 2845 478 
Q 3156 559 3463 722 
L 3463 178 
Q 3153 47 2828 -22 
Q 2503 -91 2169 -91 
Q 1331 -91 842 396 
Q 353 884 353 1716 
Q 353 2575 817 3079 
Q 1281 3584 2069 3584 
Q 2775 3584 3186 3129 
Q 3597 2675 3597 1894 
z
M 3022 2063 
Q 3016 2534 2758 2815 
Q 2500 3097 2075 3097 
Q 1594 3097 1305 2825 
Q 1016 2553 972 2059 
L 3022 2063 
z
" transform="scale(0.015625)"/>
       <path id="DejaVuSans-36" d="M 2113 2584 
Q 1688 2584 1439 2293 
Q 1191 2003 1191 1497 
Q 1191 994 1439 701 
Q 1688 409 2113 409 
Q 2538 409 2786 701 
Q 3034 994 3034 1497 
Q 3034 2003 2786 2293 
Q 2538 2584 2113 2584 
z
M 3366 4563 
L 3366 3988 
Q 3128 4100 2886 4159 
Q 2644 4219 2406 4219 
Q 1781 4219 1451 3797 
Q 1122 3375 1075 2522 
Q 1259 2794 1537 2939 
Q 1816 3084 2150 3084 
Q 2853 3084 3261 2657 
Q 3669 2231 3669 1497 
Q 3669 778 3244 343 
Q 2819 -91 2113 -91 
Q 1303 -91 875 529 
Q 447 1150 447 2328 
Q 447 3434 972 4092 
Q 1497 4750 2381 4750 
Q 2619 4750 2861 4703 
Q 3103 4656 3366 4563 
z
" transform="scale(0.015625)"/>
      </defs>
      <use xlink:href="#DejaVuSans-31"/>
      <use xlink:href="#DejaVuSans-65" x="63.623047"/>
      <use xlink:href="#DejaVuSans-36" x="125.146484"/>
     </g>
    </g>
   </g>
   <g id="matplotlib.axis_2">
    <g id="ytick_1">
     <g id="line2d_19">
      <path d="M 56.545 269.704009 
L 502.945 269.704009 
" clip-path="url(#pc39bdac233)" style="fill: none; stroke: #cccccc; stroke-linecap: round"/>
     </g>
     <g id="line2d_20">
      <defs>
       <path id="m576536c873" d="M 0 0 
L -6 0 
" style="stroke: #262626; stroke-width: 1.25"/>
      </defs>
      <g>
       <use xlink:href="#m576536c873" x="56.545" y="269.704009" style="fill: #262626; stroke: #262626; stroke-width: 1.25"/>
      </g>
     </g>
     <g id="text_12">
      <!-- 15 -->
      <g style="fill: #262626" transform="translate(26.685 275.782759) scale(0.16 -0.16)">
       <use xlink:href="#DejaVuSans-31"/>
       <use xlink:href="#DejaVuSans-35" x="63.623047"/>
      </g>
     </g>
    </g>
    <g id="ytick_2">
     <g id="line2d_21">
      <path d="M 56.545 200.367418 
L 502.945 200.367418 
" clip-path="url(#pc39bdac233)" style="fill: none; stroke: #cccccc; stroke-linecap: round"/>
     </g>
     <g id="line2d_22">
      <g>
       <use xlink:href="#m576536c873" x="56.545" y="200.367418" style="fill: #262626; stroke: #262626; stroke-width: 1.25"/>
      </g>
     </g>
     <g id="text_13">
      <!-- 20 -->
      <g style="fill: #262626" transform="translate(26.685 206.446168) scale(0.16 -0.16)">
       <use xlink:href="#DejaVuSans-32"/>
       <use xlink:href="#DejaVuSans-30" x="63.623047"/>
      </g>
     </g>
    </g>
    <g id="ytick_3">
     <g id="line2d_23">
      <path d="M 56.545 131.030827 
L 502.945 131.030827 
" clip-path="url(#pc39bdac233)" style="fill: none; stroke: #cccccc; stroke-linecap: round"/>
     </g>
     <g id="line2d_24">
      <g>
       <use xlink:href="#m576536c873" x="56.545" y="131.030827" style="fill: #262626; stroke: #262626; stroke-width: 1.25"/>
      </g>
     </g>
     <g id="text_14">
      <!-- 25 -->
      <g style="fill: #262626" transform="translate(26.685 137.109577) scale(0.16 -0.16)">
       <use xlink:href="#DejaVuSans-32"/>
       <use xlink:href="#DejaVuSans-35" x="63.623047"/>
      </g>
     </g>
    </g>
    <g id="ytick_4">
     <g id="line2d_25">
      <path d="M 56.545 61.694236 
L 502.945 61.694236 
" clip-path="url(#pc39bdac233)" style="fill: none; stroke: #cccccc; stroke-linecap: round"/>
     </g>
     <g id="line2d_26">
      <g>
       <use xlink:href="#m576536c873" x="56.545" y="61.694236" style="fill: #262626; stroke: #262626; stroke-width: 1.25"/>
      </g>
     </g>
     <g id="text_15">
      <!-- 30 -->
      <g style="fill: #262626" transform="translate(26.685 67.772986) scale(0.16 -0.16)">
       <use xlink:href="#DejaVuSans-33"/>
       <use xlink:href="#DejaVuSans-30" x="63.623047"/>
      </g>
     </g>
    </g>
    <g id="text_16">
     <!-- Detected -->
     <g style="fill: #228b22" transform="translate(19.3575 206.9575) rotate(-90) scale(0.16 -0.16)">
      <defs>
       <path id="DejaVuSans-44" d="M 1259 4147 
L 1259 519 
L 2022 519 
Q 2988 519 3436 956 
Q 3884 1394 3884 2338 
Q 3884 3275 3436 3711 
Q 2988 4147 2022 4147 
L 1259 4147 
z
M 628 4666 
L 1925 4666 
Q 3281 4666 3915 4102 
Q 4550 3538 4550 2338 
Q 4550 1131 3912 565 
Q 3275 0 1925 0 
L 628 0 
L 628 4666 
z
" transform="scale(0.015625)"/>
       <path id="DejaVuSans-63" d="M 3122 3366 
L 3122 2828 
Q 2878 2963 2633 3030 
Q 2388 3097 2138 3097 
Q 1578 3097 1268 2742 
Q 959 2388 959 1747 
Q 959 1106 1268 751 
Q 1578 397 2138 397 
Q 2388 397 2633 464 
Q 2878 531 3122 666 
L 3122 134 
Q 2881 22 2623 -34 
Q 2366 -91 2075 -91 
Q 1284 -91 818 406 
Q 353 903 353 1747 
Q 353 2603 823 3093 
Q 1294 3584 2113 3584 
Q 2378 3584 2631 3529 
Q 2884 3475 3122 3366 
z
" transform="scale(0.015625)"/>
       <path id="DejaVuSans-64" d="M 2906 2969 
L 2906 4863 
L 3481 4863 
L 3481 0 
L 2906 0 
L 2906 525 
Q 2725 213 2448 61 
Q 2172 -91 1784 -91 
Q 1150 -91 751 415 
Q 353 922 353 1747 
Q 353 2572 751 3078 
Q 1150 3584 1784 3584 
Q 2172 3584 2448 3432 
Q 2725 3281 2906 2969 
z
M 947 1747 
Q 947 1113 1208 752 
Q 1469 391 1925 391 
Q 2381 391 2643 752 
Q 2906 1113 2906 1747 
Q 2906 2381 2643 2742 
Q 2381 3103 1925 3103 
Q 1469 3103 1208 2742 
Q 947 2381 947 1747 
z
" transform="scale(0.015625)"/>
      </defs>
      <use xlink:href="#DejaVuSans-44"/>
      <use xlink:href="#DejaVuSans-65" x="77.001953"/>
      <use xlink:href="#DejaVuSans-74" x="138.525391"/>
      <use xlink:href="#DejaVuSans-65" x="177.734375"/>
      <use xlink:href="#DejaVuSans-63" x="239.257812"/>
      <use xlink:href="#DejaVuSans-74" x="294.238281"/>
      <use xlink:href="#DejaVuSans-65" x="333.447266"/>
      <use xlink:href="#DejaVuSans-64" x="394.970703"/>
     </g>
    </g>
   </g>
   <g id="PolyCollection_1">
    <defs>
     <path id="mbba436a4b8" d="M 76.550206 -129.004194 
L 76.550206 -195.540627 
L 77.883817 -189.688757 
L 82.09962 -195.301832 
L 85.299771 -201.361538 
L 88.205309 -206.552387 
L 88.953619 -211.211112 
L 90.13011 -214.27423 
L 95.699565 -218.160754 
L 97.357334 -220.777517 
L 98.270512 -223.030158 
L 99.68728 -225.95117 
L 101.876325 -228.533993 
L 104.176107 -230.556541 
L 105.202193 -232.305002 
L 106.4136 -233.363044 
L 107.959597 -233.277101 
L 108.326005 -233.240907 
L 112.402145 -235.101347 
L 115.6869 -238.577606 
L 118.589958 -242.030326 
L 121.957146 -245.23697 
L 122.934061 -247.193475 
L 125.978331 -247.473179 
L 127.649426 -248.11215 
L 129.502226 -249.97259 
L 132.793902 -251.537863 
L 136.476364 -254.554871 
L 137.042968 -257.482782 
L 140.675226 -259.330776 
L 143.415069 -261.232332 
L 145.206922 -261.359357 
L 148.752201 -261.59621 
L 149.874769 -262.221314 
L 150.833916 -263.096134 
L 153.026266 -264.520342 
L 154.11929 -266.075631 
L 155.621281 -267.504555 
L 157.173684 -269.212176 
L 158.821536 -269.386904 
L 161.002213 -270.961538 
L 162.984242 -272.123342 
L 165.330923 -272.953995 
L 167.621719 -274.505435 
L 169.046855 -274.898574 
L 172.648949 -275.547218 
L 173.425563 -275.567291 
L 175.535582 -276.206539 
L 176.88097 -276.377766 
L 179.691161 -276.605225 
L 181.401304 -277.15548 
L 185.243985 -278.778892 
L 186.744943 -281.600025 
L 187.430033 -283.665874 
L 189.668145 -286.619786 
L 190.953825 -288.309623 
L 192.062551 -287.554339 
L 193.23584 -288.014422 
L 195.231816 -287.832622 
L 198.772962 -287.968521 
L 200.603037 -288.866534 
L 202.608722 -288.893298 
L 203.709391 -289.071424 
L 204.456358 -288.799971 
L 206.246248 -288.786346 
L 208.372796 -289.827505 
L 209.290932 -289.827505 
L 210.721439 -290.116638 
L 212.377452 -290.340145 
L 213.928202 -290.21312 
L 215.235885 -290.729712 
L 216.289035 -291.581616 
L 217.238988 -292.14879 
L 218.91938 -293.142522 
L 220.485004 -293.552682 
L 222.26818 -294.57297 
L 223.138695 -295.172836 
L 224.096602 -296.080903 
L 226.557534 -297.882718 
L 228.308583 -298.902208 
L 230.362613 -301.11727 
L 232.615084 -302.217988 
L 234.628208 -303.586103 
L 236.577388 -304.143569 
L 237.482818 -304.276245 
L 238.175449 -304.539828 
L 239.310516 -304.427399 
L 240.1206 -304.501311 
L 240.597126 -304.588572 
L 242.138992 -304.588572 
L 243.016221 -304.07926 
L 246.439708 -304.023028 
L 247.980024 -304.018798 
L 249.731177 -303.992069 
L 250.650966 -304.500549 
L 252.493643 -304.211415 
L 253.834589 -305.069005 
L 254.750866 -304.746208 
L 256.165465 -304.820814 
L 258.021778 -305.337407 
L 259.535752 -304.34884 
L 261.763844 -305.063077 
L 263.438451 -306.037152 
L 264.317333 -306.888813 
L 266.04545 -308.509729 
L 267.523373 -310.381505 
L 268.888801 -310.534843 
L 270.621876 -312.209114 
L 272.109818 -313.783748 
L 273.409031 -313.964993 
L 274.73913 -315.117957 
L 275.896821 -315.117957 
L 276.621785 -314.245287 
L 277.845381 -314.619011 
L 279.73537 -315.053578 
L 281.142531 -316.107737 
L 282.291751 -317.666978 
L 283.53921 -317.972752 
L 285.366805 -317.735899 
L 287.913993 -317.106045 
L 288.8938 -316.82596 
L 290.246625 -317.225061 
L 291.202156 -317.630715 
L 292.672228 -317.989428 
L 294.02495 -317.630715 
L 294.771917 -317.285349 
L 297.143803 -317.290862 
L 298.350148 -317.221282 
L 299.632523 -317.510416 
L 300.701581 -318.722489 
L 301.621887 -319.645151 
L 302.765632 -319.645151 
L 305.182661 -319.947216 
L 306.31122 -319.251735 
L 307.265822 -319.787152 
L 308.145633 -320.288699 
L 308.97896 -321.483195 
L 310.011347 -322.013342 
L 311.205192 -321.416458 
L 312.969051 -323.168663 
L 314.337165 -321.899561 
L 316.735703 -322.944949 
L 318.982389 -324.803724 
L 320.061881 -323.629093 
L 321.362126 -325.984075 
L 322.612168 -326.474389 
L 325.46089 -326.92161 
L 329.688986 -329.072466 
L 332.380381 -329.917575 
L 333.583007 -331.319387 
L 335.062169 -332.414871 
L 336.261697 -332.678454 
L 337.853043 -333.009294 
L 340.563963 -332.837235 
L 341.719587 -332.99716 
L 343.74428 -333.490767 
L 345.067355 -332.923697 
L 345.599973 -332.563529 
L 346.443733 -330.86031 
L 347.237908 -330.396205 
L 348.105117 -330.382581 
L 349.384909 -331.658027 
L 351.04557 -333.080433 
L 352.029613 -333.423649 
L 353.248044 -334.686199 
L 354.851993 -333.757505 
L 355.785728 -333.744296 
L 357.036905 -333.022051 
L 358.199554 -333.291181 
L 359.095378 -332.959232 
L 360.082105 -332.959232 
L 362.161444 -333.409504 
L 366.869785 -332.101331 
L 368.429625 -334.464599 
L 370.032645 -336.452063 
L 371.383198 -338.19678 
L 375.583712 -340.336542 
L 377.505311 -340.336542 
L 380.331927 -340.716229 
L 383.131375 -341.446586 
L 384.074716 -341.816913 
L 385.298829 -342.496169 
L 386.57077 -342.187239 
L 387.856347 -343.055195 
L 389.44883 -343.055195 
L 390.184021 -343.431727 
L 390.846798 -343.477385 
L 391.817617 -343.823375 
L 393.103401 -344.76871 
L 393.924021 -345.087936 
L 394.563142 -346.046965 
L 395.589847 -345.247479 
L 396.650745 -344.749365 
L 397.895002 -345.058606 
L 398.610049 -344.316289 
L 399.905646 -345.05767 
L 401.159612 -346.073798 
L 402.42143 -345.501216 
L 403.836339 -346.184182 
L 405.252901 -346.184182 
L 406.302126 -346.459552 
L 407.525309 -346.968864 
L 408.010822 -347.432136 
L 408.66957 -347.72758 
L 409.595144 -347.397468 
L 410.418967 -347.225409 
L 412.127766 -346.881985 
L 414.012384 -346.364561 
L 417.008929 -346.364561 
L 418.357313 -346.019195 
L 420.562472 -345.97638 
L 423.063484 -346.29304 
L 424.562273 -346.595383 
L 426.336152 -348.967595 
L 427.00585 -349.614748 
L 427.969026 -350.96435 
L 429.965208 -352.349904 
L 430.710728 -352.002666 
L 431.482488 -352.852074 
L 432.791617 -354.052741 
L 434.431825 -353.714448 
L 436.119758 -353.314376 
L 437.930102 -353.77952 
L 441.289439 -353.017338 
L 442.238152 -354.173179 
L 443.108047 -355.281871 
L 444.00604 -354.943577 
L 445.239759 -355.3718 
L 446.463356 -355.3718 
L 447.526836 -355.529888 
L 448.531848 -356.350937 
L 449.658032 -356.501779 
L 451.031724 -357.214247 
L 452.758808 -357.056159 
L 456.001829 -357.194139 
L 458.490342 -358.153584 
L 459.246606 -357.976984 
L 460.043777 -359.15113 
L 462.271456 -359.381223 
L 463.342683 -358.792348 
L 464.54469 -358.858356 
L 465.319032 -358.629545 
L 466.438501 -359.804176 
L 469.371516 -360.835628 
L 470.256803 -360.533389 
L 472.569395 -360.7622 
L 474.094216 -360.95291 
L 476.251444 -361.862641 
L 477.009567 -362.854501 
L 478.103314 -362.772303 
L 478.735205 -362.741517 
L 480.754216 -362.385751 
L 481.581138 -362.05564 
L 481.977192 -363.004545 
L 482.640486 -362.710524 
L 482.640486 -312.273215 
L 482.640486 -312.273215 
L 481.977192 -311.112486 
L 481.581138 -311.772952 
L 480.754216 -311.153707 
L 478.735205 -309.931233 
L 478.103314 -310.767155 
L 477.009567 -309.239982 
L 476.251444 -309.943402 
L 474.094216 -311.142266 
L 472.569395 -309.599562 
L 470.256803 -310.117506 
L 469.371516 -309.237001 
L 466.438501 -308.535037 
L 465.319032 -310.287242 
L 464.54469 -309.769298 
L 463.342683 -308.391025 
L 462.271456 -306.646308 
L 460.043777 -304.854547 
L 459.246606 -304.584411 
L 458.490342 -303.541104 
L 456.001829 -303.633841 
L 452.758808 -303.482688 
L 451.031724 -303.035467 
L 449.658032 -304.037068 
L 448.531848 -303.898776 
L 447.526836 -303.853118 
L 446.463356 -304.300339 
L 445.239759 -304.300339 
L 444.00604 -303.573415 
L 443.108047 -302.368414 
L 442.238152 -301.743691 
L 441.289439 -300.58785 
L 437.930102 -300.114108 
L 436.119758 -300.001679 
L 434.431825 -299.312473 
L 432.791617 -299.840887 
L 431.482488 -300.174847 
L 430.710728 -300.445988 
L 429.965208 -299.81031 
L 427.969026 -299.174008 
L 427.00585 -299.079329 
L 426.336152 -299.438042 
L 424.562273 -300.36528 
L 423.063484 -300.378488 
L 420.562472 -300.117575 
L 418.357313 -299.785626 
L 417.008929 -298.862687 
L 414.012384 -298.862687 
L 412.127766 -297.478555 
L 410.418967 -297.135131 
L 409.595144 -296.096365 
L 408.66957 -295.477119 
L 408.010822 -295.772563 
L 407.525309 -294.50242 
L 406.302126 -295.87844 
L 405.252901 -294.420395 
L 403.836339 -294.420395 
L 402.42143 -293.94752 
L 401.159612 -292.797364 
L 399.905646 -292.658344 
L 398.610049 -291.954751 
L 397.895002 -292.657408 
L 396.650745 -292.96665 
L 395.589847 -293.912817 
L 394.563142 -293.691598 
L 393.924021 -293.494786 
L 393.103401 -292.658171 
L 391.817617 -291.870091 
L 390.846798 -291.349374 
L 390.184021 -290.528324 
L 389.44883 -290.038149 
L 387.856347 -290.038149 
L 386.57077 -290.327838 
L 385.298829 -290.018908 
L 384.074716 -289.542323 
L 383.131375 -288.756809 
L 380.331927 -288.332018 
L 377.505311 -287.555865 
L 375.583712 -287.555865 
L 371.383198 -287.962212 
L 370.032645 -288.840221 
L 368.429625 -288.516696 
L 366.869785 -288.279843 
L 362.161444 -287.260803 
L 360.082105 -286.555234 
L 359.095378 -286.555234 
L 358.199554 -286.512418 
L 357.036905 -286.492415 
L 355.785728 -285.481036 
L 354.851993 -285.178694 
L 353.248044 -283.383293 
L 352.029613 -283.779135 
L 351.04557 -283.544778 
L 349.384909 -284.389609 
L 348.105117 -285.375922 
L 347.237908 -285.073857 
L 346.443733 -283.743046 
L 345.599973 -282.039827 
L 345.067355 -281.968791 
L 343.74428 -280.535015 
L 341.719587 -281.606196 
L 340.563963 -280.032706 
L 337.853043 -278.99394 
L 336.261697 -278.168938 
L 335.062169 -277.277374 
L 333.583007 -277.795283 
L 332.380381 -277.174548 
L 329.688986 -277.442083 
L 325.46089 -277.281257 
L 322.612168 -277.439344 
L 321.362126 -277.641217 
L 320.061881 -277.106944 
L 318.982389 -275.354739 
L 316.735703 -274.613393 
L 314.337165 -274.213806 
L 312.969051 -273.233837 
L 311.205192 -274.408468 
L 310.011347 -274.100718 
L 308.97896 -274.053292 
L 308.145633 -274.669521 
L 307.265822 -274.304359 
L 306.31122 -274.261509 
L 305.182661 -273.566029 
L 302.765632 -273.579653 
L 301.621887 -273.579653 
L 300.701581 -273.347168 
L 299.632523 -273.4034 
L 298.350148 -273.114266 
L 297.143803 -272.177979 
L 294.771917 -271.894358 
L 294.02495 -270.971419 
L 292.672228 -270.324266 
L 291.202156 -270.971419 
L 290.246625 -270.799499 
L 288.8938 -270.621026 
L 287.913993 -268.607526 
L 285.366805 -267.110965 
L 283.53921 -265.429137 
L 282.291751 -264.57907 
L 281.142531 -265.271604 
L 279.73537 -264.014775 
L 277.845381 -264.160901 
L 276.621785 -263.667918 
L 275.896821 -263.372822 
L 274.73913 -263.372822 
L 273.409031 -263.080811 
L 272.109818 -262.395349 
L 270.621876 -261.658995 
L 268.888801 -262.177424 
L 267.523373 -262.619896 
L 266.04545 -263.335831 
L 264.317333 -263.511772 
L 263.438451 -262.919152 
L 261.763844 -261.870679 
L 259.535752 -261.140634 
L 258.021778 -260.441201 
L 256.165465 -259.801953 
L 254.750866 -260.165692 
L 253.834589 -260.13203 
L 252.493643 -259.833778 
L 250.650966 -260.122912 
L 249.731177 -258.897977 
L 247.980024 -257.426273 
L 246.439708 -257.133603 
L 243.016221 -255.92153 
L 242.138992 -254.545511 
L 240.597126 -254.545511 
L 240.1206 -253.766064 
L 239.310516 -253.262403 
L 238.175449 -253.727547 
L 237.482818 -252.835983 
L 236.577388 -252.390391 
L 234.628208 -251.214443 
L 232.615084 -249.693995 
L 230.362613 -249.061299 
L 228.308583 -247.809531 
L 226.557534 -247.095606 
L 224.096602 -247.741581 
L 223.138695 -247.78294 
L 222.26818 -248.094365 
L 220.485004 -248.247946 
L 218.91938 -247.791399 
L 217.238988 -247.62929 
L 216.289035 -247.618196 
L 215.235885 -247.603393 
L 213.928202 -246.964144 
L 212.377452 -246.259546 
L 210.721439 -245.616345 
L 209.290932 -245.327211 
L 208.372796 -245.327211 
L 206.246248 -244.634955 
L 204.456358 -244.33289 
L 203.709391 -242.90629 
L 202.608722 -241.351 
L 200.603037 -239.355216 
L 198.772962 -237.07484 
L 195.231816 -235.765765 
L 193.23584 -233.850549 
L 192.062551 -234.021499 
L 190.953825 -233.555349 
L 189.668145 -233.800904 
L 187.430033 -234.443828 
L 186.744943 -234.198688 
L 185.243985 -234.419699 
L 181.401304 -233.732123 
L 179.691161 -233.41567 
L 176.88097 -233.065555 
L 175.535582 -231.503367 
L 173.425563 -230.986775 
L 172.648949 -229.562567 
L 169.046855 -227.321955 
L 167.621719 -225.981678 
L 165.330923 -224.06629 
L 162.984242 -222.58526 
L 161.002213 -221.146942 
L 158.821536 -220.410587 
L 157.173684 -219.429475 
L 155.621281 -218.826108 
L 154.11929 -219.388323 
L 153.026266 -219.210198 
L 150.833916 -219.190125 
L 149.874769 -218.909103 
L 148.752201 -216.934085 
L 145.206922 -214.570817 
L 143.415069 -211.808586 
L 140.675226 -209.665738 
L 137.042968 -208.336036 
L 136.476364 -207.21885 
L 132.793902 -206.480589 
L 129.502226 -205.156607 
L 127.649426 -204.12779 
L 125.978331 -201.589066 
L 122.934061 -198.40194 
L 121.957146 -195.736468 
L 118.589958 -193.165294 
L 115.6869 -192.284477 
L 112.402145 -191.715639 
L 108.326005 -190.686823 
L 107.959597 -188.917214 
L 106.4136 -186.520283 
L 105.202193 -184.400629 
L 104.176107 -182.393126 
L 101.876325 -180.370578 
L 99.68728 -178.908304 
L 98.270512 -176.339938 
L 97.357334 -172.525628 
L 95.699565 -169.364573 
L 90.13011 -166.606571 
L 88.953619 -163.025163 
L 88.205309 -159.016815 
L 85.299771 -155.54059 
L 82.09962 -148.310552 
L 77.883817 -142.65643 
L 76.550206 -129.004194 
z
" style="stroke: #808080; stroke-opacity: 0.4"/>
    </defs>
    <g clip-path="url(#pc39bdac233)">
     <use xlink:href="#mbba436a4b8" x="0" y="385.03" style="fill: #808080; fill-opacity: 0.4; stroke: #808080; stroke-opacity: 0.4"/>
    </g>
   </g>
   <g id="PolyCollection_2">
    <defs>
     <path id="m64bf8925c3" d="M 76.550206 -89.334997 
L 76.550206 -199.675514 
L 77.883817 -174.224617 
L 82.09962 -177.59129 
L 85.299771 -183.082401 
L 88.205309 -187.534331 
L 88.953619 -191.64131 
L 90.13011 -195.704885 
L 95.699565 -199.00607 
L 97.357334 -201.503886 
L 98.270512 -204.020215 
L 99.68728 -206.076807 
L 101.876325 -206.648349 
L 104.176107 -208.108647 
L 105.202193 -209.221915 
L 106.4136 -210.755224 
L 107.959597 -213.152537 
L 108.326005 -214.398273 
L 112.402145 -217.062185 
L 115.6869 -219.412314 
L 118.589958 -221.518863 
L 121.957146 -224.093643 
L 122.934061 -224.896561 
L 125.978331 -226.62637 
L 127.649426 -228.936977 
L 129.502226 -231.043146 
L 132.793902 -233.480881 
L 136.476364 -235.214296 
L 137.042968 -236.370137 
L 140.675226 -237.153051 
L 143.415069 -237.499388 
L 145.206922 -238.344358 
L 148.752201 -238.863654 
L 149.874769 -240.851985 
L 150.833916 -242.732636 
L 153.026266 -244.337813 
L 154.11929 -246.41902 
L 155.621281 -247.324694 
L 157.173684 -248.790713 
L 158.821536 -249.497045 
L 161.002213 -250.463111 
L 162.984242 -250.768712 
L 165.330923 -250.372211 
L 167.621719 -250.949785 
L 169.046855 -250.610382 
L 172.648949 -252.038196 
L 173.425563 -253.694994 
L 175.535582 -255.105751 
L 176.88097 -255.825569 
L 179.691161 -256.891861 
L 181.401304 -258.113295 
L 185.243985 -259.386453 
L 186.744943 -260.87504 
L 187.430033 -261.741748 
L 189.668145 -263.15826 
L 190.953825 -263.191992 
L 192.062551 -263.739578 
L 193.23584 -262.539431 
L 195.231816 -261.695015 
L 198.772962 -262.176974 
L 200.603037 -263.127474 
L 202.608722 -264.70086 
L 203.709391 -265.754395 
L 204.456358 -266.073031 
L 206.246248 -265.700104 
L 208.372796 -266.073413 
L 209.290932 -266.528261 
L 210.721439 -267.535513 
L 212.377452 -267.854635 
L 213.928202 -268.21997 
L 215.235885 -269.112227 
L 216.289035 -269.991311 
L 217.238988 -270.785354 
L 218.91938 -272.509651 
L 220.485004 -272.199994 
L 222.26818 -272.398851 
L 223.138695 -273.749112 
L 224.096602 -274.379763 
L 226.557534 -274.835686 
L 228.308583 -276.028726 
L 230.362613 -275.458744 
L 232.615084 -275.647721 
L 234.628208 -277.242844 
L 236.577388 -277.852694 
L 237.482818 -279.509873 
L 238.175449 -279.694135 
L 239.310516 -279.121588 
L 240.1206 -278.381698 
L 240.597126 -278.030681 
L 242.138992 -277.763458 
L 243.016221 -278.713959 
L 246.439708 -278.834119 
L 247.980024 -278.954279 
L 249.731177 -279.594429 
L 250.650966 -279.476418 
L 252.493643 -279.623481 
L 253.834589 -279.88807 
L 254.750866 -279.888451 
L 256.165465 -280.211282 
L 258.021778 -280.064219 
L 259.535752 -279.799631 
L 261.763844 -280.419396 
L 263.438451 -280.505443 
L 264.317333 -281.568511 
L 266.04545 -282.568657 
L 267.523373 -283.308998 
L 268.888801 -285.120902 
L 270.621876 -285.938485 
L 272.109818 -286.288738 
L 273.409031 -286.543654 
L 274.73913 -286.531382 
L 275.896821 -287.273491 
L 276.621785 -288.284662 
L 277.845381 -288.276202 
L 279.73537 -287.770253 
L 281.142531 -287.829606 
L 282.291751 -288.299014 
L 283.53921 -288.919438 
L 285.366805 -290.183201 
L 287.913993 -290.621582 
L 288.8938 -291.137273 
L 290.246625 -292.167996 
L 291.202156 -292.146363 
L 292.672228 -293.195772 
L 294.02495 -292.885422 
L 294.771917 -292.454009 
L 297.143803 -293.09416 
L 298.350148 -293.010817 
L 299.632523 -293.425623 
L 300.701581 -293.425623 
L 301.621887 -292.889929 
L 302.765632 -292.790188 
L 305.182661 -292.952956 
L 306.31122 -293.961942 
L 307.265822 -293.460985 
L 308.145633 -293.088058 
L 308.97896 -293.829821 
L 310.011347 -293.088058 
L 311.205192 -294.125091 
L 312.969051 -294.498399 
L 314.337165 -294.498399 
L 316.735703 -294.871707 
L 318.982389 -296.21025 
L 320.061881 -297.49471 
L 321.362126 -297.866112 
L 322.612168 -299.338925 
L 325.46089 -299.025212 
L 329.688986 -298.480607 
L 332.380381 -299.087857 
L 333.583007 -298.97515 
L 335.062169 -299.56101 
L 336.261697 -300.436176 
L 337.853043 -301.179187 
L 340.563963 -301.434103 
L 341.719587 -302.373406 
L 343.74428 -302.8485 
L 345.067355 -303.714723 
L 345.599973 -304.261442 
L 346.443733 -304.667789 
L 347.237908 -305.093619 
L 348.105117 -304.299022 
L 349.384909 -305.459647 
L 351.04557 -305.019256 
L 352.029613 -304.583059 
L 353.248044 -305.743684 
L 354.851993 -305.269249 
L 355.785728 -304.915043 
L 357.036905 -305.853167 
L 358.199554 -305.461554 
L 359.095378 -305.790937 
L 360.082105 -306.229318 
L 362.161444 -305.624738 
L 366.869785 -305.624738 
L 368.429625 -305.273721 
L 370.032645 -305.499897 
L 371.383198 -306.180124 
L 375.583712 -306.715818 
L 377.505311 -307.35635 
L 380.331927 -308.365336 
L 383.131375 -308.365336 
L 384.074716 -308.365717 
L 385.298829 -309.390547 
L 386.57077 -309.744336 
L 387.856347 -310.474347 
L 389.44883 -311.408623 
L 390.184021 -310.926491 
L 390.846798 -310.560948 
L 391.817617 -309.830938 
L 393.103401 -309.101101 
L 393.924021 -308.923738 
L 394.563142 -310.039849 
L 395.589847 -310.703643 
L 396.650745 -310.60151 
L 397.895002 -311.227723 
L 398.610049 -310.621236 
L 399.905646 -310.597731 
L 401.159612 -311.67127 
L 402.42143 -312.290411 
L 403.836339 -312.708545 
L 405.252901 -313.512711 
L 406.302126 -313.697146 
L 407.525309 -313.446737 
L 408.010822 -314.264146 
L 408.66957 -314.230449 
L 409.595144 -314.732203 
L 410.418967 -314.732029 
L 412.127766 -313.990267 
L 414.012384 -315.50281 
L 417.008929 -316.361058 
L 418.357313 -316.859207 
L 420.562472 -317.589217 
L 423.063484 -317.516622 
L 424.562273 -317.072451 
L 426.336152 -318.14495 
L 427.00585 -318.473605 
L 427.969026 -317.542796 
L 429.965208 -317.986966 
L 430.710728 -317.965472 
L 431.482488 -318.503039 
L 432.791617 -319.118193 
L 434.431825 -319.065601 
L 436.119758 -318.824032 
L 437.930102 -317.846733 
L 441.289439 -318.615745 
L 442.238152 -318.878808 
L 443.108047 -319.141871 
L 444.00604 -320.093585 
L 445.239759 -319.678779 
L 446.463356 -319.574324 
L 447.526836 -319.469868 
L 448.531848 -319.469868 
L 449.658032 -319.780219 
L 451.031724 -320.892586 
L 452.758808 -320.629731 
L 456.001829 -321.165425 
L 458.490342 -321.805575 
L 459.246606 -320.696814 
L 460.043777 -321.460314 
L 462.271456 -321.460314 
L 463.342683 -321.087387 
L 464.54469 -322.446557 
L 465.319032 -322.586444 
L 466.438501 -322.943527 
L 469.371516 -323.915106 
L 470.256803 -323.043615 
L 472.569395 -323.151398 
L 474.094216 -323.819526 
L 476.251444 -322.965472 
L 477.009567 -322.477793 
L 478.103314 -323.842823 
L 478.735205 -323.540238 
L 480.754216 -323.825905 
L 481.581138 -325.148188 
L 481.977192 -324.040709 
L 482.640486 -323.522904 
L 482.640486 -261.323267 
L 482.640486 -261.323267 
L 481.977192 -260.227887 
L 481.581138 -259.697982 
L 480.754216 -259.286851 
L 478.735205 -258.705811 
L 478.103314 -259.269933 
L 477.009567 -259.190681 
L 476.251444 -259.28127 
L 474.094216 -258.71635 
L 472.569395 -258.806903 
L 470.256803 -258.625553 
L 469.371516 -257.464928 
L 466.438501 -257.85824 
L 465.319032 -257.348616 
L 464.54469 -256.621795 
L 463.342683 -257.691832 
L 462.271456 -257.030465 
L 460.043777 -257.030465 
L 459.246606 -257.793965 
L 458.490342 -256.396763 
L 456.001829 -256.74778 
L 452.758808 -256.705207 
L 451.031724 -256.442352 
L 449.658032 -257.265586 
L 448.531848 -256.998362 
L 447.526836 -256.998362 
L 446.463356 -256.604773 
L 445.239759 -256.211184 
L 444.00604 -256.084818 
L 443.108047 -256.748092 
L 442.238152 -256.144448 
L 441.289439 -255.540803 
L 437.930102 -255.443108 
L 436.119758 -253.599101 
L 434.431825 -253.357533 
L 432.791617 -253.016501 
L 431.482488 -252.764947 
L 430.710728 -253.590954 
L 429.965208 -254.436167 
L 427.969026 -254.591204 
L 427.00585 -254.238662 
L 426.336152 -253.41217 
L 424.562273 -252.17368 
L 423.063484 -252.018643 
L 420.562472 -251.36778 
L 418.357313 -251.519524 
L 417.008929 -251.728539 
L 414.012384 -251.141812 
L 412.127766 -250.632501 
L 410.418967 -249.890738 
L 409.595144 -249.602124 
L 408.66957 -249.815438 
L 408.010822 -250.070181 
L 407.525309 -249.732442 
L 406.302126 -249.482033 
L 405.252901 -248.221494 
L 403.836339 -249.02566 
L 402.42143 -248.577087 
L 401.159612 -248.040387 
L 399.905646 -248.825485 
L 398.610049 -247.357699 
L 397.895002 -247.328785 
L 396.650745 -247.377425 
L 395.589847 -246.697025 
L 394.563142 -246.204978 
L 393.924021 -245.876808 
L 393.103401 -245.410311 
L 391.817617 -245.547182 
L 390.846798 -245.395438 
L 390.184021 -244.740762 
L 389.44883 -244.25863 
L 387.856347 -243.748625 
L 386.57077 -243.900368 
L 385.298829 -243.965025 
L 384.074716 -244.123147 
L 383.131375 -243.545954 
L 380.331927 -243.545954 
L 377.505311 -243.977367 
L 375.583712 -243.751191 
L 371.383198 -243.708618 
L 370.032645 -243.522137 
L 368.429625 -242.881606 
L 366.869785 -242.241456 
L 362.161444 -242.241456 
L 360.082105 -241.348435 
L 359.095378 -241.497682 
L 358.199554 -241.249492 
L 357.036905 -240.280305 
L 355.785728 -240.929295 
L 354.851993 -241.153357 
L 353.248044 -240.678921 
L 352.029613 -241.550412 
L 351.04557 -241.40335 
L 349.384909 -240.096251 
L 348.105117 -240.967742 
L 347.237908 -239.884705 
L 346.443733 -238.577121 
L 345.599973 -238.405201 
L 345.067355 -237.218505 
L 343.74428 -237.21802 
L 341.719587 -237.114847 
L 340.563963 -236.899002 
L 337.853043 -237.153918 
L 336.261697 -236.741088 
L 335.062169 -236.171973 
L 333.583007 -234.735284 
L 332.380381 -233.178296 
L 329.688986 -232.918839 
L 325.46089 -232.663368 
L 322.612168 -232.638788 
L 321.362126 -232.378187 
L 320.061881 -230.72704 
L 318.982389 -229.988952 
L 316.735703 -230.171654 
L 314.337165 -230.255829 
L 312.969051 -230.255829 
L 311.205192 -230.340003 
L 310.011347 -230.799462 
L 308.97896 -230.057699 
L 308.145633 -230.799462 
L 307.265822 -230.138095 
L 306.31122 -229.058871 
L 305.182661 -229.490283 
L 302.765632 -228.786343 
L 301.621887 -228.397469 
L 300.701581 -228.440042 
L 299.632523 -228.440042 
L 298.350148 -228.566408 
L 297.143803 -228.193932 
L 294.771917 -228.544948 
L 294.02495 -227.535962 
L 292.672228 -227.803185 
L 291.202156 -228.275021 
L 290.246625 -227.38668 
L 288.8938 -227.550696 
L 287.913993 -226.043839 
L 285.366805 -226.193086 
L 283.53921 -226.012568 
L 282.291751 -225.477151 
L 281.142531 -225.658119 
L 279.73537 -224.27319 
L 277.845381 -223.767241 
L 276.621785 -223.469648 
L 275.896821 -223.324978 
L 274.73913 -223.489513 
L 273.409031 -223.188107 
L 272.109818 -223.443023 
L 270.621876 -222.926569 
L 268.888801 -221.721604 
L 267.523373 -220.933385 
L 266.04545 -219.651872 
L 264.317333 -219.78531 
L 263.438451 -220.848379 
L 261.763844 -220.645292 
L 259.535752 -220.109216 
L 258.021778 -218.97792 
L 256.165465 -217.675016 
L 254.750866 -217.13114 
L 253.834589 -216.553947 
L 252.493643 -216.818536 
L 250.650966 -217.254732 
L 249.731177 -216.848281 
L 247.980024 -217.199298 
L 246.439708 -216.452751 
L 243.016221 -215.706204 
L 242.138992 -215.789997 
L 240.597126 -216.100347 
L 240.1206 -215.460197 
L 239.310516 -214.720307 
L 238.175449 -213.858626 
L 237.482818 -212.309473 
L 236.577388 -213.389079 
L 234.628208 -212.554648 
L 232.615084 -213.283063 
L 230.362613 -213.1836 
L 228.308583 -211.169337 
L 226.557534 -212.073244 
L 224.096602 -210.218178 
L 223.138695 -209.115414 
L 222.26818 -208.443126 
L 220.485004 -206.619435 
L 218.91938 -206.887352 
L 217.238988 -206.878234 
L 216.289035 -206.516436 
L 215.235885 -206.528812 
L 213.928202 -205.398522 
L 212.377452 -204.608015 
L 210.721439 -204.06043 
L 209.290932 -204.200975 
L 208.372796 -204.078249 
L 206.246248 -204.162424 
L 204.456358 -203.501057 
L 203.709391 -202.375412 
L 202.608722 -202.273106 
L 200.603037 -202.402211 
L 198.772962 -202.486004 
L 195.231816 -202.101255 
L 193.23584 -200.968399 
L 192.062551 -199.190678 
L 190.953825 -198.871557 
L 189.668145 -197.749448 
L 187.430033 -197.432545 
L 186.744943 -196.565838 
L 185.243985 -195.165169 
L 181.401304 -194.416473 
L 179.691161 -193.037784 
L 176.88097 -192.081528 
L 175.535582 -191.934639 
L 173.425563 -191.033714 
L 172.648949 -190.957097 
L 169.046855 -190.651496 
L 167.621719 -188.578678 
L 165.330923 -188.001105 
L 162.984242 -187.31547 
L 161.002213 -185.887656 
L 158.821536 -185.987015 
L 157.173684 -185.248373 
L 155.621281 -183.536695 
L 154.11929 -183.286528 
L 153.026266 -182.19004 
L 150.833916 -180.328387 
L 149.874769 -179.319782 
L 148.752201 -177.841283 
L 145.206922 -175.760457 
L 143.415069 -175.161147 
L 140.675226 -173.774068 
L 137.042968 -171.95686 
L 136.476364 -170.801019 
L 132.793902 -169.067604 
L 129.502226 -167.749377 
L 127.649426 -166.388716 
L 125.978331 -164.65492 
L 122.934061 -163.495473 
L 121.957146 -161.987402 
L 118.589958 -160.228645 
L 115.6869 -158.290791 
L 112.402145 -155.72981 
L 108.326005 -153.771051 
L 107.959597 -152.128225 
L 106.4136 -151.058708 
L 105.202193 -149.702761 
L 104.176107 -147.927467 
L 101.876325 -147.942791 
L 99.68728 -145.625076 
L 98.270512 -142.192984 
L 97.357334 -138.642362 
L 95.699565 -134.495652 
L 90.13011 -131.729885 
L 88.953619 -129.437374 
L 88.205309 -126.321561 
L 85.299771 -121.528843 
L 82.09962 -115.175184 
L 77.883817 -109.874783 
L 76.550206 -89.334997 
z
" style="stroke: #808080; stroke-opacity: 0.4"/>
    </defs>
    <g clip-path="url(#pc39bdac233)">
     <use xlink:href="#m64bf8925c3" x="0" y="385.03" style="fill: #808080; fill-opacity: 0.4; stroke: #808080; stroke-opacity: 0.4"/>
    </g>
   </g>
   <g id="PolyCollection_3">
    <defs>
     <path id="m3607646f90" d="M 76.550206 -66.495455 
L 76.550206 -170.222787 
L 77.883817 -139.992657 
L 82.09962 -143.985335 
L 85.299771 -149.530286 
L 88.205309 -154.500437 
L 88.953619 -158.205507 
L 90.13011 -161.480587 
L 95.699565 -165.272605 
L 97.357334 -167.154296 
L 98.270512 -170.093751 
L 99.68728 -173.314401 
L 101.876325 -175.117777 
L 104.176107 -177.189658 
L 105.202193 -178.123518 
L 106.4136 -177.813999 
L 107.959597 -177.985226 
L 108.326005 -178.684936 
L 112.402145 -181.796728 
L 115.6869 -186.006811 
L 118.589958 -189.072008 
L 121.957146 -191.582478 
L 122.934061 -191.564 
L 125.978331 -191.520907 
L 127.649426 -191.527148 
L 129.502226 -192.939049 
L 132.793902 -195.978661 
L 136.476364 -199.614706 
L 137.042968 -202.99171 
L 140.675226 -205.233674 
L 143.415069 -205.278154 
L 145.206922 -204.745059 
L 148.752201 -205.365483 
L 149.874769 -204.689902 
L 150.833916 -204.660919 
L 153.026266 -205.93328 
L 154.11929 -206.786641 
L 155.621281 -210.183232 
L 157.173684 -213.459733 
L 158.821536 -215.476595 
L 161.002213 -217.156205 
L 162.984242 -217.655845 
L 165.330923 -218.11201 
L 167.621719 -218.82271 
L 169.046855 -219.219731 
L 172.648949 -219.535525 
L 173.425563 -219.298671 
L 175.535582 -218.765577 
L 176.88097 -218.951815 
L 179.691161 -219.748908 
L 181.401304 -221.082736 
L 185.243985 -223.053005 
L 186.744943 -223.720265 
L 187.430033 -224.977199 
L 189.668145 -226.404181 
L 190.953825 -226.992779 
L 192.062551 -229.787911 
L 193.23584 -230.570963 
L 195.231816 -231.394821 
L 198.772962 -232.950179 
L 200.603037 -232.785817 
L 202.608722 -233.659631 
L 203.709391 -233.778647 
L 204.456358 -233.778647 
L 206.246248 -233.891562 
L 208.372796 -233.647497 
L 209.290932 -233.760412 
L 210.721439 -233.332432 
L 212.377452 -233.271693 
L 213.928202 -232.982663 
L 215.235885 -233.715412 
L 216.289035 -233.495997 
L 217.238988 -233.949874 
L 218.91938 -233.9973 
L 220.485004 -232.947163 
L 222.26818 -233.344704 
L 223.138695 -233.999519 
L 224.096602 -234.363259 
L 226.557534 -235.940493 
L 228.308583 -237.51322 
L 230.362613 -237.903585 
L 232.615084 -240.051286 
L 234.628208 -241.257604 
L 236.577388 -242.048145 
L 237.482818 -243.844726 
L 238.175449 -244.235749 
L 239.310516 -244.859883 
L 240.1206 -245.388297 
L 240.597126 -245.22598 
L 242.138992 -245.716155 
L 243.016221 -246.011355 
L 246.439708 -246.595932 
L 247.980024 -247.047383 
L 249.731177 -247.311 
L 250.650966 -247.492385 
L 252.493643 -247.30483 
L 253.834589 -247.34768 
L 254.750866 -247.246656 
L 256.165465 -247.085865 
L 258.021778 -247.085865 
L 259.535752 -246.925073 
L 261.763844 -247.078272 
L 263.438451 -247.325561 
L 264.317333 -248.084381 
L 266.04545 -247.795351 
L 267.523373 -248.873258 
L 268.888801 -249.050344 
L 270.621876 -249.134622 
L 272.109818 -250.197136 
L 273.409031 -248.86258 
L 274.73913 -249.541871 
L 275.896821 -251.040685 
L 276.621785 -251.683331 
L 277.845381 -252.737074 
L 279.73537 -253.314648 
L 281.142531 -252.986963 
L 282.291751 -253.151048 
L 283.53921 -254.298569 
L 285.366805 -254.750817 
L 287.913993 -255.277983 
L 288.8938 -256.558942 
L 290.246625 -257.186299 
L 291.202156 -257.524592 
L 292.672228 -257.913987 
L 294.02495 -258.186133 
L 294.771917 -258.857935 
L 297.143803 -259.803547 
L 298.350148 -260.075694 
L 299.632523 -259.78448 
L 300.701581 -260.119722 
L 301.621887 -260.431702 
L 302.765632 -260.594019 
L 305.182661 -261.462807 
L 306.31122 -261.75194 
L 307.265822 -261.336198 
L 308.145633 -261.751455 
L 308.97896 -261.625332 
L 310.011347 -260.861658 
L 311.205192 -261.132799 
L 312.969051 -261.136023 
L 314.337165 -260.948468 
L 316.735703 -261.157622 
L 318.982389 -261.283745 
L 320.061881 -261.097195 
L 321.362126 -261.166809 
L 322.612168 -261.4808 
L 325.46089 -261.92594 
L 329.688986 -262.289576 
L 332.380381 -262.743454 
L 333.583007 -263.271868 
L 335.062169 -263.007037 
L 336.261697 -263.271868 
L 337.853043 -263.931987 
L 340.563963 -264.611936 
L 341.719587 -265.587467 
L 343.74428 -266.315883 
L 345.067355 -266.883125 
L 345.599973 -267.508437 
L 346.443733 -267.194759 
L 347.237908 -267.771604 
L 348.105117 -267.493495 
L 349.384909 -267.079244 
L 351.04557 -267.107013 
L 352.029613 -267.05716 
L 353.248044 -267.648497 
L 354.851993 -268.201769 
L 355.785728 -269.447123 
L 357.036905 -270.259089 
L 358.199554 -271.249563 
L 359.095378 -271.385913 
L 360.082105 -271.455492 
L 362.161444 -272.033066 
L 366.869785 -272.465518 
L 368.429625 -272.856542 
L 370.032645 -273.845004 
L 371.383198 -273.806488 
L 375.583712 -273.806488 
L 377.505311 -274.591864 
L 380.331927 -274.174665 
L 383.131375 -274.463799 
L 384.074716 -274.573975 
L 385.298829 -274.838632 
L 386.57077 -275.948919 
L 387.856347 -275.948919 
L 389.44883 -277.156208 
L 390.184021 -277.750769 
L 390.846798 -277.351183 
L 391.817617 -277.782664 
L 393.103401 -276.575375 
L 393.924021 -276.362685 
L 394.563142 -277.664757 
L 395.589847 -277.435947 
L 396.650745 -278.064413 
L 397.895002 -277.187479 
L 398.610049 -276.330548 
L 399.905646 -276.927917 
L 401.159612 -276.927917 
L 402.42143 -278.563082 
L 403.836339 -278.563082 
L 405.252901 -279.185759 
L 406.302126 -279.821437 
L 407.525309 -279.063207 
L 408.010822 -279.698885 
L 408.66957 -278.847431 
L 409.595144 -278.847431 
L 410.418967 -279.546379 
L 412.127766 -279.546379 
L 414.012384 -280.182057 
L 417.008929 -280.257079 
L 418.357313 -280.30135 
L 420.562472 -280.080132 
L 423.063484 -280.155154 
L 424.562273 -280.17287 
L 426.336152 -280.17287 
L 427.00585 -280.782026 
L 427.969026 -280.485786 
L 429.965208 -280.773498 
L 430.710728 -281.228589 
L 431.482488 -281.221031 
L 432.791617 -281.830188 
L 434.431825 -281.830118 
L 436.119758 -281.983352 
L 437.930102 -282.222702 
L 441.289439 -283.371055 
L 442.238152 -284.094721 
L 443.108047 -284.061855 
L 444.00604 -284.82955 
L 445.239759 -284.101862 
L 446.463356 -284.188464 
L 447.526836 -284.505401 
L 448.531848 -284.06293 
L 449.658032 -284.887931 
L 451.031724 -284.731751 
L 452.758808 -285.042171 
L 456.001829 -285.042171 
L 458.490342 -285.042171 
L 459.246606 -285.343681 
L 460.043777 -285.608789 
L 462.271456 -286.472272 
L 463.342683 -287.031888 
L 464.54469 -287.329515 
L 465.319032 -289.02431 
L 466.438501 -289.620362 
L 469.371516 -289.397895 
L 470.256803 -290.843216 
L 472.569395 -289.291429 
L 474.094216 -289.291429 
L 476.251444 -289.990758 
L 477.009567 -290.118822 
L 478.103314 -292.151702 
L 478.735205 -292.53281 
L 480.754216 -293.443027 
L 481.581138 -294.064144 
L 481.977192 -292.635949 
L 482.640486 -292.236362 
L 482.640486 -232.229425 
L 482.640486 -232.229425 
L 481.977192 -232.118972 
L 481.581138 -231.557484 
L 480.754216 -231.889468 
L 478.735205 -232.51055 
L 478.103314 -232.024952 
L 477.009567 -233.191124 
L 476.251444 -233.030748 
L 474.094216 -232.86337 
L 472.569395 -232.86337 
L 470.256803 -231.600022 
L 469.371516 -231.889503 
L 466.438501 -231.089462 
L 465.319032 -231.107941 
L 464.54469 -231.647587 
L 463.342683 -231.945215 
L 462.271456 -232.50483 
L 460.043777 -232.501606 
L 459.246606 -231.900007 
L 458.490342 -231.33481 
L 456.001829 -231.33481 
L 452.758808 -231.33481 
L 451.031724 -230.200255 
L 449.658032 -229.177367 
L 448.531848 -228.846528 
L 447.526836 -227.825789 
L 446.463356 -228.43186 
L 445.239759 -229.096035 
L 444.00604 -228.946615 
L 443.108047 -229.136736 
L 442.238152 -228.814737 
L 441.289439 -228.383255 
L 437.930102 -227.509059 
L 436.119758 -227.170836 
L 434.431825 -228.190777 
L 432.791617 -227.61244 
L 431.482488 -227.644023 
L 430.710728 -227.347332 
L 429.965208 -225.491434 
L 427.969026 -226.06828 
L 427.00585 -225.772039 
L 426.336152 -225.803622 
L 424.562273 -225.803622 
L 423.063484 -225.243764 
L 420.562472 -224.740519 
L 418.357313 -223.941033 
L 417.008929 -223.696171 
L 414.012384 -223.192926 
L 412.127766 -223.540164 
L 410.418967 -223.540164 
L 409.595144 -223.661537 
L 408.66957 -223.661537 
L 408.010822 -222.810084 
L 407.525309 -223.157322 
L 406.302126 -222.109958 
L 405.252901 -222.457195 
L 403.836339 -222.790739 
L 402.42143 -222.790739 
L 401.159612 -223.84833 
L 399.905646 -223.84833 
L 398.610049 -224.4457 
L 397.895002 -222.722061 
L 396.650745 -222.711834 
L 395.589847 -222.18446 
L 394.563142 -221.666516 
L 393.924021 -222.39032 
L 393.103401 -221.888497 
L 391.817617 -221.837049 
L 390.846798 -221.113383 
L 390.184021 -221.00293 
L 389.44883 -220.730784 
L 387.856347 -220.782231 
L 386.57077 -220.782231 
L 385.298829 -220.736677 
L 384.074716 -220.423761 
L 383.131375 -219.089656 
L 380.331927 -218.800522 
L 377.505311 -218.094884 
L 375.583712 -218.013552 
L 371.383198 -218.013552 
L 370.032645 -217.108328 
L 368.429625 -216.651816 
L 366.869785 -216.465266 
L 362.161444 -215.452744 
L 360.082105 -214.87517 
L 359.095378 -215.233883 
L 358.199554 -214.791966 
L 357.036905 -214.627292 
L 355.785728 -215.150124 
L 354.851993 -214.37293 
L 353.248044 -214.637761 
L 352.029613 -215.229099 
L 351.04557 -214.601672 
L 349.384909 -215.207708 
L 348.105117 -213.926749 
L 347.237908 -213.93708 
L 346.443733 -214.224793 
L 345.599973 -213.044407 
L 345.067355 -212.513878 
L 343.74428 -212.214413 
L 341.719587 -211.498547 
L 340.563963 -211.895811 
L 337.853043 -211.998187 
L 336.261697 -212.080732 
L 335.062169 -212.634003 
L 333.583007 -212.080732 
L 332.380381 -211.742439 
L 329.688986 -211.329609 
L 325.46089 -210.248963 
L 322.612168 -209.24913 
L 321.362126 -209.56312 
L 320.061881 -209.343601 
L 318.982389 -209.734624 
L 316.735703 -209.572307 
L 314.337165 -209.203194 
L 312.969051 -207.860491 
L 311.205192 -206.997008 
L 310.011347 -208.134856 
L 308.97896 -207.082742 
L 308.145633 -207.245059 
L 307.265822 -206.793609 
L 306.31122 -205.222026 
L 305.182661 -204.932892 
L 302.765632 -205.224106 
L 301.621887 -205.097983 
L 300.701581 -204.832389 
L 299.632523 -204.590057 
L 298.350148 -203.72127 
L 297.143803 -203.126709 
L 294.771917 -203.494054 
L 294.02495 -203.588282 
L 292.672228 -202.993721 
L 291.202156 -203.671556 
L 290.246625 -203.143141 
L 288.8938 -202.614658 
L 287.913993 -203.028909 
L 285.366805 -202.111794 
L 283.53921 -201.697335 
L 282.291751 -201.689014 
L 281.142531 -200.408125 
L 279.73537 -199.502866 
L 277.845381 -198.925293 
L 276.621785 -199.112328 
L 275.896821 -199.1774 
L 274.73913 -199.520374 
L 273.409031 -199.621397 
L 272.109818 -198.575975 
L 270.621876 -199.060915 
L 268.888801 -198.56762 
L 267.523373 -197.877998 
L 266.04545 -198.089197 
L 264.317333 -197.511034 
L 263.438451 -197.691587 
L 261.763844 -198.228009 
L 259.535752 -197.803634 
L 258.021778 -197.065269 
L 256.165465 -197.065269 
L 254.750866 -196.326904 
L 253.834589 -195.647613 
L 252.493643 -194.823756 
L 250.650966 -193.481053 
L 249.731177 -192.506596 
L 247.980024 -192.19264 
L 246.439708 -191.777383 
L 243.016221 -191.783693 
L 242.138992 -192.078894 
L 240.597126 -191.702361 
L 240.1206 -191.828484 
L 239.310516 -191.490191 
L 238.175449 -191.536751 
L 237.482818 -191.350201 
L 236.577388 -191.413366 
L 234.628208 -190.470493 
L 232.615084 -189.654262 
L 230.362613 -189.201841 
L 228.308583 -188.147925 
L 226.557534 -188.853945 
L 224.096602 -188.40863 
L 223.138695 -188.483237 
L 222.26818 -188.271344 
L 220.485004 -187.513738 
L 218.91938 -187.041868 
L 217.238988 -186.51172 
L 216.289035 -186.09889 
L 215.235885 -185.301207 
L 213.928202 -184.011408 
L 212.377452 -183.433245 
L 210.721439 -182.505798 
L 209.290932 -181.500244 
L 208.372796 -181.324026 
L 206.246248 -179.92412 
L 204.456358 -179.747901 
L 203.709391 -179.747901 
L 202.608722 -179.00021 
L 200.603037 -178.718876 
L 198.772962 -177.687807 
L 195.231816 -176.932177 
L 193.23584 -176.889327 
L 192.062551 -176.516538 
L 190.953825 -176.133974 
L 189.668145 -175.277597 
L 187.430033 -174.971164 
L 186.744943 -174.20555 
L 185.243985 -174.006103 
L 181.401304 -173.954517 
L 179.691161 -173.26649 
L 176.88097 -172.619302 
L 175.535582 -171.649699 
L 173.425563 -169.67163 
L 172.648949 -167.989802 
L 169.046855 -166.57218 
L 167.621719 -165.235787 
L 165.330923 -165.07978 
L 162.984242 -164.091664 
L 161.002213 -162.857889 
L 158.821536 -162.22651 
L 157.173684 -161.932384 
L 155.621281 -162.608762 
L 154.11929 -164.271939 
L 153.026266 -163.681018 
L 150.833916 -162.64239 
L 149.874769 -161.169127 
L 148.752201 -158.470997 
L 145.206922 -157.358006 
L 143.415069 -155.379937 
L 140.675226 -152.824295 
L 137.042968 -151.599429 
L 136.476364 -150.931336 
L 132.793902 -150.522978 
L 129.502226 -149.517494 
L 127.649426 -148.329273 
L 125.978331 -145.735391 
L 122.934061 -142.514602 
L 121.957146 -139.896002 
L 118.589958 -137.206227 
L 115.6869 -135.937888 
L 112.402145 -135.5253 
L 108.326005 -134.881822 
L 107.959597 -133.270544 
L 106.4136 -130.553208 
L 105.202193 -127.643567 
L 104.176107 -125.399038 
L 101.876325 -124.00409 
L 99.68728 -122.629076 
L 98.270512 -120.360348 
L 97.357334 -117.521985 
L 95.699565 -114.492566 
L 90.13011 -111.350925 
L 88.953619 -109.137319 
L 88.205309 -105.331156 
L 85.299771 -101.922674 
L 82.09962 -96.489562 
L 77.883817 -92.103607 
L 76.550206 -66.495455 
z
" style="stroke: #808080; stroke-opacity: 0.4"/>
    </defs>
    <g clip-path="url(#pc39bdac233)">
     <use xlink:href="#m3607646f90" x="0" y="385.03" style="fill: #808080; fill-opacity: 0.4; stroke: #808080; stroke-opacity: 0.4"/>
    </g>
   </g>
   <g id="line2d_27">
    <path d="M 76.550206 222.75759 
L 77.883817 218.857406 
L 82.09962 213.223808 
L 85.299771 206.578936 
L 88.205309 202.245399 
L 88.953619 197.911862 
L 90.13011 194.589599 
L 95.699565 191.267337 
L 97.357334 188.378428 
L 98.270512 185.344952 
L 99.68728 182.600263 
L 104.176107 178.555166 
L 105.202193 176.677185 
L 106.4136 175.088337 
L 107.959597 173.932842 
L 108.326005 173.066135 
L 112.402145 171.621507 
L 115.6869 169.598959 
L 118.589958 167.43219 
L 121.957146 164.543281 
L 122.934061 162.232293 
L 125.978331 160.498878 
L 127.649426 158.91003 
L 129.502226 157.465402 
L 132.793902 156.020774 
L 136.476364 154.143139 
L 137.042968 152.120591 
L 140.675226 150.531743 
L 145.206922 147.064913 
L 148.752201 145.764852 
L 149.874769 144.464791 
L 150.833916 143.886871 
L 153.026266 143.16473 
L 154.11929 142.298023 
L 155.621281 141.864669 
L 157.173684 140.709175 
L 158.821536 140.131254 
L 161.002213 138.97576 
L 162.984242 137.675699 
L 165.330923 136.519858 
L 167.621719 134.786443 
L 169.046855 133.919736 
L 172.648949 132.475108 
L 173.425563 131.752967 
L 175.535582 131.175047 
L 176.88097 130.308339 
L 179.691161 130.019552 
L 181.401304 129.586199 
L 185.243985 128.430704 
L 186.744943 127.130643 
L 187.430033 125.975149 
L 190.953825 124.097514 
L 192.062551 124.242081 
L 193.23584 124.097514 
L 195.231816 123.230807 
L 198.772962 122.50832 
L 200.603037 120.919125 
L 202.608722 119.907851 
L 204.456358 118.46357 
L 206.246248 118.319349 
L 208.372796 117.452642 
L 209.290932 117.452642 
L 213.928202 116.441368 
L 216.289035 115.430094 
L 222.26818 113.696332 
L 223.138695 113.552112 
L 224.096602 113.118758 
L 226.557534 112.540838 
L 228.308583 111.674131 
L 230.362613 109.940716 
L 232.615084 109.074008 
L 234.628208 107.629727 
L 237.482818 106.473886 
L 238.175449 105.896312 
L 239.310516 106.185099 
L 240.1206 105.896312 
L 240.597126 105.462959 
L 242.138992 105.462959 
L 243.016221 105.029605 
L 246.439708 104.451685 
L 247.980024 104.307464 
L 249.731177 103.584977 
L 250.650966 102.71827 
L 252.493643 103.007403 
L 253.834589 102.429483 
L 256.165465 102.718616 
L 258.021778 102.140696 
L 259.535752 102.285263 
L 261.763844 101.563122 
L 263.438451 100.551848 
L 264.317333 99.829707 
L 267.523373 98.5293 
L 268.888801 98.673866 
L 270.621876 98.095946 
L 272.109818 96.940452 
L 273.409031 96.507098 
L 274.73913 95.784611 
L 275.896821 95.784611 
L 276.621785 96.073398 
L 277.845381 95.640044 
L 279.73537 95.495824 
L 281.142531 94.340329 
L 283.53921 93.329055 
L 285.366805 92.606568 
L 287.913993 92.173214 
L 288.8938 91.306507 
L 291.202156 90.728933 
L 292.672228 90.873153 
L 294.02495 90.728933 
L 294.771917 90.440146 
L 297.143803 90.295579 
L 298.350148 89.862226 
L 299.632523 89.573092 
L 301.621887 88.417598 
L 302.765632 88.417598 
L 306.31122 88.273378 
L 307.265822 87.984244 
L 308.97896 87.261757 
L 310.011347 86.97297 
L 311.205192 87.117537 
L 312.969051 86.82875 
L 314.337165 86.973317 
L 316.735703 86.250829 
L 318.982389 84.950768 
L 320.061881 84.661981 
L 321.362126 83.217354 
L 322.612168 83.073133 
L 325.46089 82.928567 
L 329.688986 81.772726 
L 332.380381 81.483939 
L 333.583007 80.472665 
L 335.062169 80.183878 
L 336.261697 79.606304 
L 337.853043 79.028383 
L 340.563963 78.59503 
L 341.719587 77.728322 
L 343.74428 78.017109 
L 345.067355 77.583756 
L 345.599973 77.728322 
L 346.443733 77.728322 
L 347.237908 77.294969 
L 352.029613 76.428608 
L 353.248044 75.995254 
L 355.785728 75.417334 
L 358.199554 75.1282 
L 359.095378 75.272767 
L 360.082105 75.272767 
L 362.161444 74.694846 
L 366.869785 74.839413 
L 368.429625 73.539352 
L 370.032645 72.383858 
L 371.383198 71.950504 
L 375.583712 71.083797 
L 377.505311 71.083797 
L 383.131375 69.928303 
L 384.074716 69.350382 
L 385.298829 68.772462 
L 386.57077 68.772462 
L 387.856347 68.483328 
L 389.44883 68.483328 
L 393.924021 65.738639 
L 394.563142 65.160719 
L 395.589847 65.449852 
L 396.650745 66.171993 
L 397.895002 66.171993 
L 398.610049 66.89448 
L 401.159612 65.594419 
L 402.42143 65.305632 
L 403.836339 64.727711 
L 405.252901 64.727711 
L 406.302126 63.861004 
L 407.525309 64.294358 
L 408.010822 63.42765 
L 408.66957 63.42765 
L 409.595144 63.283084 
L 410.418967 62.84973 
L 412.127766 62.84973 
L 414.012384 62.416376 
L 417.008929 62.416376 
L 418.357313 62.127589 
L 420.562472 61.983023 
L 424.562273 61.549669 
L 426.336152 60.827182 
L 427.00585 60.682961 
L 427.969026 59.960821 
L 429.965208 58.949893 
L 430.710728 58.805673 
L 432.791617 58.083186 
L 434.431825 58.51654 
L 436.119758 58.371973 
L 437.930102 58.083186 
L 441.289439 58.227406 
L 442.238152 57.071565 
L 443.108047 56.204858 
L 445.239759 55.19393 
L 446.463356 55.19393 
L 447.526836 55.338497 
L 448.531848 54.905143 
L 449.658032 54.760577 
L 451.031724 54.905143 
L 452.758808 54.760577 
L 456.001829 54.61601 
L 458.490342 54.182656 
L 459.246606 53.749302 
L 460.043777 53.027162 
L 463.342683 51.438314 
L 464.54469 50.716173 
L 465.319032 50.571606 
L 466.438501 50.860393 
L 470.256803 49.704552 
L 472.569395 49.849119 
L 474.094216 48.982412 
L 476.251444 49.126979 
L 477.009567 48.982758 
L 478.103314 48.260271 
L 478.735205 48.693625 
L 481.977192 47.971484 
L 482.640486 47.538131 
L 482.640486 47.538131 
" clip-path="url(#pc39bdac233)" style="fill: none; stroke: #440154; stroke-width: 2; stroke-linecap: round"/>
   </g>
   <g id="line2d_28">
    <path d="M 76.550206 240.524744 
L 77.883817 242.9803 
L 82.09962 238.646763 
L 85.299771 232.724378 
L 88.205309 228.102054 
L 88.953619 224.490658 
L 90.13011 221.312615 
L 95.699565 218.279139 
L 97.357334 214.956876 
L 98.270512 211.923401 
L 99.68728 209.179058 
L 101.876325 207.73443 
L 104.176107 207.011943 
L 105.202193 205.567662 
L 107.959597 202.389619 
L 108.326005 200.945338 
L 112.402145 198.634003 
L 115.6869 196.178447 
L 118.589958 194.156246 
L 121.957146 191.989477 
L 122.934061 190.833983 
L 125.978331 189.389355 
L 127.649426 187.367153 
L 129.502226 185.633739 
L 132.793902 183.755757 
L 136.476364 182.022342 
L 137.042968 180.866501 
L 148.752201 176.677531 
L 150.833916 173.499489 
L 153.026266 171.766074 
L 154.11929 170.177226 
L 155.621281 169.599305 
L 157.173684 168.010457 
L 158.821536 167.28797 
L 161.002213 166.854616 
L 162.984242 165.987909 
L 165.330923 165.843342 
L 167.621719 165.265768 
L 169.046855 164.399061 
L 172.648949 163.532354 
L 173.425563 162.665646 
L 175.535582 161.509805 
L 179.691161 160.065177 
L 181.401304 158.765116 
L 185.243985 157.754189 
L 186.744943 156.309561 
L 187.430033 155.442854 
L 193.23584 153.276085 
L 195.231816 153.131865 
L 198.772962 152.698511 
L 200.603037 152.265158 
L 202.608722 151.543017 
L 203.709391 150.965097 
L 204.456358 150.242956 
L 208.372796 149.954169 
L 213.928202 148.220754 
L 215.235885 147.20948 
L 216.289035 146.776126 
L 217.238988 146.198206 
L 218.91938 145.331499 
L 220.485004 145.620285 
L 222.26818 144.609011 
L 223.138695 143.597737 
L 224.096602 142.73103 
L 226.557534 141.575535 
L 228.308583 141.430969 
L 230.362613 140.708828 
L 232.615084 140.564608 
L 234.628208 140.131254 
L 237.482818 139.120327 
L 238.175449 138.253619 
L 240.597126 137.964486 
L 242.138992 138.253273 
L 243.016221 137.819919 
L 246.439708 137.386565 
L 247.980024 136.953212 
L 250.650966 136.664425 
L 253.834589 136.808991 
L 259.535752 135.075577 
L 261.763844 134.497656 
L 264.317333 134.353089 
L 266.04545 133.919736 
L 267.523373 132.908808 
L 268.888801 131.608747 
L 270.621876 130.597473 
L 272.109818 130.164119 
L 273.409031 130.164119 
L 274.73913 130.019552 
L 275.896821 129.730766 
L 276.621785 129.152845 
L 277.845381 129.008278 
L 279.73537 129.008278 
L 281.142531 128.286138 
L 282.291751 128.141918 
L 283.53921 127.563997 
L 285.366805 126.841856 
L 287.913993 126.69729 
L 288.8938 125.686016 
L 290.246625 125.252662 
L 291.202156 124.819308 
L 292.672228 124.530521 
L 294.02495 124.819308 
L 294.771917 124.530521 
L 298.350148 124.241388 
L 299.632523 124.097168 
L 300.701581 124.097168 
L 301.621887 124.386301 
L 302.765632 124.241734 
L 306.31122 123.519594 
L 307.265822 123.23046 
L 308.145633 123.08624 
L 310.011347 123.08624 
L 311.205192 122.797453 
L 312.969051 122.652886 
L 314.337165 122.652886 
L 316.735703 122.50832 
L 318.982389 121.930399 
L 320.061881 120.919125 
L 322.612168 119.041143 
L 329.688986 119.330277 
L 332.380381 118.896923 
L 336.261697 116.441368 
L 337.853043 115.863447 
L 340.563963 115.863447 
L 341.719587 115.285874 
L 343.74428 114.99674 
L 345.067355 114.563386 
L 345.599973 113.696679 
L 346.443733 113.407545 
L 347.237908 112.540838 
L 351.04557 111.818697 
L 352.029613 111.963264 
L 353.248044 111.818697 
L 354.851993 111.818697 
L 355.785728 112.107831 
L 357.036905 111.963264 
L 360.082105 111.241124 
L 362.161444 111.096903 
L 366.869785 111.096903 
L 368.429625 110.952337 
L 371.383198 110.085629 
L 375.583712 109.796496 
L 377.505311 109.363142 
L 380.331927 109.074355 
L 383.131375 109.074355 
L 385.298829 108.352214 
L 386.57077 108.207648 
L 387.856347 107.918514 
L 389.44883 107.196373 
L 390.184021 107.196373 
L 390.846798 107.051807 
L 393.103401 107.774294 
L 393.924021 107.629727 
L 394.563142 106.907587 
L 395.589847 106.329666 
L 397.895002 105.751746 
L 398.610049 106.040532 
L 399.905646 105.318392 
L 401.159612 105.174172 
L 402.42143 104.596251 
L 403.836339 104.162898 
L 405.252901 104.162898 
L 406.302126 103.44041 
L 407.525309 103.44041 
L 408.010822 102.862837 
L 408.66957 103.007057 
L 410.418967 102.718616 
L 412.127766 102.718616 
L 414.012384 101.707689 
L 417.008929 100.985202 
L 423.063484 100.262368 
L 424.562273 100.406934 
L 426.336152 99.25144 
L 427.00585 98.673866 
L 427.969026 98.963 
L 429.965208 98.818433 
L 430.710728 99.251787 
L 431.482488 99.396007 
L 432.791617 98.962653 
L 434.431825 98.818433 
L 436.119758 98.818433 
L 437.930102 98.385079 
L 441.289439 97.951726 
L 443.108047 97.085018 
L 444.00604 96.940798 
L 445.239759 97.085018 
L 451.031724 96.362531 
L 452.758808 96.362531 
L 460.043777 95.784611 
L 462.271456 95.784611 
L 464.54469 95.495824 
L 465.319032 95.06247 
L 466.438501 94.629116 
L 472.569395 94.050849 
L 474.094216 93.762062 
L 476.251444 93.906629 
L 477.009567 94.195763 
L 478.103314 93.473622 
L 478.735205 93.906976 
L 480.754216 93.473622 
L 481.581138 92.606915 
L 481.977192 92.895702 
L 482.640486 92.606915 
L 482.640486 92.606915 
" clip-path="url(#pc39bdac233)" style="fill: none; stroke: #31688e; stroke-width: 2; stroke-linecap: round"/>
   </g>
   <g id="line2d_29">
    <path d="M 76.550206 266.670879 
L 77.883817 268.981868 
L 82.09962 264.792551 
L 85.299771 259.30352 
L 88.205309 255.114203 
L 88.953619 251.358587 
L 90.13011 248.614244 
L 95.699565 245.147415 
L 97.357334 242.691859 
L 98.270512 239.80295 
L 99.68728 237.058261 
L 104.176107 233.735652 
L 105.202193 232.146457 
L 106.4136 230.846396 
L 107.959597 229.402115 
L 108.326005 228.246621 
L 112.402145 226.368986 
L 118.589958 221.890882 
L 121.957146 219.29076 
L 122.934061 217.990699 
L 125.978331 216.401851 
L 127.649426 215.10179 
L 129.502226 213.801729 
L 132.793902 211.77918 
L 136.476364 209.756979 
L 137.042968 207.73443 
L 143.415069 204.700955 
L 145.206922 203.978467 
L 148.752201 203.11176 
L 150.833916 201.378345 
L 153.026266 200.222851 
L 155.621281 198.634003 
L 157.173684 197.333942 
L 158.821536 196.178447 
L 161.002213 195.022953 
L 162.984242 194.156246 
L 165.330923 193.434105 
L 167.621719 193.000751 
L 169.046855 192.134044 
L 172.648949 191.267337 
L 173.425563 190.544849 
L 176.88097 189.244442 
L 179.691161 188.522301 
L 181.401304 187.511374 
L 186.744943 186.067092 
L 187.430033 185.055818 
L 189.668145 184.189111 
L 190.953825 183.466624 
L 192.062551 181.877776 
L 193.23584 181.299855 
L 195.231816 180.866501 
L 198.772962 179.711007 
L 202.608722 178.70008 
L 203.709391 178.266726 
L 204.456358 178.266726 
L 206.246248 178.122159 
L 209.290932 177.399672 
L 213.928202 176.532964 
L 215.235885 175.52169 
L 216.289035 175.232557 
L 217.238988 174.799203 
L 218.91938 174.510416 
L 220.485004 174.79955 
L 222.26818 174.221976 
L 223.138695 173.788622 
L 224.096602 173.644055 
L 226.557534 172.632781 
L 228.308583 172.199428 
L 230.362613 171.477287 
L 232.615084 170.177226 
L 236.577388 168.299244 
L 237.482818 167.432537 
L 238.175449 167.14375 
L 239.310516 166.854963 
L 240.1206 166.421609 
L 240.597126 166.565829 
L 242.138992 166.132476 
L 243.016221 166.132476 
L 246.439708 165.843342 
L 247.980024 165.409989 
L 249.731177 165.121202 
L 250.650966 164.543281 
L 254.750866 163.24322 
L 256.165465 162.954433 
L 258.021778 162.954433 
L 259.535752 162.665646 
L 261.763844 162.376859 
L 263.438451 162.521426 
L 264.317333 162.232293 
L 266.04545 162.087726 
L 268.888801 161.221018 
L 272.109818 160.643445 
L 273.409031 160.788011 
L 274.73913 160.498878 
L 276.621785 159.63217 
L 279.73537 158.621243 
L 281.142531 158.332456 
L 282.291751 157.609969 
L 283.53921 157.032048 
L 285.366805 156.598695 
L 287.913993 155.876554 
L 291.202156 154.431926 
L 292.672228 154.576146 
L 294.771917 153.854006 
L 297.143803 153.564872 
L 298.350148 153.131518 
L 300.701581 152.553945 
L 301.621887 152.265158 
L 305.182661 151.832151 
L 306.31122 151.543017 
L 308.145633 150.531743 
L 308.97896 150.675963 
L 310.011347 150.531743 
L 311.205192 150.965097 
L 312.969051 150.531743 
L 314.337165 149.954169 
L 316.735703 149.665035 
L 318.982389 149.520815 
L 320.061881 149.809602 
L 321.362126 149.665035 
L 322.612168 149.665035 
L 325.46089 148.942548 
L 332.380381 147.787054 
L 333.583007 147.3537 
L 335.062169 147.20948 
L 336.261697 147.3537 
L 337.853043 147.064913 
L 340.563963 146.776126 
L 341.719587 146.486993 
L 345.067355 145.331499 
L 345.599973 144.753578 
L 346.443733 144.320224 
L 347.237908 144.175658 
L 348.105117 144.319878 
L 349.384909 143.886524 
L 351.04557 144.175658 
L 352.029613 143.886871 
L 353.248044 143.886871 
L 354.851993 143.742651 
L 355.785728 142.731376 
L 357.036905 142.58681 
L 358.199554 142.009236 
L 359.095378 141.720102 
L 360.082105 141.864669 
L 362.161444 141.287095 
L 368.429625 140.275821 
L 370.032645 139.553334 
L 371.383198 139.11998 
L 375.583712 139.11998 
L 377.505311 138.686626 
L 380.331927 138.542406 
L 383.131375 138.253273 
L 384.074716 137.531132 
L 385.298829 137.242345 
L 386.57077 136.664425 
L 387.856347 136.664425 
L 389.44883 136.086504 
L 390.184021 135.65315 
L 390.846798 135.797717 
L 391.817617 135.220143 
L 393.103401 135.798064 
L 393.924021 135.653497 
L 394.563142 135.364364 
L 395.589847 135.219797 
L 396.650745 134.641876 
L 397.895002 135.07523 
L 398.610049 134.641876 
L 401.159612 134.641876 
L 402.42143 134.353089 
L 403.836339 134.353089 
L 407.525309 133.919736 
L 408.010822 133.775516 
L 409.595144 133.775516 
L 410.418967 133.486729 
L 412.127766 133.486729 
L 418.357313 132.908808 
L 424.562273 132.041754 
L 426.336152 132.041754 
L 427.00585 131.752967 
L 427.969026 131.752967 
L 429.965208 131.897534 
L 430.710728 130.74204 
L 434.431825 130.019552 
L 436.119758 130.452906 
L 437.930102 130.164119 
L 441.289439 129.152845 
L 442.238152 128.575271 
L 443.108047 128.430704 
L 444.00604 128.141918 
L 447.526836 128.864405 
L 448.531848 128.575271 
L 449.658032 127.997351 
L 451.031724 127.563997 
L 452.758808 126.84151 
L 458.490342 126.84151 
L 460.043777 125.974802 
L 462.271456 125.541449 
L 464.54469 125.541449 
L 465.319032 124.963875 
L 466.438501 124.675088 
L 469.371516 124.386301 
L 470.256803 123.808381 
L 474.094216 123.952601 
L 477.009567 123.375027 
L 478.103314 122.941673 
L 478.735205 122.50832 
L 481.581138 122.219186 
L 481.977192 122.65254 
L 482.640486 122.797106 
L 482.640486 122.797106 
" clip-path="url(#pc39bdac233)" style="fill: none; stroke: #35b779; stroke-width: 2; stroke-linecap: round"/>
   </g>
   <g id="patch_3">
    <path d="M 56.545 333.36 
L 56.545 7.2 
" style="fill: none; stroke: #262626; stroke-width: 1.25; stroke-linejoin: miter; stroke-linecap: square"/>
   </g>
   <g id="patch_4">
    <path d="M 502.945 333.36 
L 502.945 7.2 
" style="fill: none; stroke: #262626; stroke-width: 1.25; stroke-linejoin: miter; stroke-linecap: square"/>
   </g>
   <g id="patch_5">
    <path d="M 56.545 333.36 
L 502.945 333.36 
" style="fill: none; stroke: #262626; stroke-width: 1.25; stroke-linejoin: miter; stroke-linecap: square"/>
   </g>
   <g id="patch_6">
    <path d="M 56.545 7.2 
L 502.945 7.2 
" style="fill: none; stroke: #262626; stroke-width: 1.25; stroke-linejoin: miter; stroke-linecap: square"/>
   </g>
  </g>
 </g>
 <defs>
  <clipPath id="pc39bdac233">
   <rect x="56.545" y="7.2" width="446.4" height="326.16"/>
  </clipPath>
 </defs>
</svg>
