<?xml version="1.0" encoding="utf-8" standalone="no"?>
<!DOCTYPE svg PUBLIC "-//W3C//DTD SVG 1.1//EN"
  "http://www.w3.org/Graphics/SVG/1.1/DTD/svg11.dtd">
<svg xmlns:xlink="http://www.w3.org/1999/xlink" width="524.92375pt" height="441.021507pt" viewBox="0 0 524.92375 441.021507" xmlns="http://www.w3.org/2000/svg" version="1.1">
 <metadata>
  <rdf:RDF xmlns:dc="http://purl.org/dc/elements/1.1/" xmlns:cc="http://creativecommons.org/ns#" xmlns:rdf="http://www.w3.org/1999/02/22-rdf-syntax-ns#">
   <cc:Work>
    <dc:type rdf:resource="http://purl.org/dc/dcmitype/StillImage"/>
    <dc:date>2024-01-19T11:55:38.018830</dc:date>
    <dc:format>image/svg+xml</dc:format>
    <dc:creator>
     <cc:Agent>
      <dc:title>Matplotlib v3.8.0, https://matplotlib.org/</dc:title>
     </cc:Agent>
    </dc:creator>
   </cc:Work>
  </rdf:RDF>
 </metadata>
 <defs>
  <style type="text/css">*{stroke-linejoin: round; stroke-linecap: butt}</style>
 </defs>
 <g id="figure_1">
  <g id="patch_1">
   <path d="M 0 441.021507 
L 524.92375 441.021507 
L 524.92375 0 
L 0 0 
L 0 441.021507 
z
" style="fill: none"/>
  </g>
  <g id="axes_1">
   <g id="patch_2">
    <path d="M 71.32375 387.980257 
L 517.72375 387.980257 
L 517.72375 7.460257 
L 71.32375 7.460257 
z
" style="fill: #ffffff"/>
   </g>
   <g id="PolyCollection_1">
    <defs>
     <path id="m7b356f6d21" d="M 96.398814 -98.146352 
L 96.398814 -98.146352 
L 108.936347 -98.146352 
L 121.473879 -98.146352 
L 134.011411 -325.24594 
L 146.559079 -416.264886 
L 159.096611 -369.489679 
L 171.634143 -357.334833 
L 184.171675 -342.362989 
L 196.709208 -336.314638 
L 209.24674 -329.815638 
L 221.794407 -319.011286 
L 234.33194 -317.679522 
L 246.869472 -313.527527 
L 259.407004 -313.724198 
L 271.944536 -307.841912 
L 284.492204 -306.399214 
L 297.029736 -298.879677 
L 309.567268 -298.120644 
L 322.104801 -300.256986 
L 334.642333 -296.230084 
L 347.179865 -296.801924 
L 359.727533 -292.457852 
L 372.265065 -292.01949 
L 384.802597 -289.76626 
L 397.340129 -291.273289 
L 409.877661 -286.923101 
L 422.415194 -287.312597 
L 434.962861 -288.950589 
L 447.500394 -286.863359 
L 460.037926 -287.20673 
L 472.575458 -287.50789 
L 485.11299 -283.728249 
L 497.660658 -287.107692 
L 497.660658 -272.925654 
L 497.660658 -272.925654 
L 485.11299 -274.214633 
L 472.575458 -271.131813 
L 460.037926 -277.936823 
L 447.500394 -275.26045 
L 434.962861 -273.40568 
L 422.415194 -276.204855 
L 409.877661 -276.82681 
L 397.340129 -280.373557 
L 384.802597 -275.377293 
L 372.265065 -281.020998 
L 359.727533 -281.511917 
L 347.179865 -282.742414 
L 334.642333 -283.546713 
L 322.104801 -286.719925 
L 309.567268 -283.514158 
L 297.029736 -285.542409 
L 284.492204 -292.191755 
L 271.944536 -293.768243 
L 259.407004 -298.106373 
L 246.869472 -298.534946 
L 234.33194 -302.744805 
L 221.794407 -301.877959 
L 209.24674 -314.765527 
L 196.709208 -313.841096 
L 184.171675 -321.032346 
L 171.634143 -337.649357 
L 159.096611 -341.057035 
L 146.559079 -380.921783 
L 134.011411 -70.337614 
L 121.473879 -98.146352 
L 108.936347 -98.146352 
L 96.398814 -98.146352 
z
" style="stroke: #31688e; stroke-opacity: 0.4"/>
    </defs>
    <g clip-path="url(#p246affc781)">
     <use xlink:href="#m7b356f6d21" x="0" y="441.021507" style="fill: #31688e; fill-opacity: 0.4; stroke: #31688e; stroke-opacity: 0.4"/>
    </g>
   </g>
   <g id="PolyCollection_2">
    <defs>
     <path id="m0d85c0d8f6" d="M 96.398814 -333.903859 
L 96.398814 -349.931749 
L 108.936347 -307.724991 
L 121.473879 -290.553846 
L 134.011411 -284.141793 
L 146.559079 -279.570077 
L 159.096611 -276.409074 
L 171.634143 -274.732065 
L 184.171675 -273.995508 
L 196.709208 -272.082205 
L 209.24674 -271.988323 
L 221.794407 -271.863001 
L 234.33194 -269.798727 
L 246.869472 -268.685993 
L 259.407004 -270.648124 
L 271.944536 -268.506732 
L 284.492204 -268.102726 
L 297.029736 -270.365839 
L 309.567268 -268.200587 
L 322.104801 -267.848871 
L 334.642333 -267.189405 
L 347.179865 -267.124277 
L 359.727533 -267.436916 
L 372.265065 -266.384722 
L 384.802597 -266.158394 
L 397.340129 -265.805741 
L 409.877661 -265.719447 
L 422.415194 -265.946371 
L 434.962861 -266.769545 
L 447.500394 -265.840265 
L 460.037926 -265.898708 
L 472.575458 -266.002195 
L 485.11299 -265.78783 
L 497.660658 -265.471786 
L 497.660658 -262.740247 
L 497.660658 -262.740247 
L 485.11299 -262.656662 
L 472.575458 -262.209838 
L 460.037926 -261.848962 
L 447.500394 -262.139308 
L 434.962861 -263.068589 
L 422.415194 -262.730023 
L 409.877661 -262.260126 
L 397.340129 -262.870653 
L 384.802597 -262.286098 
L 372.265065 -262.988493 
L 359.727533 -263.79486 
L 347.179865 -263.178218 
L 334.642333 -262.648729 
L 322.104801 -264.544088 
L 309.567268 -265.121652 
L 297.029736 -264.814405 
L 284.492204 -264.754595 
L 271.944536 -265.04741 
L 259.407004 -266.390123 
L 246.869472 -264.636247 
L 234.33194 -266.078338 
L 221.794407 -267.033808 
L 209.24674 -267.372848 
L 196.709208 -268.440149 
L 184.171675 -269.31413 
L 171.634143 -270.436135 
L 159.096611 -271.54641 
L 146.559079 -274.888699 
L 134.011411 -278.911297 
L 121.473879 -284.112744 
L 108.936347 -299.460291 
L 96.398814 -333.903859 
z
" style="stroke: #35b779; stroke-opacity: 0.4"/>
    </defs>
    <g clip-path="url(#p246affc781)">
     <use xlink:href="#m0d85c0d8f6" x="0" y="441.021507" style="fill: #35b779; fill-opacity: 0.4; stroke: #35b779; stroke-opacity: 0.4"/>
    </g>
   </g>
   <g id="PolyCollection_3">
    <defs>
     <path id="m1f8d49a42b" d="M 96.398814 -360.265027 
L 96.398814 -366.772935 
L 108.936347 -304.999551 
L 121.473879 -272.661965 
L 134.011411 -268.777316 
L 146.559079 -266.811583 
L 159.096611 -266.114762 
L 171.634143 -265.844306 
L 184.171675 -264.568644 
L 196.709208 -263.254701 
L 209.24674 -263.781788 
L 221.794407 -264.103073 
L 234.33194 -263.929548 
L 246.869472 -263.254701 
L 259.407004 -262.398197 
L 271.944536 -262.71064 
L 284.492204 -262.545466 
L 297.029736 -262.535905 
L 309.567268 -262.219861 
L 322.104801 -262.558337 
L 334.642333 -261.848645 
L 347.179865 -261.657448 
L 359.727533 -261.424988 
L 372.265065 -261.854214 
L 384.802597 -261.781359 
L 397.340129 -261.848645 
L 409.877661 -261.854214 
L 422.415194 -261.084538 
L 434.962861 -261.575078 
L 447.500394 -261.424988 
L 460.037926 -260.890097 
L 472.575458 -260.728167 
L 485.11299 -261.435775 
L 497.660658 -261.67314 
L 497.660658 -258.6414 
L 497.660658 -258.6414 
L 485.11299 -259.575586 
L 472.575458 -258.657092 
L 460.037926 -259.191983 
L 447.500394 -259.353913 
L 434.962861 -258.971922 
L 422.415194 -258.300721 
L 409.877661 -259.853969 
L 397.340129 -259.395176 
L 384.802597 -258.997542 
L 372.265065 -259.853969 
L 359.727533 -259.353913 
L 347.179865 -259.586373 
L 334.642333 -259.395176 
L 322.104801 -259.846666 
L 309.567268 -259.488322 
L 297.029736 -259.404737 
L 284.492204 -260.091997 
L 271.944536 -259.926823 
L 259.407004 -259.774347 
L 246.869472 -261.008306 
L 234.33194 -260.798379 
L 221.794407 -261.089215 
L 209.24674 -261.4105 
L 196.709208 -261.008306 
L 184.171675 -261.784827 
L 171.634143 -261.902807 
L 159.096611 -263.490913 
L 146.559079 -264.187734 
L 134.011411 -264.776826 
L 121.473879 -268.789669 
L 108.936347 -267.112214 
L 96.398814 -360.265027 
z
" style="stroke: #fde725; stroke-opacity: 0.4"/>
    </defs>
    <g clip-path="url(#p246affc781)">
     <use xlink:href="#m1f8d49a42b" x="0" y="441.021507" style="fill: #fde725; fill-opacity: 0.4; stroke: #fde725; stroke-opacity: 0.4"/>
    </g>
   </g>
   <g id="matplotlib.axis_1">
    <g id="xtick_1">
     <g id="line2d_1">
      <path d="M 71.32375 387.980257 
L 71.32375 7.460257 
" clip-path="url(#p246affc781)" style="fill: none; stroke: #b0b0b0; stroke-width: 0.8; stroke-linecap: square"/>
     </g>
     <g id="line2d_2">
      <defs>
       <path id="mf899077795" d="M 0 0 
L 0 3.5 
" style="stroke: #000000; stroke-width: 0.8"/>
      </defs>
      <g>
       <use xlink:href="#mf899077795" x="71.32375" y="387.980257" style="stroke: #000000; stroke-width: 0.8"/>
      </g>
     </g>
     <g id="text_1">
      <!-- 0 -->
      <g transform="translate(66.23375 407.137757) scale(0.16 -0.16)">
       <defs>
        <path id="DejaVuSans-30" d="M 2034 4250 
Q 1547 4250 1301 3770 
Q 1056 3291 1056 2328 
Q 1056 1369 1301 889 
Q 1547 409 2034 409 
Q 2525 409 2770 889 
Q 3016 1369 3016 2328 
Q 3016 3291 2770 3770 
Q 2525 4250 2034 4250 
z
M 2034 4750 
Q 2819 4750 3233 4129 
Q 3647 3509 3647 2328 
Q 3647 1150 3233 529 
Q 2819 -91 2034 -91 
Q 1250 -91 836 529 
Q 422 1150 422 2328 
Q 422 3509 836 4129 
Q 1250 4750 2034 4750 
z
" transform="scale(0.015625)"/>
       </defs>
       <use xlink:href="#DejaVuSans-30"/>
      </g>
     </g>
    </g>
    <g id="xtick_2">
     <g id="line2d_3">
      <path d="M 122.000921 387.980257 
L 122.000921 7.460257 
" clip-path="url(#p246affc781)" style="fill: none; stroke: #b0b0b0; stroke-width: 0.8; stroke-linecap: square"/>
     </g>
     <g id="line2d_4">
      <g>
       <use xlink:href="#mf899077795" x="122.000921" y="387.980257" style="stroke: #000000; stroke-width: 0.8"/>
      </g>
     </g>
     <g id="text_2">
      <!-- 5 -->
      <g transform="translate(116.910921 407.137757) scale(0.16 -0.16)">
       <defs>
        <path id="DejaVuSans-35" d="M 691 4666 
L 3169 4666 
L 3169 4134 
L 1269 4134 
L 1269 2991 
Q 1406 3038 1543 3061 
Q 1681 3084 1819 3084 
Q 2600 3084 3056 2656 
Q 3513 2228 3513 1497 
Q 3513 744 3044 326 
Q 2575 -91 1722 -91 
Q 1428 -91 1123 -41 
Q 819 9 494 109 
L 494 744 
Q 775 591 1075 516 
Q 1375 441 1709 441 
Q 2250 441 2565 725 
Q 2881 1009 2881 1497 
Q 2881 1984 2565 2268 
Q 2250 2553 1709 2553 
Q 1456 2553 1204 2497 
Q 953 2441 691 2322 
L 691 4666 
z
" transform="scale(0.015625)"/>
       </defs>
       <use xlink:href="#DejaVuSans-35"/>
      </g>
     </g>
    </g>
    <g id="xtick_3">
     <g id="line2d_5">
      <path d="M 172.678093 387.980257 
L 172.678093 7.460257 
" clip-path="url(#p246affc781)" style="fill: none; stroke: #b0b0b0; stroke-width: 0.8; stroke-linecap: square"/>
     </g>
     <g id="line2d_6">
      <g>
       <use xlink:href="#mf899077795" x="172.678093" y="387.980257" style="stroke: #000000; stroke-width: 0.8"/>
      </g>
     </g>
     <g id="text_3">
      <!-- 10 -->
      <g transform="translate(162.498093 407.137757) scale(0.16 -0.16)">
       <defs>
        <path id="DejaVuSans-31" d="M 794 531 
L 1825 531 
L 1825 4091 
L 703 3866 
L 703 4441 
L 1819 4666 
L 2450 4666 
L 2450 531 
L 3481 531 
L 3481 0 
L 794 0 
L 794 531 
z
" transform="scale(0.015625)"/>
       </defs>
       <use xlink:href="#DejaVuSans-31"/>
       <use xlink:href="#DejaVuSans-30" x="63.623047"/>
      </g>
     </g>
    </g>
    <g id="xtick_4">
     <g id="line2d_7">
      <path d="M 223.355264 387.980257 
L 223.355264 7.460257 
" clip-path="url(#p246affc781)" style="fill: none; stroke: #b0b0b0; stroke-width: 0.8; stroke-linecap: square"/>
     </g>
     <g id="line2d_8">
      <g>
       <use xlink:href="#mf899077795" x="223.355264" y="387.980257" style="stroke: #000000; stroke-width: 0.8"/>
      </g>
     </g>
     <g id="text_4">
      <!-- 15 -->
      <g transform="translate(213.175264 407.137757) scale(0.16 -0.16)">
       <use xlink:href="#DejaVuSans-31"/>
       <use xlink:href="#DejaVuSans-35" x="63.623047"/>
      </g>
     </g>
    </g>
    <g id="xtick_5">
     <g id="line2d_9">
      <path d="M 274.032436 387.980257 
L 274.032436 7.460257 
" clip-path="url(#p246affc781)" style="fill: none; stroke: #b0b0b0; stroke-width: 0.8; stroke-linecap: square"/>
     </g>
     <g id="line2d_10">
      <g>
       <use xlink:href="#mf899077795" x="274.032436" y="387.980257" style="stroke: #000000; stroke-width: 0.8"/>
      </g>
     </g>
     <g id="text_5">
      <!-- 20 -->
      <g transform="translate(263.852436 407.137757) scale(0.16 -0.16)">
       <defs>
        <path id="DejaVuSans-32" d="M 1228 531 
L 3431 531 
L 3431 0 
L 469 0 
L 469 531 
Q 828 903 1448 1529 
Q 2069 2156 2228 2338 
Q 2531 2678 2651 2914 
Q 2772 3150 2772 3378 
Q 2772 3750 2511 3984 
Q 2250 4219 1831 4219 
Q 1534 4219 1204 4116 
Q 875 4013 500 3803 
L 500 4441 
Q 881 4594 1212 4672 
Q 1544 4750 1819 4750 
Q 2544 4750 2975 4387 
Q 3406 4025 3406 3419 
Q 3406 3131 3298 2873 
Q 3191 2616 2906 2266 
Q 2828 2175 2409 1742 
Q 1991 1309 1228 531 
z
" transform="scale(0.015625)"/>
       </defs>
       <use xlink:href="#DejaVuSans-32"/>
       <use xlink:href="#DejaVuSans-30" x="63.623047"/>
      </g>
     </g>
    </g>
    <g id="xtick_6">
     <g id="line2d_11">
      <path d="M 324.709607 387.980257 
L 324.709607 7.460257 
" clip-path="url(#p246affc781)" style="fill: none; stroke: #b0b0b0; stroke-width: 0.8; stroke-linecap: square"/>
     </g>
     <g id="line2d_12">
      <g>
       <use xlink:href="#mf899077795" x="324.709607" y="387.980257" style="stroke: #000000; stroke-width: 0.8"/>
      </g>
     </g>
     <g id="text_6">
      <!-- 25 -->
      <g transform="translate(314.529607 407.137757) scale(0.16 -0.16)">
       <use xlink:href="#DejaVuSans-32"/>
       <use xlink:href="#DejaVuSans-35" x="63.623047"/>
      </g>
     </g>
    </g>
    <g id="xtick_7">
     <g id="line2d_13">
      <path d="M 375.386779 387.980257 
L 375.386779 7.460257 
" clip-path="url(#p246affc781)" style="fill: none; stroke: #b0b0b0; stroke-width: 0.8; stroke-linecap: square"/>
     </g>
     <g id="line2d_14">
      <g>
       <use xlink:href="#mf899077795" x="375.386779" y="387.980257" style="stroke: #000000; stroke-width: 0.8"/>
      </g>
     </g>
     <g id="text_7">
      <!-- 30 -->
      <g transform="translate(365.206779 407.137757) scale(0.16 -0.16)">
       <defs>
        <path id="DejaVuSans-33" d="M 2597 2516 
Q 3050 2419 3304 2112 
Q 3559 1806 3559 1356 
Q 3559 666 3084 287 
Q 2609 -91 1734 -91 
Q 1441 -91 1130 -33 
Q 819 25 488 141 
L 488 750 
Q 750 597 1062 519 
Q 1375 441 1716 441 
Q 2309 441 2620 675 
Q 2931 909 2931 1356 
Q 2931 1769 2642 2001 
Q 2353 2234 1838 2234 
L 1294 2234 
L 1294 2753 
L 1863 2753 
Q 2328 2753 2575 2939 
Q 2822 3125 2822 3475 
Q 2822 3834 2567 4026 
Q 2313 4219 1838 4219 
Q 1578 4219 1281 4162 
Q 984 4106 628 3988 
L 628 4550 
Q 988 4650 1302 4700 
Q 1616 4750 1894 4750 
Q 2613 4750 3031 4423 
Q 3450 4097 3450 3541 
Q 3450 3153 3228 2886 
Q 3006 2619 2597 2516 
z
" transform="scale(0.015625)"/>
       </defs>
       <use xlink:href="#DejaVuSans-33"/>
       <use xlink:href="#DejaVuSans-30" x="63.623047"/>
      </g>
     </g>
    </g>
    <g id="xtick_8">
     <g id="line2d_15">
      <path d="M 426.06395 387.980257 
L 426.06395 7.460257 
" clip-path="url(#p246affc781)" style="fill: none; stroke: #b0b0b0; stroke-width: 0.8; stroke-linecap: square"/>
     </g>
     <g id="line2d_16">
      <g>
       <use xlink:href="#mf899077795" x="426.06395" y="387.980257" style="stroke: #000000; stroke-width: 0.8"/>
      </g>
     </g>
     <g id="text_8">
      <!-- 35 -->
      <g transform="translate(415.88395 407.137757) scale(0.16 -0.16)">
       <use xlink:href="#DejaVuSans-33"/>
       <use xlink:href="#DejaVuSans-35" x="63.623047"/>
      </g>
     </g>
    </g>
    <g id="xtick_9">
     <g id="line2d_17">
      <path d="M 476.741121 387.980257 
L 476.741121 7.460257 
" clip-path="url(#p246affc781)" style="fill: none; stroke: #b0b0b0; stroke-width: 0.8; stroke-linecap: square"/>
     </g>
     <g id="line2d_18">
      <g>
       <use xlink:href="#mf899077795" x="476.741121" y="387.980257" style="stroke: #000000; stroke-width: 0.8"/>
      </g>
     </g>
     <g id="text_9">
      <!-- 40 -->
      <g transform="translate(466.561121 407.137757) scale(0.16 -0.16)">
       <defs>
        <path id="DejaVuSans-34" d="M 2419 4116 
L 825 1625 
L 2419 1625 
L 2419 4116 
z
M 2253 4666 
L 3047 4666 
L 3047 1625 
L 3713 1625 
L 3713 1100 
L 3047 1100 
L 3047 0 
L 2419 0 
L 2419 1100 
L 313 1100 
L 313 1709 
L 2253 4666 
z
" transform="scale(0.015625)"/>
       </defs>
       <use xlink:href="#DejaVuSans-34"/>
       <use xlink:href="#DejaVuSans-30" x="63.623047"/>
      </g>
     </g>
    </g>
    <g id="text_10">
     <!-- Links -->
     <g transform="translate(268.83625 429.662132) scale(0.2 -0.2)">
      <defs>
       <path id="DejaVuSans-4c" d="M 628 4666 
L 1259 4666 
L 1259 531 
L 3531 531 
L 3531 0 
L 628 0 
L 628 4666 
z
" transform="scale(0.015625)"/>
       <path id="DejaVuSans-69" d="M 603 3500 
L 1178 3500 
L 1178 0 
L 603 0 
L 603 3500 
z
M 603 4863 
L 1178 4863 
L 1178 4134 
L 603 4134 
L 603 4863 
z
" transform="scale(0.015625)"/>
       <path id="DejaVuSans-6e" d="M 3513 2113 
L 3513 0 
L 2938 0 
L 2938 2094 
Q 2938 2591 2744 2837 
Q 2550 3084 2163 3084 
Q 1697 3084 1428 2787 
Q 1159 2491 1159 1978 
L 1159 0 
L 581 0 
L 581 3500 
L 1159 3500 
L 1159 2956 
Q 1366 3272 1645 3428 
Q 1925 3584 2291 3584 
Q 2894 3584 3203 3211 
Q 3513 2838 3513 2113 
z
" transform="scale(0.015625)"/>
       <path id="DejaVuSans-6b" d="M 581 4863 
L 1159 4863 
L 1159 1991 
L 2875 3500 
L 3609 3500 
L 1753 1863 
L 3688 0 
L 2938 0 
L 1159 1709 
L 1159 0 
L 581 0 
L 581 4863 
z
" transform="scale(0.015625)"/>
       <path id="DejaVuSans-73" d="M 2834 3397 
L 2834 2853 
Q 2591 2978 2328 3040 
Q 2066 3103 1784 3103 
Q 1356 3103 1142 2972 
Q 928 2841 928 2578 
Q 928 2378 1081 2264 
Q 1234 2150 1697 2047 
L 1894 2003 
Q 2506 1872 2764 1633 
Q 3022 1394 3022 966 
Q 3022 478 2636 193 
Q 2250 -91 1575 -91 
Q 1294 -91 989 -36 
Q 684 19 347 128 
L 347 722 
Q 666 556 975 473 
Q 1284 391 1588 391 
Q 1994 391 2212 530 
Q 2431 669 2431 922 
Q 2431 1156 2273 1281 
Q 2116 1406 1581 1522 
L 1381 1569 
Q 847 1681 609 1914 
Q 372 2147 372 2553 
Q 372 3047 722 3315 
Q 1072 3584 1716 3584 
Q 2034 3584 2315 3537 
Q 2597 3491 2834 3397 
z
" transform="scale(0.015625)"/>
      </defs>
      <use xlink:href="#DejaVuSans-4c"/>
      <use xlink:href="#DejaVuSans-69" x="55.712891"/>
      <use xlink:href="#DejaVuSans-6e" x="83.496094"/>
      <use xlink:href="#DejaVuSans-6b" x="146.875"/>
      <use xlink:href="#DejaVuSans-73" x="204.785156"/>
     </g>
    </g>
    <g id="text_11">
     <!-- 1e3 -->
     <g transform="translate(498.845625 421.063695) scale(0.1 -0.1)">
      <defs>
       <path id="DejaVuSans-65" d="M 3597 1894 
L 3597 1613 
L 953 1613 
Q 991 1019 1311 708 
Q 1631 397 2203 397 
Q 2534 397 2845 478 
Q 3156 559 3463 722 
L 3463 178 
Q 3153 47 2828 -22 
Q 2503 -91 2169 -91 
Q 1331 -91 842 396 
Q 353 884 353 1716 
Q 353 2575 817 3079 
Q 1281 3584 2069 3584 
Q 2775 3584 3186 3129 
Q 3597 2675 3597 1894 
z
M 3022 2063 
Q 3016 2534 2758 2815 
Q 2500 3097 2075 3097 
Q 1594 3097 1305 2825 
Q 1016 2553 972 2059 
L 3022 2063 
z
" transform="scale(0.015625)"/>
      </defs>
      <use xlink:href="#DejaVuSans-31"/>
      <use xlink:href="#DejaVuSans-65" x="63.623047"/>
      <use xlink:href="#DejaVuSans-33" x="125.146484"/>
     </g>
    </g>
   </g>
   <g id="matplotlib.axis_2">
    <g id="ytick_1">
     <g id="line2d_19">
      <path d="M 71.32375 347.752903 
L 517.72375 347.752903 
" clip-path="url(#p246affc781)" style="fill: none; stroke: #b0b0b0; stroke-width: 0.8; stroke-linecap: square"/>
     </g>
     <g id="line2d_20">
      <defs>
       <path id="me6b7d81095" d="M 0 0 
L -3.5 0 
" style="stroke: #000000; stroke-width: 0.8"/>
      </defs>
      <g>
       <use xlink:href="#me6b7d81095" x="71.32375" y="347.752903" style="stroke: #000000; stroke-width: 0.8"/>
      </g>
     </g>
     <g id="text_12">
      <!-- −60 -->
      <g transform="translate(30.55625 353.831653) scale(0.16 -0.16)">
       <defs>
        <path id="DejaVuSans-2212" d="M 678 2272 
L 4684 2272 
L 4684 1741 
L 678 1741 
L 678 2272 
z
" transform="scale(0.015625)"/>
        <path id="DejaVuSans-36" d="M 2113 2584 
Q 1688 2584 1439 2293 
Q 1191 2003 1191 1497 
Q 1191 994 1439 701 
Q 1688 409 2113 409 
Q 2538 409 2786 701 
Q 3034 994 3034 1497 
Q 3034 2003 2786 2293 
Q 2538 2584 2113 2584 
z
M 3366 4563 
L 3366 3988 
Q 3128 4100 2886 4159 
Q 2644 4219 2406 4219 
Q 1781 4219 1451 3797 
Q 1122 3375 1075 2522 
Q 1259 2794 1537 2939 
Q 1816 3084 2150 3084 
Q 2853 3084 3261 2657 
Q 3669 2231 3669 1497 
Q 3669 778 3244 343 
Q 2819 -91 2113 -91 
Q 1303 -91 875 529 
Q 447 1150 447 2328 
Q 447 3434 972 4092 
Q 1497 4750 2381 4750 
Q 2619 4750 2861 4703 
Q 3103 4656 3366 4563 
z
" transform="scale(0.015625)"/>
       </defs>
       <use xlink:href="#DejaVuSans-2212"/>
       <use xlink:href="#DejaVuSans-36" x="83.789062"/>
       <use xlink:href="#DejaVuSans-30" x="147.412109"/>
      </g>
     </g>
    </g>
    <g id="ytick_2">
     <g id="line2d_21">
      <path d="M 71.32375 292.007211 
L 517.72375 292.007211 
" clip-path="url(#p246affc781)" style="fill: none; stroke: #b0b0b0; stroke-width: 0.8; stroke-linecap: square"/>
     </g>
     <g id="line2d_22">
      <g>
       <use xlink:href="#me6b7d81095" x="71.32375" y="292.007211" style="stroke: #000000; stroke-width: 0.8"/>
      </g>
     </g>
     <g id="text_13">
      <!-- −40 -->
      <g transform="translate(30.55625 298.085961) scale(0.16 -0.16)">
       <use xlink:href="#DejaVuSans-2212"/>
       <use xlink:href="#DejaVuSans-34" x="83.789062"/>
       <use xlink:href="#DejaVuSans-30" x="147.412109"/>
      </g>
     </g>
    </g>
    <g id="ytick_3">
     <g id="line2d_23">
      <path d="M 71.32375 236.261519 
L 517.72375 236.261519 
" clip-path="url(#p246affc781)" style="fill: none; stroke: #b0b0b0; stroke-width: 0.8; stroke-linecap: square"/>
     </g>
     <g id="line2d_24">
      <g>
       <use xlink:href="#me6b7d81095" x="71.32375" y="236.261519" style="stroke: #000000; stroke-width: 0.8"/>
      </g>
     </g>
     <g id="text_14">
      <!-- −20 -->
      <g transform="translate(30.55625 242.340269) scale(0.16 -0.16)">
       <use xlink:href="#DejaVuSans-2212"/>
       <use xlink:href="#DejaVuSans-32" x="83.789062"/>
       <use xlink:href="#DejaVuSans-30" x="147.412109"/>
      </g>
     </g>
    </g>
    <g id="ytick_4">
     <g id="line2d_25">
      <path d="M 71.32375 180.515827 
L 517.72375 180.515827 
" clip-path="url(#p246affc781)" style="fill: none; stroke: #b0b0b0; stroke-width: 0.8; stroke-linecap: square"/>
     </g>
     <g id="line2d_26">
      <g>
       <use xlink:href="#me6b7d81095" x="71.32375" y="180.515827" style="stroke: #000000; stroke-width: 0.8"/>
      </g>
     </g>
     <g id="text_15">
      <!-- 0 -->
      <g transform="translate(54.14375 186.594577) scale(0.16 -0.16)">
       <use xlink:href="#DejaVuSans-30"/>
      </g>
     </g>
    </g>
    <g id="ytick_5">
     <g id="line2d_27">
      <path d="M 71.32375 124.770134 
L 517.72375 124.770134 
" clip-path="url(#p246affc781)" style="fill: none; stroke: #b0b0b0; stroke-width: 0.8; stroke-linecap: square"/>
     </g>
     <g id="line2d_28">
      <g>
       <use xlink:href="#me6b7d81095" x="71.32375" y="124.770134" style="stroke: #000000; stroke-width: 0.8"/>
      </g>
     </g>
     <g id="text_16">
      <!-- 20 -->
      <g transform="translate(43.96375 130.848884) scale(0.16 -0.16)">
       <use xlink:href="#DejaVuSans-32"/>
       <use xlink:href="#DejaVuSans-30" x="63.623047"/>
      </g>
     </g>
    </g>
    <g id="ytick_6">
     <g id="line2d_29">
      <path d="M 71.32375 69.024442 
L 517.72375 69.024442 
" clip-path="url(#p246affc781)" style="fill: none; stroke: #b0b0b0; stroke-width: 0.8; stroke-linecap: square"/>
     </g>
     <g id="line2d_30">
      <g>
       <use xlink:href="#me6b7d81095" x="71.32375" y="69.024442" style="stroke: #000000; stroke-width: 0.8"/>
      </g>
     </g>
     <g id="text_17">
      <!-- 40 -->
      <g transform="translate(43.96375 75.103192) scale(0.16 -0.16)">
       <use xlink:href="#DejaVuSans-34"/>
       <use xlink:href="#DejaVuSans-30" x="63.623047"/>
      </g>
     </g>
    </g>
    <g id="ytick_7">
     <g id="line2d_31">
      <path d="M 71.32375 13.27875 
L 517.72375 13.27875 
" clip-path="url(#p246affc781)" style="fill: none; stroke: #b0b0b0; stroke-width: 0.8; stroke-linecap: square"/>
     </g>
     <g id="line2d_32">
      <g>
       <use xlink:href="#me6b7d81095" x="71.32375" y="13.27875" style="stroke: #000000; stroke-width: 0.8"/>
      </g>
     </g>
     <g id="text_18">
      <!-- 60 -->
      <g transform="translate(43.96375 19.3575) scale(0.16 -0.16)">
       <use xlink:href="#DejaVuSans-36"/>
       <use xlink:href="#DejaVuSans-30" x="63.623047"/>
      </g>
     </g>
    </g>
    <g id="text_19">
     <!-- EPT(tests) - EPT(tests=0) -->
     <g transform="translate(22.396875 323.770257) rotate(-90) scale(0.2 -0.2)">
      <defs>
       <path id="DejaVuSans-45" d="M 628 4666 
L 3578 4666 
L 3578 4134 
L 1259 4134 
L 1259 2753 
L 3481 2753 
L 3481 2222 
L 1259 2222 
L 1259 531 
L 3634 531 
L 3634 0 
L 628 0 
L 628 4666 
z
" transform="scale(0.015625)"/>
       <path id="DejaVuSans-50" d="M 1259 4147 
L 1259 2394 
L 2053 2394 
Q 2494 2394 2734 2622 
Q 2975 2850 2975 3272 
Q 2975 3691 2734 3919 
Q 2494 4147 2053 4147 
L 1259 4147 
z
M 628 4666 
L 2053 4666 
Q 2838 4666 3239 4311 
Q 3641 3956 3641 3272 
Q 3641 2581 3239 2228 
Q 2838 1875 2053 1875 
L 1259 1875 
L 1259 0 
L 628 0 
L 628 4666 
z
" transform="scale(0.015625)"/>
       <path id="DejaVuSans-54" d="M -19 4666 
L 3928 4666 
L 3928 4134 
L 2272 4134 
L 2272 0 
L 1638 0 
L 1638 4134 
L -19 4134 
L -19 4666 
z
" transform="scale(0.015625)"/>
       <path id="DejaVuSans-28" d="M 1984 4856 
Q 1566 4138 1362 3434 
Q 1159 2731 1159 2009 
Q 1159 1288 1364 580 
Q 1569 -128 1984 -844 
L 1484 -844 
Q 1016 -109 783 600 
Q 550 1309 550 2009 
Q 550 2706 781 3412 
Q 1013 4119 1484 4856 
L 1984 4856 
z
" transform="scale(0.015625)"/>
       <path id="DejaVuSans-74" d="M 1172 4494 
L 1172 3500 
L 2356 3500 
L 2356 3053 
L 1172 3053 
L 1172 1153 
Q 1172 725 1289 603 
Q 1406 481 1766 481 
L 2356 481 
L 2356 0 
L 1766 0 
Q 1100 0 847 248 
Q 594 497 594 1153 
L 594 3053 
L 172 3053 
L 172 3500 
L 594 3500 
L 594 4494 
L 1172 4494 
z
" transform="scale(0.015625)"/>
       <path id="DejaVuSans-29" d="M 513 4856 
L 1013 4856 
Q 1481 4119 1714 3412 
Q 1947 2706 1947 2009 
Q 1947 1309 1714 600 
Q 1481 -109 1013 -844 
L 513 -844 
Q 928 -128 1133 580 
Q 1338 1288 1338 2009 
Q 1338 2731 1133 3434 
Q 928 4138 513 4856 
z
" transform="scale(0.015625)"/>
       <path id="DejaVuSans-20" transform="scale(0.015625)"/>
       <path id="DejaVuSans-2d" d="M 313 2009 
L 1997 2009 
L 1997 1497 
L 313 1497 
L 313 2009 
z
" transform="scale(0.015625)"/>
       <path id="DejaVuSans-3d" d="M 678 2906 
L 4684 2906 
L 4684 2381 
L 678 2381 
L 678 2906 
z
M 678 1631 
L 4684 1631 
L 4684 1100 
L 678 1100 
L 678 1631 
z
" transform="scale(0.015625)"/>
      </defs>
      <use xlink:href="#DejaVuSans-45"/>
      <use xlink:href="#DejaVuSans-50" x="63.183594"/>
      <use xlink:href="#DejaVuSans-54" x="123.486328"/>
      <use xlink:href="#DejaVuSans-28" x="184.570312"/>
      <use xlink:href="#DejaVuSans-74" x="223.583984"/>
      <use xlink:href="#DejaVuSans-65" x="262.792969"/>
      <use xlink:href="#DejaVuSans-73" x="324.316406"/>
      <use xlink:href="#DejaVuSans-74" x="376.416016"/>
      <use xlink:href="#DejaVuSans-73" x="415.625"/>
      <use xlink:href="#DejaVuSans-29" x="467.724609"/>
      <use xlink:href="#DejaVuSans-20" x="506.738281"/>
      <use xlink:href="#DejaVuSans-2d" x="538.525391"/>
      <use xlink:href="#DejaVuSans-20" x="574.609375"/>
      <use xlink:href="#DejaVuSans-45" x="606.396484"/>
      <use xlink:href="#DejaVuSans-50" x="669.580078"/>
      <use xlink:href="#DejaVuSans-54" x="729.882812"/>
      <use xlink:href="#DejaVuSans-28" x="790.966797"/>
      <use xlink:href="#DejaVuSans-74" x="829.980469"/>
      <use xlink:href="#DejaVuSans-65" x="869.189453"/>
      <use xlink:href="#DejaVuSans-73" x="930.712891"/>
      <use xlink:href="#DejaVuSans-74" x="982.8125"/>
      <use xlink:href="#DejaVuSans-73" x="1022.021484"/>
      <use xlink:href="#DejaVuSans-3d" x="1074.121094"/>
      <use xlink:href="#DejaVuSans-30" x="1157.910156"/>
      <use xlink:href="#DejaVuSans-29" x="1221.533203"/>
     </g>
    </g>
   </g>
   <g id="line2d_33">
    <path d="M 96.398814 342.875155 
L 108.936347 342.875155 
L 121.473879 342.875155 
L 134.011411 243.22973 
L 146.559079 42.428172 
L 159.096611 85.74815 
L 171.634143 93.529412 
L 184.171675 109.323839 
L 196.709208 115.94364 
L 209.24674 118.730925 
L 221.794407 130.576884 
L 234.33194 130.809344 
L 246.869472 134.990271 
L 259.407004 135.106222 
L 271.944536 140.216429 
L 284.492204 141.726023 
L 297.029736 148.810464 
L 309.567268 150.204106 
L 322.104801 147.533052 
L 334.642333 151.133108 
L 347.179865 151.249338 
L 359.727533 154.036623 
L 372.265065 154.501263 
L 384.802597 158.44973 
L 397.340129 155.198084 
L 409.877661 159.146552 
L 422.415194 159.262781 
L 434.962861 159.843373 
L 447.500394 159.959603 
L 460.037926 158.44973 
L 472.575458 161.701655 
L 485.11299 162.050066 
L 497.660658 161.004834 
" clip-path="url(#p246affc781)" style="fill: none; stroke: #31688e; stroke-width: 1.5; stroke-linecap: round"/>
   </g>
   <g id="line2d_34">
    <path d="M 96.398814 99.103703 
L 108.936347 137.428866 
L 121.473879 153.688212 
L 134.011411 159.494962 
L 146.559079 163.792119 
L 159.096611 167.043765 
L 171.634143 168.437407 
L 184.171675 169.366688 
L 196.709208 170.76033 
L 209.24674 171.340922 
L 221.794407 171.573103 
L 234.33194 173.082975 
L 246.869472 174.360387 
L 259.407004 172.502383 
L 271.944536 174.244436 
L 284.492204 174.592847 
L 297.029736 173.431385 
L 309.567268 174.360387 
L 322.104801 174.825028 
L 334.642333 176.10244 
L 347.179865 175.870259 
L 359.727533 175.405619 
L 372.265065 176.3349 
L 384.802597 176.799261 
L 397.340129 176.68331 
L 409.877661 177.031721 
L 422.415194 176.68331 
L 434.962861 176.10244 
L 447.500394 177.031721 
L 460.037926 177.147672 
L 472.575458 176.915491 
L 485.11299 176.799261 
L 497.660658 176.915491 
" clip-path="url(#p246affc781)" style="fill: none; stroke: #35b779; stroke-width: 1.5; stroke-linecap: round"/>
   </g>
   <g id="line2d_35">
    <path d="M 96.398814 77.502526 
L 108.936347 154.965625 
L 121.473879 170.29569 
L 134.011411 174.244436 
L 146.559079 175.521849 
L 159.096611 176.21867 
L 171.634143 177.147951 
L 184.171675 177.844772 
L 196.709208 178.890003 
L 209.24674 178.425363 
L 221.794407 178.425363 
L 234.33194 178.657544 
L 246.869472 178.890003 
L 259.407004 179.935235 
L 271.944536 179.702776 
L 284.492204 179.702776 
L 297.029736 180.051186 
L 309.567268 180.167416 
L 322.104801 179.819005 
L 334.642333 180.399597 
L 347.179865 180.399597 
L 359.727533 180.632056 
L 372.265065 180.167416 
L 384.802597 180.632056 
L 397.340129 180.399597 
L 409.877661 180.167416 
L 422.415194 181.328877 
L 434.962861 180.748007 
L 447.500394 180.632056 
L 460.037926 180.980467 
L 472.575458 181.328877 
L 485.11299 180.515827 
L 497.660658 180.864237 
" clip-path="url(#p246affc781)" style="fill: none; stroke: #fde725; stroke-width: 1.5; stroke-linecap: round"/>
   </g>
   <g id="patch_3">
    <path d="M 71.32375 387.980257 
L 71.32375 7.460257 
" style="fill: none; stroke: #000000; stroke-width: 0.8; stroke-linejoin: miter; stroke-linecap: square"/>
   </g>
   <g id="patch_4">
    <path d="M 517.72375 387.980257 
L 517.72375 7.460257 
" style="fill: none; stroke: #000000; stroke-width: 0.8; stroke-linejoin: miter; stroke-linecap: square"/>
   </g>
   <g id="patch_5">
    <path d="M 71.32375 387.980257 
L 517.72375 387.980257 
" style="fill: none; stroke: #000000; stroke-width: 0.8; stroke-linejoin: miter; stroke-linecap: square"/>
   </g>
   <g id="patch_6">
    <path d="M 71.32375 7.460257 
L 517.72375 7.460257 
" style="fill: none; stroke: #000000; stroke-width: 0.8; stroke-linejoin: miter; stroke-linecap: square"/>
   </g>
   <g id="legend_1">
    <g id="patch_7">
     <path d="M 402.84375 90.715257 
L 506.52375 90.715257 
Q 509.72375 90.715257 509.72375 87.515257 
L 509.72375 18.660257 
Q 509.72375 15.460257 506.52375 15.460257 
L 402.84375 15.460257 
Q 399.64375 15.460257 399.64375 18.660257 
L 399.64375 87.515257 
Q 399.64375 90.715257 402.84375 90.715257 
z
" style="fill: #ffffff; opacity: 0.8; stroke: #cccccc; stroke-linejoin: miter"/>
    </g>
    <g id="line2d_36">
     <path d="M 406.04375 28.417757 
L 422.04375 28.417757 
L 438.04375 28.417757 
" style="fill: none; stroke: #31688e; stroke-width: 1.5; stroke-linecap: round"/>
    </g>
    <g id="text_20">
     <!-- $R_0$ = 2 -->
     <g style="fill: #262626" transform="translate(450.84375 34.017757) scale(0.16 -0.16)">
      <defs>
       <path id="DejaVuSans-Oblique-52" d="M 1613 4147 
L 1294 2491 
L 2106 2491 
Q 2584 2491 2879 2755 
Q 3175 3019 3175 3444 
Q 3175 3784 2976 3965 
Q 2778 4147 2406 4147 
L 1613 4147 
z
M 2772 2241 
Q 2972 2194 3105 2009 
Q 3238 1825 3413 1275 
L 3809 0 
L 3144 0 
L 2778 1197 
Q 2638 1659 2453 1815 
Q 2269 1972 1888 1972 
L 1191 1972 
L 806 0 
L 172 0 
L 1081 4666 
L 2503 4666 
Q 3150 4666 3495 4373 
Q 3841 4081 3841 3531 
Q 3841 3044 3547 2687 
Q 3253 2331 2772 2241 
z
" transform="scale(0.015625)"/>
      </defs>
      <use xlink:href="#DejaVuSans-Oblique-52" transform="translate(0 0.78125)"/>
      <use xlink:href="#DejaVuSans-30" transform="translate(69.482422 -15.625) scale(0.7)"/>
      <use xlink:href="#DejaVuSans-20" transform="translate(116.75293 0.78125)"/>
      <use xlink:href="#DejaVuSans-3d" transform="translate(148.540039 0.78125)"/>
      <use xlink:href="#DejaVuSans-20" transform="translate(232.329102 0.78125)"/>
      <use xlink:href="#DejaVuSans-32" transform="translate(264.116211 0.78125)"/>
     </g>
    </g>
    <g id="line2d_37">
     <path d="M 406.04375 51.902757 
L 422.04375 51.902757 
L 438.04375 51.902757 
" style="fill: none; stroke: #35b779; stroke-width: 1.5; stroke-linecap: round"/>
    </g>
    <g id="text_21">
     <!-- $R_0$ = 4 -->
     <g style="fill: #262626" transform="translate(450.84375 57.502757) scale(0.16 -0.16)">
      <use xlink:href="#DejaVuSans-Oblique-52" transform="translate(0 0.09375)"/>
      <use xlink:href="#DejaVuSans-30" transform="translate(69.482422 -16.3125) scale(0.7)"/>
      <use xlink:href="#DejaVuSans-20" transform="translate(116.75293 0.09375)"/>
      <use xlink:href="#DejaVuSans-3d" transform="translate(148.540039 0.09375)"/>
      <use xlink:href="#DejaVuSans-20" transform="translate(232.329102 0.09375)"/>
      <use xlink:href="#DejaVuSans-34" transform="translate(264.116211 0.09375)"/>
     </g>
    </g>
    <g id="line2d_38">
     <path d="M 406.04375 75.387757 
L 422.04375 75.387757 
L 438.04375 75.387757 
" style="fill: none; stroke: #fde725; stroke-width: 1.5; stroke-linecap: round"/>
    </g>
    <g id="text_22">
     <!-- $R_0$ = 6 -->
     <g style="fill: #262626" transform="translate(450.84375 80.987757) scale(0.16 -0.16)">
      <use xlink:href="#DejaVuSans-Oblique-52" transform="translate(0 0.78125)"/>
      <use xlink:href="#DejaVuSans-30" transform="translate(69.482422 -15.625) scale(0.7)"/>
      <use xlink:href="#DejaVuSans-20" transform="translate(116.75293 0.78125)"/>
      <use xlink:href="#DejaVuSans-3d" transform="translate(148.540039 0.78125)"/>
      <use xlink:href="#DejaVuSans-20" transform="translate(232.329102 0.78125)"/>
      <use xlink:href="#DejaVuSans-36" transform="translate(264.116211 0.78125)"/>
     </g>
    </g>
   </g>
  </g>
 </g>
 <defs>
  <clipPath id="p246affc781">
   <rect x="71.32375" y="7.460257" width="446.4" height="380.52"/>
  </clipPath>
 </defs>
</svg>
