<?xml version="1.0" encoding="utf-8" standalone="no"?>
<!DOCTYPE svg PUBLIC "-//W3C//DTD SVG 1.1//EN"
  "http://www.w3.org/Graphics/SVG/1.1/DTD/svg11.dtd">
<svg xmlns:xlink="http://www.w3.org/1999/xlink" width="520.07pt" height="389.863723pt" viewBox="0 0 520.07 389.863723" xmlns="http://www.w3.org/2000/svg" version="1.1">
 <metadata>
  <rdf:RDF xmlns:dc="http://purl.org/dc/elements/1.1/" xmlns:cc="http://creativecommons.org/ns#" xmlns:rdf="http://www.w3.org/1999/02/22-rdf-syntax-ns#">
   <cc:Work>
    <dc:type rdf:resource="http://purl.org/dc/dcmitype/StillImage"/>
    <dc:date>2023-12-23T18:31:47.565105</dc:date>
    <dc:format>image/svg+xml</dc:format>
    <dc:creator>
     <cc:Agent>
      <dc:title>Matplotlib v3.6.1, https://matplotlib.org/</dc:title>
     </cc:Agent>
    </dc:creator>
   </cc:Work>
  </rdf:RDF>
 </metadata>
 <defs>
  <style type="text/css">*{stroke-linejoin: round; stroke-linecap: butt}</style>
 </defs>
 <g id="figure_1">
  <g id="patch_1">
   <path d="M 0 389.863723 
L 520.07 389.863723 
L 520.07 0 
L 0 0 
z
" style="fill: #ffffff"/>
  </g>
  <g id="axes_1">
   <g id="patch_2">
    <path d="M 66.47 339.898723 
L 512.87 339.898723 
L 512.87 7.258723 
L 66.47 7.258723 
z
" style="fill: #ffffff"/>
   </g>
   <g id="matplotlib.axis_1">
    <g id="xtick_1">
     <g id="line2d_1">
      <path d="M 66.47 339.898723 
L 66.47 7.258723 
" clip-path="url(#pdb93306779)" style="fill: none; stroke: #cccccc; stroke-linecap: round"/>
     </g>
     <g id="line2d_2">
      <defs>
       <path id="m26b89fef18" d="M 0 0 
L 0 6 
" style="stroke: #262626; stroke-width: 1.25"/>
      </defs>
      <g>
       <use xlink:href="#m26b89fef18" x="66.47" y="339.898723" style="fill: #262626; stroke: #262626; stroke-width: 1.25"/>
      </g>
     </g>
     <g id="text_1">
      <!-- 0.0 -->
      <g style="fill: #262626" transform="translate(55.35 360.851223) scale(0.16 -0.16)">
       <defs>
        <path id="ArialMT-30" d="M 266 2259 
Q 266 3072 433 3567 
Q 600 4063 929 4331 
Q 1259 4600 1759 4600 
Q 2128 4600 2406 4451 
Q 2684 4303 2865 4023 
Q 3047 3744 3150 3342 
Q 3253 2941 3253 2259 
Q 3253 1453 3087 958 
Q 2922 463 2592 192 
Q 2263 -78 1759 -78 
Q 1097 -78 719 397 
Q 266 969 266 2259 
z
M 844 2259 
Q 844 1131 1108 757 
Q 1372 384 1759 384 
Q 2147 384 2411 759 
Q 2675 1134 2675 2259 
Q 2675 3391 2411 3762 
Q 2147 4134 1753 4134 
Q 1366 4134 1134 3806 
Q 844 3388 844 2259 
z
" transform="scale(0.015625)"/>
        <path id="ArialMT-2e" d="M 581 0 
L 581 641 
L 1222 641 
L 1222 0 
L 581 0 
z
" transform="scale(0.015625)"/>
       </defs>
       <use xlink:href="#ArialMT-30"/>
       <use xlink:href="#ArialMT-2e" x="55.615234"/>
       <use xlink:href="#ArialMT-30" x="83.398438"/>
      </g>
     </g>
    </g>
    <g id="xtick_2">
     <g id="line2d_3">
      <path d="M 117.014566 339.898723 
L 117.014566 7.258723 
" clip-path="url(#pdb93306779)" style="fill: none; stroke: #cccccc; stroke-linecap: round"/>
     </g>
     <g id="line2d_4">
      <g>
       <use xlink:href="#m26b89fef18" x="117.014566" y="339.898723" style="fill: #262626; stroke: #262626; stroke-width: 1.25"/>
      </g>
     </g>
     <g id="text_2">
      <!-- 0.5 -->
      <g style="fill: #262626" transform="translate(105.894566 360.851223) scale(0.16 -0.16)">
       <defs>
        <path id="ArialMT-35" d="M 266 1200 
L 856 1250 
Q 922 819 1161 601 
Q 1400 384 1738 384 
Q 2144 384 2425 690 
Q 2706 997 2706 1503 
Q 2706 1984 2436 2262 
Q 2166 2541 1728 2541 
Q 1456 2541 1237 2417 
Q 1019 2294 894 2097 
L 366 2166 
L 809 4519 
L 3088 4519 
L 3088 3981 
L 1259 3981 
L 1013 2750 
Q 1425 3038 1878 3038 
Q 2478 3038 2890 2622 
Q 3303 2206 3303 1553 
Q 3303 931 2941 478 
Q 2500 -78 1738 -78 
Q 1113 -78 717 272 
Q 322 622 266 1200 
z
" transform="scale(0.015625)"/>
       </defs>
       <use xlink:href="#ArialMT-30"/>
       <use xlink:href="#ArialMT-2e" x="55.615234"/>
       <use xlink:href="#ArialMT-35" x="83.398438"/>
      </g>
     </g>
    </g>
    <g id="xtick_3">
     <g id="line2d_5">
      <path d="M 167.559131 339.898723 
L 167.559131 7.258723 
" clip-path="url(#pdb93306779)" style="fill: none; stroke: #cccccc; stroke-linecap: round"/>
     </g>
     <g id="line2d_6">
      <g>
       <use xlink:href="#m26b89fef18" x="167.559131" y="339.898723" style="fill: #262626; stroke: #262626; stroke-width: 1.25"/>
      </g>
     </g>
     <g id="text_3">
      <!-- 1.0 -->
      <g style="fill: #262626" transform="translate(156.439131 360.851223) scale(0.16 -0.16)">
       <defs>
        <path id="ArialMT-31" d="M 2384 0 
L 1822 0 
L 1822 3584 
Q 1619 3391 1289 3197 
Q 959 3003 697 2906 
L 697 3450 
Q 1169 3672 1522 3987 
Q 1875 4303 2022 4600 
L 2384 4600 
L 2384 0 
z
" transform="scale(0.015625)"/>
       </defs>
       <use xlink:href="#ArialMT-31"/>
       <use xlink:href="#ArialMT-2e" x="55.615234"/>
       <use xlink:href="#ArialMT-30" x="83.398438"/>
      </g>
     </g>
    </g>
    <g id="xtick_4">
     <g id="line2d_7">
      <path d="M 218.103697 339.898723 
L 218.103697 7.258723 
" clip-path="url(#pdb93306779)" style="fill: none; stroke: #cccccc; stroke-linecap: round"/>
     </g>
     <g id="line2d_8">
      <g>
       <use xlink:href="#m26b89fef18" x="218.103697" y="339.898723" style="fill: #262626; stroke: #262626; stroke-width: 1.25"/>
      </g>
     </g>
     <g id="text_4">
      <!-- 1.5 -->
      <g style="fill: #262626" transform="translate(206.983697 360.851223) scale(0.16 -0.16)">
       <use xlink:href="#ArialMT-31"/>
       <use xlink:href="#ArialMT-2e" x="55.615234"/>
       <use xlink:href="#ArialMT-35" x="83.398438"/>
      </g>
     </g>
    </g>
    <g id="xtick_5">
     <g id="line2d_9">
      <path d="M 268.648262 339.898723 
L 268.648262 7.258723 
" clip-path="url(#pdb93306779)" style="fill: none; stroke: #cccccc; stroke-linecap: round"/>
     </g>
     <g id="line2d_10">
      <g>
       <use xlink:href="#m26b89fef18" x="268.648262" y="339.898723" style="fill: #262626; stroke: #262626; stroke-width: 1.25"/>
      </g>
     </g>
     <g id="text_5">
      <!-- 2.0 -->
      <g style="fill: #262626" transform="translate(257.528262 360.851223) scale(0.16 -0.16)">
       <defs>
        <path id="ArialMT-32" d="M 3222 541 
L 3222 0 
L 194 0 
Q 188 203 259 391 
Q 375 700 629 1000 
Q 884 1300 1366 1694 
Q 2113 2306 2375 2664 
Q 2638 3022 2638 3341 
Q 2638 3675 2398 3904 
Q 2159 4134 1775 4134 
Q 1369 4134 1125 3890 
Q 881 3647 878 3216 
L 300 3275 
Q 359 3922 746 4261 
Q 1134 4600 1788 4600 
Q 2447 4600 2831 4234 
Q 3216 3869 3216 3328 
Q 3216 3053 3103 2787 
Q 2991 2522 2730 2228 
Q 2469 1934 1863 1422 
Q 1356 997 1212 845 
Q 1069 694 975 541 
L 3222 541 
z
" transform="scale(0.015625)"/>
       </defs>
       <use xlink:href="#ArialMT-32"/>
       <use xlink:href="#ArialMT-2e" x="55.615234"/>
       <use xlink:href="#ArialMT-30" x="83.398438"/>
      </g>
     </g>
    </g>
    <g id="xtick_6">
     <g id="line2d_11">
      <path d="M 319.192828 339.898723 
L 319.192828 7.258723 
" clip-path="url(#pdb93306779)" style="fill: none; stroke: #cccccc; stroke-linecap: round"/>
     </g>
     <g id="line2d_12">
      <g>
       <use xlink:href="#m26b89fef18" x="319.192828" y="339.898723" style="fill: #262626; stroke: #262626; stroke-width: 1.25"/>
      </g>
     </g>
     <g id="text_6">
      <!-- 2.5 -->
      <g style="fill: #262626" transform="translate(308.072828 360.851223) scale(0.16 -0.16)">
       <use xlink:href="#ArialMT-32"/>
       <use xlink:href="#ArialMT-2e" x="55.615234"/>
       <use xlink:href="#ArialMT-35" x="83.398438"/>
      </g>
     </g>
    </g>
    <g id="xtick_7">
     <g id="line2d_13">
      <path d="M 369.737394 339.898723 
L 369.737394 7.258723 
" clip-path="url(#pdb93306779)" style="fill: none; stroke: #cccccc; stroke-linecap: round"/>
     </g>
     <g id="line2d_14">
      <g>
       <use xlink:href="#m26b89fef18" x="369.737394" y="339.898723" style="fill: #262626; stroke: #262626; stroke-width: 1.25"/>
      </g>
     </g>
     <g id="text_7">
      <!-- 3.0 -->
      <g style="fill: #262626" transform="translate(358.617394 360.851223) scale(0.16 -0.16)">
       <defs>
        <path id="ArialMT-33" d="M 269 1209 
L 831 1284 
Q 928 806 1161 595 
Q 1394 384 1728 384 
Q 2125 384 2398 659 
Q 2672 934 2672 1341 
Q 2672 1728 2419 1979 
Q 2166 2231 1775 2231 
Q 1616 2231 1378 2169 
L 1441 2663 
Q 1497 2656 1531 2656 
Q 1891 2656 2178 2843 
Q 2466 3031 2466 3422 
Q 2466 3731 2256 3934 
Q 2047 4138 1716 4138 
Q 1388 4138 1169 3931 
Q 950 3725 888 3313 
L 325 3413 
Q 428 3978 793 4289 
Q 1159 4600 1703 4600 
Q 2078 4600 2393 4439 
Q 2709 4278 2876 4000 
Q 3044 3722 3044 3409 
Q 3044 3113 2884 2869 
Q 2725 2625 2413 2481 
Q 2819 2388 3044 2092 
Q 3269 1797 3269 1353 
Q 3269 753 2831 336 
Q 2394 -81 1725 -81 
Q 1122 -81 723 278 
Q 325 638 269 1209 
z
" transform="scale(0.015625)"/>
       </defs>
       <use xlink:href="#ArialMT-33"/>
       <use xlink:href="#ArialMT-2e" x="55.615234"/>
       <use xlink:href="#ArialMT-30" x="83.398438"/>
      </g>
     </g>
    </g>
    <g id="xtick_8">
     <g id="line2d_15">
      <path d="M 420.281959 339.898723 
L 420.281959 7.258723 
" clip-path="url(#pdb93306779)" style="fill: none; stroke: #cccccc; stroke-linecap: round"/>
     </g>
     <g id="line2d_16">
      <g>
       <use xlink:href="#m26b89fef18" x="420.281959" y="339.898723" style="fill: #262626; stroke: #262626; stroke-width: 1.25"/>
      </g>
     </g>
     <g id="text_8">
      <!-- 3.5 -->
      <g style="fill: #262626" transform="translate(409.161959 360.851223) scale(0.16 -0.16)">
       <use xlink:href="#ArialMT-33"/>
       <use xlink:href="#ArialMT-2e" x="55.615234"/>
       <use xlink:href="#ArialMT-35" x="83.398438"/>
      </g>
     </g>
    </g>
    <g id="xtick_9">
     <g id="line2d_17">
      <path d="M 470.826525 339.898723 
L 470.826525 7.258723 
" clip-path="url(#pdb93306779)" style="fill: none; stroke: #cccccc; stroke-linecap: round"/>
     </g>
     <g id="line2d_18">
      <g>
       <use xlink:href="#m26b89fef18" x="470.826525" y="339.898723" style="fill: #262626; stroke: #262626; stroke-width: 1.25"/>
      </g>
     </g>
     <g id="text_9">
      <!-- 4.0 -->
      <g style="fill: #262626" transform="translate(459.706525 360.851223) scale(0.16 -0.16)">
       <defs>
        <path id="ArialMT-34" d="M 2069 0 
L 2069 1097 
L 81 1097 
L 81 1613 
L 2172 4581 
L 2631 4581 
L 2631 1613 
L 3250 1613 
L 3250 1097 
L 2631 1097 
L 2631 0 
L 2069 0 
z
M 2069 1613 
L 2069 3678 
L 634 1613 
L 2069 1613 
z
" transform="scale(0.015625)"/>
       </defs>
       <use xlink:href="#ArialMT-34"/>
       <use xlink:href="#ArialMT-2e" x="55.615234"/>
       <use xlink:href="#ArialMT-30" x="83.398438"/>
      </g>
     </g>
    </g>
    <g id="text_10">
     <!-- Links -->
     <g style="fill: #262626" transform="translate(270.995 379.483723) scale(0.16 -0.16)">
      <defs>
       <path id="ArialMT-4c" d="M 469 0 
L 469 4581 
L 1075 4581 
L 1075 541 
L 3331 541 
L 3331 0 
L 469 0 
z
" transform="scale(0.015625)"/>
       <path id="ArialMT-69" d="M 425 3934 
L 425 4581 
L 988 4581 
L 988 3934 
L 425 3934 
z
M 425 0 
L 425 3319 
L 988 3319 
L 988 0 
L 425 0 
z
" transform="scale(0.015625)"/>
       <path id="ArialMT-6e" d="M 422 0 
L 422 3319 
L 928 3319 
L 928 2847 
Q 1294 3394 1984 3394 
Q 2284 3394 2536 3286 
Q 2788 3178 2913 3003 
Q 3038 2828 3088 2588 
Q 3119 2431 3119 2041 
L 3119 0 
L 2556 0 
L 2556 2019 
Q 2556 2363 2490 2533 
Q 2425 2703 2258 2804 
Q 2091 2906 1866 2906 
Q 1506 2906 1245 2678 
Q 984 2450 984 1813 
L 984 0 
L 422 0 
z
" transform="scale(0.015625)"/>
       <path id="ArialMT-6b" d="M 425 0 
L 425 4581 
L 988 4581 
L 988 1969 
L 2319 3319 
L 3047 3319 
L 1778 2088 
L 3175 0 
L 2481 0 
L 1384 1697 
L 988 1316 
L 988 0 
L 425 0 
z
" transform="scale(0.015625)"/>
       <path id="ArialMT-73" d="M 197 991 
L 753 1078 
Q 800 744 1014 566 
Q 1228 388 1613 388 
Q 2000 388 2187 545 
Q 2375 703 2375 916 
Q 2375 1106 2209 1216 
Q 2094 1291 1634 1406 
Q 1016 1563 777 1677 
Q 538 1791 414 1992 
Q 291 2194 291 2438 
Q 291 2659 392 2848 
Q 494 3038 669 3163 
Q 800 3259 1026 3326 
Q 1253 3394 1513 3394 
Q 1903 3394 2198 3281 
Q 2494 3169 2634 2976 
Q 2775 2784 2828 2463 
L 2278 2388 
Q 2241 2644 2061 2787 
Q 1881 2931 1553 2931 
Q 1166 2931 1000 2803 
Q 834 2675 834 2503 
Q 834 2394 903 2306 
Q 972 2216 1119 2156 
Q 1203 2125 1616 2013 
Q 2213 1853 2448 1751 
Q 2684 1650 2818 1456 
Q 2953 1263 2953 975 
Q 2953 694 2789 445 
Q 2625 197 2315 61 
Q 2006 -75 1616 -75 
Q 969 -75 630 194 
Q 291 463 197 991 
z
" transform="scale(0.015625)"/>
      </defs>
      <use xlink:href="#ArialMT-4c"/>
      <use xlink:href="#ArialMT-69" x="55.615234"/>
      <use xlink:href="#ArialMT-6e" x="77.832031"/>
      <use xlink:href="#ArialMT-6b" x="133.447266"/>
      <use xlink:href="#ArialMT-73" x="183.447266"/>
     </g>
    </g>
    <g id="text_11">
     <!-- 1e4 -->
     <g style="fill: #262626" transform="translate(494.518906 374.904817) scale(0.11 -0.11)">
      <defs>
       <path id="ArialMT-65" d="M 2694 1069 
L 3275 997 
Q 3138 488 2766 206 
Q 2394 -75 1816 -75 
Q 1088 -75 661 373 
Q 234 822 234 1631 
Q 234 2469 665 2931 
Q 1097 3394 1784 3394 
Q 2450 3394 2872 2941 
Q 3294 2488 3294 1666 
Q 3294 1616 3291 1516 
L 816 1516 
Q 847 969 1125 678 
Q 1403 388 1819 388 
Q 2128 388 2347 550 
Q 2566 713 2694 1069 
z
M 847 1978 
L 2700 1978 
Q 2663 2397 2488 2606 
Q 2219 2931 1791 2931 
Q 1403 2931 1139 2672 
Q 875 2413 847 1978 
z
" transform="scale(0.015625)"/>
      </defs>
      <use xlink:href="#ArialMT-31"/>
      <use xlink:href="#ArialMT-65" x="55.615234"/>
      <use xlink:href="#ArialMT-34" x="111.230469"/>
     </g>
    </g>
   </g>
   <g id="matplotlib.axis_2">
    <g id="ytick_1">
     <g id="line2d_19">
      <path d="M 66.47 319.192528 
L 512.87 319.192528 
" clip-path="url(#pdb93306779)" style="fill: none; stroke: #cccccc; stroke-linecap: round"/>
     </g>
     <g id="line2d_20">
      <defs>
       <path id="md8b49706a3" d="M 0 0 
L -6 0 
" style="stroke: #262626; stroke-width: 1.25"/>
      </defs>
      <g>
       <use xlink:href="#md8b49706a3" x="66.47" y="319.192528" style="fill: #262626; stroke: #262626; stroke-width: 1.25"/>
      </g>
     </g>
     <g id="text_12">
      <!-- 12.5 -->
      <g style="fill: #262626" transform="translate(25.8325 324.918778) scale(0.16 -0.16)">
       <use xlink:href="#ArialMT-31"/>
       <use xlink:href="#ArialMT-32" x="55.615234"/>
       <use xlink:href="#ArialMT-2e" x="111.230469"/>
       <use xlink:href="#ArialMT-35" x="139.013672"/>
      </g>
     </g>
    </g>
    <g id="ytick_2">
     <g id="line2d_21">
      <path d="M 66.47 280.909243 
L 512.87 280.909243 
" clip-path="url(#pdb93306779)" style="fill: none; stroke: #cccccc; stroke-linecap: round"/>
     </g>
     <g id="line2d_22">
      <g>
       <use xlink:href="#md8b49706a3" x="66.47" y="280.909243" style="fill: #262626; stroke: #262626; stroke-width: 1.25"/>
      </g>
     </g>
     <g id="text_13">
      <!-- 15.0 -->
      <g style="fill: #262626" transform="translate(25.8325 286.635493) scale(0.16 -0.16)">
       <use xlink:href="#ArialMT-31"/>
       <use xlink:href="#ArialMT-35" x="55.615234"/>
       <use xlink:href="#ArialMT-2e" x="111.230469"/>
       <use xlink:href="#ArialMT-30" x="139.013672"/>
      </g>
     </g>
    </g>
    <g id="ytick_3">
     <g id="line2d_23">
      <path d="M 66.47 242.625958 
L 512.87 242.625958 
" clip-path="url(#pdb93306779)" style="fill: none; stroke: #cccccc; stroke-linecap: round"/>
     </g>
     <g id="line2d_24">
      <g>
       <use xlink:href="#md8b49706a3" x="66.47" y="242.625958" style="fill: #262626; stroke: #262626; stroke-width: 1.25"/>
      </g>
     </g>
     <g id="text_14">
      <!-- 17.5 -->
      <g style="fill: #262626" transform="translate(25.8325 248.352208) scale(0.16 -0.16)">
       <defs>
        <path id="ArialMT-37" d="M 303 3981 
L 303 4522 
L 3269 4522 
L 3269 4084 
Q 2831 3619 2401 2847 
Q 1972 2075 1738 1259 
Q 1569 684 1522 0 
L 944 0 
Q 953 541 1156 1306 
Q 1359 2072 1739 2783 
Q 2119 3494 2547 3981 
L 303 3981 
z
" transform="scale(0.015625)"/>
       </defs>
       <use xlink:href="#ArialMT-31"/>
       <use xlink:href="#ArialMT-37" x="55.615234"/>
       <use xlink:href="#ArialMT-2e" x="111.230469"/>
       <use xlink:href="#ArialMT-35" x="139.013672"/>
      </g>
     </g>
    </g>
    <g id="ytick_4">
     <g id="line2d_25">
      <path d="M 66.47 204.342673 
L 512.87 204.342673 
" clip-path="url(#pdb93306779)" style="fill: none; stroke: #cccccc; stroke-linecap: round"/>
     </g>
     <g id="line2d_26">
      <g>
       <use xlink:href="#md8b49706a3" x="66.47" y="204.342673" style="fill: #262626; stroke: #262626; stroke-width: 1.25"/>
      </g>
     </g>
     <g id="text_15">
      <!-- 20.0 -->
      <g style="fill: #262626" transform="translate(25.8325 210.068923) scale(0.16 -0.16)">
       <use xlink:href="#ArialMT-32"/>
       <use xlink:href="#ArialMT-30" x="55.615234"/>
       <use xlink:href="#ArialMT-2e" x="111.230469"/>
       <use xlink:href="#ArialMT-30" x="139.013672"/>
      </g>
     </g>
    </g>
    <g id="ytick_5">
     <g id="line2d_27">
      <path d="M 66.47 166.059389 
L 512.87 166.059389 
" clip-path="url(#pdb93306779)" style="fill: none; stroke: #cccccc; stroke-linecap: round"/>
     </g>
     <g id="line2d_28">
      <g>
       <use xlink:href="#md8b49706a3" x="66.47" y="166.059389" style="fill: #262626; stroke: #262626; stroke-width: 1.25"/>
      </g>
     </g>
     <g id="text_16">
      <!-- 22.5 -->
      <g style="fill: #262626" transform="translate(25.8325 171.785639) scale(0.16 -0.16)">
       <use xlink:href="#ArialMT-32"/>
       <use xlink:href="#ArialMT-32" x="55.615234"/>
       <use xlink:href="#ArialMT-2e" x="111.230469"/>
       <use xlink:href="#ArialMT-35" x="139.013672"/>
      </g>
     </g>
    </g>
    <g id="ytick_6">
     <g id="line2d_29">
      <path d="M 66.47 127.776104 
L 512.87 127.776104 
" clip-path="url(#pdb93306779)" style="fill: none; stroke: #cccccc; stroke-linecap: round"/>
     </g>
     <g id="line2d_30">
      <g>
       <use xlink:href="#md8b49706a3" x="66.47" y="127.776104" style="fill: #262626; stroke: #262626; stroke-width: 1.25"/>
      </g>
     </g>
     <g id="text_17">
      <!-- 25.0 -->
      <g style="fill: #262626" transform="translate(25.8325 133.502354) scale(0.16 -0.16)">
       <use xlink:href="#ArialMT-32"/>
       <use xlink:href="#ArialMT-35" x="55.615234"/>
       <use xlink:href="#ArialMT-2e" x="111.230469"/>
       <use xlink:href="#ArialMT-30" x="139.013672"/>
      </g>
     </g>
    </g>
    <g id="ytick_7">
     <g id="line2d_31">
      <path d="M 66.47 89.492819 
L 512.87 89.492819 
" clip-path="url(#pdb93306779)" style="fill: none; stroke: #cccccc; stroke-linecap: round"/>
     </g>
     <g id="line2d_32">
      <g>
       <use xlink:href="#md8b49706a3" x="66.47" y="89.492819" style="fill: #262626; stroke: #262626; stroke-width: 1.25"/>
      </g>
     </g>
     <g id="text_18">
      <!-- 27.5 -->
      <g style="fill: #262626" transform="translate(25.8325 95.219069) scale(0.16 -0.16)">
       <use xlink:href="#ArialMT-32"/>
       <use xlink:href="#ArialMT-37" x="55.615234"/>
       <use xlink:href="#ArialMT-2e" x="111.230469"/>
       <use xlink:href="#ArialMT-35" x="139.013672"/>
      </g>
     </g>
    </g>
    <g id="ytick_8">
     <g id="line2d_33">
      <path d="M 66.47 51.209535 
L 512.87 51.209535 
" clip-path="url(#pdb93306779)" style="fill: none; stroke: #cccccc; stroke-linecap: round"/>
     </g>
     <g id="line2d_34">
      <g>
       <use xlink:href="#md8b49706a3" x="66.47" y="51.209535" style="fill: #262626; stroke: #262626; stroke-width: 1.25"/>
      </g>
     </g>
     <g id="text_19">
      <!-- 30.0 -->
      <g style="fill: #262626" transform="translate(25.8325 56.935785) scale(0.16 -0.16)">
       <use xlink:href="#ArialMT-33"/>
       <use xlink:href="#ArialMT-30" x="55.615234"/>
       <use xlink:href="#ArialMT-2e" x="111.230469"/>
       <use xlink:href="#ArialMT-30" x="139.013672"/>
      </g>
     </g>
    </g>
    <g id="ytick_9">
     <g id="line2d_35">
      <path d="M 66.47 12.92625 
L 512.87 12.92625 
" clip-path="url(#pdb93306779)" style="fill: none; stroke: #cccccc; stroke-linecap: round"/>
     </g>
     <g id="line2d_36">
      <g>
       <use xlink:href="#md8b49706a3" x="66.47" y="12.92625" style="fill: #262626; stroke: #262626; stroke-width: 1.25"/>
      </g>
     </g>
     <g id="text_20">
      <!-- 32.5 -->
      <g style="fill: #262626" transform="translate(25.8325 18.6525) scale(0.16 -0.16)">
       <use xlink:href="#ArialMT-33"/>
       <use xlink:href="#ArialMT-32" x="55.615234"/>
       <use xlink:href="#ArialMT-2e" x="111.230469"/>
       <use xlink:href="#ArialMT-35" x="139.013672"/>
      </g>
     </g>
    </g>
    <g id="text_21">
     <!-- Time -->
     <g style="fill: #228b22" transform="translate(18.6525 191.054973) rotate(-90) scale(0.16 -0.16)">
      <defs>
       <path id="ArialMT-54" d="M 1659 0 
L 1659 4041 
L 150 4041 
L 150 4581 
L 3781 4581 
L 3781 4041 
L 2266 4041 
L 2266 0 
L 1659 0 
z
" transform="scale(0.015625)"/>
       <path id="ArialMT-6d" d="M 422 0 
L 422 3319 
L 925 3319 
L 925 2853 
Q 1081 3097 1340 3245 
Q 1600 3394 1931 3394 
Q 2300 3394 2536 3241 
Q 2772 3088 2869 2813 
Q 3263 3394 3894 3394 
Q 4388 3394 4653 3120 
Q 4919 2847 4919 2278 
L 4919 0 
L 4359 0 
L 4359 2091 
Q 4359 2428 4304 2576 
Q 4250 2725 4106 2815 
Q 3963 2906 3769 2906 
Q 3419 2906 3187 2673 
Q 2956 2441 2956 1928 
L 2956 0 
L 2394 0 
L 2394 2156 
Q 2394 2531 2256 2718 
Q 2119 2906 1806 2906 
Q 1569 2906 1367 2781 
Q 1166 2656 1075 2415 
Q 984 2175 984 1722 
L 984 0 
L 422 0 
z
" transform="scale(0.015625)"/>
      </defs>
      <use xlink:href="#ArialMT-54"/>
      <use xlink:href="#ArialMT-69" x="57.333984"/>
      <use xlink:href="#ArialMT-6d" x="79.550781"/>
      <use xlink:href="#ArialMT-65" x="162.851562"/>
     </g>
    </g>
   </g>
   <g id="PolyCollection_1">
    <defs>
     <path id="m7ee638a373" d="M 68.117753 -127.738239 
L 68.117753 -184.601802 
L 69.775615 -167.83496 
L 71.433476 -168.911418 
L 73.081229 -181.892782 
L 74.739091 -184.224732 
L 76.396953 -192.682046 
L 78.044706 -197.206096 
L 79.702567 -202.582057 
L 81.360429 -203.953409 
L 83.008182 -206.888981 
L 84.666044 -212.899457 
L 86.323905 -214.85136 
L 87.971658 -215.942986 
L 89.62952 -219.330833 
L 91.287382 -222.84466 
L 92.935135 -223.785147 
L 94.592996 -224.004395 
L 96.250858 -225.390705 
L 97.898611 -225.707527 
L 99.556473 -225.983545 
L 101.214334 -231.136082 
L 102.862087 -236.948753 
L 104.519949 -237.599766 
L 106.177811 -239.317709 
L 107.825564 -240.704019 
L 109.483425 -241.981149 
L 111.141287 -242.903127 
L 112.78904 -246.449396 
L 114.446902 -247.302868 
L 116.104763 -252.331654 
L 117.752516 -253.471288 
L 119.410378 -253.935301 
L 121.06824 -256.017333 
L 122.715993 -256.334155 
L 124.373854 -257.294463 
L 126.031716 -258.459352 
L 127.679469 -259.106029 
L 129.337331 -260.791301 
L 130.995192 -262.365829 
L 132.642945 -262.170732 
L 134.300807 -265.206665 
L 135.958669 -262.616182 
L 137.606422 -268.226394 
L 139.264283 -267.663641 
L 140.922145 -269.725089 
L 142.569898 -269.944337 
L 144.22776 -271.199829 
L 145.885621 -272.607777 
L 147.533374 -271.647469 
L 149.191236 -272.607777 
L 150.849098 -273.772666 
L 152.50696 -273.772666 
L 154.154712 -273.772666 
L 155.812574 -278.556397 
L 157.470436 -282.261019 
L 159.118189 -280.519979 
L 160.776051 -282.123123 
L 162.433912 -283.49306 
L 164.081665 -280.519979 
L 165.739527 -281.728118 
L 167.397389 -284.05867 
L 169.045141 -285.625438 
L 170.703003 -286.29187 
L 172.360865 -284.41776 
L 174.008618 -286.643961 
L 175.66648 -286.643961 
L 177.324341 -286.643961 
L 178.972094 -288.561009 
L 180.629956 -286.643961 
L 182.287818 -287.921091 
L 183.93557 -288.179306 
L 185.593432 -289.085979 
L 187.251294 -289.085979 
L 188.899047 -290.590828 
L 190.556909 -289.958357 
L 192.21477 -292.389338 
L 193.862523 -290.958275 
L 195.520385 -293.564535 
L 197.178247 -291.417929 
L 198.826 -295.160461 
L 200.483861 -295.720397 
L 202.141723 -297.66867 
L 203.789476 -299.944062 
L 205.447338 -299.41123 
L 207.105199 -301.962428 
L 208.752952 -300.938752 
L 210.410814 -300.938752 
L 212.068676 -301.395607 
L 213.716429 -301.005192 
L 215.37429 -301.826457 
L 217.032152 -302.228143 
L 218.679905 -301.395607 
L 220.337767 -301.217642 
L 221.995628 -303.234405 
L 223.643381 -302.597193 
L 225.301243 -303.234405 
L 226.959105 -304.399293 
L 228.606858 -301.957274 
L 230.264719 -305.654785 
L 231.922581 -302.274097 
L 233.570334 -304.156382 
L 235.228196 -304.399293 
L 236.886057 -303.49262 
L 238.543919 -305.449591 
L 240.191672 -308.556124 
L 241.849534 -307.822869 
L 243.507396 -308.305771 
L 245.155148 -310.338007 
L 246.81301 -308.45534 
L 248.470872 -312.354746 
L 250.118625 -314.166336 
L 251.776486 -311.797063 
L 253.434348 -312.423737 
L 255.082101 -312.354746 
L 256.739963 -311.836702 
L 258.397825 -313.603583 
L 260.045577 -313.584909 
L 261.703439 -317.275742 
L 263.361301 -315.783335 
L 265.009054 -315.66503 
L 266.666915 -315.044388 
L 268.324777 -317.270588 
L 269.97253 -317.541456 
L 271.630392 -317.139771 
L 273.288254 -316.530956 
L 274.936006 -317.541456 
L 276.593868 -317.270588 
L 278.25173 -317.270588 
L 279.899483 -316.918498 
L 281.557344 -318.547719 
L 283.215206 -318.547719 
L 284.862959 -320.968099 
L 286.520821 -320.092655 
L 288.178683 -318.547719 
L 289.826435 -319.469696 
L 291.484297 -319.712607 
L 293.142159 -321.81438 
L 294.789912 -320.584985 
L 296.447774 -322.3812 
L 298.105635 -321.423914 
L 299.753388 -320.359285 
L 301.41125 -324.502368 
L 303.069112 -319.712607 
L 304.716864 -325.198113 
L 306.374726 -327.110377 
L 308.032588 -323.136183 
L 309.680341 -327.737051 
L 311.338203 -326.45992 
L 312.996064 -328.295298 
L 314.643817 -330.037857 
L 316.301679 -330.016931 
L 317.959541 -331.63182 
L 319.607293 -331.027157 
L 321.265155 -332.022235 
L 322.923017 -332.123626 
L 324.580879 -332.453085 
L 326.228632 -333.579591 
L 327.886493 -332.159025 
L 329.544355 -332.231812 
L 331.192108 -331.425311 
L 332.84997 -330.504916 
L 334.507831 -332.453085 
L 336.155584 -332.583902 
L 337.813446 -334.105357 
L 339.471308 -333.82694 
L 341.119061 -333.82694 
L 342.776922 -335.994944 
L 344.434784 -333.560732 
L 346.082537 -334.180687 
L 347.740399 -332.900725 
L 349.39826 -336.858372 
L 351.046013 -332.583902 
L 352.703875 -334.180687 
L 354.361737 -335.223021 
L 356.00949 -334.119247 
L 357.667351 -340.245712 
L 359.325213 -340.786498 
L 360.972966 -339.504477 
L 362.630828 -340.245712 
L 364.288689 -340.245712 
L 365.936442 -342.981374 
L 367.594304 -342.331481 
L 369.252166 -342.42369 
L 370.899919 -342.981374 
L 372.55778 -342.42369 
L 374.215642 -344.653509 
L 375.863395 -342.42369 
L 377.521257 -344.792963 
L 379.179119 -343.637981 
L 380.826871 -346.409962 
L 382.484733 -346.393959 
L 384.142595 -346.878693 
L 385.790348 -346.878693 
L 387.448209 -344.211537 
L 389.106071 -343.608611 
L 390.753824 -347.43694 
L 392.411686 -343.651601 
L 394.069548 -347.43694 
L 395.7173 -346.951494 
L 397.375162 -347.157584 
L 399.033024 -346.393959 
L 400.680777 -347.43694 
L 402.338638 -349.712332 
L 403.9965 -346.945134 
L 405.644253 -349.494001 
L 407.302115 -347.970278 
L 408.959977 -349.494001 
L 410.617838 -347.766398 
L 412.265591 -348.874046 
L 413.923453 -348.168084 
L 415.581315 -349.494001 
L 417.229068 -347.897216 
L 418.886929 -349.174347 
L 420.544791 -349.494001 
L 422.192544 -350.417384 
L 423.850406 -354.066619 
L 425.508267 -350.719282 
L 427.15602 -353.816467 
L 428.813882 -355.559026 
L 430.471744 -353.816467 
L 432.119497 -353.007828 
L 433.777358 -357.115796 
L 435.43522 -353.816467 
L 437.082973 -353.471842 
L 438.740835 -354.601791 
L 440.398696 -355.363208 
L 442.046449 -358.921925 
L 443.704311 -357.737004 
L 445.362173 -355.122966 
L 447.009926 -357.644795 
L 448.667787 -358.921925 
L 450.325649 -357.644795 
L 451.973402 -357.737004 
L 453.631264 -358.294688 
L 455.289125 -359.830492 
L 456.936878 -357.737004 
L 458.59474 -358.363679 
L 460.252602 -361.15856 
L 461.900355 -360.643559 
L 463.558216 -361.742734 
L 465.216078 -361.419468 
L 466.863831 -361.604972 
L 468.521693 -362.648862 
L 470.179554 -361.707273 
L 471.827307 -362.785653 
L 473.485169 -365.730698 
L 475.143031 -362.85844 
L 476.790784 -361.742734 
L 478.448645 -365.393661 
L 480.106507 -366.995366 
L 481.75426 -365.025645 
L 483.412122 -363.481398 
L 485.069983 -364.206219 
L 486.717736 -367.485 
L 488.375598 -364.807314 
L 490.03346 -365.571063 
L 491.691322 -364.807314 
L 491.691322 -343.12769 
L 491.691322 -343.12769 
L 490.03346 -341.086811 
L 488.375598 -343.12769 
L 486.717736 -344.278333 
L 485.069983 -339.900457 
L 483.412122 -341.902408 
L 481.75426 -341.632228 
L 480.106507 -340.939638 
L 478.448645 -342.541343 
L 476.790784 -337.258483 
L 475.143031 -342.525366 
L 473.485169 -343.481437 
L 471.827307 -337.492695 
L 470.179554 -338.571075 
L 468.521693 -340.180683 
L 466.863831 -339.950506 
L 465.216078 -341.410077 
L 463.558216 -337.258483 
L 461.900355 -335.80646 
L 460.252602 -335.291459 
L 458.59474 -335.535142 
L 456.936878 -334.884686 
L 455.289125 -332.791198 
L 453.631264 -334.327003 
L 451.973402 -334.884686 
L 450.325649 -333.699765 
L 448.667787 -334.976895 
L 447.009926 -333.699765 
L 445.362173 -333.670396 
L 443.704311 -334.884686 
L 442.046449 -334.976895 
L 440.398696 -330.878956 
L 438.740835 -330.363243 
L 437.082973 -331.493192 
L 435.43522 -329.871437 
L 433.777358 -330.400435 
L 432.119497 -329.406007 
L 430.471744 -329.871437 
L 428.813882 -331.957205 
L 427.15602 -329.871437 
L 425.508267 -329.140292 
L 423.850406 -328.347216 
L 422.192544 -328.168123 
L 420.544791 -327.814376 
L 418.886929 -329.41116 
L 417.229068 -328.13403 
L 415.581315 -327.814376 
L 413.923453 -326.589094 
L 412.265591 -328.43433 
L 410.617838 -325.71365 
L 408.959977 -327.814376 
L 407.302115 -322.958572 
L 405.644253 -327.814376 
L 403.9965 -322.706586 
L 402.338638 -326.318915 
L 400.680777 -323.49191 
L 399.033024 -323.257761 
L 397.375162 -326.322464 
L 395.7173 -321.423096 
L 394.069548 -323.49191 
L 392.411686 -320.89466 
L 390.753824 -323.49191 
L 389.106071 -319.663582 
L 387.448209 -320.334724 
L 385.790348 -324.050157 
L 384.142595 -324.050157 
L 382.484733 -323.257761 
L 380.826871 -320.690559 
L 379.179119 -322.18541 
L 377.521257 -321.030428 
L 375.863395 -319.571372 
L 374.215642 -318.618684 
L 372.55778 -319.571372 
L 370.899919 -319.013689 
L 369.252166 -319.571372 
L 367.594304 -318.386451 
L 365.936442 -319.013689 
L 364.288689 -316.643891 
L 362.630828 -316.643891 
L 360.972966 -316.11106 
L 359.325213 -316.103106 
L 357.667351 -316.643891 
L 356.00949 -315.1137 
L 354.361737 -316.564187 
L 352.703875 -312.501062 
L 351.046013 -312.820716 
L 349.39826 -313.651705 
L 347.740399 -313.781024 
L 346.082537 -312.501062 
L 344.434784 -313.121016 
L 342.776922 -313.238003 
L 341.119061 -311.577678 
L 339.471308 -311.577678 
L 337.813446 -308.748063 
L 336.155584 -312.820716 
L 334.507831 -310.400336 
L 332.84997 -312.348504 
L 331.192108 -310.150979 
L 329.544355 -311.898739 
L 327.886493 -306.866067 
L 326.228632 -309.273829 
L 324.580879 -310.400336 
L 322.923017 -308.178596 
L 321.265155 -309.554055 
L 319.607293 -304.169606 
L 317.959541 -307.393272 
L 316.301679 -305.179833 
L 314.643817 -306.436036 
L 312.996064 -304.350268 
L 311.338203 -303.631384 
L 309.680341 -304.908514 
L 308.032588 -303.126793 
L 306.374726 -304.258058 
L 304.716864 -303.619123 
L 303.069112 -300.170842 
L 301.41125 -299.20941 
L 299.753388 -299.524165 
L 298.105635 -301.010734 
L 296.447774 -298.77938 
L 294.789912 -300.575595 
L 293.142159 -299.3462 
L 291.484297 -300.170842 
L 289.826435 -299.136623 
L 288.178683 -298.784533 
L 286.520821 -298.513665 
L 284.862959 -298.91535 
L 283.215206 -298.784533 
L 281.557344 -298.784533 
L 279.899483 -296.585425 
L 278.25173 -297.507402 
L 276.593868 -297.507402 
L 274.936006 -295.962466 
L 273.288254 -295.695836 
L 271.630392 -295.087022 
L 269.97253 -295.962466 
L 268.324777 -297.507402 
L 266.666915 -294.631207 
L 265.009054 -294.010564 
L 263.361301 -290.063931 
L 261.703439 -293.673921 
L 260.045577 -289.708096 
L 258.397825 -290.966553 
L 256.739963 -290.182236 
L 255.082101 -288.387061 
L 253.434348 -289.595201 
L 251.776486 -288.944744 
L 250.118625 -290.4038 
L 248.470872 -288.387061 
L 246.81301 -287.181008 
L 245.155148 -286.575471 
L 243.507396 -286.056509 
L 241.849534 -287.813479 
L 240.191672 -288.357355 
L 238.543919 -286.358429 
L 236.886057 -284.487072 
L 235.228196 -284.857528 
L 233.570334 -283.823309 
L 231.922581 -283.154396 
L 230.264719 -283.602037 
L 228.606858 -282.194088 
L 226.959105 -284.857528 
L 225.301243 -283.471219 
L 223.643381 -281.55417 
L 221.995628 -283.471219 
L 220.337767 -280.382522 
L 218.679905 -278.927427 
L 217.032152 -280.649153 
L 215.37429 -279.773708 
L 213.716429 -276.766644 
L 212.068676 -278.927427 
L 210.410814 -278.110215 
L 208.752952 -278.110215 
L 207.105199 -278.360607 
L 205.447338 -275.809409 
L 203.789476 -276.550644 
L 202.141723 -273.72364 
L 200.483861 -271.843584 
L 198.826 -272.40352 
L 197.178247 -269.763463 
L 195.520385 -270.171118 
L 193.862523 -271.500247 
L 192.21477 -271.346315 
L 190.556909 -269.948967 
L 188.899047 -269.316496 
L 187.251294 -269.544215 
L 185.593432 -269.544215 
L 183.93557 -269.173758 
L 182.287818 -268.157905 
L 180.629956 -266.880775 
L 178.972094 -267.517986 
L 177.324341 -266.880775 
L 175.66648 -266.880775 
L 174.008618 -266.880775 
L 172.360865 -264.004579 
L 170.703003 -265.958797 
L 169.045141 -262.796901 
L 167.397389 -261.809408 
L 165.739527 -257.760433 
L 164.081665 -257.691442 
L 162.433912 -258.54669 
L 160.776051 -256.088298 
L 159.118189 -257.691442 
L 157.470436 -257.227533 
L 155.812574 -257.103826 
L 154.154712 -254.230901 
L 152.50696 -254.230901 
L 150.849098 -254.230901 
L 149.191236 -252.844591 
L 147.533374 -252.527769 
L 145.885621 -252.844591 
L 144.22776 -249.14708 
L 142.569898 -250.402572 
L 140.922145 -248.070623 
L 139.264283 -245.026611 
L 137.606422 -244.463858 
L 135.958669 -242.417413 
L 134.300807 -242.378129 
L 132.642945 -239.034534 
L 130.995192 -240.116568 
L 129.337331 -239.136835 
L 127.679469 -238.270909 
L 126.031716 -238.917587 
L 124.373854 -237.531277 
L 122.715993 -237.214455 
L 121.06824 -236.254147 
L 119.410378 -231.956652 
L 117.752516 -229.869467 
L 116.104763 -228.45484 
L 114.446902 -227.104099 
L 112.78904 -225.406373 
L 111.141287 -222.570053 
L 109.483425 -222.217963 
L 107.825564 -220.940833 
L 106.177811 -219.775944 
L 104.519949 -213.837231 
L 102.862087 -211.937046 
L 101.214334 -210.093059 
L 99.556473 -207.58894 
L 97.898611 -206.587827 
L 96.250858 -205.627519 
L 94.592996 -204.462631 
L 92.935135 -202.130681 
L 91.287382 -199.242839 
L 89.62952 -197.651208 
L 87.971658 -195.933596 
L 86.323905 -193.196894 
L 84.666044 -191.320467 
L 83.008182 -185.845958 
L 81.360429 -181.124873 
L 79.702567 -179.945027 
L 78.044706 -177.664331 
L 76.396953 -170.703396 
L 74.739091 -162.570266 
L 73.081229 -162.351017 
L 71.433476 -147.256952 
L 69.775615 -145.782212 
L 68.117753 -127.738239 
z
" style="stroke: #808080; stroke-opacity: 0.4"/>
    </defs>
    <g clip-path="url(#pdb93306779)">
     <use xlink:href="#m7ee638a373" x="0" y="389.863723" style="fill: #808080; fill-opacity: 0.4; stroke: #808080; stroke-opacity: 0.4"/>
    </g>
   </g>
   <g id="PolyCollection_2">
    <defs>
     <path id="m8869ef2a0c" d="M 68.117753 -102.578501 
L 68.117753 -213.589869 
L 69.775615 -146.822379 
L 71.433476 -147.451807 
L 73.081229 -156.435593 
L 74.739091 -161.231922 
L 76.396953 -164.218624 
L 78.044706 -172.833 
L 79.702567 -176.545235 
L 81.360429 -178.078435 
L 83.008182 -179.854915 
L 84.666044 -186.715421 
L 86.323905 -189.731681 
L 87.971658 -190.544023 
L 89.62952 -190.735398 
L 91.287382 -191.52037 
L 92.935135 -194.254882 
L 94.592996 -196.326 
L 96.250858 -197.276545 
L 97.898611 -200.375505 
L 99.556473 -200.275992 
L 101.214334 -207.171863 
L 102.862087 -207.932649 
L 104.519949 -209.460028 
L 106.177811 -210.583361 
L 107.825564 -211.639314 
L 109.483425 -214.82852 
L 111.141287 -218.912918 
L 112.78904 -218.912918 
L 114.446902 -220.945013 
L 116.104763 -222.485177 
L 117.752516 -224.018376 
L 119.410378 -223.721849 
L 121.06824 -223.83396 
L 122.715993 -225.896674 
L 124.373854 -228.351421 
L 126.031716 -231.838684 
L 127.679469 -231.002133 
L 129.337331 -233.321834 
L 130.995192 -236.258327 
L 132.642945 -234.98308 
L 134.300807 -237.798491 
L 135.958669 -236.483965 
L 137.606422 -239.134153 
L 139.264283 -237.798491 
L 140.922145 -237.460312 
L 142.569898 -239.035163 
L 144.22776 -240.785194 
L 145.885621 -242.639737 
L 147.533374 -242.714923 
L 149.191236 -244.6008 
L 150.849098 -243.216487 
L 152.50696 -247.205951 
L 154.154712 -248.315476 
L 155.812574 -249.539545 
L 157.470436 -249.676901 
L 159.118189 -251.034279 
L 160.776051 -253.13632 
L 162.433912 -251.109898 
L 164.081665 -251.797279 
L 165.739527 -249.622033 
L 167.397389 -251.988654 
L 169.045141 -253.111805 
L 170.703003 -254.645004 
L 172.360865 -254.348477 
L 174.008618 -255.399969 
L 175.66648 -255.573156 
L 177.324341 -254.348477 
L 178.972094 -255.399969 
L 180.629956 -256.975344 
L 182.287818 -258.523331 
L 183.93557 -256.056428 
L 185.593432 -257.568935 
L 187.251294 -261.227388 
L 188.899047 -261.242134 
L 190.556909 -258.999304 
L 192.21477 -262.945397 
L 193.862523 -259.914114 
L 195.520385 -264.242441 
L 197.178247 -264.078141 
L 198.826 -266.347593 
L 200.483861 -263.755164 
L 202.141723 -266.773726 
L 203.789476 -264.935347 
L 205.447338 -267.065423 
L 207.105199 -267.766571 
L 208.752952 -269.76078 
L 210.410814 -268.681188 
L 212.068676 -269.661791 
L 213.716429 -267.110593 
L 215.37429 -268.425119 
L 217.032152 -268.425119 
L 218.679905 -268.425119 
L 220.337767 -269.958318 
L 221.995628 -269.773902 
L 223.643381 -269.773902 
L 225.301243 -269.958318 
L 226.959105 -270.121969 
L 228.606858 -269.661791 
L 230.264719 -270.251541 
L 231.922581 -270.713283 
L 233.570334 -271.836616 
L 235.228196 -270.905769 
L 236.886057 -270.905769 
L 238.543919 -273.341551 
L 240.191672 -272.36954 
L 241.849534 -272.824836 
L 243.507396 -273.843115 
L 245.155148 -277.318448 
L 246.81301 -279.036019 
L 248.470872 -276.942075 
L 250.118625 -275.607266 
L 251.776486 -277.778626 
L 253.434348 -279.391455 
L 255.082101 -279.036019 
L 256.739963 -278.942104 
L 258.397825 -278.140946 
L 260.045577 -278.478108 
L 261.703439 -281.029306 
L 263.361301 -280.166173 
L 265.009054 -280.770403 
L 266.666915 -282.645617 
L 268.324777 -282.198269 
L 269.97253 -283.738433 
L 271.630392 -283.762948 
L 273.288254 -283.738433 
L 274.936006 -284.846954 
L 276.593868 -282.423906 
L 278.25173 -283.738433 
L 279.899483 -285.271632 
L 281.557344 -285.074094 
L 283.215206 -283.549406 
L 284.862959 -283.738433 
L 286.520821 -283.549406 
L 288.178683 -285.271632 
L 289.826435 -284.975104 
L 291.484297 -286.314146 
L 293.142159 -283.400254 
L 294.789912 -284.975104 
L 296.447774 -286.314146 
L 298.105635 -284.975104 
L 299.753388 -286.026597 
L 301.41125 -286.026597 
L 303.069112 -286.314146 
L 304.716864 -286.026597 
L 306.374726 -289.952413 
L 308.032588 -290.98665 
L 309.680341 -289.625932 
L 311.338203 -290.949077 
L 312.996064 -289.008502 
L 314.643817 -289.625932 
L 316.301679 -291.854016 
L 317.959541 -292.631761 
L 319.607293 -292.707431 
L 321.265155 -293.091939 
L 322.923017 -294.704769 
L 324.580879 -293.091939 
L 326.228632 -295.911627 
L 327.886493 -294.704769 
L 329.544355 -297.400353 
L 331.192108 -296.34262 
L 332.84997 -297.400353 
L 334.507831 -297.73722 
L 336.155584 -296.34262 
L 337.813446 -298.815389 
L 339.471308 -297.73722 
L 341.119061 -296.572201 
L 342.776922 -298.815389 
L 344.434784 -297.958931 
L 346.082537 -296.34262 
L 347.740399 -298.643307 
L 349.39826 -298.86272 
L 351.046013 -299.307815 
L 352.703875 -297.511582 
L 354.361737 -297.928596 
L 356.00949 -298.86272 
L 357.667351 -299.051746 
L 359.325213 -299.051746 
L 360.972966 -300.288418 
L 362.630828 -300.584946 
L 364.288689 -301.339911 
L 365.936442 -301.62746 
L 367.594304 -300.288418 
L 369.252166 -301.339911 
L 370.899919 -304.321816 
L 372.55778 -302.643717 
L 374.215642 -302.361426 
L 375.863395 -304.912624 
L 377.521257 -303.451464 
L 379.179119 -302.361426 
L 380.826871 -300.288418 
L 382.484733 -302.463244 
L 384.142595 -303.508877 
L 385.790348 -306.26239 
L 387.448209 -302.996168 
L 389.106071 -303.034054 
L 390.753824 -305.393603 
L 392.411686 -304.413274 
L 394.069548 -304.83988 
L 395.7173 -305.348707 
L 397.375162 -308.020745 
L 399.033024 -306.299964 
L 400.680777 -306.291572 
L 402.338638 -307.568703 
L 403.9965 -307.568703 
L 405.644253 -309.284116 
L 407.302115 -305.854055 
L 408.959977 -308.851162 
L 410.617838 -307.945075 
L 412.265591 -307.945075 
L 413.923453 -311.224941 
L 415.581315 -312.287535 
L 417.229068 -309.221932 
L 418.886929 -310.018083 
L 420.544791 -311.849073 
L 422.192544 -311.108121 
L 423.850406 -314.176034 
L 425.508267 -312.11993 
L 427.15602 -309.413581 
L 428.813882 -312.287535 
L 430.471744 -313.005364 
L 432.119497 -312.713667 
L 433.777358 -311.655934 
L 435.43522 -312.569281 
L 437.082973 -312.569281 
L 438.740835 -312.0813 
L 440.398696 -314.176034 
L 442.046449 -314.176034 
L 443.704311 -314.176034 
L 445.362173 -314.176034 
L 447.009926 -313.050534 
L 448.667787 -314.36506 
L 450.325649 -314.36506 
L 451.973402 -314.176034 
L 453.631264 -314.36506 
L 455.289125 -316.750712 
L 456.936878 -313.890551 
L 458.59474 -315.89826 
L 460.252602 -315.89826 
L 461.900355 -315.125846 
L 463.558216 -315.268832 
L 465.216078 -315.89826 
L 466.863831 -315.601732 
L 468.521693 -317.957031 
L 470.179554 -316.653225 
L 471.827307 -317.67474 
L 473.485169 -318.110823 
L 475.143031 -316.761393 
L 476.790784 -317.225389 
L 478.448645 -319.63513 
L 480.106507 -316.191482 
L 481.75426 -315.125846 
L 483.412122 -321.575704 
L 485.069983 -317.957031 
L 486.717736 -317.83904 
L 488.375598 -319.776587 
L 490.03346 -318.822191 
L 491.691322 -317.776558 
L 491.691322 -289.344776 
L 491.691322 -289.344776 
L 490.03346 -290.853404 
L 488.375598 -291.173075 
L 486.717736 -290.559424 
L 485.069983 -286.613104 
L 483.412122 -290.651088 
L 481.75426 -288.16716 
L 480.106507 -288.378653 
L 478.448645 -288.763334 
L 476.790784 -288.621877 
L 475.143031 -289.085873 
L 473.485169 -287.736443 
L 471.827307 -288.172526 
L 470.179554 -287.916911 
L 468.521693 -286.613104 
L 466.863831 -287.691273 
L 465.216078 -286.120678 
L 463.558216 -285.472975 
L 461.900355 -288.16716 
L 460.252602 -286.120678 
L 458.59474 -286.120678 
L 456.936878 -286.851257 
L 455.289125 -285.268225 
L 453.631264 -286.376747 
L 451.973402 -285.288643 
L 450.325649 -286.376747 
L 448.667787 -286.376747 
L 447.009926 -285.140075 
L 445.362173 -285.288643 
L 443.704311 -285.288643 
L 442.046449 -285.288643 
L 440.398696 -285.288643 
L 438.740835 -286.109309 
L 437.082973 -283.067067 
L 435.43522 -283.067067 
L 433.777358 -283.980414 
L 432.119497 -281.648613 
L 430.471744 -282.630984 
L 428.813882 -282.074746 
L 427.15602 -282.394439 
L 425.508267 -283.516418 
L 423.850406 -285.288643 
L 422.192544 -281.977029 
L 420.544791 -282.513207 
L 418.886929 -280.515869 
L 417.229068 -280.03489 
L 415.581315 -282.074746 
L 413.923453 -280.583078 
L 412.265591 -280.034616 
L 410.617838 -280.034616 
L 408.959977 -279.128529 
L 407.302115 -277.02324 
L 405.644253 -278.695575 
L 403.9965 -279.136921 
L 402.338638 -279.136921 
L 400.680777 -277.859791 
L 399.033024 -276.577331 
L 397.375162 -278.684879 
L 395.7173 -274.974327 
L 394.069548 -279.311482 
L 392.411686 -274.635692 
L 390.753824 -276.206561 
L 389.106071 -276.014912 
L 387.448209 -274.775669 
L 385.790348 -275.337774 
L 384.142595 -275.54009 
L 382.484733 -274.031462 
L 380.826871 -272.377959 
L 379.179119 -272.859212 
L 377.521257 -274.320372 
L 375.863395 -275.41041 
L 374.215642 -272.859212 
L 372.55778 -271.29979 
L 370.899919 -273.45002 
L 369.252166 -272.603597 
L 367.594304 -272.377959 
L 365.936442 -271.038918 
L 364.288689 -272.603597 
L 362.630828 -270.807364 
L 360.972966 -272.377959 
L 359.325213 -271.063433 
L 357.667351 -271.063433 
L 356.00949 -269.975329 
L 354.361737 -270.909454 
L 352.703875 -268.775268 
L 351.046013 -269.530234 
L 349.39826 -269.975329 
L 347.740399 -268.920674 
L 346.082537 -268.6671 
L 344.434784 -268.32792 
L 342.776922 -267.471462 
L 341.119061 -269.71465 
L 339.471308 -269.826761 
L 337.813446 -267.471462 
L 336.155584 -268.6671 
L 334.507831 -269.826761 
L 332.84997 -266.335299 
L 331.192108 -268.6671 
L 329.544355 -266.335299 
L 327.886493 -265.202555 
L 326.228632 -265.269765 
L 324.580879 -264.261124 
L 322.923017 -265.202555 
L 321.265155 -264.261124 
L 319.607293 -263.371565 
L 317.959541 -264.721302 
L 316.301679 -262.94785 
L 314.643817 -261.347605 
L 312.996064 -258.136707 
L 311.338203 -260.02446 
L 309.680341 -261.347605 
L 308.032588 -261.264017 
L 306.374726 -258.469926 
L 304.716864 -257.290283 
L 303.069112 -255.725604 
L 301.41125 -257.290283 
L 299.753388 -257.290283 
L 298.105635 -257.064645 
L 296.447774 -255.725604 
L 294.789912 -257.064645 
L 293.142159 -257.365428 
L 291.484297 -255.725604 
L 289.826435 -257.064645 
L 288.178683 -255.49405 
L 286.520821 -254.662015 
L 284.862959 -255.750119 
L 283.215206 -254.662015 
L 281.557344 -254.414457 
L 279.899483 -255.49405 
L 278.25173 -255.750119 
L 276.593868 -254.513447 
L 274.936006 -253.364467 
L 273.288254 -255.750119 
L 271.630392 -253.174406 
L 269.97253 -255.750119 
L 268.324777 -253.461955 
L 266.666915 -253.014606 
L 265.009054 -252.338622 
L 263.361301 -250.388591 
L 261.703439 -253.353786 
L 260.045577 -250.802588 
L 258.397825 -249.86262 
L 256.739963 -250.338593 
L 255.082101 -248.967548 
L 253.434348 -249.889242 
L 251.776486 -248.94781 
L 250.118625 -248.567972 
L 248.470872 -248.510293 
L 246.81301 -248.967548 
L 245.155148 -249.407988 
L 243.507396 -246.503795 
L 241.849534 -243.693744 
L 240.191672 -244.149041 
L 238.543919 -244.45416 
L 236.886057 -245.612811 
L 235.228196 -245.612811 
L 233.570334 -243.404834 
L 231.922581 -241.976969 
L 230.264719 -242.438712 
L 228.606858 -241.751331 
L 226.959105 -241.291153 
L 225.301243 -240.180736 
L 223.643381 -242.916351 
L 221.995628 -242.916351 
L 220.337767 -240.180736 
L 218.679905 -240.436805 
L 217.032152 -240.436805 
L 215.37429 -240.436805 
L 213.716429 -239.200133 
L 212.068676 -241.751331 
L 210.410814 -238.903606 
L 208.752952 -239.101144 
L 207.105199 -237.267024 
L 205.447338 -236.691042 
L 203.789476 -240.098249 
L 202.141723 -235.708672 
L 200.483861 -237.450103 
L 198.826 -236.134804 
L 197.178247 -234.575928 
L 195.520385 -236.962826 
L 193.862523 -231.083298 
L 192.21477 -231.880343 
L 190.556909 -230.720978 
L 188.899047 -231.029345 
L 187.251294 -232.321222 
L 185.593432 -229.600148 
L 183.93557 -228.558395 
L 182.287818 -229.91982 
L 180.629956 -227.639478 
L 178.972094 -226.663655 
L 177.324341 -226.438017 
L 175.66648 -229.041667 
L 174.008618 -226.663655 
L 172.360865 -226.438017 
L 170.703003 -224.867422 
L 169.045141 -225.123491 
L 167.397389 -224.969512 
L 165.739527 -224.784935 
L 164.081665 -223.886819 
L 162.433912 -223.29707 
L 160.776051 -222.547778 
L 159.118189 -220.82149 
L 157.470436 -222.178868 
L 155.812574 -219.761964 
L 154.154712 -219.711965 
L 152.50696 -216.993162 
L 150.849098 -215.877167 
L 149.191236 -215.769984 
L 147.533374 -213.827532 
L 145.885621 -212.625589 
L 144.22776 -214.480132 
L 142.569898 -211.124704 
L 140.922145 -211.425487 
L 139.264283 -209.810177 
L 137.606422 -208.474516 
L 135.958669 -208.573506 
L 134.300807 -209.810177 
L 132.642945 -204.968932 
L 130.995192 -207.522013 
L 129.337331 -205.353047 
L 127.679469 -202.570352 
L 126.031716 -203.007869 
L 124.373854 -201.392735 
L 122.715993 -197.464893 
L 121.06824 -196.976409 
L 119.410378 -195.81139 
L 117.752516 -194.240795 
L 116.104763 -194.496864 
L 114.446902 -192.208699 
L 112.78904 -189.135336 
L 111.141287 -189.135336 
L 109.483425 -186.840207 
L 107.825564 -184.923954 
L 106.177811 -182.151579 
L 104.519949 -180.723714 
L 102.862087 -180.973962 
L 101.214334 -179.18355 
L 99.556473 -173.317305 
L 97.898611 -171.943724 
L 96.250858 -169.937225 
L 94.592996 -169.61064 
L 92.935135 -166.579362 
L 91.287382 -165.485545 
L 89.62952 -163.716256 
L 87.971658 -162.633564 
L 86.323905 -164.719974 
L 84.666044 -157.528379 
L 83.008182 -150.352701 
L 81.360429 -148.300853 
L 79.702567 -148.556922 
L 78.044706 -144.612501 
L 76.396953 -137.913562 
L 74.739091 -133.243608 
L 73.081229 -127.832082 
L 71.433476 -117.674225 
L 69.775615 -117.026523 
L 68.117753 -102.578501 
z
" style="stroke: #808080; stroke-opacity: 0.4"/>
    </defs>
    <g clip-path="url(#pdb93306779)">
     <use xlink:href="#m8869ef2a0c" x="0" y="389.863723" style="fill: #808080; fill-opacity: 0.4; stroke: #808080; stroke-opacity: 0.4"/>
    </g>
   </g>
   <g id="PolyCollection_3">
    <defs>
     <path id="m9391cf3eb8" d="M 68.117753 -65.085 
L 68.117753 -189.830115 
L 69.775615 -115.009098 
L 71.433476 -113.938273 
L 73.081229 -124.063103 
L 74.739091 -129.222217 
L 76.396953 -133.158732 
L 78.044706 -138.28479 
L 79.702567 -143.977284 
L 81.360429 -145.719883 
L 83.008182 -146.238845 
L 84.666044 -154.185139 
L 86.323905 -153.787756 
L 87.971658 -158.571715 
L 89.62952 -159.221607 
L 91.287382 -161.591405 
L 92.935135 -162.055418 
L 94.592996 -164.408318 
L 96.250858 -162.058463 
L 97.898611 -165.672795 
L 99.556473 -166.336558 
L 101.214334 -174.929926 
L 102.862087 -175.695497 
L 104.519949 -176.865473 
L 106.177811 -177.659701 
L 107.825564 -178.292172 
L 109.483425 -179.767586 
L 111.141287 -180.272341 
L 112.78904 -183.604089 
L 114.446902 -189.061978 
L 116.104763 -191.613176 
L 117.752516 -191.651212 
L 119.410378 -192.178787 
L 121.06824 -192.537877 
L 122.715993 -192.537877 
L 124.373854 -195.034945 
L 126.031716 -193.600544 
L 127.679469 -194.371701 
L 129.337331 -197.852774 
L 130.995192 -198.461588 
L 132.642945 -201.995857 
L 134.300807 -203.682091 
L 135.958669 -204.511656 
L 137.606422 -204.511656 
L 139.264283 -205.161549 
L 140.922145 -206.391712 
L 142.569898 -206.92649 
L 144.22776 -207.492101 
L 145.885621 -207.99536 
L 147.533374 -207.85119 
L 149.191236 -207.85119 
L 150.849098 -209.337759 
L 152.50696 -211.320429 
L 154.154712 -212.899457 
L 155.812574 -214.048369 
L 157.470436 -211.674176 
L 159.118189 -216.230791 
L 160.776051 -217.739201 
L 162.433912 -216.997966 
L 164.081665 -220.869868 
L 165.739527 -219.153828 
L 167.397389 -220.358309 
L 169.045141 -222.823734 
L 170.703003 -221.705026 
L 172.360865 -222.239804 
L 174.008618 -221.705026 
L 175.66648 -222.823734 
L 177.324341 -222.286452 
L 178.972094 -223.308674 
L 180.629956 -222.286452 
L 182.287818 -222.805414 
L 183.93557 -223.308674 
L 185.593432 -223.164504 
L 187.251294 -226.250549 
L 188.899047 -223.164504 
L 190.556909 -225.259887 
L 192.21477 -224.004395 
L 193.862523 -223.599643 
L 195.520385 -225.390705 
L 197.178247 -227.573836 
L 198.826 -225.038615 
L 200.483861 -229.088216 
L 202.141723 -229.361683 
L 203.789476 -230.164674 
L 205.447338 -232.311279 
L 207.105199 -233.907205 
L 208.752952 -233.052515 
L 210.410814 -235.671622 
L 212.068676 -233.771438 
L 213.716429 -235.788177 
L 215.37429 -235.138284 
L 217.032152 -235.00192 
L 218.679905 -235.788177 
L 220.337767 -236.321077 
L 221.995628 -236.948753 
L 223.643381 -236.948753 
L 225.301243 -237.01834 
L 226.959105 -238.157974 
L 228.606858 -238.118728 
L 230.264719 -238.157974 
L 231.922581 -237.591153 
L 233.570334 -238.621987 
L 235.228196 -238.118728 
L 236.886057 -238.621987 
L 238.543919 -238.621987 
L 240.191672 -238.690806 
L 241.849534 -240.243743 
L 243.507396 -238.477818 
L 245.155148 -241.699708 
L 246.81301 -240.142351 
L 248.470872 -241.150161 
L 250.118625 -241.150161 
L 251.776486 -238.912957 
L 253.434348 -242.123799 
L 255.082101 -245.365301 
L 256.739963 -243.064552 
L 258.397825 -241.947057 
L 260.045577 -244.674997 
L 261.703439 -245.528037 
L 263.361301 -245.24781 
L 265.009054 -245.528037 
L 266.666915 -246.623269 
L 268.324777 -248.365829 
L 269.97253 -248.692084 
L 271.630392 -248.17001 
L 273.288254 -248.365829 
L 274.936006 -248.692084 
L 276.593868 -250.315234 
L 278.25173 -250.137034 
L 279.899483 -250.828045 
L 281.557344 -250.315234 
L 283.215206 -250.543807 
L 284.862959 -251.496496 
L 286.520821 -252.145512 
L 288.178683 -250.984936 
L 289.826435 -252.866432 
L 291.484297 -252.773626 
L 293.142159 -252.904467 
L 294.789912 -252.866432 
L 296.447774 -252.262067 
L 298.105635 -251.771717 
L 299.753388 -252.262067 
L 301.41125 -254.00412 
L 303.069112 -253.432042 
L 304.716864 -252.904467 
L 306.374726 -252.866432 
L 308.032588 -252.91308 
L 309.680341 -253.935301 
L 311.338203 -253.471288 
L 312.996064 -255.557057 
L 314.643817 -255.455665 
L 316.301679 -255.886515 
L 317.959541 -255.557057 
L 319.607293 -255.455665 
L 321.265155 -255.557057 
L 322.923017 -257.832448 
L 324.580879 -257.538788 
L 326.228632 -257.971891 
L 327.886493 -258.758148 
L 329.544355 -259.988311 
L 331.192108 -260.177069 
L 332.84997 -258.537501 
L 334.507831 -260.177069 
L 336.155584 -259.109579 
L 337.813446 -260.561124 
L 339.471308 -257.832448 
L 341.119061 -260.84135 
L 342.776922 -260.177069 
L 344.434784 -261.936583 
L 346.082537 -262.721907 
L 347.740399 -262.684715 
L 349.39826 -263.473639 
L 351.046013 -262.937907 
L 352.703875 -262.469922 
L 354.361737 -265.235913 
L 356.00949 -266.141359 
L 357.667351 -264.398066 
L 359.325213 -266.141359 
L 360.972966 -266.29825 
L 362.630828 -266.141359 
L 364.288689 -266.947705 
L 365.936442 -265.764912 
L 367.594304 -267.575381 
L 369.252166 -268.226394 
L 370.899919 -268.179746 
L 372.55778 -269.278677 
L 374.215642 -267.575381 
L 375.863395 -271.915268 
L 377.521257 -270.384924 
L 379.179119 -268.179746 
L 380.826871 -269.862851 
L 382.484733 -268.226394 
L 384.142595 -270.378564 
L 385.790348 -271.285447 
L 387.448209 -269.827389 
L 389.106071 -270.870371 
L 390.753824 -267.663641 
L 392.411686 -270.870371 
L 394.069548 -270.905769 
L 395.7173 -270.870371 
L 397.375162 -271.369742 
L 399.033024 -270.870371 
L 400.680777 -272.407427 
L 402.338638 -272.394591 
L 403.9965 -270.378564 
L 405.644253 -272.394591 
L 407.302115 -270.870371 
L 408.959977 -272.394591 
L 410.617838 -272.394591 
L 412.265591 -272.394591 
L 413.923453 -272.394591 
L 415.581315 -273.285205 
L 417.229068 -272.852102 
L 418.886929 -272.750427 
L 420.544791 -273.285205 
L 422.192544 -274.071461 
L 423.850406 -272.852102 
L 425.508267 -274.604362 
L 427.15602 -272.750427 
L 428.813882 -274.213253 
L 430.471744 -276.69165 
L 432.119497 -274.96831 
L 433.777358 -274.604362 
L 435.43522 -274.96831 
L 437.082973 -275.836403 
L 438.740835 -276.154664 
L 440.398696 -279.318711 
L 442.046449 -277.783236 
L 443.704311 -276.154664 
L 445.362173 -278.294795 
L 447.009926 -277.249897 
L 448.667787 -277.185293 
L 450.325649 -276.349214 
L 451.973402 -278.251221 
L 453.631264 -280.248661 
L 455.289125 -278.035221 
L 456.936878 -278.796638 
L 458.59474 -278.251221 
L 460.252602 -280.248661 
L 461.900355 -279.711379 
L 463.558216 -280.407084 
L 465.216078 -280.941861 
L 466.863831 -281.258887 
L 468.521693 -280.248661 
L 470.179554 -284.975104 
L 471.827307 -282.77214 
L 473.485169 -281.611564 
L 475.143031 -284.367235 
L 476.790784 -281.797109 
L 478.448645 -282.77214 
L 480.106507 -284.005871 
L 481.75426 -284.975104 
L 483.412122 -286.598761 
L 485.069983 -284.591991 
L 486.717736 -286.026597 
L 488.375598 -286.473945 
L 490.03346 -282.888694 
L 491.691322 -283.49306 
L 491.691322 -258.54669 
L 491.691322 -258.54669 
L 490.03346 -257.876988 
L 488.375598 -256.842935 
L 486.717736 -257.290283 
L 485.069983 -258.72489 
L 483.412122 -257.99525 
L 481.75426 -257.064645 
L 480.106507 -258.033879 
L 478.448645 -256.716412 
L 476.790784 -258.968573 
L 475.143031 -256.398447 
L 473.485169 -256.599857 
L 471.827307 -256.716412 
L 470.179554 -257.064645 
L 468.521693 -255.411562 
L 466.863831 -254.401336 
L 465.216078 -255.995492 
L 463.558216 -256.53027 
L 461.900355 -255.948844 
L 460.252602 -255.411562 
L 458.59474 -254.857804 
L 456.936878 -254.312387 
L 455.289125 -253.796674 
L 453.631264 -255.411562 
L 451.973402 -254.857804 
L 450.325649 -250.377222 
L 448.667787 -250.818273 
L 447.009926 -253.304867 
L 445.362173 -252.259969 
L 443.704311 -251.848902 
L 442.046449 -252.771529 
L 440.398696 -253.790314 
L 438.740835 -251.848902 
L 437.082973 -250.890033 
L 435.43522 -250.484058 
L 433.777358 -249.570876 
L 432.119497 -250.484058 
L 430.471744 -253.863114 
L 428.813882 -248.684855 
L 427.15602 -248.873613 
L 425.508267 -249.570876 
L 423.850406 -247.494808 
L 422.192544 -250.103776 
L 420.544791 -248.338835 
L 418.886929 -248.873613 
L 417.229068 -247.494808 
L 415.581315 -248.338835 
L 413.923453 -246.675188 
L 412.265591 -246.675188 
L 410.617838 -246.675188 
L 408.959977 -246.675188 
L 407.302115 -246.925341 
L 405.644253 -246.675188 
L 403.9965 -246.140017 
L 402.338638 -246.675188 
L 400.680777 -245.388285 
L 399.033024 -246.925341 
L 397.375162 -243.871709 
L 395.7173 -246.925341 
L 394.069548 -245.612811 
L 392.411686 -246.925341 
L 390.753824 -245.026611 
L 389.106071 -246.925341 
L 387.448209 -246.691191 
L 385.790348 -242.681936 
L 384.142595 -246.140017 
L 382.484733 -244.463858 
L 380.826871 -245.3786 
L 379.179119 -243.233376 
L 377.521257 -244.856526 
L 375.863395 -245.880443 
L 374.215642 -242.563674 
L 372.55778 -243.411576 
L 370.899919 -243.233376 
L 369.252166 -244.463858 
L 367.594304 -242.563674 
L 365.936442 -241.819882 
L 364.288689 -241.914219 
L 362.630828 -240.169367 
L 360.972966 -241.286543 
L 359.325213 -240.169367 
L 357.667351 -240.63553 
L 356.00949 -240.169367 
L 354.361737 -238.520552 
L 352.703875 -237.458215 
L 351.046013 -239.54449 
L 349.39826 -236.454497 
L 347.740399 -235.969354 
L 346.082537 -238.48336 
L 344.434784 -237.991553 
L 342.776922 -234.648671 
L 341.119061 -236.535588 
L 339.471308 -234.439031 
L 337.813446 -238.092945 
L 336.155584 -235.716162 
L 334.507831 -234.648671 
L 332.84997 -236.288239 
L 331.192108 -234.648671 
L 329.544355 -236.111497 
L 327.886493 -234.790462 
L 326.228632 -233.025521 
L 324.580879 -232.181494 
L 322.923017 -234.439031 
L 321.265155 -231.612027 
L 319.607293 -232.987486 
L 317.959541 -231.612027 
L 316.301679 -233.833766 
L 314.643817 -232.987486 
L 312.996064 -231.612027 
L 311.338203 -229.869467 
L 309.680341 -231.956652 
L 308.032588 -229.150544 
L 306.374726 -227.920062 
L 304.716864 -230.436288 
L 303.069112 -231.182781 
L 301.41125 -230.610703 
L 299.753388 -227.25036 
L 298.105635 -229.014777 
L 296.447774 -227.25036 
L 294.789912 -227.920062 
L 293.142159 -230.436288 
L 291.484297 -226.738801 
L 289.826435 -227.920062 
L 288.178683 -225.973229 
L 286.520821 -226.089784 
L 284.862959 -225.46167 
L 283.215206 -227.691489 
L 281.557344 -225.368864 
L 279.899483 -224.856053 
L 278.25173 -224.269933 
L 276.593868 -225.368864 
L 274.936006 -223.163686 
L 273.288254 -224.764008 
L 271.630392 -223.685759 
L 269.97253 -223.163686 
L 268.324777 -224.764008 
L 266.666915 -222.678239 
L 265.009054 -221.222274 
L 263.361301 -222.779631 
L 261.703439 -221.222274 
L 260.045577 -220.798183 
L 258.397825 -219.697795 
L 256.739963 -218.5803 
L 255.082101 -218.833811 
L 253.434348 -218.246985 
L 251.776486 -218.903566 
L 250.118625 -217.943493 
L 248.470872 -217.943493 
L 246.81301 -217.674172 
L 245.155148 -217.393946 
L 243.507396 -218.064638 
L 241.849534 -216.298713 
L 240.191672 -215.297389 
L 238.543919 -216.643338 
L 236.886057 -216.643338 
L 235.228196 -215.869467 
L 233.570334 -216.643338 
L 231.922581 -215.122974 
L 230.264719 -214.556153 
L 228.606858 -215.869467 
L 226.959105 -214.556153 
L 225.301243 -213.141526 
L 223.643381 -211.937046 
L 221.995628 -211.937046 
L 220.337767 -211.287591 
L 218.679905 -211.820492 
L 217.032152 -210.05555 
L 215.37429 -211.193254 
L 213.716429 -211.820492 
L 212.068676 -210.008902 
L 210.410814 -210.659916 
L 208.752952 -209.450694 
L 207.105199 -211.150265 
L 205.447338 -208.917862 
L 203.789476 -208.510208 
L 202.141723 -205.484869 
L 200.483861 -207.035467 
L 198.826 -204.705542 
L 197.178247 -204.721518 
L 195.520385 -205.627519 
L 193.862523 -203.590253 
L 192.21477 -204.462631 
L 190.556909 -203.207139 
L 188.899047 -202.751324 
L 187.251294 -203.493608 
L 185.593432 -202.751324 
L 183.93557 -201.330024 
L 182.287818 -200.556153 
L 180.629956 -198.523917 
L 178.972094 -201.330024 
L 177.324341 -198.523917 
L 175.66648 -197.986635 
L 174.008618 -197.828213 
L 172.360865 -197.293435 
L 170.703003 -197.828213 
L 169.045141 -197.986635 
L 167.397389 -195.346602 
L 165.739527 -195.277014 
L 164.081665 -194.835042 
L 162.433912 -193.604549 
L 160.776051 -194.13738 
L 159.118189 -193.094593 
L 157.470436 -189.994551 
L 155.812574 -190.171556 
L 154.154712 -191.320467 
L 152.50696 -189.071167 
L 150.849098 -188.502639 
L 149.191236 -187.43801 
L 147.533374 -187.43801 
L 145.885621 -186.01671 
L 144.22776 -185.242839 
L 142.569898 -181.980121 
L 140.922145 -182.514899 
L 139.264283 -181.193864 
L 137.606422 -180.566626 
L 135.958669 -180.566626 
L 134.300807 -178.844993 
L 132.642945 -176.702899 
L 130.995192 -176.408839 
L 129.337331 -177.017654 
L 127.679469 -176.670398 
L 126.031716 -177.441555 
L 124.373854 -173.455955 
L 122.715993 -172.124696 
L 121.06824 -172.124696 
L 119.410378 -169.929525 
L 117.752516 -169.183032 
L 116.104763 -166.666807 
L 114.446902 -164.115609 
L 112.78904 -163.190909 
L 111.141287 -162.694328 
L 109.483425 -160.647885 
L 107.825564 -157.01784 
L 106.177811 -157.650311 
L 104.519949 -154.616211 
L 102.862087 -150.68379 
L 101.214334 -148.895101 
L 99.556473 -146.003484 
L 97.898611 -146.667247 
L 96.250858 -143.902052 
L 94.592996 -142.829328 
L 92.935135 -140.076768 
L 91.287382 -137.989584 
L 89.62952 -135.253922 
L 87.971658 -134.626685 
L 86.323905 -133.031116 
L 84.666044 -131.356603 
L 83.008182 -123.989583 
L 81.360429 -121.957347 
L 79.702567 -121.148748 
L 78.044706 -116.630324 
L 76.396953 -112.825658 
L 74.739091 -105.277187 
L 73.081229 -104.053712 
L 71.433476 -92.485702 
L 69.775615 -93.966075 
L 68.117753 -65.085 
z
" style="stroke: #808080; stroke-opacity: 0.4"/>
    </defs>
    <g clip-path="url(#pdb93306779)">
     <use xlink:href="#m9391cf3eb8" x="0" y="389.863723" style="fill: #808080; fill-opacity: 0.4; stroke: #808080; stroke-opacity: 0.4"/>
    </g>
   </g>
   <g id="line2d_37">
    <path d="M 68.117753 233.693702 
L 69.775615 233.055137 
L 71.433476 231.779538 
L 73.081229 217.741823 
L 74.739091 216.466224 
L 76.396953 208.171002 
L 78.044706 202.428509 
L 79.702567 198.600181 
L 81.360429 197.324582 
L 83.008182 193.496253 
L 84.666044 187.753761 
L 87.971658 183.925432 
L 91.287382 178.819973 
L 92.935135 176.905809 
L 96.250858 174.354611 
L 99.556473 173.077481 
L 102.862087 165.420824 
L 104.519949 164.145225 
L 106.177811 160.316896 
L 109.483425 157.764167 
L 111.141287 157.127133 
L 112.78904 153.935838 
L 114.446902 152.660239 
L 116.104763 149.470476 
L 119.410378 146.917746 
L 121.06824 143.727983 
L 124.373854 142.450853 
L 126.031716 141.175254 
L 127.679469 141.175254 
L 130.995192 138.622524 
L 132.642945 139.261089 
L 134.300807 136.071326 
L 135.958669 137.346925 
L 137.606422 133.518597 
L 139.264283 133.518597 
L 140.922145 130.965867 
L 142.569898 129.690268 
L 144.22776 129.690268 
L 145.885621 127.137539 
L 147.533374 127.776104 
L 149.191236 127.137539 
L 150.849098 125.86194 
L 154.154712 125.86194 
L 155.812574 122.033611 
L 157.470436 120.119447 
L 159.118189 120.758012 
L 160.776051 120.758012 
L 162.433912 118.843848 
L 164.081665 120.758012 
L 165.739527 120.119447 
L 167.397389 116.929684 
L 169.045141 115.652553 
L 170.703003 113.738389 
L 172.360865 115.652553 
L 174.008618 113.101355 
L 177.324341 113.101355 
L 178.972094 111.824225 
L 180.629956 113.101355 
L 182.287818 111.824225 
L 185.593432 110.548626 
L 187.251294 110.548626 
L 188.899047 109.910061 
L 190.556909 109.910061 
L 192.21477 107.995897 
L 193.862523 108.634462 
L 195.520385 107.995897 
L 197.178247 109.273027 
L 198.826 106.081732 
L 200.483861 106.081732 
L 202.141723 104.167568 
L 203.789476 101.61637 
L 205.447338 102.253404 
L 207.105199 99.702206 
L 208.752952 100.33924 
L 210.410814 100.33924 
L 212.068676 99.702206 
L 213.716429 100.977805 
L 215.37429 99.063641 
L 217.032152 98.425075 
L 218.679905 99.702206 
L 220.337767 99.063641 
L 221.995628 96.510911 
L 223.643381 97.788042 
L 226.959105 95.235312 
L 228.606858 97.788042 
L 230.264719 95.235312 
L 231.922581 97.149476 
L 233.570334 95.873877 
L 235.228196 95.235312 
L 236.886057 95.873877 
L 238.543919 93.959713 
L 240.191672 91.406984 
L 243.507396 92.682583 
L 245.155148 91.406984 
L 246.81301 92.045549 
L 248.470872 89.492819 
L 250.118625 87.578655 
L 251.776486 89.492819 
L 253.434348 88.854254 
L 255.082101 89.492819 
L 256.739963 88.854254 
L 258.397825 87.578655 
L 260.045577 88.21722 
L 261.703439 84.388892 
L 263.361301 86.94009 
L 265.009054 85.025926 
L 266.666915 85.025926 
L 268.324777 82.474728 
L 271.630392 83.750327 
L 273.288254 83.750327 
L 276.593868 82.474728 
L 278.25173 82.474728 
L 279.899483 83.111761 
L 281.557344 81.197597 
L 283.215206 81.197597 
L 284.862959 79.921998 
L 288.178683 81.197597 
L 293.142159 79.283433 
L 296.447774 79.283433 
L 298.105635 78.646399 
L 299.753388 79.921998 
L 301.41125 78.007834 
L 303.069112 79.921998 
L 304.716864 75.455105 
L 306.374726 74.179506 
L 308.032588 76.732235 
L 309.680341 73.54094 
L 311.338203 74.818071 
L 312.996064 73.54094 
L 314.643817 71.626776 
L 316.301679 72.265341 
L 317.959541 70.351177 
L 319.607293 72.265341 
L 321.265155 69.075578 
L 322.923017 69.712612 
L 324.580879 68.437013 
L 326.228632 68.437013 
L 327.886493 70.351177 
L 329.544355 67.798448 
L 331.192108 69.075578 
L 332.84997 68.437013 
L 334.507831 68.437013 
L 336.155584 67.161414 
L 337.813446 68.437013 
L 339.471308 67.161414 
L 341.119061 67.161414 
L 342.776922 65.24725 
L 344.434784 66.522849 
L 347.740399 66.522849 
L 349.39826 64.608684 
L 351.046013 67.161414 
L 352.703875 66.522849 
L 354.361737 63.970119 
L 356.00949 65.24725 
L 357.667351 61.418921 
L 359.325213 61.418921 
L 360.972966 62.055955 
L 362.630828 61.418921 
L 364.288689 61.418921 
L 365.936442 58.866192 
L 367.594304 59.504757 
L 369.252166 58.866192 
L 372.55778 58.866192 
L 374.215642 58.227626 
L 375.863395 58.866192 
L 377.521257 56.952027 
L 379.179119 56.952027 
L 380.826871 56.313462 
L 382.484733 55.037863 
L 384.142595 54.399298 
L 385.790348 54.399298 
L 387.448209 57.590593 
L 389.106071 58.227626 
L 390.753824 54.399298 
L 392.411686 57.590593 
L 394.069548 54.399298 
L 395.7173 55.676428 
L 397.375162 53.123699 
L 399.033024 55.037863 
L 400.680777 54.399298 
L 402.338638 51.8481 
L 403.9965 55.037863 
L 405.644253 51.209535 
L 407.302115 54.399298 
L 408.959977 51.209535 
L 410.617838 53.123699 
L 412.265591 51.209535 
L 413.923453 52.485134 
L 415.581315 51.209535 
L 417.229068 51.8481 
L 418.886929 50.57097 
L 420.544791 51.209535 
L 422.192544 50.57097 
L 423.850406 48.656805 
L 425.508267 49.933936 
L 428.813882 46.105607 
L 430.471744 48.019771 
L 432.119497 48.656805 
L 433.777358 46.105607 
L 435.43522 48.019771 
L 437.082973 47.381206 
L 438.740835 47.381206 
L 440.398696 46.742641 
L 442.046449 42.914313 
L 443.704311 43.552878 
L 445.362173 45.467042 
L 448.667787 42.914313 
L 450.325649 44.191443 
L 451.973402 43.552878 
L 456.936878 43.552878 
L 458.59474 42.914313 
L 460.252602 41.638714 
L 461.900355 41.638714 
L 463.558216 40.363114 
L 465.216078 38.44895 
L 466.863831 39.085984 
L 468.521693 38.44895 
L 470.179554 39.724549 
L 471.827307 39.724549 
L 473.485169 35.257656 
L 475.143031 37.17182 
L 476.790784 40.363114 
L 478.448645 35.896221 
L 480.106507 35.896221 
L 485.069983 37.810385 
L 486.717736 33.982057 
L 488.375598 35.896221 
L 490.03346 36.534786 
L 491.691322 35.896221 
L 491.691322 35.896221 
" clip-path="url(#pdb93306779)" style="fill: none; stroke: #440154; stroke-width: 2; stroke-linecap: round"/>
   </g>
   <g id="line2d_38">
    <path d="M 68.117753 231.779538 
L 69.775615 257.939272 
L 71.433476 257.300707 
L 73.081229 247.729886 
L 74.739091 242.625958 
L 76.396953 238.79763 
L 78.044706 231.140973 
L 79.702567 227.312644 
L 81.360429 226.674079 
L 83.008182 224.759915 
L 84.666044 217.741823 
L 86.323905 212.637896 
L 87.971658 213.274929 
L 89.62952 212.637896 
L 91.287382 211.360765 
L 92.935135 209.446601 
L 94.592996 206.895403 
L 96.250858 206.256838 
L 97.898611 203.704108 
L 99.556473 203.067074 
L 101.214334 196.686017 
L 102.862087 195.410417 
L 104.519949 194.771852 
L 106.177811 193.496253 
L 107.825564 191.582089 
L 109.483425 189.02936 
L 111.141287 185.839596 
L 112.78904 185.839596 
L 114.446902 183.286867 
L 116.104763 181.372703 
L 121.06824 179.458538 
L 122.715993 178.182939 
L 124.373854 174.991645 
L 126.031716 172.440447 
L 127.679469 173.077481 
L 130.995192 167.973553 
L 132.642945 169.887717 
L 134.300807 166.059389 
L 135.958669 167.334988 
L 137.606422 166.059389 
L 139.264283 166.059389 
L 142.569898 164.78379 
L 144.22776 162.23106 
L 145.885621 162.23106 
L 147.533374 161.592495 
L 149.191236 159.678331 
L 150.849098 160.316896 
L 152.50696 157.764167 
L 154.154712 155.850002 
L 155.812574 155.212969 
L 157.470436 153.935838 
L 159.118189 153.935838 
L 160.776051 152.021674 
L 162.433912 152.660239 
L 164.081665 152.021674 
L 165.739527 152.660239 
L 167.397389 151.38464 
L 174.008618 148.831911 
L 175.66648 147.556312 
L 177.324341 149.470476 
L 178.972094 148.831911 
L 180.629956 147.556312 
L 182.287818 145.642147 
L 183.93557 147.556312 
L 185.593432 146.279181 
L 187.251294 143.089418 
L 188.899047 143.727983 
L 190.556909 145.003582 
L 192.21477 142.450853 
L 193.862523 144.365017 
L 195.520385 139.261089 
L 197.178247 140.536689 
L 198.826 138.622524 
L 200.483861 139.261089 
L 202.141723 138.622524 
L 203.789476 137.346925 
L 205.447338 137.98549 
L 207.105199 137.346925 
L 208.752952 135.432761 
L 210.410814 136.071326 
L 212.068676 134.157162 
L 213.716429 136.70836 
L 215.37429 135.432761 
L 218.679905 135.432761 
L 220.337767 134.794196 
L 221.995628 133.518597 
L 223.643381 133.518597 
L 225.301243 134.794196 
L 226.959105 134.157162 
L 228.606858 134.157162 
L 230.264719 133.518597 
L 231.922581 133.518597 
L 233.570334 132.242998 
L 235.228196 131.604433 
L 236.886057 131.604433 
L 238.543919 130.965867 
L 240.191672 131.604433 
L 241.849534 131.604433 
L 243.507396 129.690268 
L 245.155148 126.500505 
L 246.81301 125.86194 
L 248.470872 127.137539 
L 250.118625 127.776104 
L 253.434348 125.223375 
L 255.082101 125.86194 
L 256.739963 125.223375 
L 258.397825 125.86194 
L 260.045577 125.223375 
L 261.703439 122.672177 
L 263.361301 124.586341 
L 266.666915 122.033611 
L 268.324777 122.033611 
L 269.97253 120.119447 
L 271.630392 121.395046 
L 273.288254 120.119447 
L 276.593868 121.395046 
L 278.25173 120.119447 
L 279.899483 119.480882 
L 283.215206 120.758012 
L 284.862959 120.119447 
L 286.520821 120.758012 
L 288.178683 119.480882 
L 289.826435 118.843848 
L 291.484297 118.843848 
L 293.142159 119.480882 
L 294.789912 118.843848 
L 298.105635 118.843848 
L 299.753388 118.205283 
L 301.41125 118.205283 
L 303.069112 118.843848 
L 304.716864 118.205283 
L 306.374726 115.652553 
L 308.032588 113.738389 
L 309.680341 114.376954 
L 311.338203 114.376954 
L 312.996064 116.291119 
L 316.301679 112.46279 
L 317.959541 111.187191 
L 319.607293 111.824225 
L 321.265155 111.187191 
L 322.923017 109.910061 
L 324.580879 111.187191 
L 326.228632 109.273027 
L 327.886493 109.910061 
L 329.544355 107.995897 
L 331.192108 107.358863 
L 332.84997 107.995897 
L 334.507831 106.081732 
L 336.155584 107.358863 
L 339.471308 106.081732 
L 341.119061 106.720297 
L 344.434784 106.720297 
L 346.082537 107.358863 
L 347.740399 106.081732 
L 349.39826 105.444698 
L 351.046013 105.444698 
L 352.703875 106.720297 
L 354.361737 105.444698 
L 356.00949 105.444698 
L 357.667351 104.806133 
L 359.325213 104.806133 
L 360.972966 103.530534 
L 362.630828 104.167568 
L 364.288689 102.891969 
L 365.936442 103.530534 
L 367.594304 103.530534 
L 369.252166 102.891969 
L 370.899919 100.977805 
L 372.55778 102.891969 
L 374.215642 102.253404 
L 375.863395 99.702206 
L 380.826871 103.530534 
L 382.484733 101.61637 
L 385.790348 99.063641 
L 387.448209 100.977805 
L 389.106071 100.33924 
L 390.753824 99.063641 
L 392.411686 100.33924 
L 394.069548 97.788042 
L 395.7173 99.702206 
L 397.375162 96.510911 
L 399.033024 98.425075 
L 400.680777 97.788042 
L 402.338638 96.510911 
L 403.9965 96.510911 
L 405.644253 95.873877 
L 407.302115 98.425075 
L 408.959977 95.873877 
L 412.265591 95.873877 
L 413.923453 93.959713 
L 415.581315 92.682583 
L 417.229068 95.235312 
L 418.886929 94.596747 
L 420.544791 92.682583 
L 422.192544 93.321148 
L 423.850406 90.131385 
L 427.15602 93.959713 
L 428.813882 92.682583 
L 430.471744 92.045549 
L 432.119497 92.682583 
L 433.777358 92.045549 
L 437.082973 92.045549 
L 438.740835 90.768418 
L 440.398696 90.131385 
L 445.362173 90.131385 
L 447.009926 90.768418 
L 448.667787 89.492819 
L 450.325649 89.492819 
L 451.973402 90.131385 
L 455.289125 88.854254 
L 456.936878 89.492819 
L 458.59474 88.854254 
L 460.252602 88.854254 
L 461.900355 88.21722 
L 463.558216 89.492819 
L 468.521693 87.578655 
L 470.179554 87.578655 
L 471.827307 86.94009 
L 476.790784 86.94009 
L 478.448645 85.664491 
L 480.106507 87.578655 
L 481.75426 88.21722 
L 483.412122 83.750327 
L 485.069983 87.578655 
L 486.717736 85.664491 
L 488.375598 84.388892 
L 490.03346 85.025926 
L 491.691322 86.303056 
L 491.691322 86.303056 
" clip-path="url(#pdb93306779)" style="fill: none; stroke: #31688e; stroke-width: 2; stroke-linecap: round"/>
   </g>
   <g id="line2d_39">
    <path d="M 68.117753 262.406166 
L 69.775615 285.376136 
L 71.433476 286.651736 
L 73.081229 275.805315 
L 74.739091 272.614021 
L 76.396953 266.871528 
L 78.044706 262.406166 
L 79.702567 257.300707 
L 83.008182 254.749509 
L 84.666044 247.092852 
L 86.323905 246.454287 
L 87.971658 243.264523 
L 89.62952 242.625958 
L 91.287382 240.073229 
L 92.935135 238.79763 
L 94.592996 236.2449 
L 96.250858 236.883465 
L 97.898611 233.693702 
L 99.556473 233.693702 
L 101.214334 227.951209 
L 102.862087 226.674079 
L 104.519949 224.122881 
L 106.177811 222.208717 
L 107.825564 222.208717 
L 109.483425 219.655987 
L 111.141287 218.380388 
L 112.78904 216.466224 
L 114.446902 213.274929 
L 116.104763 210.723731 
L 117.752516 209.446601 
L 119.410378 208.809567 
L 121.06824 207.532437 
L 122.715993 207.532437 
L 124.373854 205.618272 
L 126.031716 204.342673 
L 127.679469 204.342673 
L 129.337331 202.428509 
L 130.995192 202.428509 
L 134.300807 198.600181 
L 135.958669 197.324582 
L 137.606422 197.324582 
L 139.264283 196.686017 
L 140.922145 195.410417 
L 142.569898 195.410417 
L 144.22776 193.496253 
L 147.533374 192.219123 
L 149.191236 192.219123 
L 152.50696 189.667925 
L 154.154712 187.753761 
L 155.812574 187.753761 
L 157.470436 189.02936 
L 159.118189 185.201031 
L 160.776051 183.925432 
L 162.433912 184.562466 
L 164.081665 182.011268 
L 165.739527 182.648302 
L 167.397389 182.011268 
L 169.045141 179.458538 
L 170.703003 180.097104 
L 174.008618 180.097104 
L 175.66648 179.458538 
L 177.324341 179.458538 
L 178.972094 177.544374 
L 180.629956 179.458538 
L 182.287818 178.182939 
L 185.593432 176.905809 
L 187.251294 174.991645 
L 188.899047 176.905809 
L 190.556909 175.63021 
L 192.21477 175.63021 
L 193.862523 176.268775 
L 195.520385 174.354611 
L 197.178247 173.716046 
L 198.826 174.991645 
L 200.483861 171.801881 
L 202.141723 172.440447 
L 203.789476 170.526282 
L 205.447338 169.249152 
L 207.105199 167.334988 
L 208.752952 168.612118 
L 210.410814 166.697954 
L 212.068676 167.973553 
L 213.716429 166.059389 
L 217.032152 167.334988 
L 218.679905 166.059389 
L 220.337767 166.059389 
L 221.995628 165.420824 
L 223.643381 165.420824 
L 225.301243 164.78379 
L 226.959105 163.506659 
L 228.606858 162.869625 
L 230.264719 163.506659 
L 231.922581 163.506659 
L 233.570334 162.23106 
L 235.228196 162.869625 
L 236.886057 162.23106 
L 238.543919 162.23106 
L 240.191672 162.869625 
L 241.849534 161.592495 
L 243.507396 161.592495 
L 245.155148 160.316896 
L 246.81301 160.955461 
L 248.470872 160.316896 
L 250.118625 160.316896 
L 251.776486 160.955461 
L 253.434348 159.678331 
L 255.082101 157.764167 
L 256.739963 159.041297 
L 258.397825 159.041297 
L 260.045577 157.127133 
L 263.361301 155.850002 
L 265.009054 156.488568 
L 266.666915 155.212969 
L 268.324777 153.298804 
L 269.97253 153.935838 
L 271.630392 153.935838 
L 273.288254 153.298804 
L 274.936006 153.935838 
L 276.593868 152.021674 
L 278.25173 152.660239 
L 279.899483 152.021674 
L 281.557344 152.021674 
L 283.215206 150.746075 
L 284.862959 151.38464 
L 286.520821 150.746075 
L 288.178683 151.38464 
L 289.826435 149.470476 
L 291.484297 150.10751 
L 293.142159 148.193345 
L 294.789912 149.470476 
L 296.447774 150.10751 
L 298.105635 149.470476 
L 299.753388 150.10751 
L 301.41125 147.556312 
L 303.069112 147.556312 
L 304.716864 148.193345 
L 306.374726 149.470476 
L 308.032588 148.831911 
L 309.680341 146.917746 
L 311.338203 148.193345 
L 312.996064 146.279181 
L 316.301679 145.003582 
L 317.959541 146.279181 
L 319.607293 145.642147 
L 321.265155 146.279181 
L 322.923017 143.727983 
L 324.580879 145.003582 
L 326.228632 144.365017 
L 329.544355 141.813819 
L 331.192108 142.450853 
L 336.155584 142.450853 
L 337.813446 140.536689 
L 339.471308 143.727983 
L 341.119061 141.175254 
L 342.776922 142.450853 
L 344.434784 139.899655 
L 346.082537 139.261089 
L 347.740399 140.536689 
L 349.39826 139.899655 
L 351.046013 138.622524 
L 352.703875 139.899655 
L 354.361737 137.98549 
L 356.00949 136.70836 
L 357.667351 137.346925 
L 360.972966 136.071326 
L 362.630828 136.70836 
L 364.288689 135.432761 
L 365.936442 136.071326 
L 369.252166 133.518597 
L 370.899919 134.157162 
L 372.55778 133.518597 
L 374.215642 134.794196 
L 375.863395 130.965867 
L 377.521257 132.242998 
L 379.179119 134.157162 
L 380.826871 132.242998 
L 382.484733 133.518597 
L 384.142595 131.604433 
L 385.790348 132.880032 
L 387.448209 131.604433 
L 389.106071 130.965867 
L 390.753824 133.518597 
L 392.411686 130.965867 
L 394.069548 131.604433 
L 395.7173 130.965867 
L 397.375162 132.242998 
L 399.033024 130.965867 
L 400.680777 130.965867 
L 402.338638 130.328833 
L 403.9965 131.604433 
L 405.644253 130.328833 
L 407.302115 130.965867 
L 408.959977 130.328833 
L 413.923453 130.328833 
L 415.581315 129.051703 
L 417.229068 129.690268 
L 418.886929 129.051703 
L 420.544791 129.051703 
L 422.192544 127.776104 
L 423.850406 129.690268 
L 425.508267 127.776104 
L 427.15602 129.051703 
L 428.813882 128.414669 
L 430.471744 124.586341 
L 432.119497 127.137539 
L 433.777358 127.776104 
L 438.740835 125.86194 
L 440.398696 123.30921 
L 443.704311 125.86194 
L 445.362173 124.586341 
L 447.009926 124.586341 
L 448.667787 125.86194 
L 450.325649 126.500505 
L 451.973402 123.30921 
L 453.631264 122.033611 
L 455.289125 123.947776 
L 456.936878 123.30921 
L 458.59474 123.30921 
L 460.252602 122.033611 
L 461.900355 122.033611 
L 463.558216 121.395046 
L 465.216078 121.395046 
L 466.863831 122.033611 
L 468.521693 122.033611 
L 470.179554 118.843848 
L 471.827307 120.119447 
L 473.485169 120.758012 
L 475.143031 119.480882 
L 476.790784 119.480882 
L 478.448645 120.119447 
L 480.106507 118.843848 
L 481.75426 118.843848 
L 483.412122 117.566718 
L 485.069983 118.205283 
L 488.375598 118.205283 
L 490.03346 119.480882 
L 491.691322 118.843848 
L 491.691322 118.843848 
" clip-path="url(#pdb93306779)" style="fill: none; stroke: #35b779; stroke-width: 2; stroke-linecap: round"/>
   </g>
   <g id="patch_3">
    <path d="M 66.47 339.898723 
L 66.47 7.258723 
" style="fill: none; stroke: #262626; stroke-width: 1.25; stroke-linejoin: miter; stroke-linecap: square"/>
   </g>
   <g id="patch_4">
    <path d="M 512.87 339.898723 
L 512.87 7.258723 
" style="fill: none; stroke: #262626; stroke-width: 1.25; stroke-linejoin: miter; stroke-linecap: square"/>
   </g>
   <g id="patch_5">
    <path d="M 66.47 339.898723 
L 512.87 339.898723 
" style="fill: none; stroke: #262626; stroke-width: 1.25; stroke-linejoin: miter; stroke-linecap: square"/>
   </g>
   <g id="patch_6">
    <path d="M 66.47 7.258723 
L 512.87 7.258723 
" style="fill: none; stroke: #262626; stroke-width: 1.25; stroke-linejoin: miter; stroke-linecap: square"/>
   </g>
  </g>
 </g>
 <defs>
  <clipPath id="pdb93306779">
   <rect x="66.47" y="7.258723" width="446.4" height="332.64"/>
  </clipPath>
 </defs>
</svg>
