<?xml version="1.0" encoding="utf-8" standalone="no"?>
<!DOCTYPE svg PUBLIC "-//W3C//DTD SVG 1.1//EN"
  "http://www.w3.org/Graphics/SVG/1.1/DTD/svg11.dtd">
<svg xmlns:xlink="http://www.w3.org/1999/xlink" width="511.51625pt" height="448.32125pt" viewBox="0 0 511.51625 448.32125" xmlns="http://www.w3.org/2000/svg" version="1.1">
 <metadata>
  <rdf:RDF xmlns:dc="http://purl.org/dc/elements/1.1/" xmlns:cc="http://creativecommons.org/ns#" xmlns:rdf="http://www.w3.org/1999/02/22-rdf-syntax-ns#">
   <cc:Work>
    <dc:type rdf:resource="http://purl.org/dc/dcmitype/StillImage"/>
    <dc:date>2024-02-12T18:20:23.909086</dc:date>
    <dc:format>image/svg+xml</dc:format>
    <dc:creator>
     <cc:Agent>
      <dc:title>Matplotlib v3.8.0, https://matplotlib.org/</dc:title>
     </cc:Agent>
    </dc:creator>
   </cc:Work>
  </rdf:RDF>
 </metadata>
 <defs>
  <style type="text/css">*{stroke-linejoin: round; stroke-linecap: butt}</style>
 </defs>
 <g id="figure_1">
  <g id="patch_1">
   <path d="M 0 448.32125 
L 511.51625 448.32125 
L 511.51625 0 
L 0 0 
z
" style="fill: #ffffff"/>
  </g>
  <g id="axes_1">
   <g id="patch_2">
    <path d="M 57.91625 395.28 
L 504.31625 395.28 
L 504.31625 7.2 
L 57.91625 7.2 
z
" style="fill: #ffffff"/>
   </g>
   <g id="PolyCollection_1">
    <path d="M 82.991314 759.373501 
L 82.991314 759.373501 
L 95.528847 759.373501 
L 108.066379 759.373501 
L 120.603911 250.098888 
L 133.151579 45.987384 
L 145.689111 150.881565 
L 158.226643 178.139011 
L 170.764175 211.71362 
L 183.301708 225.27715 
L 195.83924 239.851266 
L 208.386907 264.080204 
L 220.92444 267.066708 
L 233.461972 276.377626 
L 245.999504 275.936588 
L 258.537036 289.127711 
L 271.084704 292.362987 
L 283.622236 309.225673 
L 296.159768 310.927818 
L 308.697301 306.137035 
L 321.234833 315.167429 
L 333.772365 313.885069 
L 346.320033 323.626724 
L 358.857565 324.609758 
L 371.395097 329.662663 
L 383.932629 326.283125 
L 396.470161 336.038493 
L 409.007694 335.165044 
L 421.555361 331.491819 
L 434.092894 336.172467 
L 446.630426 335.402452 
L 459.167958 334.727094 
L 471.70549 343.203003 
L 484.253158 335.624546 
L 484.253158 367.428003 
L 484.253158 367.428003 
L 471.70549 364.537445 
L 459.167958 371.450721 
L 446.630426 356.190372 
L 434.092894 362.192183 
L 421.555361 366.351537 
L 409.007694 360.07434 
L 396.470161 358.679596 
L 383.932629 350.725956 
L 371.395097 361.93016 
L 358.857565 349.274058 
L 346.320033 348.173164 
L 333.772365 345.413754 
L 321.234833 343.6101 
L 308.697301 336.49412 
L 296.159768 343.683107 
L 283.622236 339.134719 
L 271.084704 324.22345 
L 258.537036 320.688149 
L 245.999504 310.95982 
L 233.461972 309.998739 
L 220.92444 300.55806 
L 208.386907 302.501975 
L 195.83924 273.601389 
L 183.301708 275.674441 
L 170.764175 259.547943 
L 158.226643 222.28402 
L 145.689111 214.642244 
L 133.151579 125.244882 
L 120.603911 821.735061 
L 108.066379 759.373501 
L 95.528847 759.373501 
L 82.991314 759.373501 
z
" clip-path="url(#p9d06c85969)" style="fill: #31688e; fill-opacity: 0.4; stroke: #31688e; stroke-opacity: 0.4"/>
   </g>
   <g id="PolyCollection_2">
    <defs>
     <path id="m34d05a0352" d="M 82.991314 -217.63789 
L 82.991314 -253.5807 
L 95.528847 -158.931341 
L 108.066379 -120.424762 
L 120.603911 -106.045626 
L 133.151579 -95.793478 
L 145.689111 -88.704874 
L 158.226643 -84.944154 
L 170.764175 -83.292413 
L 183.301708 -79.001798 
L 195.83924 -78.791268 
L 208.386907 -78.510231 
L 220.92444 -73.881062 
L 233.461972 -71.385737 
L 245.999504 -75.785849 
L 258.537036 -70.98374 
L 271.084704 -70.077751 
L 283.622236 -75.15282 
L 296.159768 -70.297207 
L 308.697301 -69.508477 
L 321.234833 -68.029614 
L 333.772365 -67.883564 
L 346.320033 -68.584661 
L 358.857565 -66.225098 
L 371.395097 -65.717554 
L 383.932629 -64.926725 
L 396.470161 -64.733208 
L 409.007694 -65.242089 
L 421.555361 -67.088071 
L 434.092894 -65.004144 
L 446.630426 -65.135205 
L 459.167958 -65.367275 
L 471.70549 -64.886559 
L 484.253158 -64.177823 
L 484.253158 -58.052302 
L 484.253158 -58.052302 
L 471.70549 -57.864861 
L 459.167958 -56.86285 
L 446.630426 -56.053581 
L 434.092894 -56.704687 
L 421.555361 -58.788614 
L 409.007694 -58.029375 
L 396.470161 -56.975622 
L 383.932629 -58.344739 
L 371.395097 -57.033865 
L 358.857565 -58.608999 
L 346.320033 -60.417291 
L 333.772365 -59.03446 
L 321.234833 -57.847072 
L 308.697301 -62.097446 
L 296.159768 -63.392644 
L 283.622236 -62.703635 
L 271.084704 -62.569511 
L 258.537036 -63.226155 
L 245.999504 -66.237211 
L 233.461972 -62.304114 
L 220.92444 -65.538027 
L 208.386907 -67.680684 
L 195.83924 -68.440986 
L 183.301708 -70.834428 
L 170.764175 -72.794344 
L 158.226643 -75.310459 
L 145.689111 -77.800271 
L 133.151579 -85.295409 
L 120.603911 -94.316152 
L 108.066379 -105.980483 
L 95.528847 -140.397613 
L 82.991314 -217.63789 
z
" style="stroke: #35b779; stroke-opacity: 0.4"/>
    </defs>
    <g clip-path="url(#p9d06c85969)">
     <use xlink:href="#m34d05a0352" x="0" y="448.32125" style="fill: #35b779; fill-opacity: 0.4; stroke: #35b779; stroke-opacity: 0.4"/>
    </g>
   </g>
   <g id="PolyCollection_3">
    <defs>
     <path id="m3855751c5d" d="M 82.991314 -276.753248 
L 82.991314 -291.347341 
L 95.528847 -152.819496 
L 108.066379 -80.301921 
L 120.603911 -71.590529 
L 133.151579 -67.182342 
L 145.689111 -65.619709 
L 158.226643 -65.013207 
L 170.764175 -62.152513 
L 183.301708 -59.205975 
L 195.83924 -60.387976 
L 208.386907 -61.108462 
L 220.92444 -60.719329 
L 233.461972 -59.205975 
L 245.999504 -57.285249 
L 258.537036 -57.985909 
L 271.084704 -57.615502 
L 283.622236 -57.594063 
L 296.159768 -56.885327 
L 308.697301 -57.644367 
L 321.234833 -56.052869 
L 333.772365 -55.624107 
L 346.320033 -55.102813 
L 358.857565 -56.065357 
L 371.395097 -55.901981 
L 383.932629 -56.052869 
L 396.470161 -56.065357 
L 409.007694 -54.339348 
L 421.555361 -55.439392 
L 434.092894 -55.102813 
L 446.630426 -53.903311 
L 459.167958 -53.54018 
L 471.70549 -55.127003 
L 484.253158 -55.659298 
L 484.253158 -48.860569 
L 484.253158 -48.860569 
L 471.70549 -50.955497 
L 459.167958 -48.89576 
L 446.630426 -50.095262 
L 434.092894 -50.458393 
L 421.555361 -49.60177 
L 409.007694 -48.096591 
L 396.470161 -51.579776 
L 383.932629 -50.550925 
L 371.395097 -49.659225 
L 358.857565 -51.579776 
L 346.320033 -50.458393 
L 333.772365 -50.979687 
L 321.234833 -50.550925 
L 308.697301 -51.563399 
L 296.159768 -50.759806 
L 283.622236 -50.572365 
L 271.084704 -52.113559 
L 258.537036 -51.743152 
L 245.999504 -51.401223 
L 233.461972 -54.168396 
L 220.92444 -53.697631 
L 208.386907 -54.349836 
L 195.83924 -55.070323 
L 183.301708 -54.168396 
L 170.764175 -55.909757 
L 158.226643 -56.174329 
L 145.689111 -59.735683 
L 133.151579 -61.298316 
L 120.603911 -62.619366 
L 108.066379 -71.618232 
L 95.528847 -67.856511 
L 82.991314 -276.753248 
z
" style="stroke: #fde725; stroke-opacity: 0.4"/>
    </defs>
    <g clip-path="url(#p9d06c85969)">
     <use xlink:href="#m3855751c5d" x="0" y="448.32125" style="fill: #fde725; fill-opacity: 0.4; stroke: #fde725; stroke-opacity: 0.4"/>
    </g>
   </g>
   <g id="matplotlib.axis_1">
    <g id="xtick_1">
     <g id="line2d_1">
      <path d="M 57.91625 395.28 
L 57.91625 7.2 
" clip-path="url(#p9d06c85969)" style="fill: none; stroke: #b0b0b0; stroke-width: 0.8; stroke-linecap: square"/>
     </g>
     <g id="line2d_2">
      <defs>
       <path id="mdee7f46b6b" d="M 0 0 
L 0 3.5 
" style="stroke: #000000; stroke-width: 0.8"/>
      </defs>
      <g>
       <use xlink:href="#mdee7f46b6b" x="57.91625" y="395.28" style="stroke: #000000; stroke-width: 0.8"/>
      </g>
     </g>
     <g id="text_1">
      <!-- 0 -->
      <g transform="translate(52.82625 414.4375) scale(0.16 -0.16)">
       <defs>
        <path id="DejaVuSans-30" d="M 2034 4250 
Q 1547 4250 1301 3770 
Q 1056 3291 1056 2328 
Q 1056 1369 1301 889 
Q 1547 409 2034 409 
Q 2525 409 2770 889 
Q 3016 1369 3016 2328 
Q 3016 3291 2770 3770 
Q 2525 4250 2034 4250 
z
M 2034 4750 
Q 2819 4750 3233 4129 
Q 3647 3509 3647 2328 
Q 3647 1150 3233 529 
Q 2819 -91 2034 -91 
Q 1250 -91 836 529 
Q 422 1150 422 2328 
Q 422 3509 836 4129 
Q 1250 4750 2034 4750 
z
" transform="scale(0.015625)"/>
       </defs>
       <use xlink:href="#DejaVuSans-30"/>
      </g>
     </g>
    </g>
    <g id="xtick_2">
     <g id="line2d_3">
      <path d="M 108.593421 395.28 
L 108.593421 7.2 
" clip-path="url(#p9d06c85969)" style="fill: none; stroke: #b0b0b0; stroke-width: 0.8; stroke-linecap: square"/>
     </g>
     <g id="line2d_4">
      <g>
       <use xlink:href="#mdee7f46b6b" x="108.593421" y="395.28" style="stroke: #000000; stroke-width: 0.8"/>
      </g>
     </g>
     <g id="text_2">
      <!-- 5 -->
      <g transform="translate(103.503421 414.4375) scale(0.16 -0.16)">
       <defs>
        <path id="DejaVuSans-35" d="M 691 4666 
L 3169 4666 
L 3169 4134 
L 1269 4134 
L 1269 2991 
Q 1406 3038 1543 3061 
Q 1681 3084 1819 3084 
Q 2600 3084 3056 2656 
Q 3513 2228 3513 1497 
Q 3513 744 3044 326 
Q 2575 -91 1722 -91 
Q 1428 -91 1123 -41 
Q 819 9 494 109 
L 494 744 
Q 775 591 1075 516 
Q 1375 441 1709 441 
Q 2250 441 2565 725 
Q 2881 1009 2881 1497 
Q 2881 1984 2565 2268 
Q 2250 2553 1709 2553 
Q 1456 2553 1204 2497 
Q 953 2441 691 2322 
L 691 4666 
z
" transform="scale(0.015625)"/>
       </defs>
       <use xlink:href="#DejaVuSans-35"/>
      </g>
     </g>
    </g>
    <g id="xtick_3">
     <g id="line2d_5">
      <path d="M 159.270593 395.28 
L 159.270593 7.2 
" clip-path="url(#p9d06c85969)" style="fill: none; stroke: #b0b0b0; stroke-width: 0.8; stroke-linecap: square"/>
     </g>
     <g id="line2d_6">
      <g>
       <use xlink:href="#mdee7f46b6b" x="159.270593" y="395.28" style="stroke: #000000; stroke-width: 0.8"/>
      </g>
     </g>
     <g id="text_3">
      <!-- 10 -->
      <g transform="translate(149.090593 414.4375) scale(0.16 -0.16)">
       <defs>
        <path id="DejaVuSans-31" d="M 794 531 
L 1825 531 
L 1825 4091 
L 703 3866 
L 703 4441 
L 1819 4666 
L 2450 4666 
L 2450 531 
L 3481 531 
L 3481 0 
L 794 0 
L 794 531 
z
" transform="scale(0.015625)"/>
       </defs>
       <use xlink:href="#DejaVuSans-31"/>
       <use xlink:href="#DejaVuSans-30" x="63.623047"/>
      </g>
     </g>
    </g>
    <g id="xtick_4">
     <g id="line2d_7">
      <path d="M 209.947764 395.28 
L 209.947764 7.2 
" clip-path="url(#p9d06c85969)" style="fill: none; stroke: #b0b0b0; stroke-width: 0.8; stroke-linecap: square"/>
     </g>
     <g id="line2d_8">
      <g>
       <use xlink:href="#mdee7f46b6b" x="209.947764" y="395.28" style="stroke: #000000; stroke-width: 0.8"/>
      </g>
     </g>
     <g id="text_4">
      <!-- 15 -->
      <g transform="translate(199.767764 414.4375) scale(0.16 -0.16)">
       <use xlink:href="#DejaVuSans-31"/>
       <use xlink:href="#DejaVuSans-35" x="63.623047"/>
      </g>
     </g>
    </g>
    <g id="xtick_5">
     <g id="line2d_9">
      <path d="M 260.624936 395.28 
L 260.624936 7.2 
" clip-path="url(#p9d06c85969)" style="fill: none; stroke: #b0b0b0; stroke-width: 0.8; stroke-linecap: square"/>
     </g>
     <g id="line2d_10">
      <g>
       <use xlink:href="#mdee7f46b6b" x="260.624936" y="395.28" style="stroke: #000000; stroke-width: 0.8"/>
      </g>
     </g>
     <g id="text_5">
      <!-- 20 -->
      <g transform="translate(250.444936 414.4375) scale(0.16 -0.16)">
       <defs>
        <path id="DejaVuSans-32" d="M 1228 531 
L 3431 531 
L 3431 0 
L 469 0 
L 469 531 
Q 828 903 1448 1529 
Q 2069 2156 2228 2338 
Q 2531 2678 2651 2914 
Q 2772 3150 2772 3378 
Q 2772 3750 2511 3984 
Q 2250 4219 1831 4219 
Q 1534 4219 1204 4116 
Q 875 4013 500 3803 
L 500 4441 
Q 881 4594 1212 4672 
Q 1544 4750 1819 4750 
Q 2544 4750 2975 4387 
Q 3406 4025 3406 3419 
Q 3406 3131 3298 2873 
Q 3191 2616 2906 2266 
Q 2828 2175 2409 1742 
Q 1991 1309 1228 531 
z
" transform="scale(0.015625)"/>
       </defs>
       <use xlink:href="#DejaVuSans-32"/>
       <use xlink:href="#DejaVuSans-30" x="63.623047"/>
      </g>
     </g>
    </g>
    <g id="xtick_6">
     <g id="line2d_11">
      <path d="M 311.302107 395.28 
L 311.302107 7.2 
" clip-path="url(#p9d06c85969)" style="fill: none; stroke: #b0b0b0; stroke-width: 0.8; stroke-linecap: square"/>
     </g>
     <g id="line2d_12">
      <g>
       <use xlink:href="#mdee7f46b6b" x="311.302107" y="395.28" style="stroke: #000000; stroke-width: 0.8"/>
      </g>
     </g>
     <g id="text_6">
      <!-- 25 -->
      <g transform="translate(301.122107 414.4375) scale(0.16 -0.16)">
       <use xlink:href="#DejaVuSans-32"/>
       <use xlink:href="#DejaVuSans-35" x="63.623047"/>
      </g>
     </g>
    </g>
    <g id="xtick_7">
     <g id="line2d_13">
      <path d="M 361.979279 395.28 
L 361.979279 7.2 
" clip-path="url(#p9d06c85969)" style="fill: none; stroke: #b0b0b0; stroke-width: 0.8; stroke-linecap: square"/>
     </g>
     <g id="line2d_14">
      <g>
       <use xlink:href="#mdee7f46b6b" x="361.979279" y="395.28" style="stroke: #000000; stroke-width: 0.8"/>
      </g>
     </g>
     <g id="text_7">
      <!-- 30 -->
      <g transform="translate(351.799279 414.4375) scale(0.16 -0.16)">
       <defs>
        <path id="DejaVuSans-33" d="M 2597 2516 
Q 3050 2419 3304 2112 
Q 3559 1806 3559 1356 
Q 3559 666 3084 287 
Q 2609 -91 1734 -91 
Q 1441 -91 1130 -33 
Q 819 25 488 141 
L 488 750 
Q 750 597 1062 519 
Q 1375 441 1716 441 
Q 2309 441 2620 675 
Q 2931 909 2931 1356 
Q 2931 1769 2642 2001 
Q 2353 2234 1838 2234 
L 1294 2234 
L 1294 2753 
L 1863 2753 
Q 2328 2753 2575 2939 
Q 2822 3125 2822 3475 
Q 2822 3834 2567 4026 
Q 2313 4219 1838 4219 
Q 1578 4219 1281 4162 
Q 984 4106 628 3988 
L 628 4550 
Q 988 4650 1302 4700 
Q 1616 4750 1894 4750 
Q 2613 4750 3031 4423 
Q 3450 4097 3450 3541 
Q 3450 3153 3228 2886 
Q 3006 2619 2597 2516 
z
" transform="scale(0.015625)"/>
       </defs>
       <use xlink:href="#DejaVuSans-33"/>
       <use xlink:href="#DejaVuSans-30" x="63.623047"/>
      </g>
     </g>
    </g>
    <g id="xtick_8">
     <g id="line2d_15">
      <path d="M 412.65645 395.28 
L 412.65645 7.2 
" clip-path="url(#p9d06c85969)" style="fill: none; stroke: #b0b0b0; stroke-width: 0.8; stroke-linecap: square"/>
     </g>
     <g id="line2d_16">
      <g>
       <use xlink:href="#mdee7f46b6b" x="412.65645" y="395.28" style="stroke: #000000; stroke-width: 0.8"/>
      </g>
     </g>
     <g id="text_8">
      <!-- 35 -->
      <g transform="translate(402.47645 414.4375) scale(0.16 -0.16)">
       <use xlink:href="#DejaVuSans-33"/>
       <use xlink:href="#DejaVuSans-35" x="63.623047"/>
      </g>
     </g>
    </g>
    <g id="xtick_9">
     <g id="line2d_17">
      <path d="M 463.333621 395.28 
L 463.333621 7.2 
" clip-path="url(#p9d06c85969)" style="fill: none; stroke: #b0b0b0; stroke-width: 0.8; stroke-linecap: square"/>
     </g>
     <g id="line2d_18">
      <g>
       <use xlink:href="#mdee7f46b6b" x="463.333621" y="395.28" style="stroke: #000000; stroke-width: 0.8"/>
      </g>
     </g>
     <g id="text_9">
      <!-- 40 -->
      <g transform="translate(453.153621 414.4375) scale(0.16 -0.16)">
       <defs>
        <path id="DejaVuSans-34" d="M 2419 4116 
L 825 1625 
L 2419 1625 
L 2419 4116 
z
M 2253 4666 
L 3047 4666 
L 3047 1625 
L 3713 1625 
L 3713 1100 
L 3047 1100 
L 3047 0 
L 2419 0 
L 2419 1100 
L 313 1100 
L 313 1709 
L 2253 4666 
z
" transform="scale(0.015625)"/>
       </defs>
       <use xlink:href="#DejaVuSans-34"/>
       <use xlink:href="#DejaVuSans-30" x="63.623047"/>
      </g>
     </g>
    </g>
    <g id="text_10">
     <!-- Links -->
     <g transform="translate(255.42875 436.961875) scale(0.2 -0.2)">
      <defs>
       <path id="DejaVuSans-4c" d="M 628 4666 
L 1259 4666 
L 1259 531 
L 3531 531 
L 3531 0 
L 628 0 
L 628 4666 
z
" transform="scale(0.015625)"/>
       <path id="DejaVuSans-69" d="M 603 3500 
L 1178 3500 
L 1178 0 
L 603 0 
L 603 3500 
z
M 603 4863 
L 1178 4863 
L 1178 4134 
L 603 4134 
L 603 4863 
z
" transform="scale(0.015625)"/>
       <path id="DejaVuSans-6e" d="M 3513 2113 
L 3513 0 
L 2938 0 
L 2938 2094 
Q 2938 2591 2744 2837 
Q 2550 3084 2163 3084 
Q 1697 3084 1428 2787 
Q 1159 2491 1159 1978 
L 1159 0 
L 581 0 
L 581 3500 
L 1159 3500 
L 1159 2956 
Q 1366 3272 1645 3428 
Q 1925 3584 2291 3584 
Q 2894 3584 3203 3211 
Q 3513 2838 3513 2113 
z
" transform="scale(0.015625)"/>
       <path id="DejaVuSans-6b" d="M 581 4863 
L 1159 4863 
L 1159 1991 
L 2875 3500 
L 3609 3500 
L 1753 1863 
L 3688 0 
L 2938 0 
L 1159 1709 
L 1159 0 
L 581 0 
L 581 4863 
z
" transform="scale(0.015625)"/>
       <path id="DejaVuSans-73" d="M 2834 3397 
L 2834 2853 
Q 2591 2978 2328 3040 
Q 2066 3103 1784 3103 
Q 1356 3103 1142 2972 
Q 928 2841 928 2578 
Q 928 2378 1081 2264 
Q 1234 2150 1697 2047 
L 1894 2003 
Q 2506 1872 2764 1633 
Q 3022 1394 3022 966 
Q 3022 478 2636 193 
Q 2250 -91 1575 -91 
Q 1294 -91 989 -36 
Q 684 19 347 128 
L 347 722 
Q 666 556 975 473 
Q 1284 391 1588 391 
Q 1994 391 2212 530 
Q 2431 669 2431 922 
Q 2431 1156 2273 1281 
Q 2116 1406 1581 1522 
L 1381 1569 
Q 847 1681 609 1914 
Q 372 2147 372 2553 
Q 372 3047 722 3315 
Q 1072 3584 1716 3584 
Q 2034 3584 2315 3537 
Q 2597 3491 2834 3397 
z
" transform="scale(0.015625)"/>
      </defs>
      <use xlink:href="#DejaVuSans-4c"/>
      <use xlink:href="#DejaVuSans-69" x="55.712891"/>
      <use xlink:href="#DejaVuSans-6e" x="83.496094"/>
      <use xlink:href="#DejaVuSans-6b" x="146.875"/>
      <use xlink:href="#DejaVuSans-73" x="204.785156"/>
     </g>
    </g>
    <g id="text_11">
     <!-- 1e3 -->
     <g transform="translate(485.438125 428.363438) scale(0.1 -0.1)">
      <defs>
       <path id="DejaVuSans-65" d="M 3597 1894 
L 3597 1613 
L 953 1613 
Q 991 1019 1311 708 
Q 1631 397 2203 397 
Q 2534 397 2845 478 
Q 3156 559 3463 722 
L 3463 178 
Q 3153 47 2828 -22 
Q 2503 -91 2169 -91 
Q 1331 -91 842 396 
Q 353 884 353 1716 
Q 353 2575 817 3079 
Q 1281 3584 2069 3584 
Q 2775 3584 3186 3129 
Q 3597 2675 3597 1894 
z
M 3022 2063 
Q 3016 2534 2758 2815 
Q 2500 3097 2075 3097 
Q 1594 3097 1305 2825 
Q 1016 2553 972 2059 
L 3022 2063 
z
" transform="scale(0.015625)"/>
      </defs>
      <use xlink:href="#DejaVuSans-31"/>
      <use xlink:href="#DejaVuSans-65" x="63.623047"/>
      <use xlink:href="#DejaVuSans-33" x="125.146484"/>
     </g>
    </g>
   </g>
   <g id="matplotlib.axis_2">
    <g id="ytick_1">
     <g id="line2d_19">
      <path d="M 57.91625 395.28 
L 504.31625 395.28 
" clip-path="url(#p9d06c85969)" style="fill: none; stroke: #b0b0b0; stroke-width: 0.8; stroke-linecap: square"/>
     </g>
     <g id="line2d_20">
      <defs>
       <path id="mdf99e6d5c9" d="M 0 0 
L -3.5 0 
" style="stroke: #000000; stroke-width: 0.8"/>
      </defs>
      <g>
       <use xlink:href="#mdf99e6d5c9" x="57.91625" y="395.28" style="stroke: #000000; stroke-width: 0.8"/>
      </g>
     </g>
     <g id="text_12">
      <!-- 0 -->
      <g transform="translate(40.73625 401.35875) scale(0.16 -0.16)">
       <use xlink:href="#DejaVuSans-30"/>
      </g>
     </g>
    </g>
    <g id="ytick_2">
     <g id="line2d_21">
      <path d="M 57.91625 332.774678 
L 504.31625 332.774678 
" clip-path="url(#p9d06c85969)" style="fill: none; stroke: #b0b0b0; stroke-width: 0.8; stroke-linecap: square"/>
     </g>
     <g id="line2d_22">
      <g>
       <use xlink:href="#mdf99e6d5c9" x="57.91625" y="332.774678" style="stroke: #000000; stroke-width: 0.8"/>
      </g>
     </g>
     <g id="text_13">
      <!-- 10 -->
      <g transform="translate(30.55625 338.853428) scale(0.16 -0.16)">
       <use xlink:href="#DejaVuSans-31"/>
       <use xlink:href="#DejaVuSans-30" x="63.623047"/>
      </g>
     </g>
    </g>
    <g id="ytick_3">
     <g id="line2d_23">
      <path d="M 57.91625 270.269356 
L 504.31625 270.269356 
" clip-path="url(#p9d06c85969)" style="fill: none; stroke: #b0b0b0; stroke-width: 0.8; stroke-linecap: square"/>
     </g>
     <g id="line2d_24">
      <g>
       <use xlink:href="#mdf99e6d5c9" x="57.91625" y="270.269356" style="stroke: #000000; stroke-width: 0.8"/>
      </g>
     </g>
     <g id="text_14">
      <!-- 20 -->
      <g transform="translate(30.55625 276.348106) scale(0.16 -0.16)">
       <use xlink:href="#DejaVuSans-32"/>
       <use xlink:href="#DejaVuSans-30" x="63.623047"/>
      </g>
     </g>
    </g>
    <g id="ytick_4">
     <g id="line2d_25">
      <path d="M 57.91625 207.764034 
L 504.31625 207.764034 
" clip-path="url(#p9d06c85969)" style="fill: none; stroke: #b0b0b0; stroke-width: 0.8; stroke-linecap: square"/>
     </g>
     <g id="line2d_26">
      <g>
       <use xlink:href="#mdf99e6d5c9" x="57.91625" y="207.764034" style="stroke: #000000; stroke-width: 0.8"/>
      </g>
     </g>
     <g id="text_15">
      <!-- 30 -->
      <g transform="translate(30.55625 213.842784) scale(0.16 -0.16)">
       <use xlink:href="#DejaVuSans-33"/>
       <use xlink:href="#DejaVuSans-30" x="63.623047"/>
      </g>
     </g>
    </g>
    <g id="ytick_5">
     <g id="line2d_27">
      <path d="M 57.91625 145.258712 
L 504.31625 145.258712 
" clip-path="url(#p9d06c85969)" style="fill: none; stroke: #b0b0b0; stroke-width: 0.8; stroke-linecap: square"/>
     </g>
     <g id="line2d_28">
      <g>
       <use xlink:href="#mdf99e6d5c9" x="57.91625" y="145.258712" style="stroke: #000000; stroke-width: 0.8"/>
      </g>
     </g>
     <g id="text_16">
      <!-- 40 -->
      <g transform="translate(30.55625 151.337462) scale(0.16 -0.16)">
       <use xlink:href="#DejaVuSans-34"/>
       <use xlink:href="#DejaVuSans-30" x="63.623047"/>
      </g>
     </g>
    </g>
    <g id="ytick_6">
     <g id="line2d_29">
      <path d="M 57.91625 82.753389 
L 504.31625 82.753389 
" clip-path="url(#p9d06c85969)" style="fill: none; stroke: #b0b0b0; stroke-width: 0.8; stroke-linecap: square"/>
     </g>
     <g id="line2d_30">
      <g>
       <use xlink:href="#mdf99e6d5c9" x="57.91625" y="82.753389" style="stroke: #000000; stroke-width: 0.8"/>
      </g>
     </g>
     <g id="text_17">
      <!-- 50 -->
      <g transform="translate(30.55625 88.832139) scale(0.16 -0.16)">
       <use xlink:href="#DejaVuSans-35"/>
       <use xlink:href="#DejaVuSans-30" x="63.623047"/>
      </g>
     </g>
    </g>
    <g id="ytick_7">
     <g id="line2d_31">
      <path d="M 57.91625 20.248067 
L 504.31625 20.248067 
" clip-path="url(#p9d06c85969)" style="fill: none; stroke: #b0b0b0; stroke-width: 0.8; stroke-linecap: square"/>
     </g>
     <g id="line2d_32">
      <g>
       <use xlink:href="#mdf99e6d5c9" x="57.91625" y="20.248067" style="stroke: #000000; stroke-width: 0.8"/>
      </g>
     </g>
     <g id="text_18">
      <!-- 60 -->
      <g transform="translate(30.55625 26.326817) scale(0.16 -0.16)">
       <defs>
        <path id="DejaVuSans-36" d="M 2113 2584 
Q 1688 2584 1439 2293 
Q 1191 2003 1191 1497 
Q 1191 994 1439 701 
Q 1688 409 2113 409 
Q 2538 409 2786 701 
Q 3034 994 3034 1497 
Q 3034 2003 2786 2293 
Q 2538 2584 2113 2584 
z
M 3366 4563 
L 3366 3988 
Q 3128 4100 2886 4159 
Q 2644 4219 2406 4219 
Q 1781 4219 1451 3797 
Q 1122 3375 1075 2522 
Q 1259 2794 1537 2939 
Q 1816 3084 2150 3084 
Q 2853 3084 3261 2657 
Q 3669 2231 3669 1497 
Q 3669 778 3244 343 
Q 2819 -91 2113 -91 
Q 1303 -91 875 529 
Q 447 1150 447 2328 
Q 447 3434 972 4092 
Q 1497 4750 2381 4750 
Q 2619 4750 2861 4703 
Q 3103 4656 3366 4563 
z
" transform="scale(0.015625)"/>
       </defs>
       <use xlink:href="#DejaVuSans-36"/>
       <use xlink:href="#DejaVuSans-30" x="63.623047"/>
      </g>
     </g>
    </g>
    <g id="text_19">
     <!-- EPT(tests) - EPT(tests=0) -->
     <g transform="translate(22.396875 327.29) rotate(-90) scale(0.2 -0.2)">
      <defs>
       <path id="DejaVuSans-45" d="M 628 4666 
L 3578 4666 
L 3578 4134 
L 1259 4134 
L 1259 2753 
L 3481 2753 
L 3481 2222 
L 1259 2222 
L 1259 531 
L 3634 531 
L 3634 0 
L 628 0 
L 628 4666 
z
" transform="scale(0.015625)"/>
       <path id="DejaVuSans-50" d="M 1259 4147 
L 1259 2394 
L 2053 2394 
Q 2494 2394 2734 2622 
Q 2975 2850 2975 3272 
Q 2975 3691 2734 3919 
Q 2494 4147 2053 4147 
L 1259 4147 
z
M 628 4666 
L 2053 4666 
Q 2838 4666 3239 4311 
Q 3641 3956 3641 3272 
Q 3641 2581 3239 2228 
Q 2838 1875 2053 1875 
L 1259 1875 
L 1259 0 
L 628 0 
L 628 4666 
z
" transform="scale(0.015625)"/>
       <path id="DejaVuSans-54" d="M -19 4666 
L 3928 4666 
L 3928 4134 
L 2272 4134 
L 2272 0 
L 1638 0 
L 1638 4134 
L -19 4134 
L -19 4666 
z
" transform="scale(0.015625)"/>
       <path id="DejaVuSans-28" d="M 1984 4856 
Q 1566 4138 1362 3434 
Q 1159 2731 1159 2009 
Q 1159 1288 1364 580 
Q 1569 -128 1984 -844 
L 1484 -844 
Q 1016 -109 783 600 
Q 550 1309 550 2009 
Q 550 2706 781 3412 
Q 1013 4119 1484 4856 
L 1984 4856 
z
" transform="scale(0.015625)"/>
       <path id="DejaVuSans-74" d="M 1172 4494 
L 1172 3500 
L 2356 3500 
L 2356 3053 
L 1172 3053 
L 1172 1153 
Q 1172 725 1289 603 
Q 1406 481 1766 481 
L 2356 481 
L 2356 0 
L 1766 0 
Q 1100 0 847 248 
Q 594 497 594 1153 
L 594 3053 
L 172 3053 
L 172 3500 
L 594 3500 
L 594 4494 
L 1172 4494 
z
" transform="scale(0.015625)"/>
       <path id="DejaVuSans-29" d="M 513 4856 
L 1013 4856 
Q 1481 4119 1714 3412 
Q 1947 2706 1947 2009 
Q 1947 1309 1714 600 
Q 1481 -109 1013 -844 
L 513 -844 
Q 928 -128 1133 580 
Q 1338 1288 1338 2009 
Q 1338 2731 1133 3434 
Q 928 4138 513 4856 
z
" transform="scale(0.015625)"/>
       <path id="DejaVuSans-20" transform="scale(0.015625)"/>
       <path id="DejaVuSans-2d" d="M 313 2009 
L 1997 2009 
L 1997 1497 
L 313 1497 
L 313 2009 
z
" transform="scale(0.015625)"/>
       <path id="DejaVuSans-3d" d="M 678 2906 
L 4684 2906 
L 4684 2381 
L 678 2381 
L 678 2906 
z
M 678 1631 
L 4684 1631 
L 4684 1100 
L 678 1100 
L 678 1631 
z
" transform="scale(0.015625)"/>
      </defs>
      <use xlink:href="#DejaVuSans-45"/>
      <use xlink:href="#DejaVuSans-50" x="63.183594"/>
      <use xlink:href="#DejaVuSans-54" x="123.486328"/>
      <use xlink:href="#DejaVuSans-28" x="184.570312"/>
      <use xlink:href="#DejaVuSans-74" x="223.583984"/>
      <use xlink:href="#DejaVuSans-65" x="262.792969"/>
      <use xlink:href="#DejaVuSans-73" x="324.316406"/>
      <use xlink:href="#DejaVuSans-74" x="376.416016"/>
      <use xlink:href="#DejaVuSans-73" x="415.625"/>
      <use xlink:href="#DejaVuSans-29" x="467.724609"/>
      <use xlink:href="#DejaVuSans-20" x="506.738281"/>
      <use xlink:href="#DejaVuSans-2d" x="538.525391"/>
      <use xlink:href="#DejaVuSans-20" x="574.609375"/>
      <use xlink:href="#DejaVuSans-45" x="606.396484"/>
      <use xlink:href="#DejaVuSans-50" x="669.580078"/>
      <use xlink:href="#DejaVuSans-54" x="729.882812"/>
      <use xlink:href="#DejaVuSans-28" x="790.966797"/>
      <use xlink:href="#DejaVuSans-74" x="829.980469"/>
      <use xlink:href="#DejaVuSans-65" x="869.189453"/>
      <use xlink:href="#DejaVuSans-73" x="930.712891"/>
      <use xlink:href="#DejaVuSans-74" x="982.8125"/>
      <use xlink:href="#DejaVuSans-73" x="1022.021484"/>
      <use xlink:href="#DejaVuSans-3d" x="1074.121094"/>
      <use xlink:href="#DejaVuSans-30" x="1157.910156"/>
      <use xlink:href="#DejaVuSans-29" x="1221.533203"/>
     </g>
    </g>
   </g>
   <g id="line2d_33">
    <path d="M 123.016908 449.32125 
L 133.151579 85.616133 
L 145.689111 182.761905 
L 158.226643 200.211516 
L 170.764175 235.630781 
L 183.301708 250.475795 
L 195.83924 256.726328 
L 208.386907 283.29109 
L 220.92444 283.812384 
L 233.461972 293.188182 
L 245.999504 293.448204 
L 258.537036 304.90793 
L 271.084704 308.293218 
L 283.622236 324.180196 
L 296.159768 327.305462 
L 308.697301 321.315577 
L 321.234833 329.388765 
L 333.772365 329.649412 
L 346.320033 335.899944 
L 358.857565 336.941908 
L 371.395097 345.796412 
L 383.932629 338.504541 
L 396.470161 347.359045 
L 409.007694 347.619692 
L 421.555361 348.921678 
L 434.092894 349.182325 
L 446.630426 345.796412 
L 459.167958 353.088908 
L 471.70549 353.870224 
L 484.253158 351.526275 
" clip-path="url(#p9d06c85969)" style="fill: none; stroke: #31688e; stroke-width: 1.5; stroke-linecap: round"/>
   </g>
   <g id="line2d_34">
    <path d="M 82.991314 212.711955 
L 95.528847 298.656773 
L 108.066379 335.118627 
L 120.603911 348.140361 
L 133.151579 357.776807 
L 145.689111 365.068678 
L 158.226643 368.193944 
L 170.764175 370.277871 
L 183.301708 373.403137 
L 195.83924 374.705123 
L 208.386907 375.225792 
L 220.92444 378.611706 
L 233.461972 381.476325 
L 245.999504 377.30972 
L 258.537036 381.216303 
L 271.084704 381.997619 
L 283.622236 379.393022 
L 296.159768 381.476325 
L 308.697301 382.518288 
L 321.234833 385.382907 
L 333.772365 384.862238 
L 346.320033 383.820274 
L 358.857565 385.904202 
L 371.395097 386.94554 
L 383.932629 386.685518 
L 396.470161 387.466835 
L 409.007694 386.685518 
L 421.555361 385.382907 
L 434.092894 387.466835 
L 446.630426 387.726857 
L 459.167958 387.206188 
L 471.70549 386.94554 
L 484.253158 387.206188 
" clip-path="url(#p9d06c85969)" style="fill: none; stroke: #35b779; stroke-width: 1.5; stroke-linecap: round"/>
   </g>
   <g id="line2d_35">
    <path d="M 82.991314 164.270955 
L 95.528847 337.983246 
L 108.066379 372.361174 
L 120.603911 381.216303 
L 133.151579 384.080921 
L 145.689111 385.643554 
L 158.226643 387.727482 
L 170.764175 389.290115 
L 183.301708 391.634065 
L 195.83924 390.592101 
L 208.386907 390.592101 
L 220.92444 391.11277 
L 233.461972 391.634065 
L 245.999504 393.978014 
L 258.537036 393.45672 
L 271.084704 393.45672 
L 283.622236 394.238036 
L 296.159768 394.498683 
L 308.697301 393.717367 
L 321.234833 395.019353 
L 333.772365 395.019353 
L 346.320033 395.540647 
L 358.857565 394.498683 
L 371.395097 395.540647 
L 383.932629 395.019353 
L 396.470161 394.498683 
L 409.007694 397.10328 
L 421.555361 395.800669 
L 434.092894 395.540647 
L 446.630426 396.321964 
L 459.167958 397.10328 
L 471.70549 395.28 
L 484.253158 396.061317 
" clip-path="url(#p9d06c85969)" style="fill: none; stroke: #fde725; stroke-width: 1.5; stroke-linecap: round"/>
   </g>
   <g id="patch_3">
    <path d="M 57.91625 395.28 
L 57.91625 7.2 
" style="fill: none; stroke: #000000; stroke-width: 0.8; stroke-linejoin: miter; stroke-linecap: square"/>
   </g>
   <g id="patch_4">
    <path d="M 504.31625 395.28 
L 504.31625 7.2 
" style="fill: none; stroke: #000000; stroke-width: 0.8; stroke-linejoin: miter; stroke-linecap: square"/>
   </g>
   <g id="patch_5">
    <path d="M 57.91625 395.28 
L 504.31625 395.28 
" style="fill: none; stroke: #000000; stroke-width: 0.8; stroke-linejoin: miter; stroke-linecap: square"/>
   </g>
   <g id="patch_6">
    <path d="M 57.91625 7.2 
L 504.31625 7.2 
" style="fill: none; stroke: #000000; stroke-width: 0.8; stroke-linejoin: miter; stroke-linecap: square"/>
   </g>
   <g id="legend_1">
    <g id="patch_7">
     <path d="M 389.43625 90.455 
L 493.11625 90.455 
Q 496.31625 90.455 496.31625 87.255 
L 496.31625 18.4 
Q 496.31625 15.2 493.11625 15.2 
L 389.43625 15.2 
Q 386.23625 15.2 386.23625 18.4 
L 386.23625 87.255 
Q 386.23625 90.455 389.43625 90.455 
z
" style="fill: #ffffff; opacity: 0.8; stroke: #cccccc; stroke-linejoin: miter"/>
    </g>
    <g id="line2d_36">
     <path d="M 392.63625 28.1575 
L 408.63625 28.1575 
L 424.63625 28.1575 
" style="fill: none; stroke: #31688e; stroke-width: 1.5; stroke-linecap: round"/>
    </g>
    <g id="text_20">
     <!-- $R_0$ = 2 -->
     <g style="fill: #262626" transform="translate(437.43625 33.7575) scale(0.16 -0.16)">
      <defs>
       <path id="DejaVuSans-Oblique-52" d="M 1613 4147 
L 1294 2491 
L 2106 2491 
Q 2584 2491 2879 2755 
Q 3175 3019 3175 3444 
Q 3175 3784 2976 3965 
Q 2778 4147 2406 4147 
L 1613 4147 
z
M 2772 2241 
Q 2972 2194 3105 2009 
Q 3238 1825 3413 1275 
L 3809 0 
L 3144 0 
L 2778 1197 
Q 2638 1659 2453 1815 
Q 2269 1972 1888 1972 
L 1191 1972 
L 806 0 
L 172 0 
L 1081 4666 
L 2503 4666 
Q 3150 4666 3495 4373 
Q 3841 4081 3841 3531 
Q 3841 3044 3547 2687 
Q 3253 2331 2772 2241 
z
" transform="scale(0.015625)"/>
      </defs>
      <use xlink:href="#DejaVuSans-Oblique-52" transform="translate(0 0.78125)"/>
      <use xlink:href="#DejaVuSans-30" transform="translate(69.482422 -15.625) scale(0.7)"/>
      <use xlink:href="#DejaVuSans-20" transform="translate(116.75293 0.78125)"/>
      <use xlink:href="#DejaVuSans-3d" transform="translate(148.540039 0.78125)"/>
      <use xlink:href="#DejaVuSans-20" transform="translate(232.329102 0.78125)"/>
      <use xlink:href="#DejaVuSans-32" transform="translate(264.116211 0.78125)"/>
     </g>
    </g>
    <g id="line2d_37">
     <path d="M 392.63625 51.6425 
L 408.63625 51.6425 
L 424.63625 51.6425 
" style="fill: none; stroke: #35b779; stroke-width: 1.5; stroke-linecap: round"/>
    </g>
    <g id="text_21">
     <!-- $R_0$ = 4 -->
     <g style="fill: #262626" transform="translate(437.43625 57.2425) scale(0.16 -0.16)">
      <use xlink:href="#DejaVuSans-Oblique-52" transform="translate(0 0.09375)"/>
      <use xlink:href="#DejaVuSans-30" transform="translate(69.482422 -16.3125) scale(0.7)"/>
      <use xlink:href="#DejaVuSans-20" transform="translate(116.75293 0.09375)"/>
      <use xlink:href="#DejaVuSans-3d" transform="translate(148.540039 0.09375)"/>
      <use xlink:href="#DejaVuSans-20" transform="translate(232.329102 0.09375)"/>
      <use xlink:href="#DejaVuSans-34" transform="translate(264.116211 0.09375)"/>
     </g>
    </g>
    <g id="line2d_38">
     <path d="M 392.63625 75.1275 
L 408.63625 75.1275 
L 424.63625 75.1275 
" style="fill: none; stroke: #fde725; stroke-width: 1.5; stroke-linecap: round"/>
    </g>
    <g id="text_22">
     <!-- $R_0$ = 6 -->
     <g style="fill: #262626" transform="translate(437.43625 80.7275) scale(0.16 -0.16)">
      <use xlink:href="#DejaVuSans-Oblique-52" transform="translate(0 0.78125)"/>
      <use xlink:href="#DejaVuSans-30" transform="translate(69.482422 -15.625) scale(0.7)"/>
      <use xlink:href="#DejaVuSans-20" transform="translate(116.75293 0.78125)"/>
      <use xlink:href="#DejaVuSans-3d" transform="translate(148.540039 0.78125)"/>
      <use xlink:href="#DejaVuSans-20" transform="translate(232.329102 0.78125)"/>
      <use xlink:href="#DejaVuSans-36" transform="translate(264.116211 0.78125)"/>
     </g>
    </g>
   </g>
  </g>
 </g>
 <defs>
  <clipPath id="p9d06c85969">
   <rect x="57.91625" y="7.2" width="446.4" height="388.08"/>
  </clipPath>
 </defs>
</svg>
