<?xml version="1.0" encoding="utf-8" standalone="no"?>
<!DOCTYPE svg PUBLIC "-//W3C//DTD SVG 1.1//EN"
  "http://www.w3.org/Graphics/SVG/1.1/DTD/svg11.dtd">
<svg xmlns:xlink="http://www.w3.org/1999/xlink" width="516.91pt" height="444.45pt" viewBox="0 0 516.91 444.45" xmlns="http://www.w3.org/2000/svg" version="1.1">
 <metadata>
  <rdf:RDF xmlns:dc="http://purl.org/dc/elements/1.1/" xmlns:cc="http://creativecommons.org/ns#" xmlns:rdf="http://www.w3.org/1999/02/22-rdf-syntax-ns#">
   <cc:Work>
    <dc:type rdf:resource="http://purl.org/dc/dcmitype/StillImage"/>
    <dc:date>2024-02-13T15:29:23.607886</dc:date>
    <dc:format>image/svg+xml</dc:format>
    <dc:creator>
     <cc:Agent>
      <dc:title>Matplotlib v3.8.0, https://matplotlib.org/</dc:title>
     </cc:Agent>
    </dc:creator>
   </cc:Work>
  </rdf:RDF>
 </metadata>
 <defs>
  <style type="text/css">*{stroke-linejoin: round; stroke-linecap: butt}</style>
 </defs>
 <g id="figure_1">
  <g id="patch_1">
   <path d="M 0 444.45 
L 516.91 444.45 
L 516.91 0 
L 0 0 
z
" style="fill: #ffffff"/>
  </g>
  <g id="axes_1">
   <g id="patch_2">
    <path d="M 63.31 395.28 
L 509.71 395.28 
L 509.71 7.2 
L 63.31 7.2 
z
" style="fill: #ffffff"/>
   </g>
   <g id="matplotlib.axis_1">
    <g id="xtick_1">
     <g id="line2d_1">
      <path d="M 63.31 395.28 
L 63.31 7.2 
" clip-path="url(#pa18c0dea40)" style="fill: none; stroke: #b0b0b0; stroke-width: 0.8; stroke-linecap: square"/>
     </g>
     <g id="line2d_2">
      <defs>
       <path id="m0ec5efb380" d="M 0 0 
L 0 3.5 
" style="stroke: #000000; stroke-width: 0.8"/>
      </defs>
      <g>
       <use xlink:href="#m0ec5efb380" x="63.31" y="395.28" style="stroke: #000000; stroke-width: 0.8"/>
      </g>
     </g>
     <g id="text_1">
      <!-- 0% -->
      <g transform="translate(50.61875 414.4375) scale(0.16 -0.16)">
       <defs>
        <path id="DejaVuSans-30" d="M 2034 4250 
Q 1547 4250 1301 3770 
Q 1056 3291 1056 2328 
Q 1056 1369 1301 889 
Q 1547 409 2034 409 
Q 2525 409 2770 889 
Q 3016 1369 3016 2328 
Q 3016 3291 2770 3770 
Q 2525 4250 2034 4250 
z
M 2034 4750 
Q 2819 4750 3233 4129 
Q 3647 3509 3647 2328 
Q 3647 1150 3233 529 
Q 2819 -91 2034 -91 
Q 1250 -91 836 529 
Q 422 1150 422 2328 
Q 422 3509 836 4129 
Q 1250 4750 2034 4750 
z
" transform="scale(0.015625)"/>
        <path id="DejaVuSans-25" d="M 4653 2053 
Q 4381 2053 4226 1822 
Q 4072 1591 4072 1178 
Q 4072 772 4226 539 
Q 4381 306 4653 306 
Q 4919 306 5073 539 
Q 5228 772 5228 1178 
Q 5228 1588 5073 1820 
Q 4919 2053 4653 2053 
z
M 4653 2450 
Q 5147 2450 5437 2106 
Q 5728 1763 5728 1178 
Q 5728 594 5436 251 
Q 5144 -91 4653 -91 
Q 4153 -91 3862 251 
Q 3572 594 3572 1178 
Q 3572 1766 3864 2108 
Q 4156 2450 4653 2450 
z
M 1428 4353 
Q 1159 4353 1004 4120 
Q 850 3888 850 3481 
Q 850 3069 1003 2837 
Q 1156 2606 1428 2606 
Q 1700 2606 1854 2837 
Q 2009 3069 2009 3481 
Q 2009 3884 1853 4118 
Q 1697 4353 1428 4353 
z
M 4250 4750 
L 4750 4750 
L 1831 -91 
L 1331 -91 
L 4250 4750 
z
M 1428 4750 
Q 1922 4750 2215 4408 
Q 2509 4066 2509 3481 
Q 2509 2891 2217 2550 
Q 1925 2209 1428 2209 
Q 931 2209 642 2551 
Q 353 2894 353 3481 
Q 353 4063 643 4406 
Q 934 4750 1428 4750 
z
" transform="scale(0.015625)"/>
       </defs>
       <use xlink:href="#DejaVuSans-30"/>
       <use xlink:href="#DejaVuSans-25" x="63.623047"/>
      </g>
     </g>
    </g>
    <g id="xtick_2">
     <g id="line2d_3">
      <path d="M 122.83 395.28 
L 122.83 7.2 
" clip-path="url(#pa18c0dea40)" style="fill: none; stroke: #b0b0b0; stroke-width: 0.8; stroke-linecap: square"/>
     </g>
     <g id="line2d_4">
      <g>
       <use xlink:href="#m0ec5efb380" x="122.83" y="395.28" style="stroke: #000000; stroke-width: 0.8"/>
      </g>
     </g>
     <g id="text_2">
      <!-- 2% -->
      <g transform="translate(110.13875 414.4375) scale(0.16 -0.16)">
       <defs>
        <path id="DejaVuSans-32" d="M 1228 531 
L 3431 531 
L 3431 0 
L 469 0 
L 469 531 
Q 828 903 1448 1529 
Q 2069 2156 2228 2338 
Q 2531 2678 2651 2914 
Q 2772 3150 2772 3378 
Q 2772 3750 2511 3984 
Q 2250 4219 1831 4219 
Q 1534 4219 1204 4116 
Q 875 4013 500 3803 
L 500 4441 
Q 881 4594 1212 4672 
Q 1544 4750 1819 4750 
Q 2544 4750 2975 4387 
Q 3406 4025 3406 3419 
Q 3406 3131 3298 2873 
Q 3191 2616 2906 2266 
Q 2828 2175 2409 1742 
Q 1991 1309 1228 531 
z
" transform="scale(0.015625)"/>
       </defs>
       <use xlink:href="#DejaVuSans-32"/>
       <use xlink:href="#DejaVuSans-25" x="63.623047"/>
      </g>
     </g>
    </g>
    <g id="xtick_3">
     <g id="line2d_5">
      <path d="M 182.35 395.28 
L 182.35 7.2 
" clip-path="url(#pa18c0dea40)" style="fill: none; stroke: #b0b0b0; stroke-width: 0.8; stroke-linecap: square"/>
     </g>
     <g id="line2d_6">
      <g>
       <use xlink:href="#m0ec5efb380" x="182.35" y="395.28" style="stroke: #000000; stroke-width: 0.8"/>
      </g>
     </g>
     <g id="text_3">
      <!-- 4% -->
      <g transform="translate(169.65875 414.4375) scale(0.16 -0.16)">
       <defs>
        <path id="DejaVuSans-34" d="M 2419 4116 
L 825 1625 
L 2419 1625 
L 2419 4116 
z
M 2253 4666 
L 3047 4666 
L 3047 1625 
L 3713 1625 
L 3713 1100 
L 3047 1100 
L 3047 0 
L 2419 0 
L 2419 1100 
L 313 1100 
L 313 1709 
L 2253 4666 
z
" transform="scale(0.015625)"/>
       </defs>
       <use xlink:href="#DejaVuSans-34"/>
       <use xlink:href="#DejaVuSans-25" x="63.623047"/>
      </g>
     </g>
    </g>
    <g id="xtick_4">
     <g id="line2d_7">
      <path d="M 241.87 395.28 
L 241.87 7.2 
" clip-path="url(#pa18c0dea40)" style="fill: none; stroke: #b0b0b0; stroke-width: 0.8; stroke-linecap: square"/>
     </g>
     <g id="line2d_8">
      <g>
       <use xlink:href="#m0ec5efb380" x="241.87" y="395.28" style="stroke: #000000; stroke-width: 0.8"/>
      </g>
     </g>
     <g id="text_4">
      <!-- 6% -->
      <g transform="translate(229.17875 414.4375) scale(0.16 -0.16)">
       <defs>
        <path id="DejaVuSans-36" d="M 2113 2584 
Q 1688 2584 1439 2293 
Q 1191 2003 1191 1497 
Q 1191 994 1439 701 
Q 1688 409 2113 409 
Q 2538 409 2786 701 
Q 3034 994 3034 1497 
Q 3034 2003 2786 2293 
Q 2538 2584 2113 2584 
z
M 3366 4563 
L 3366 3988 
Q 3128 4100 2886 4159 
Q 2644 4219 2406 4219 
Q 1781 4219 1451 3797 
Q 1122 3375 1075 2522 
Q 1259 2794 1537 2939 
Q 1816 3084 2150 3084 
Q 2853 3084 3261 2657 
Q 3669 2231 3669 1497 
Q 3669 778 3244 343 
Q 2819 -91 2113 -91 
Q 1303 -91 875 529 
Q 447 1150 447 2328 
Q 447 3434 972 4092 
Q 1497 4750 2381 4750 
Q 2619 4750 2861 4703 
Q 3103 4656 3366 4563 
z
" transform="scale(0.015625)"/>
       </defs>
       <use xlink:href="#DejaVuSans-36"/>
       <use xlink:href="#DejaVuSans-25" x="63.623047"/>
      </g>
     </g>
    </g>
    <g id="xtick_5">
     <g id="line2d_9">
      <path d="M 301.39 395.28 
L 301.39 7.2 
" clip-path="url(#pa18c0dea40)" style="fill: none; stroke: #b0b0b0; stroke-width: 0.8; stroke-linecap: square"/>
     </g>
     <g id="line2d_10">
      <g>
       <use xlink:href="#m0ec5efb380" x="301.39" y="395.28" style="stroke: #000000; stroke-width: 0.8"/>
      </g>
     </g>
     <g id="text_5">
      <!-- 8% -->
      <g transform="translate(288.69875 414.4375) scale(0.16 -0.16)">
       <defs>
        <path id="DejaVuSans-38" d="M 2034 2216 
Q 1584 2216 1326 1975 
Q 1069 1734 1069 1313 
Q 1069 891 1326 650 
Q 1584 409 2034 409 
Q 2484 409 2743 651 
Q 3003 894 3003 1313 
Q 3003 1734 2745 1975 
Q 2488 2216 2034 2216 
z
M 1403 2484 
Q 997 2584 770 2862 
Q 544 3141 544 3541 
Q 544 4100 942 4425 
Q 1341 4750 2034 4750 
Q 2731 4750 3128 4425 
Q 3525 4100 3525 3541 
Q 3525 3141 3298 2862 
Q 3072 2584 2669 2484 
Q 3125 2378 3379 2068 
Q 3634 1759 3634 1313 
Q 3634 634 3220 271 
Q 2806 -91 2034 -91 
Q 1263 -91 848 271 
Q 434 634 434 1313 
Q 434 1759 690 2068 
Q 947 2378 1403 2484 
z
M 1172 3481 
Q 1172 3119 1398 2916 
Q 1625 2713 2034 2713 
Q 2441 2713 2670 2916 
Q 2900 3119 2900 3481 
Q 2900 3844 2670 4047 
Q 2441 4250 2034 4250 
Q 1625 4250 1398 4047 
Q 1172 3844 1172 3481 
z
" transform="scale(0.015625)"/>
       </defs>
       <use xlink:href="#DejaVuSans-38"/>
       <use xlink:href="#DejaVuSans-25" x="63.623047"/>
      </g>
     </g>
    </g>
    <g id="xtick_6">
     <g id="line2d_11">
      <path d="M 360.91 395.28 
L 360.91 7.2 
" clip-path="url(#pa18c0dea40)" style="fill: none; stroke: #b0b0b0; stroke-width: 0.8; stroke-linecap: square"/>
     </g>
     <g id="line2d_12">
      <g>
       <use xlink:href="#m0ec5efb380" x="360.91" y="395.28" style="stroke: #000000; stroke-width: 0.8"/>
      </g>
     </g>
     <g id="text_6">
      <!-- 10% -->
      <g transform="translate(343.12875 414.4375) scale(0.16 -0.16)">
       <defs>
        <path id="DejaVuSans-31" d="M 794 531 
L 1825 531 
L 1825 4091 
L 703 3866 
L 703 4441 
L 1819 4666 
L 2450 4666 
L 2450 531 
L 3481 531 
L 3481 0 
L 794 0 
L 794 531 
z
" transform="scale(0.015625)"/>
       </defs>
       <use xlink:href="#DejaVuSans-31"/>
       <use xlink:href="#DejaVuSans-30" x="63.623047"/>
       <use xlink:href="#DejaVuSans-25" x="127.246094"/>
      </g>
     </g>
    </g>
    <g id="xtick_7">
     <g id="line2d_13">
      <path d="M 420.43 395.28 
L 420.43 7.2 
" clip-path="url(#pa18c0dea40)" style="fill: none; stroke: #b0b0b0; stroke-width: 0.8; stroke-linecap: square"/>
     </g>
     <g id="line2d_14">
      <g>
       <use xlink:href="#m0ec5efb380" x="420.43" y="395.28" style="stroke: #000000; stroke-width: 0.8"/>
      </g>
     </g>
     <g id="text_7">
      <!-- 12% -->
      <g transform="translate(402.64875 414.4375) scale(0.16 -0.16)">
       <use xlink:href="#DejaVuSans-31"/>
       <use xlink:href="#DejaVuSans-32" x="63.623047"/>
       <use xlink:href="#DejaVuSans-25" x="127.246094"/>
      </g>
     </g>
    </g>
    <g id="xtick_8">
     <g id="line2d_15">
      <path d="M 479.95 395.28 
L 479.95 7.2 
" clip-path="url(#pa18c0dea40)" style="fill: none; stroke: #b0b0b0; stroke-width: 0.8; stroke-linecap: square"/>
     </g>
     <g id="line2d_16">
      <g>
       <use xlink:href="#m0ec5efb380" x="479.95" y="395.28" style="stroke: #000000; stroke-width: 0.8"/>
      </g>
     </g>
     <g id="text_8">
      <!-- 14% -->
      <g transform="translate(462.16875 414.4375) scale(0.16 -0.16)">
       <use xlink:href="#DejaVuSans-31"/>
       <use xlink:href="#DejaVuSans-34" x="63.623047"/>
       <use xlink:href="#DejaVuSans-25" x="127.246094"/>
      </g>
     </g>
    </g>
    <g id="text_9">
     <!-- Population tested -->
     <g transform="translate(216.5775 433.9225) scale(0.16 -0.16)">
      <defs>
       <path id="DejaVuSans-50" d="M 1259 4147 
L 1259 2394 
L 2053 2394 
Q 2494 2394 2734 2622 
Q 2975 2850 2975 3272 
Q 2975 3691 2734 3919 
Q 2494 4147 2053 4147 
L 1259 4147 
z
M 628 4666 
L 2053 4666 
Q 2838 4666 3239 4311 
Q 3641 3956 3641 3272 
Q 3641 2581 3239 2228 
Q 2838 1875 2053 1875 
L 1259 1875 
L 1259 0 
L 628 0 
L 628 4666 
z
" transform="scale(0.015625)"/>
       <path id="DejaVuSans-6f" d="M 1959 3097 
Q 1497 3097 1228 2736 
Q 959 2375 959 1747 
Q 959 1119 1226 758 
Q 1494 397 1959 397 
Q 2419 397 2687 759 
Q 2956 1122 2956 1747 
Q 2956 2369 2687 2733 
Q 2419 3097 1959 3097 
z
M 1959 3584 
Q 2709 3584 3137 3096 
Q 3566 2609 3566 1747 
Q 3566 888 3137 398 
Q 2709 -91 1959 -91 
Q 1206 -91 779 398 
Q 353 888 353 1747 
Q 353 2609 779 3096 
Q 1206 3584 1959 3584 
z
" transform="scale(0.015625)"/>
       <path id="DejaVuSans-70" d="M 1159 525 
L 1159 -1331 
L 581 -1331 
L 581 3500 
L 1159 3500 
L 1159 2969 
Q 1341 3281 1617 3432 
Q 1894 3584 2278 3584 
Q 2916 3584 3314 3078 
Q 3713 2572 3713 1747 
Q 3713 922 3314 415 
Q 2916 -91 2278 -91 
Q 1894 -91 1617 61 
Q 1341 213 1159 525 
z
M 3116 1747 
Q 3116 2381 2855 2742 
Q 2594 3103 2138 3103 
Q 1681 3103 1420 2742 
Q 1159 2381 1159 1747 
Q 1159 1113 1420 752 
Q 1681 391 2138 391 
Q 2594 391 2855 752 
Q 3116 1113 3116 1747 
z
" transform="scale(0.015625)"/>
       <path id="DejaVuSans-75" d="M 544 1381 
L 544 3500 
L 1119 3500 
L 1119 1403 
Q 1119 906 1312 657 
Q 1506 409 1894 409 
Q 2359 409 2629 706 
Q 2900 1003 2900 1516 
L 2900 3500 
L 3475 3500 
L 3475 0 
L 2900 0 
L 2900 538 
Q 2691 219 2414 64 
Q 2138 -91 1772 -91 
Q 1169 -91 856 284 
Q 544 659 544 1381 
z
M 1991 3584 
L 1991 3584 
z
" transform="scale(0.015625)"/>
       <path id="DejaVuSans-6c" d="M 603 4863 
L 1178 4863 
L 1178 0 
L 603 0 
L 603 4863 
z
" transform="scale(0.015625)"/>
       <path id="DejaVuSans-61" d="M 2194 1759 
Q 1497 1759 1228 1600 
Q 959 1441 959 1056 
Q 959 750 1161 570 
Q 1363 391 1709 391 
Q 2188 391 2477 730 
Q 2766 1069 2766 1631 
L 2766 1759 
L 2194 1759 
z
M 3341 1997 
L 3341 0 
L 2766 0 
L 2766 531 
Q 2569 213 2275 61 
Q 1981 -91 1556 -91 
Q 1019 -91 701 211 
Q 384 513 384 1019 
Q 384 1609 779 1909 
Q 1175 2209 1959 2209 
L 2766 2209 
L 2766 2266 
Q 2766 2663 2505 2880 
Q 2244 3097 1772 3097 
Q 1472 3097 1187 3025 
Q 903 2953 641 2809 
L 641 3341 
Q 956 3463 1253 3523 
Q 1550 3584 1831 3584 
Q 2591 3584 2966 3190 
Q 3341 2797 3341 1997 
z
" transform="scale(0.015625)"/>
       <path id="DejaVuSans-74" d="M 1172 4494 
L 1172 3500 
L 2356 3500 
L 2356 3053 
L 1172 3053 
L 1172 1153 
Q 1172 725 1289 603 
Q 1406 481 1766 481 
L 2356 481 
L 2356 0 
L 1766 0 
Q 1100 0 847 248 
Q 594 497 594 1153 
L 594 3053 
L 172 3053 
L 172 3500 
L 594 3500 
L 594 4494 
L 1172 4494 
z
" transform="scale(0.015625)"/>
       <path id="DejaVuSans-69" d="M 603 3500 
L 1178 3500 
L 1178 0 
L 603 0 
L 603 3500 
z
M 603 4863 
L 1178 4863 
L 1178 4134 
L 603 4134 
L 603 4863 
z
" transform="scale(0.015625)"/>
       <path id="DejaVuSans-6e" d="M 3513 2113 
L 3513 0 
L 2938 0 
L 2938 2094 
Q 2938 2591 2744 2837 
Q 2550 3084 2163 3084 
Q 1697 3084 1428 2787 
Q 1159 2491 1159 1978 
L 1159 0 
L 581 0 
L 581 3500 
L 1159 3500 
L 1159 2956 
Q 1366 3272 1645 3428 
Q 1925 3584 2291 3584 
Q 2894 3584 3203 3211 
Q 3513 2838 3513 2113 
z
" transform="scale(0.015625)"/>
       <path id="DejaVuSans-20" transform="scale(0.015625)"/>
       <path id="DejaVuSans-65" d="M 3597 1894 
L 3597 1613 
L 953 1613 
Q 991 1019 1311 708 
Q 1631 397 2203 397 
Q 2534 397 2845 478 
Q 3156 559 3463 722 
L 3463 178 
Q 3153 47 2828 -22 
Q 2503 -91 2169 -91 
Q 1331 -91 842 396 
Q 353 884 353 1716 
Q 353 2575 817 3079 
Q 1281 3584 2069 3584 
Q 2775 3584 3186 3129 
Q 3597 2675 3597 1894 
z
M 3022 2063 
Q 3016 2534 2758 2815 
Q 2500 3097 2075 3097 
Q 1594 3097 1305 2825 
Q 1016 2553 972 2059 
L 3022 2063 
z
" transform="scale(0.015625)"/>
       <path id="DejaVuSans-73" d="M 2834 3397 
L 2834 2853 
Q 2591 2978 2328 3040 
Q 2066 3103 1784 3103 
Q 1356 3103 1142 2972 
Q 928 2841 928 2578 
Q 928 2378 1081 2264 
Q 1234 2150 1697 2047 
L 1894 2003 
Q 2506 1872 2764 1633 
Q 3022 1394 3022 966 
Q 3022 478 2636 193 
Q 2250 -91 1575 -91 
Q 1294 -91 989 -36 
Q 684 19 347 128 
L 347 722 
Q 666 556 975 473 
Q 1284 391 1588 391 
Q 1994 391 2212 530 
Q 2431 669 2431 922 
Q 2431 1156 2273 1281 
Q 2116 1406 1581 1522 
L 1381 1569 
Q 847 1681 609 1914 
Q 372 2147 372 2553 
Q 372 3047 722 3315 
Q 1072 3584 1716 3584 
Q 2034 3584 2315 3537 
Q 2597 3491 2834 3397 
z
" transform="scale(0.015625)"/>
       <path id="DejaVuSans-64" d="M 2906 2969 
L 2906 4863 
L 3481 4863 
L 3481 0 
L 2906 0 
L 2906 525 
Q 2725 213 2448 61 
Q 2172 -91 1784 -91 
Q 1150 -91 751 415 
Q 353 922 353 1747 
Q 353 2572 751 3078 
Q 1150 3584 1784 3584 
Q 2172 3584 2448 3432 
Q 2725 3281 2906 2969 
z
M 947 1747 
Q 947 1113 1208 752 
Q 1469 391 1925 391 
Q 2381 391 2643 752 
Q 2906 1113 2906 1747 
Q 2906 2381 2643 2742 
Q 2381 3103 1925 3103 
Q 1469 3103 1208 2742 
Q 947 2381 947 1747 
z
" transform="scale(0.015625)"/>
      </defs>
      <use xlink:href="#DejaVuSans-50"/>
      <use xlink:href="#DejaVuSans-6f" x="56.677734"/>
      <use xlink:href="#DejaVuSans-70" x="117.859375"/>
      <use xlink:href="#DejaVuSans-75" x="181.335938"/>
      <use xlink:href="#DejaVuSans-6c" x="244.714844"/>
      <use xlink:href="#DejaVuSans-61" x="272.498047"/>
      <use xlink:href="#DejaVuSans-74" x="333.777344"/>
      <use xlink:href="#DejaVuSans-69" x="372.986328"/>
      <use xlink:href="#DejaVuSans-6f" x="400.769531"/>
      <use xlink:href="#DejaVuSans-6e" x="461.951172"/>
      <use xlink:href="#DejaVuSans-20" x="525.330078"/>
      <use xlink:href="#DejaVuSans-74" x="557.117188"/>
      <use xlink:href="#DejaVuSans-65" x="596.326172"/>
      <use xlink:href="#DejaVuSans-73" x="657.849609"/>
      <use xlink:href="#DejaVuSans-74" x="709.949219"/>
      <use xlink:href="#DejaVuSans-65" x="749.158203"/>
      <use xlink:href="#DejaVuSans-64" x="810.681641"/>
     </g>
    </g>
   </g>
   <g id="matplotlib.axis_2">
    <g id="ytick_1">
     <g id="line2d_17">
      <path d="M 63.31 395.28 
L 509.71 395.28 
" clip-path="url(#pa18c0dea40)" style="fill: none; stroke: #b0b0b0; stroke-width: 0.8; stroke-linecap: square"/>
     </g>
     <g id="line2d_18">
      <defs>
       <path id="mbeb4843647" d="M 0 0 
L -3.5 0 
" style="stroke: #000000; stroke-width: 0.8"/>
      </defs>
      <g>
       <use xlink:href="#mbeb4843647" x="63.31" y="395.28" style="stroke: #000000; stroke-width: 0.8"/>
      </g>
     </g>
     <g id="text_10">
      <!-- 0k -->
      <g transform="translate(36.865 401.35875) scale(0.16 -0.16)">
       <defs>
        <path id="DejaVuSans-6b" d="M 581 4863 
L 1159 4863 
L 1159 1991 
L 2875 3500 
L 3609 3500 
L 1753 1863 
L 3688 0 
L 2938 0 
L 1159 1709 
L 1159 0 
L 581 0 
L 581 4863 
z
" transform="scale(0.015625)"/>
       </defs>
       <use xlink:href="#DejaVuSans-30"/>
       <use xlink:href="#DejaVuSans-6b" x="63.623047"/>
      </g>
     </g>
    </g>
    <g id="ytick_2">
     <g id="line2d_19">
      <path d="M 63.31 349.133161 
L 509.71 349.133161 
" clip-path="url(#pa18c0dea40)" style="fill: none; stroke: #b0b0b0; stroke-width: 0.8; stroke-linecap: square"/>
     </g>
     <g id="line2d_20">
      <g>
       <use xlink:href="#mbeb4843647" x="63.31" y="349.133161" style="stroke: #000000; stroke-width: 0.8"/>
      </g>
     </g>
     <g id="text_11">
      <!-- 2k -->
      <g transform="translate(36.865 355.211911) scale(0.16 -0.16)">
       <use xlink:href="#DejaVuSans-32"/>
       <use xlink:href="#DejaVuSans-6b" x="63.623047"/>
      </g>
     </g>
    </g>
    <g id="ytick_3">
     <g id="line2d_21">
      <path d="M 63.31 302.986322 
L 509.71 302.986322 
" clip-path="url(#pa18c0dea40)" style="fill: none; stroke: #b0b0b0; stroke-width: 0.8; stroke-linecap: square"/>
     </g>
     <g id="line2d_22">
      <g>
       <use xlink:href="#mbeb4843647" x="63.31" y="302.986322" style="stroke: #000000; stroke-width: 0.8"/>
      </g>
     </g>
     <g id="text_12">
      <!-- 4k -->
      <g transform="translate(36.865 309.065072) scale(0.16 -0.16)">
       <use xlink:href="#DejaVuSans-34"/>
       <use xlink:href="#DejaVuSans-6b" x="63.623047"/>
      </g>
     </g>
    </g>
    <g id="ytick_4">
     <g id="line2d_23">
      <path d="M 63.31 256.839483 
L 509.71 256.839483 
" clip-path="url(#pa18c0dea40)" style="fill: none; stroke: #b0b0b0; stroke-width: 0.8; stroke-linecap: square"/>
     </g>
     <g id="line2d_24">
      <g>
       <use xlink:href="#mbeb4843647" x="63.31" y="256.839483" style="stroke: #000000; stroke-width: 0.8"/>
      </g>
     </g>
     <g id="text_13">
      <!-- 6k -->
      <g transform="translate(36.865 262.918233) scale(0.16 -0.16)">
       <use xlink:href="#DejaVuSans-36"/>
       <use xlink:href="#DejaVuSans-6b" x="63.623047"/>
      </g>
     </g>
    </g>
    <g id="ytick_5">
     <g id="line2d_25">
      <path d="M 63.31 210.692644 
L 509.71 210.692644 
" clip-path="url(#pa18c0dea40)" style="fill: none; stroke: #b0b0b0; stroke-width: 0.8; stroke-linecap: square"/>
     </g>
     <g id="line2d_26">
      <g>
       <use xlink:href="#mbeb4843647" x="63.31" y="210.692644" style="stroke: #000000; stroke-width: 0.8"/>
      </g>
     </g>
     <g id="text_14">
      <!-- 8k -->
      <g transform="translate(36.865 216.771394) scale(0.16 -0.16)">
       <use xlink:href="#DejaVuSans-38"/>
       <use xlink:href="#DejaVuSans-6b" x="63.623047"/>
      </g>
     </g>
    </g>
    <g id="ytick_6">
     <g id="line2d_27">
      <path d="M 63.31 164.545804 
L 509.71 164.545804 
" clip-path="url(#pa18c0dea40)" style="fill: none; stroke: #b0b0b0; stroke-width: 0.8; stroke-linecap: square"/>
     </g>
     <g id="line2d_28">
      <g>
       <use xlink:href="#mbeb4843647" x="63.31" y="164.545804" style="stroke: #000000; stroke-width: 0.8"/>
      </g>
     </g>
     <g id="text_15">
      <!-- 10k -->
      <g transform="translate(26.685 170.624554) scale(0.16 -0.16)">
       <use xlink:href="#DejaVuSans-31"/>
       <use xlink:href="#DejaVuSans-30" x="63.623047"/>
       <use xlink:href="#DejaVuSans-6b" x="127.246094"/>
      </g>
     </g>
    </g>
    <g id="ytick_7">
     <g id="line2d_29">
      <path d="M 63.31 118.398965 
L 509.71 118.398965 
" clip-path="url(#pa18c0dea40)" style="fill: none; stroke: #b0b0b0; stroke-width: 0.8; stroke-linecap: square"/>
     </g>
     <g id="line2d_30">
      <g>
       <use xlink:href="#mbeb4843647" x="63.31" y="118.398965" style="stroke: #000000; stroke-width: 0.8"/>
      </g>
     </g>
     <g id="text_16">
      <!-- 12k -->
      <g transform="translate(26.685 124.477715) scale(0.16 -0.16)">
       <use xlink:href="#DejaVuSans-31"/>
       <use xlink:href="#DejaVuSans-32" x="63.623047"/>
       <use xlink:href="#DejaVuSans-6b" x="127.246094"/>
      </g>
     </g>
    </g>
    <g id="ytick_8">
     <g id="line2d_31">
      <path d="M 63.31 72.252126 
L 509.71 72.252126 
" clip-path="url(#pa18c0dea40)" style="fill: none; stroke: #b0b0b0; stroke-width: 0.8; stroke-linecap: square"/>
     </g>
     <g id="line2d_32">
      <g>
       <use xlink:href="#mbeb4843647" x="63.31" y="72.252126" style="stroke: #000000; stroke-width: 0.8"/>
      </g>
     </g>
     <g id="text_17">
      <!-- 14k -->
      <g transform="translate(26.685 78.330876) scale(0.16 -0.16)">
       <use xlink:href="#DejaVuSans-31"/>
       <use xlink:href="#DejaVuSans-34" x="63.623047"/>
       <use xlink:href="#DejaVuSans-6b" x="127.246094"/>
      </g>
     </g>
    </g>
    <g id="ytick_9">
     <g id="line2d_33">
      <path d="M 63.31 26.105287 
L 509.71 26.105287 
" clip-path="url(#pa18c0dea40)" style="fill: none; stroke: #b0b0b0; stroke-width: 0.8; stroke-linecap: square"/>
     </g>
     <g id="line2d_34">
      <g>
       <use xlink:href="#mbeb4843647" x="63.31" y="26.105287" style="stroke: #000000; stroke-width: 0.8"/>
      </g>
     </g>
     <g id="text_18">
      <!-- 16k -->
      <g transform="translate(26.685 32.184037) scale(0.16 -0.16)">
       <use xlink:href="#DejaVuSans-31"/>
       <use xlink:href="#DejaVuSans-36" x="63.623047"/>
       <use xlink:href="#DejaVuSans-6b" x="127.246094"/>
      </g>
     </g>
    </g>
    <g id="text_19">
     <!-- Detected -->
     <g transform="translate(19.3575 237.9175) rotate(-90) scale(0.16 -0.16)">
      <defs>
       <path id="DejaVuSans-44" d="M 1259 4147 
L 1259 519 
L 2022 519 
Q 2988 519 3436 956 
Q 3884 1394 3884 2338 
Q 3884 3275 3436 3711 
Q 2988 4147 2022 4147 
L 1259 4147 
z
M 628 4666 
L 1925 4666 
Q 3281 4666 3915 4102 
Q 4550 3538 4550 2338 
Q 4550 1131 3912 565 
Q 3275 0 1925 0 
L 628 0 
L 628 4666 
z
" transform="scale(0.015625)"/>
       <path id="DejaVuSans-63" d="M 3122 3366 
L 3122 2828 
Q 2878 2963 2633 3030 
Q 2388 3097 2138 3097 
Q 1578 3097 1268 2742 
Q 959 2388 959 1747 
Q 959 1106 1268 751 
Q 1578 397 2138 397 
Q 2388 397 2633 464 
Q 2878 531 3122 666 
L 3122 134 
Q 2881 22 2623 -34 
Q 2366 -91 2075 -91 
Q 1284 -91 818 406 
Q 353 903 353 1747 
Q 353 2603 823 3093 
Q 1294 3584 2113 3584 
Q 2378 3584 2631 3529 
Q 2884 3475 3122 3366 
z
" transform="scale(0.015625)"/>
      </defs>
      <use xlink:href="#DejaVuSans-44"/>
      <use xlink:href="#DejaVuSans-65" x="77.001953"/>
      <use xlink:href="#DejaVuSans-74" x="138.525391"/>
      <use xlink:href="#DejaVuSans-65" x="177.734375"/>
      <use xlink:href="#DejaVuSans-63" x="239.257812"/>
      <use xlink:href="#DejaVuSans-74" x="294.238281"/>
      <use xlink:href="#DejaVuSans-65" x="333.447266"/>
      <use xlink:href="#DejaVuSans-64" x="394.970703"/>
     </g>
    </g>
   </g>
   <g id="line2d_35">
    <path d="M 67.445601 22.808095 
L 69.891764 23.248798 
L 71.659975 23.271871 
L 73.315891 53.899528 
L 74.757695 88.345836 
L 75.044295 90.560885 
L 75.638448 101.564598 
L 76.566548 111.560004 
L 83.944845 171.90138 
L 84.375166 172.780246 
L 88.436183 160.04418 
L 89.557446 165.857067 
L 90.11305 169.135569 
L 90.858044 171.927453 
L 92.03755 172.535899 
L 96.293824 185.850185 
L 101.470239 203.314918 
L 104.130934 209.09181 
L 105.106383 211.54636 
L 106.081412 215.458228 
L 108.033567 221.954318 
L 114.112523 228.593695 
L 119.252064 226.430562 
L 121.369727 223.269503 
L 124.579321 228.111229 
L 128.627768 235.228456 
L 130.520005 238.118171 
L 132.988795 241.410979 
L 135.333559 244.155793 
L 138.110738 246.731479 
L 145.127013 253.745799 
L 147.825419 255.076212 
L 151.74984 259.135288 
L 153.916107 260.230352 
L 155.829713 262.842494 
L 158.127548 265.211211 
L 160.934477 266.194831 
L 164.066137 266.010244 
L 168.208441 266.598616 
L 172.696427 269.613389 
L 175.187844 270.319205 
L 176.656464 269.698069 
L 177.862366 269.512558 
L 180.621947 270.245139 
L 181.719327 270.132541 
L 182.603432 269.909652 
L 183.326639 269.530786 
L 184.855596 267.51763 
L 185.451005 268.201296 
L 186.07365 267.75321 
L 186.485953 267.62446 
L 187.230947 267.224367 
L 187.587103 267.30997 
L 187.974685 266.759207 
L 189.024298 266.99571 
L 190.810944 266.276511 
L 196.494777 267.237981 
L 200.765297 269.104851 
L 204.035229 269.329817 
L 207.791628 271.204532 
L 211.186843 269.977949 
L 213.423085 270.784596 
L 215.184591 270.998948 
L 216.7676 270.971029 
L 218.605784 271.133466 
L 220.399135 272.054557 
L 223.468781 271.478644 
L 225.956846 272.788061 
L 228.199372 272.430423 
L 231.307148 271.479567 
L 233.210279 270.33651 
L 234.427494 270.719067 
L 235.604066 270.657692 
L 237.18959 270.882427 
L 238.731955 270.909423 
L 241.219181 271.461339 
L 243.572745 270.777674 
L 248.001231 269.245368 
L 250.780087 266.865806 
L 253.706852 265.270049 
L 256.401906 266.436179 
L 259.014415 266.491786 
L 262.051798 267.518553 
L 266.075105 265.2892 
L 268.65577 263.375952 
L 271.250262 261.933863 
L 274.159848 260.860026 
L 276.470672 261.419556 
L 281.805471 262.598147 
L 284.082775 263.125144 
L 286.300999 264.085459 
L 288.688502 264.083613 
L 290.232962 264.668063 
L 299.231141 267.437796 
L 301.564592 267.944489 
L 311.071026 271.100702 
L 314.211485 272.358203 
L 317.165485 272.777447 
L 319.580224 272.86305 
L 326.505993 275.48096 
L 328.180764 275.794297 
L 329.88361 275.246303 
L 332.250581 276.537492 
L 334.92678 277.067257 
L 337.203246 278.300532 
L 338.839887 277.88521 
L 343.014875 278.102562 
L 346.885244 279.606256 
L 349.563957 279.011193 
L 351.469182 279.317839 
L 354.158789 279.96874 
L 356.90999 280.377139 
L 360.160229 281.127026 
L 364.180183 281.307921 
L 373.690808 282.99505 
L 376.956549 282.836535 
L 380.151479 283.525738 
L 384.504125 285.052506 
L 388.723527 285.277472 
L 393.462498 286.469676 
L 398.752464 287.148265 
L 402.060106 287.976139 
L 414.533111 288.59243 
L 417.091569 287.882 
L 419.660921 286.911763 
L 421.883335 286.919608 
L 424.125023 286.781167 
L 427.248302 287.329161 
L 433.219573 287.942452 
L 436.513808 287.92907 
L 438.492359 288.645269 
L 441.000117 289.056668 
L 444.55246 289.110429 
L 447.153656 289.51629 
L 449.210143 290.468069 
L 451.61273 289.52875 
L 455.576957 290.340242 
L 459.200112 290.205493 
L 461.168189 290.524829 
L 463.460996 289.586433 
L 465.980067 289.735488 
L 468.599281 289.145039 
L 472.566021 290.271945 
L 475.181464 290.731567 
L 477.088365 290.003601 
L 481.407072 291.039136 
L 483.871672 290.847857 
L 485.773546 290.988144 
L 487.698884 290.799634 
L 489.348515 290.789251 
L 491.573862 290.527598 
L 494.183857 289.599816 
L 497.127802 287.972217 
L 499.454129 287.700181 
L 501.808112 286.778167 
L 504.258465 287.019515 
L 506.053073 287.309779 
L 510.324851 288.147344 
L 510.324851 288.147344 
" clip-path="url(#pa18c0dea40)" style="fill: none; stroke: #0000ff; stroke-width: 1.4; stroke-linecap: square"/>
   </g>
   <g id="line2d_36">
    <path d="M 65.767477 111.10315 
L 68.932238 153.809742 
L 72.137224 184.64183 
L 73.893702 200.413435 
L 75.205613 208.53251 
L 75.929658 211.623195 
L 77.536131 221.215969 
L 78.164642 223.826265 
L 78.906703 228.44764 
L 79.730052 231.925958 
L 80.541669 233.868048 
L 82.319936 239.51619 
L 84.273347 244.583574 
L 85.235387 248.99452 
L 86.441709 249.407996 
L 87.381123 251.546902 
L 88.211595 251.912385 
L 93.214541 259.460162 
L 94.454802 260.972394 
L 96.727497 265.385416 
L 97.879347 264.641067 
L 98.5661 264.396028 
L 100.674544 264.655604 
L 101.913548 266.334195 
L 102.715947 265.984171 
L 103.833439 266.795663 
L 105.42399 265.876649 
L 106.88423 265.717904 
L 108.270306 265.878495 
L 111.026116 264.943098 
L 117.811518 268.349197 
L 119.287261 268.063778 
L 120.695963 268.51371 
L 122.437776 268.822202 
L 124.208081 270.362352 
L 125.640666 270.333511 
L 126.924085 271.878507 
L 128.717436 271.856356 
L 130.165106 271.424653 
L 133.727505 273.234993 
L 135.137883 273.324518 
L 136.695751 273.838825 
L 138.09733 275.172237 
L 139.587739 275.330983 
L 140.968786 275.943351 
L 142.707666 275.520185 
L 145.334841 276.727847 
L 147.108917 277.341139 
L 148.870842 276.949814 
L 150.745899 278.007499 
L 152.545116 278.281381 
L 155.949549 278.118944 
L 157.284506 277.288301 
L 162.245132 279.23039 
L 163.418771 279.187935 
L 165.936585 277.959276 
L 167.386349 278.594948 
L 169.049808 278.076719 
L 170.703629 278.65817 
L 172.237614 279.400442 
L 173.640031 279.171784 
L 176.480062 279.225545 
L 179.162127 279.947512 
L 180.49415 280.178247 
L 182.087634 280.602336 
L 184.404744 280.706166 
L 187.491989 281.193477 
L 191.80022 281.333763 
L 193.731843 282.204785 
L 199.128656 283.050887 
L 200.06807 283.595881 
L 204.760531 284.513281 
L 205.855815 284.841846 
L 207.218846 284.823618 
L 212.341208 285.990902 
L 214.871592 286.361923 
L 216.327642 286.775399 
L 218.293624 286.436912 
L 219.412373 287.289705 
L 224.581664 287.598197 
L 225.855027 287.965526 
L 227.311077 287.700181 
L 229.517149 288.548129 
L 230.91789 287.528054 
L 232.305642 288.45099 
L 236.481886 288.637424 
L 237.753573 289.234564 
L 239.314375 288.817396 
L 240.536619 289.499908 
L 243.168822 289.586433 
L 244.600988 289.477758 
L 248.012963 290.035442 
L 249.560776 290.464146 
L 251.263202 290.644811 
L 253.152505 291.107433 
L 254.377682 291.694652 
L 259.075171 291.639045 
L 261.993556 291.784177 
L 264.768221 292.312096 
L 266.585456 292.98884 
L 269.37311 293.057137 
L 272.017045 293.254184 
L 274.896881 294.313485 
L 277.250864 294.138588 
L 278.558166 294.246341 
L 280.21911 294.649203 
L 282.974501 295.554835 
L 286.136329 295.181738 
L 287.772971 295.227884 
L 289.227345 296.237347 
L 291.500878 296.220964 
L 294.997493 296.032455 
L 296.173227 296.771958 
L 297.71643 297.166052 
L 301.974381 297.13721 
L 304.552951 297.675513 
L 306.584717 297.293878 
L 309.632156 298.129367 
L 315.374649 298.480314 
L 318.616926 298.248657 
L 319.943084 299.048381 
L 321.986582 299.582992 
L 324.318356 299.2272 
L 325.529287 299.783962 
L 329.203142 298.725353 
L 331.099568 300.2955 
L 332.889567 300.1386 
L 336.806027 300.375103 
L 338.765723 300.792501 
L 342.885402 300.969243 
L 345.32109 301.49624 
L 351.284819 302.431637 
L 353.707099 302.363339 
L 355.362178 302.884337 
L 357.594229 303.157527 
L 361.945618 302.989091 
L 363.761595 303.64576 
L 370.408306 303.657297 
L 372.566192 303.984247 
L 374.277837 303.945715 
L 377.323181 304.298738 
L 379.293352 304.851346 
L 381.466742 304.3938 
L 383.669463 304.731134 
L 385.910313 304.892648 
L 389.346172 305.37719 
L 390.975272 305.579313 
L 393.630939 306.160763 
L 396.967912 305.783051 
L 403.964913 306.891498 
L 405.891089 306.604926 
L 408.039338 306.705065 
L 411.236782 307.578855 
L 417.744382 307.035707 
L 420.139427 307.576086 
L 421.684725 307.42311 
L 424.443468 307.578855 
L 426.735438 307.907651 
L 427.915362 308.211528 
L 431.016434 308.710376 
L 432.303205 308.20576 
L 434.782889 308.979642 
L 436.391876 309.048863 
L 438.936088 308.924958 
L 440.434877 309.12962 
L 441.318982 309.004562 
L 443.173088 309.50064 
L 444.492123 309.524867 
L 445.921356 310.008256 
L 447.591938 309.87466 
L 450.520379 310.491874 
L 453.622708 310.316978 
L 454.923725 310.472723 
L 456.23396 310.076553 
L 457.374917 310.920809 
L 458.052451 310.610241 
L 461.582587 311.141853 
L 462.979976 310.818825 
L 465.448347 311.286984 
L 466.434271 311.894508 
L 467.419775 311.586939 
L 468.511289 311.120625 
L 469.857978 311.821596 
L 471.250758 311.693769 
L 473.30934 312.398431 
L 475.721564 312.376281 
L 477.979175 313.085788 
L 479.779648 312.727227 
L 481.766161 312.641625 
L 483.596804 313.360593 
L 487.37122 313.605863 
L 488.311472 313.322291 
L 489.520727 313.810524 
L 492.418161 313.80291 
L 493.846138 314.267378 
L 495.400235 314.618094 
L 496.933382 314.546105 
L 498.414573 314.977809 
L 499.1713 314.905589 
L 500.118256 315.174856 
L 501.231558 314.565256 
L 503.288464 315.325756 
L 506.586888 315.457505 
L 507.630216 315.715235 
L 509.141156 315.478733 
L 512.731628 316.074719 
L 516.111759 316.030418 
L 517.91 316.50426 
L 517.91 316.50426 
" clip-path="url(#pa18c0dea40)" style="fill: none; stroke: #ff0000; stroke-width: 1.4; stroke-linecap: square"/>
   </g>
   <g id="line2d_37">
    <path d="M 68.079977 312.855054 
L 72.469077 300.801961 
L 79.00098 319.465589 
L 81.747572 322.176716 
L 84.009792 323.787932 
L 88.136593 328.571975 
L 90.040981 328.392003 
L 91.916876 329.169808 
L 95.293235 320.278927 
L 96.892586 320.528812 
L 99.70999 310.561095 
L 101.016035 312.368436 
L 102.306577 312.91666 
L 104.770339 316.69101 
L 105.965766 317.815839 
L 107.159937 318.212933 
L 109.373971 320.727936 
L 110.467998 321.513355 
L 111.557836 316.01219 
L 114.689076 318.776155 
L 116.639136 320.142332 
L 117.562628 320.191479 
L 118.46056 320.775928 
L 121.128797 323.007359 
L 121.997399 322.870764 
L 123.661277 324.335926 
L 124.451105 324.513822 
L 125.236325 325.167492 
L 129.803503 326.253097 
L 130.52629 324.87146 
L 131.916975 325.318623 
L 132.605822 325.309855 
L 133.285452 325.060893 
L 134.632979 325.467447 
L 135.304648 324.121574 
L 135.944052 323.833156 
L 137.221186 324.803163 
L 137.848021 324.766707 
L 139.09331 325.725177 
L 139.714698 325.886691 
L 140.325191 325.545435 
L 141.544921 326.019363 
L 142.154577 325.664724 
L 142.762137 326.08766 
L 143.962592 326.007826 
L 144.552973 326.517287 
L 145.131622 325.736713 
L 146.298976 325.951066 
L 146.869664 325.934683 
L 148.003497 325.25494 
L 148.566224 325.757941 
L 149.118475 326.019363 
L 150.212084 326.242483 
L 150.750089 325.70118 
L 151.287675 324.957986 
L 152.368714 325.070353 
L 152.904205 324.615807 
L 153.442629 324.888765 
L 154.478415 324.961908 
L 154.990023 324.571506 
L 155.991869 324.513822 
L 156.488392 325.042665 
L 156.985335 325.122499 
L 157.967069 325.099426 
L 158.453117 325.362693 
L 158.938746 325.430068 
L 159.908748 325.858772 
L 160.867855 325.79532 
L 161.805593 326.138652 
L 162.265244 326.188491 
L 163.632883 326.814473 
L 164.080383 327.186416 
L 164.962812 327.204644 
L 165.405284 327.783557 
L 165.845241 327.739256 
L 166.705463 327.923843 
L 167.130336 327.092277 
L 168.808879 326.948068 
L 169.637675 327.923843 
L 170.047045 327.838241 
L 170.456834 328.049824 
L 171.669441 327.941148 
L 172.069592 328.002754 
L 173.650506 328.732336 
L 174.427765 328.365237 
L 174.813251 328.68042 
L 175.582129 329.03529 
L 175.955046 329.056517 
L 176.332152 328.68042 
L 177.077985 328.50737 
L 177.442102 328.213184 
L 177.812504 328.138195 
L 178.547443 328.926614 
L 178.915331 328.268098 
L 179.280287 328.976683 
L 180.353783 329.234182 
L 181.061486 328.841011 
L 181.403396 328.292095 
L 181.7562 328.423844 
L 182.445048 328.418998 
L 182.7857 328.905386 
L 183.129286 329.155502 
L 183.808497 329.499527 
L 184.144122 329.281252 
L 184.808667 329.666809 
L 185.139264 329.553519 
L 185.46148 329.706265 
L 186.10298 329.308248 
L 187.354973 329.133352 
L 187.662525 328.946688 
L 187.967143 329.099664 
L 188.578474 328.816092 
L 188.879321 329.027445 
L 189.477245 328.684343 
L 189.773902 328.984297 
L 190.069302 328.83432 
L 190.657588 329.241104 
L 190.948798 329.221723 
L 191.237494 328.777559 
L 192.095201 329.516832 
L 192.373841 329.343781 
L 193.205151 329.174653 
L 194.024729 329.81494 
L 194.296246 329.736029 
L 194.839698 329.741798 
L 195.110377 329.518908 
L 195.375608 329.611202 
L 195.896434 329.327399 
L 196.1558 329.561133 
L 196.415165 329.450611 
L 196.933477 330.027447 
L 197.189071 329.439997 
L 197.697327 329.249642 
L 197.951245 329.750566 
L 198.206421 328.537365 
L 198.702106 328.994911 
L 198.953511 328.522829 
L 199.201563 328.67096 
L 199.690125 328.445071 
L 200.180363 329.180421 
L 200.66306 328.827629 
L 200.905665 328.851625 
L 201.38459 328.75264 
L 201.624262 329.013139 
L 201.861001 328.770868 
L 202.581693 328.74018 
L 202.821785 329.149734 
L 203.292749 329.445766 
L 203.529488 329.341935 
L 203.764551 329.040135 
L 204.240543 328.726567 
L 204.473511 328.800633 
L 205.169063 328.637273 
L 205.399098 328.64581 
L 205.858748 328.880467 
L 206.089202 328.770868 
L 206.313371 328.493987 
L 206.766737 328.559285 
L 206.990906 328.325782 
L 207.215494 328.458454 
L 207.649585 327.91046 
L 207.870821 327.823935 
L 208.312454 327.345162 
L 208.527824 327.331548 
L 208.746127 327.814244 
L 209.183151 327.335471 
L 209.402711 327.75956 
L 209.620176 327.858545 
L 210.050077 327.778711 
L 210.267542 328.100816 
L 210.481654 327.749869 
L 210.906109 328.011291 
L 211.120221 327.387386 
L 211.540485 327.38554 
L 211.748313 327.272019 
L 211.957398 327.403768 
L 212.782004 326.447144 
L 213.195983 326.815396 
L 213.401296 327.17488 
L 213.607867 326.877925 
L 214.009695 326.06551 
L 214.212075 326.72887 
L 214.617674 326.833624 
L 215.018245 326.583739 
L 215.420073 326.834547 
L 215.618263 326.445298 
L 216.208644 326.336622 
L 216.407673 326.518441 
L 216.603349 326.227024 
L 216.995121 326.610735 
L 217.192054 326.195413 
L 217.570417 326.305935 
L 217.761485 326.072201 
L 217.956742 326.598044 
L 218.532877 326.299243 
L 218.726458 326.658727 
L 219.105241 326.475063 
L 219.294213 326.104965 
L 219.481928 326.230023 
L 219.86113 326.803859 
L 220.049683 326.695183 
L 220.420085 326.344237 
L 220.605286 326.887616 
L 220.787554 326.512442 
L 221.34651 326.403997 
L 221.53213 326.569202 
L 221.89499 325.930069 
L 222.079353 326.176031 
L 222.446404 326.141421 
L 222.629091 326.364541 
L 223.163744 326.096197 
L 223.342241 326.098274 
L 223.5199 325.683875 
L 223.873961 325.259786 
L 224.049944 325.320469 
L 224.226346 325.251249 
L 224.581245 325.482906 
L 224.757647 325.275245 
L 225.112127 325.607041 
L 225.459903 325.288628 
L 225.809774 325.583967 
L 225.982824 325.26094 
L 226.496527 325.544512 
L 226.666644 325.18572 
L 226.838856 325.24548 
L 227.179509 324.807085 
L 227.351301 324.397532 
L 236.584124 323.314927 
L 246.581216 322.255396 
L 255.693365 322.796698 
L 263.977136 321.732552 
L 271.635749 321.940213 
L 291.893907 320.165406 
L 297.971187 319.230932 
L 303.773179 319.161712 
L 309.27181 318.705089 
L 314.54711 318.691706 
L 319.643494 318.40998 
L 324.555515 318.273385 
L 333.784985 317.653402 
L 338.190845 317.507117 
L 342.439997 317.174629 
L 346.542496 316.60933 
L 354.262284 316.219851 
L 357.976782 315.442046 
L 361.581501 315.821834 
L 365.071411 315.741077 
L 368.448609 315.432586 
L 371.7441 314.906512 
L 374.954114 315.180624 
L 378.100439 315.224925 
L 381.165895 314.70485 
L 384.160539 315.158474 
L 387.078924 314.884592 
L 392.697391 314.697005 
L 395.39035 314.625016 
L 398.030095 314.10771 
L 403.136536 314.797144 
L 405.60784 313.81537 
L 408.027187 314.550027 
L 412.720486 314.263456 
L 415.007846 314.231845 
L 417.245344 314.378823 
L 419.434238 314.680623 
L 421.594639 314.091328 
L 425.76376 314.475039 
L 427.778346 314.545182 
L 429.751451 314.227 
L 431.698158 314.383668 
L 433.607993 314.341213 
L 435.456233 314.728846 
L 437.293161 314.850905 
L 439.084835 314.515417 
L 440.82581 314.609557 
L 442.543321 314.550027 
L 444.220187 314.661472 
L 445.895378 314.390359 
L 449.141845 314.922894 
L 450.718988 314.637476 
L 452.264287 314.612556 
L 453.763494 314.267378 
L 455.250551 314.825755 
L 458.159298 314.78353 
L 459.577637 315.000882 
L 460.975445 314.749843 
L 463.703182 315.003651 
L 465.036044 314.742229 
L 467.61629 314.64509 
L 468.880434 314.90282 
L 470.12321 314.980577 
L 471.350901 314.775916 
L 472.547166 314.894975 
L 473.726252 314.543336 
L 474.890673 314.906512 
L 476.03121 314.976886 
L 477.150379 314.356672 
L 478.254881 314.961427 
L 479.348909 315.232539 
L 481.46699 314.698851 
L 482.50948 315.122018 
L 483.529762 314.736461 
L 484.537056 315.475733 
L 485.526751 314.777762 
L 486.499685 315.295068 
L 487.455441 315.146014 
L 488.397369 315.353675 
L 489.318346 314.988422 
L 490.241 315.543107 
L 491.146475 315.070102 
L 492.025552 315.146014 
L 492.897086 315.470888 
L 493.754794 315.187315 
L 494.586104 315.492115 
L 495.421186 315.394976 
L 496.236154 315.177855 
L 497.03981 315.692162 
L 498.583014 315.316296 
L 499.346445 315.602637 
L 501.562573 315.454736 
L 502.271534 315.761382 
L 503.656352 315.865212 
L 504.333049 315.295991 
L 504.992147 315.73254 
L 505.639513 315.754691 
L 506.275566 316.233233 
L 506.89863 315.613251 
L 507.516246 315.47481 
L 508.121292 315.753537 
L 508.724663 315.508497 
L 509.311692 315.945969 
L 509.888665 315.846984 
L 511.01328 316.018881 
L 511.568045 316.056491 
L 512.102279 315.924742 
L 512.628552 315.554644 
L 513.153568 316.266921 
L 513.668109 316.123865 
L 515.143852 316.140017 
L 515.615654 315.711313 
L 516.079495 316.404438 
L 516.540822 316.385287 
L 516.989579 315.966966 
L 517.431212 316.16609 
L 517.91 316.695163 
L 517.91 316.695163 
" clip-path="url(#pa18c0dea40)" style="fill: none; stroke: #000000; stroke-width: 1.4; stroke-linecap: square"/>
   </g>
   <g id="line2d_38">
    <path d="M 63.31 334.695892 
L 517.91 334.695892 
" clip-path="url(#pa18c0dea40)" style="fill: none; stroke-dasharray: 7.4,3.2; stroke-dashoffset: 0; stroke: #808080; stroke-width: 2"/>
   </g>
   <g id="text_20">
    <path d="M 349.0475 262.785463 
L 350.033438 262.785463 
L 350.033438 269.246401 
L 353.583438 269.246401 
L 353.583438 270.076088 
L 349.0475 270.076088 
L 349.0475 262.785463 
z
M 354.579727 264.607338 
L 355.478164 264.607338 
L 355.478164 270.076088 
L 354.579727 270.076088 
L 354.579727 264.607338 
z
M 354.579727 262.477651 
L 355.478164 262.477651 
L 355.478164 263.616713 
L 354.579727 263.616713 
L 354.579727 262.477651 
z
M 361.904922 266.774526 
L 361.904922 270.076088 
L 361.006484 270.076088 
L 361.006484 266.804213 
Q 361.006484 266.027651 360.703359 265.643276 
Q 360.400234 265.257338 359.795547 265.257338 
Q 359.067422 265.257338 358.647109 265.721401 
Q 358.226797 266.183901 358.226797 266.985463 
L 358.226797 270.076088 
L 357.323672 270.076088 
L 357.323672 264.607338 
L 358.226797 264.607338 
L 358.226797 265.457338 
Q 358.550234 264.963588 358.986172 264.719838 
Q 359.423672 264.476088 359.995547 264.476088 
Q 360.937734 264.476088 361.420547 265.058901 
Q 361.904922 265.641713 361.904922 266.774526 
z
M 363.661563 262.477651 
L 364.564688 262.477651 
L 364.564688 266.965151 
L 367.245938 264.607338 
L 368.392813 264.607338 
L 365.492813 267.165151 
L 368.51625 270.076088 
L 367.344375 270.076088 
L 364.564688 267.405776 
L 364.564688 270.076088 
L 363.661563 270.076088 
L 363.661563 262.477651 
z
M 372.972891 264.768276 
L 372.972891 265.618276 
Q 372.593203 265.422963 372.182266 265.326088 
Q 371.772891 265.227651 371.332266 265.227651 
Q 370.663516 265.227651 370.329141 265.432338 
Q 369.994766 265.637026 369.994766 266.047963 
Q 369.994766 266.360463 370.233828 266.538588 
Q 370.472891 266.716713 371.196328 266.877651 
L 371.504141 266.946401 
Q 372.460391 267.151088 372.863516 267.524526 
Q 373.266641 267.897963 373.266641 268.566713 
Q 373.266641 269.329213 372.663516 269.774526 
Q 372.060391 270.218276 371.005703 270.218276 
Q 370.566641 270.218276 370.090078 270.132338 
Q 369.613516 270.046401 369.086953 269.876088 
L 369.086953 268.947963 
Q 369.585391 269.207338 370.068203 269.337026 
Q 370.551016 269.465151 371.026016 269.465151 
Q 371.660391 269.465151 372.001016 269.247963 
Q 372.343203 269.030776 372.343203 268.635463 
Q 372.343203 268.269838 372.096328 268.074526 
Q 371.851016 267.879213 371.015078 267.697963 
L 370.702578 267.624526 
Q 369.868203 267.449526 369.496328 267.085463 
Q 369.126016 266.721401 369.126016 266.087026 
Q 369.126016 265.315151 369.672891 264.896401 
Q 370.219766 264.476088 371.226016 264.476088 
Q 371.722891 264.476088 372.161953 264.549526 
Q 372.602578 264.621401 372.972891 264.768276 
z
" clip-path="url(#pa18c0dea40)" style="fill: #414487; stroke: #ffffff; stroke-width: 5"/>
    <path d="M 349.0475 262.785463 
L 350.033438 262.785463 
L 350.033438 269.246401 
L 353.583438 269.246401 
L 353.583438 270.076088 
L 349.0475 270.076088 
L 349.0475 262.785463 
z
M 354.579727 264.607338 
L 355.478164 264.607338 
L 355.478164 270.076088 
L 354.579727 270.076088 
L 354.579727 264.607338 
z
M 354.579727 262.477651 
L 355.478164 262.477651 
L 355.478164 263.616713 
L 354.579727 263.616713 
L 354.579727 262.477651 
z
M 361.904922 266.774526 
L 361.904922 270.076088 
L 361.006484 270.076088 
L 361.006484 266.804213 
Q 361.006484 266.027651 360.703359 265.643276 
Q 360.400234 265.257338 359.795547 265.257338 
Q 359.067422 265.257338 358.647109 265.721401 
Q 358.226797 266.183901 358.226797 266.985463 
L 358.226797 270.076088 
L 357.323672 270.076088 
L 357.323672 264.607338 
L 358.226797 264.607338 
L 358.226797 265.457338 
Q 358.550234 264.963588 358.986172 264.719838 
Q 359.423672 264.476088 359.995547 264.476088 
Q 360.937734 264.476088 361.420547 265.058901 
Q 361.904922 265.641713 361.904922 266.774526 
z
M 363.661563 262.477651 
L 364.564688 262.477651 
L 364.564688 266.965151 
L 367.245938 264.607338 
L 368.392813 264.607338 
L 365.492813 267.165151 
L 368.51625 270.076088 
L 367.344375 270.076088 
L 364.564688 267.405776 
L 364.564688 270.076088 
L 363.661563 270.076088 
L 363.661563 262.477651 
z
M 372.972891 264.768276 
L 372.972891 265.618276 
Q 372.593203 265.422963 372.182266 265.326088 
Q 371.772891 265.227651 371.332266 265.227651 
Q 370.663516 265.227651 370.329141 265.432338 
Q 369.994766 265.637026 369.994766 266.047963 
Q 369.994766 266.360463 370.233828 266.538588 
Q 370.472891 266.716713 371.196328 266.877651 
L 371.504141 266.946401 
Q 372.460391 267.151088 372.863516 267.524526 
Q 373.266641 267.897963 373.266641 268.566713 
Q 373.266641 269.329213 372.663516 269.774526 
Q 372.060391 270.218276 371.005703 270.218276 
Q 370.566641 270.218276 370.090078 270.132338 
Q 369.613516 270.046401 369.086953 269.876088 
L 369.086953 268.947963 
Q 369.585391 269.207338 370.068203 269.337026 
Q 370.551016 269.465151 371.026016 269.465151 
Q 371.660391 269.465151 372.001016 269.247963 
Q 372.343203 269.030776 372.343203 268.635463 
Q 372.343203 268.269838 372.096328 268.074526 
Q 371.851016 267.879213 371.015078 267.697963 
L 370.702578 267.624526 
Q 369.868203 267.449526 369.496328 267.085463 
Q 369.126016 266.721401 369.126016 266.087026 
Q 369.126016 265.315151 369.672891 264.896401 
Q 370.219766 264.476088 371.226016 264.476088 
Q 371.722891 264.476088 372.161953 264.549526 
Q 372.602578 264.621401 372.972891 264.768276 
z
" clip-path="url(#pa18c0dea40)" style="fill: #414487"/>
   </g>
   <g id="text_21">
    <path d="M 280.877719 302.334603 
L 287.044906 302.334603 
L 287.044906 303.165853 
L 284.457406 303.165853 
L 284.457406 309.625228 
L 283.466781 309.625228 
L 283.466781 303.165853 
L 280.877719 303.165853 
L 280.877719 302.334603 
z
M 289.651742 304.99554 
Q 289.50018 304.90804 289.322055 304.867415 
Q 289.14393 304.825228 288.929867 304.825228 
Q 288.167367 304.825228 287.759555 305.32054 
Q 287.351742 305.815853 287.351742 306.743978 
L 287.351742 309.625228 
L 286.448617 309.625228 
L 286.448617 304.156478 
L 287.351742 304.156478 
L 287.351742 305.006478 
Q 287.636117 304.50804 288.089242 304.267415 
Q 288.54393 304.025228 289.19393 304.025228 
Q 289.286117 304.025228 289.398617 304.037728 
Q 289.511117 304.048665 289.647055 304.073665 
L 289.651742 304.99554 
z
M 293.080258 306.87679 
Q 291.991195 306.87679 291.570883 307.125228 
Q 291.15057 307.373665 291.15057 307.975228 
Q 291.15057 308.453353 291.466195 308.734603 
Q 291.78182 309.01429 292.322445 309.01429 
Q 293.070883 309.01429 293.522445 308.484603 
Q 293.974008 307.954915 293.974008 307.07679 
L 293.974008 306.87679 
L 293.080258 306.87679 
z
M 294.872445 306.504915 
L 294.872445 309.625228 
L 293.974008 309.625228 
L 293.974008 308.79554 
Q 293.666195 309.292415 293.20682 309.529915 
Q 292.747445 309.767415 292.083383 309.767415 
Q 291.24432 309.767415 290.747445 309.29554 
Q 290.252133 308.823665 290.252133 308.03304 
Q 290.252133 307.111165 290.86932 306.642415 
Q 291.48807 306.173665 292.71307 306.173665 
L 293.974008 306.173665 
L 293.974008 306.084603 
Q 293.974008 305.46429 293.566195 305.125228 
Q 293.158383 304.786165 292.420883 304.786165 
Q 291.952133 304.786165 291.50682 304.898665 
Q 291.06307 305.011165 290.653695 305.236165 
L 290.653695 304.404915 
Q 291.145883 304.21429 291.609945 304.12054 
Q 292.074008 304.025228 292.51307 304.025228 
Q 293.70057 304.025228 294.286508 304.640853 
Q 294.872445 305.254915 294.872445 306.504915 
z
M 301.269125 306.323665 
L 301.269125 309.625228 
L 300.370688 309.625228 
L 300.370688 306.353353 
Q 300.370688 305.57679 300.067563 305.192415 
Q 299.764437 304.806478 299.15975 304.806478 
Q 298.431625 304.806478 298.011313 305.27054 
Q 297.591 305.73304 297.591 306.534603 
L 297.591 309.625228 
L 296.687875 309.625228 
L 296.687875 304.156478 
L 297.591 304.156478 
L 297.591 305.006478 
Q 297.914438 304.512728 298.350375 304.268978 
Q 298.787875 304.025228 299.35975 304.025228 
Q 300.301938 304.025228 300.78475 304.60804 
Q 301.269125 305.190853 301.269125 306.323665 
z
M 306.546078 304.317415 
L 306.546078 305.167415 
Q 306.166391 304.972103 305.755453 304.875228 
Q 305.346078 304.77679 304.905453 304.77679 
Q 304.236703 304.77679 303.902328 304.981478 
Q 303.567953 305.186165 303.567953 305.597103 
Q 303.567953 305.909603 303.807016 306.087728 
Q 304.046078 306.265853 304.769516 306.42679 
L 305.077328 306.49554 
Q 306.033578 306.700228 306.436703 307.073665 
Q 306.839828 307.447103 306.839828 308.115853 
Q 306.839828 308.878353 306.236703 309.323665 
Q 305.633578 309.767415 304.578891 309.767415 
Q 304.139828 309.767415 303.663266 309.681478 
Q 303.186703 309.59554 302.660141 309.425228 
L 302.660141 308.497103 
Q 303.158578 308.756478 303.641391 308.886165 
Q 304.124203 309.01429 304.599203 309.01429 
Q 305.233578 309.01429 305.574203 308.797103 
Q 305.916391 308.579915 305.916391 308.184603 
Q 305.916391 307.818978 305.669516 307.623665 
Q 305.424203 307.428353 304.588266 307.247103 
L 304.275766 307.173665 
Q 303.441391 306.998665 303.069516 306.634603 
Q 302.699203 306.27054 302.699203 305.636165 
Q 302.699203 304.86429 303.246078 304.44554 
Q 303.792953 304.025228 304.799203 304.025228 
Q 305.296078 304.025228 305.735141 304.098665 
Q 306.175766 304.17054 306.546078 304.317415 
z
M 309.138852 308.804915 
L 309.138852 311.704915 
L 308.235727 311.704915 
L 308.235727 304.156478 
L 309.138852 304.156478 
L 309.138852 304.986165 
Q 309.423227 304.498665 309.854477 304.262728 
Q 310.287289 304.025228 310.887289 304.025228 
Q 311.884164 304.025228 312.506039 304.815853 
Q 313.129477 305.606478 313.129477 306.89554 
Q 313.129477 308.184603 312.506039 308.97679 
Q 311.884164 309.767415 310.887289 309.767415 
Q 310.287289 309.767415 309.854477 309.529915 
Q 309.423227 309.292415 309.138852 308.804915 
z
M 312.196664 306.89554 
Q 312.196664 305.904915 311.788852 305.340853 
Q 311.381039 304.77679 310.668539 304.77679 
Q 309.954477 304.77679 309.546664 305.340853 
Q 309.138852 305.904915 309.138852 306.89554 
Q 309.138852 307.886165 309.546664 308.450228 
Q 309.954477 309.01429 310.668539 309.01429 
Q 311.381039 309.01429 311.788852 308.450228 
Q 312.196664 307.886165 312.196664 306.89554 
z
M 316.736508 304.786165 
Q 316.014633 304.786165 315.59432 305.350228 
Q 315.174008 305.91429 315.174008 306.89554 
Q 315.174008 307.87679 315.591195 308.440853 
Q 316.009945 309.004915 316.736508 309.004915 
Q 317.455258 309.004915 317.874008 308.43929 
Q 318.29432 307.872103 318.29432 306.89554 
Q 318.29432 305.923665 317.874008 305.354915 
Q 317.455258 304.786165 316.736508 304.786165 
z
M 316.736508 304.025228 
Q 317.908383 304.025228 318.577133 304.787728 
Q 319.247445 305.548665 319.247445 306.89554 
Q 319.247445 308.237728 318.577133 309.003353 
Q 317.908383 309.767415 316.736508 309.767415 
Q 315.559945 309.767415 314.892758 309.003353 
Q 314.227133 308.237728 314.227133 306.89554 
Q 314.227133 305.548665 314.892758 304.787728 
Q 315.559945 304.025228 316.736508 304.025228 
z
M 323.904672 304.99554 
Q 323.753109 304.90804 323.574984 304.867415 
Q 323.396859 304.825228 323.182797 304.825228 
Q 322.420297 304.825228 322.012484 305.32054 
Q 321.604672 305.815853 321.604672 306.743978 
L 321.604672 309.625228 
L 320.701547 309.625228 
L 320.701547 304.156478 
L 321.604672 304.156478 
L 321.604672 305.006478 
Q 321.889047 304.50804 322.342172 304.267415 
Q 322.796859 304.025228 323.446859 304.025228 
Q 323.539047 304.025228 323.651547 304.037728 
Q 323.764047 304.048665 323.899984 304.073665 
L 323.904672 304.99554 
z
M 325.736312 302.603353 
L 325.736312 304.156478 
L 327.586313 304.156478 
L 327.586313 304.854915 
L 325.736312 304.854915 
L 325.736312 307.823665 
Q 325.736312 308.492415 325.919125 308.68304 
Q 326.101938 308.873665 326.664438 308.873665 
L 327.586313 308.873665 
L 327.586313 309.625228 
L 326.664438 309.625228 
Q 325.623812 309.625228 325.2285 309.237728 
Q 324.833188 308.848665 324.833188 307.823665 
L 324.833188 304.854915 
L 324.173812 304.854915 
L 324.173812 304.156478 
L 324.833188 304.156478 
L 324.833188 302.603353 
L 325.736312 302.603353 
z
" clip-path="url(#pa18c0dea40)" style="fill: #ff0000; stroke: #ffffff; stroke-width: 5"/>
    <path d="M 280.877719 302.334603 
L 287.044906 302.334603 
L 287.044906 303.165853 
L 284.457406 303.165853 
L 284.457406 309.625228 
L 283.466781 309.625228 
L 283.466781 303.165853 
L 280.877719 303.165853 
L 280.877719 302.334603 
z
M 289.651742 304.99554 
Q 289.50018 304.90804 289.322055 304.867415 
Q 289.14393 304.825228 288.929867 304.825228 
Q 288.167367 304.825228 287.759555 305.32054 
Q 287.351742 305.815853 287.351742 306.743978 
L 287.351742 309.625228 
L 286.448617 309.625228 
L 286.448617 304.156478 
L 287.351742 304.156478 
L 287.351742 305.006478 
Q 287.636117 304.50804 288.089242 304.267415 
Q 288.54393 304.025228 289.19393 304.025228 
Q 289.286117 304.025228 289.398617 304.037728 
Q 289.511117 304.048665 289.647055 304.073665 
L 289.651742 304.99554 
z
M 293.080258 306.87679 
Q 291.991195 306.87679 291.570883 307.125228 
Q 291.15057 307.373665 291.15057 307.975228 
Q 291.15057 308.453353 291.466195 308.734603 
Q 291.78182 309.01429 292.322445 309.01429 
Q 293.070883 309.01429 293.522445 308.484603 
Q 293.974008 307.954915 293.974008 307.07679 
L 293.974008 306.87679 
L 293.080258 306.87679 
z
M 294.872445 306.504915 
L 294.872445 309.625228 
L 293.974008 309.625228 
L 293.974008 308.79554 
Q 293.666195 309.292415 293.20682 309.529915 
Q 292.747445 309.767415 292.083383 309.767415 
Q 291.24432 309.767415 290.747445 309.29554 
Q 290.252133 308.823665 290.252133 308.03304 
Q 290.252133 307.111165 290.86932 306.642415 
Q 291.48807 306.173665 292.71307 306.173665 
L 293.974008 306.173665 
L 293.974008 306.084603 
Q 293.974008 305.46429 293.566195 305.125228 
Q 293.158383 304.786165 292.420883 304.786165 
Q 291.952133 304.786165 291.50682 304.898665 
Q 291.06307 305.011165 290.653695 305.236165 
L 290.653695 304.404915 
Q 291.145883 304.21429 291.609945 304.12054 
Q 292.074008 304.025228 292.51307 304.025228 
Q 293.70057 304.025228 294.286508 304.640853 
Q 294.872445 305.254915 294.872445 306.504915 
z
M 301.269125 306.323665 
L 301.269125 309.625228 
L 300.370688 309.625228 
L 300.370688 306.353353 
Q 300.370688 305.57679 300.067563 305.192415 
Q 299.764437 304.806478 299.15975 304.806478 
Q 298.431625 304.806478 298.011313 305.27054 
Q 297.591 305.73304 297.591 306.534603 
L 297.591 309.625228 
L 296.687875 309.625228 
L 296.687875 304.156478 
L 297.591 304.156478 
L 297.591 305.006478 
Q 297.914438 304.512728 298.350375 304.268978 
Q 298.787875 304.025228 299.35975 304.025228 
Q 300.301938 304.025228 300.78475 304.60804 
Q 301.269125 305.190853 301.269125 306.323665 
z
M 306.546078 304.317415 
L 306.546078 305.167415 
Q 306.166391 304.972103 305.755453 304.875228 
Q 305.346078 304.77679 304.905453 304.77679 
Q 304.236703 304.77679 303.902328 304.981478 
Q 303.567953 305.186165 303.567953 305.597103 
Q 303.567953 305.909603 303.807016 306.087728 
Q 304.046078 306.265853 304.769516 306.42679 
L 305.077328 306.49554 
Q 306.033578 306.700228 306.436703 307.073665 
Q 306.839828 307.447103 306.839828 308.115853 
Q 306.839828 308.878353 306.236703 309.323665 
Q 305.633578 309.767415 304.578891 309.767415 
Q 304.139828 309.767415 303.663266 309.681478 
Q 303.186703 309.59554 302.660141 309.425228 
L 302.660141 308.497103 
Q 303.158578 308.756478 303.641391 308.886165 
Q 304.124203 309.01429 304.599203 309.01429 
Q 305.233578 309.01429 305.574203 308.797103 
Q 305.916391 308.579915 305.916391 308.184603 
Q 305.916391 307.818978 305.669516 307.623665 
Q 305.424203 307.428353 304.588266 307.247103 
L 304.275766 307.173665 
Q 303.441391 306.998665 303.069516 306.634603 
Q 302.699203 306.27054 302.699203 305.636165 
Q 302.699203 304.86429 303.246078 304.44554 
Q 303.792953 304.025228 304.799203 304.025228 
Q 305.296078 304.025228 305.735141 304.098665 
Q 306.175766 304.17054 306.546078 304.317415 
z
M 309.138852 308.804915 
L 309.138852 311.704915 
L 308.235727 311.704915 
L 308.235727 304.156478 
L 309.138852 304.156478 
L 309.138852 304.986165 
Q 309.423227 304.498665 309.854477 304.262728 
Q 310.287289 304.025228 310.887289 304.025228 
Q 311.884164 304.025228 312.506039 304.815853 
Q 313.129477 305.606478 313.129477 306.89554 
Q 313.129477 308.184603 312.506039 308.97679 
Q 311.884164 309.767415 310.887289 309.767415 
Q 310.287289 309.767415 309.854477 309.529915 
Q 309.423227 309.292415 309.138852 308.804915 
z
M 312.196664 306.89554 
Q 312.196664 305.904915 311.788852 305.340853 
Q 311.381039 304.77679 310.668539 304.77679 
Q 309.954477 304.77679 309.546664 305.340853 
Q 309.138852 305.904915 309.138852 306.89554 
Q 309.138852 307.886165 309.546664 308.450228 
Q 309.954477 309.01429 310.668539 309.01429 
Q 311.381039 309.01429 311.788852 308.450228 
Q 312.196664 307.886165 312.196664 306.89554 
z
M 316.736508 304.786165 
Q 316.014633 304.786165 315.59432 305.350228 
Q 315.174008 305.91429 315.174008 306.89554 
Q 315.174008 307.87679 315.591195 308.440853 
Q 316.009945 309.004915 316.736508 309.004915 
Q 317.455258 309.004915 317.874008 308.43929 
Q 318.29432 307.872103 318.29432 306.89554 
Q 318.29432 305.923665 317.874008 305.354915 
Q 317.455258 304.786165 316.736508 304.786165 
z
M 316.736508 304.025228 
Q 317.908383 304.025228 318.577133 304.787728 
Q 319.247445 305.548665 319.247445 306.89554 
Q 319.247445 308.237728 318.577133 309.003353 
Q 317.908383 309.767415 316.736508 309.767415 
Q 315.559945 309.767415 314.892758 309.003353 
Q 314.227133 308.237728 314.227133 306.89554 
Q 314.227133 305.548665 314.892758 304.787728 
Q 315.559945 304.025228 316.736508 304.025228 
z
M 323.904672 304.99554 
Q 323.753109 304.90804 323.574984 304.867415 
Q 323.396859 304.825228 323.182797 304.825228 
Q 322.420297 304.825228 322.012484 305.32054 
Q 321.604672 305.815853 321.604672 306.743978 
L 321.604672 309.625228 
L 320.701547 309.625228 
L 320.701547 304.156478 
L 321.604672 304.156478 
L 321.604672 305.006478 
Q 321.889047 304.50804 322.342172 304.267415 
Q 322.796859 304.025228 323.446859 304.025228 
Q 323.539047 304.025228 323.651547 304.037728 
Q 323.764047 304.048665 323.899984 304.073665 
L 323.904672 304.99554 
z
M 325.736312 302.603353 
L 325.736312 304.156478 
L 327.586313 304.156478 
L 327.586313 304.854915 
L 325.736312 304.854915 
L 325.736312 307.823665 
Q 325.736312 308.492415 325.919125 308.68304 
Q 326.101938 308.873665 326.664438 308.873665 
L 327.586313 308.873665 
L 327.586313 309.625228 
L 326.664438 309.625228 
Q 325.623812 309.625228 325.2285 309.237728 
Q 324.833188 308.848665 324.833188 307.823665 
L 324.833188 304.854915 
L 324.173812 304.854915 
L 324.173812 304.156478 
L 324.833188 304.156478 
L 324.833188 302.603353 
L 325.736312 302.603353 
z
" clip-path="url(#pa18c0dea40)" style="fill: #ff0000"/>
   </g>
   <g id="text_22">
    <path d="M 158.050781 313.162645 
L 158.050781 315.901707 
L 159.291406 315.901707 
Q 159.980469 315.901707 160.355469 315.545457 
Q 160.732031 315.189207 160.732031 314.529832 
Q 160.732031 313.875145 160.355469 313.518895 
Q 159.980469 313.162645 159.291406 313.162645 
L 158.050781 313.162645 
z
M 157.064844 312.351707 
L 159.291406 312.351707 
Q 160.517969 312.351707 161.144531 312.906395 
Q 161.772656 313.461082 161.772656 314.529832 
Q 161.772656 315.60952 161.144531 316.161082 
Q 160.517969 316.712645 159.291406 316.712645 
L 158.050781 316.712645 
L 158.050781 319.642332 
L 157.064844 319.642332 
L 157.064844 312.351707 
z
M 164.812305 314.80327 
Q 164.09043 314.80327 163.670117 315.367332 
Q 163.249805 315.931395 163.249805 316.912645 
Q 163.249805 317.893895 163.666992 318.457957 
Q 164.085742 319.02202 164.812305 319.02202 
Q 165.531055 319.02202 165.949805 318.456395 
Q 166.370117 317.889207 166.370117 316.912645 
Q 166.370117 315.94077 165.949805 315.37202 
Q 165.531055 314.80327 164.812305 314.80327 
z
M 164.812305 314.042332 
Q 165.98418 314.042332 166.65293 314.804832 
Q 167.323242 315.56577 167.323242 316.912645 
Q 167.323242 318.254832 166.65293 319.020457 
Q 165.98418 319.78452 164.812305 319.78452 
Q 163.635742 319.78452 162.968555 319.020457 
Q 162.30293 318.254832 162.30293 316.912645 
Q 162.30293 315.56577 162.968555 314.804832 
Q 163.635742 314.042332 164.812305 314.042332 
z
M 169.680469 318.82202 
L 169.680469 321.72202 
L 168.777344 321.72202 
L 168.777344 314.173582 
L 169.680469 314.173582 
L 169.680469 315.00327 
Q 169.964844 314.51577 170.396094 314.279832 
Q 170.828906 314.042332 171.428906 314.042332 
Q 172.425781 314.042332 173.047656 314.832957 
Q 173.671094 315.623582 173.671094 316.912645 
Q 173.671094 318.201707 173.047656 318.993895 
Q 172.425781 319.78452 171.428906 319.78452 
Q 170.828906 319.78452 170.396094 319.54702 
Q 169.964844 319.30952 169.680469 318.82202 
z
M 172.738281 316.912645 
Q 172.738281 315.92202 172.330469 315.357957 
Q 171.922656 314.793895 171.210156 314.793895 
Q 170.496094 314.793895 170.088281 315.357957 
Q 169.680469 315.92202 169.680469 316.912645 
Q 169.680469 317.90327 170.088281 318.467332 
Q 170.496094 319.031395 171.210156 319.031395 
Q 171.922656 319.031395 172.330469 318.467332 
Q 172.738281 317.90327 172.738281 316.912645 
z
M 175.067188 317.48452 
L 175.067188 314.173582 
L 175.965625 314.173582 
L 175.965625 317.450145 
Q 175.965625 318.226707 176.267188 318.61577 
Q 176.570313 319.00327 177.176563 319.00327 
Q 177.903125 319.00327 178.325 318.539207 
Q 178.748438 318.075145 178.748438 317.273582 
L 178.748438 314.173582 
L 179.646875 314.173582 
L 179.646875 319.642332 
L 178.748438 319.642332 
L 178.748438 318.801707 
Q 178.421875 319.300145 177.989063 319.542332 
Q 177.557813 319.78452 176.985938 319.78452 
Q 176.04375 319.78452 175.554688 319.198582 
Q 175.067188 318.612645 175.067188 317.48452 
z
M 177.328125 314.042332 
L 177.328125 314.042332 
z
M 181.497266 312.043895 
L 182.395703 312.043895 
L 182.395703 319.642332 
L 181.497266 319.642332 
L 181.497266 312.043895 
z
M 186.761523 316.893895 
Q 185.672461 316.893895 185.252148 317.142332 
Q 184.831836 317.39077 184.831836 317.992332 
Q 184.831836 318.470457 185.147461 318.751707 
Q 185.463086 319.031395 186.003711 319.031395 
Q 186.752148 319.031395 187.203711 318.501707 
Q 187.655273 317.97202 187.655273 317.093895 
L 187.655273 316.893895 
L 186.761523 316.893895 
z
M 188.553711 316.52202 
L 188.553711 319.642332 
L 187.655273 319.642332 
L 187.655273 318.812645 
Q 187.347461 319.30952 186.888086 319.54702 
Q 186.428711 319.78452 185.764648 319.78452 
Q 184.925586 319.78452 184.428711 319.312645 
Q 183.933398 318.84077 183.933398 318.050145 
Q 183.933398 317.12827 184.550586 316.65952 
Q 185.169336 316.19077 186.394336 316.19077 
L 187.655273 316.19077 
L 187.655273 316.101707 
Q 187.655273 315.481395 187.247461 315.142332 
Q 186.839648 314.80327 186.102148 314.80327 
Q 185.633398 314.80327 185.188086 314.91577 
Q 184.744336 315.02827 184.334961 315.25327 
L 184.334961 314.42202 
Q 184.827148 314.231395 185.291211 314.137645 
Q 185.755273 314.042332 186.194336 314.042332 
Q 187.381836 314.042332 187.967773 314.657957 
Q 188.553711 315.27202 188.553711 316.52202 
z
M 191.292578 312.620457 
L 191.292578 314.173582 
L 193.142578 314.173582 
L 193.142578 314.87202 
L 191.292578 314.87202 
L 191.292578 317.84077 
Q 191.292578 318.50952 191.475391 318.700145 
Q 191.658203 318.89077 192.220703 318.89077 
L 193.142578 318.89077 
L 193.142578 319.642332 
L 192.220703 319.642332 
Q 191.180078 319.642332 190.784766 319.254832 
Q 190.389453 318.86577 190.389453 317.84077 
L 190.389453 314.87202 
L 189.730078 314.87202 
L 189.730078 314.173582 
L 190.389453 314.173582 
L 190.389453 312.620457 
L 191.292578 312.620457 
z
M 194.324414 314.173582 
L 195.222852 314.173582 
L 195.222852 319.642332 
L 194.324414 319.642332 
L 194.324414 314.173582 
z
M 194.324414 312.043895 
L 195.222852 312.043895 
L 195.222852 313.182957 
L 194.324414 313.182957 
L 194.324414 312.043895 
z
M 199.221484 314.80327 
Q 198.499609 314.80327 198.079297 315.367332 
Q 197.658984 315.931395 197.658984 316.912645 
Q 197.658984 317.893895 198.076172 318.457957 
Q 198.494922 319.02202 199.221484 319.02202 
Q 199.940234 319.02202 200.358984 318.456395 
Q 200.779297 317.889207 200.779297 316.912645 
Q 200.779297 315.94077 200.358984 315.37202 
Q 199.940234 314.80327 199.221484 314.80327 
z
M 199.221484 314.042332 
Q 200.393359 314.042332 201.062109 314.804832 
Q 201.732422 315.56577 201.732422 316.912645 
Q 201.732422 318.254832 201.062109 319.020457 
Q 200.393359 319.78452 199.221484 319.78452 
Q 198.044922 319.78452 197.377734 319.020457 
Q 196.712109 318.254832 196.712109 316.912645 
Q 196.712109 315.56577 197.377734 314.804832 
Q 198.044922 314.042332 199.221484 314.042332 
z
M 207.767773 316.34077 
L 207.767773 319.642332 
L 206.869336 319.642332 
L 206.869336 316.370457 
Q 206.869336 315.593895 206.566211 315.20952 
Q 206.263086 314.823582 205.658398 314.823582 
Q 204.930273 314.823582 204.509961 315.287645 
Q 204.089648 315.750145 204.089648 316.551707 
L 204.089648 319.642332 
L 203.186523 319.642332 
L 203.186523 314.173582 
L 204.089648 314.173582 
L 204.089648 315.023582 
Q 204.413086 314.529832 204.849023 314.286082 
Q 205.286523 314.042332 205.858398 314.042332 
Q 206.800586 314.042332 207.283398 314.625145 
Q 207.767773 315.207957 207.767773 316.34077 
z
" clip-path="url(#pa18c0dea40)" style="stroke: #ffffff; stroke-width: 5"/>
    <path d="M 158.050781 313.162645 
L 158.050781 315.901707 
L 159.291406 315.901707 
Q 159.980469 315.901707 160.355469 315.545457 
Q 160.732031 315.189207 160.732031 314.529832 
Q 160.732031 313.875145 160.355469 313.518895 
Q 159.980469 313.162645 159.291406 313.162645 
L 158.050781 313.162645 
z
M 157.064844 312.351707 
L 159.291406 312.351707 
Q 160.517969 312.351707 161.144531 312.906395 
Q 161.772656 313.461082 161.772656 314.529832 
Q 161.772656 315.60952 161.144531 316.161082 
Q 160.517969 316.712645 159.291406 316.712645 
L 158.050781 316.712645 
L 158.050781 319.642332 
L 157.064844 319.642332 
L 157.064844 312.351707 
z
M 164.812305 314.80327 
Q 164.09043 314.80327 163.670117 315.367332 
Q 163.249805 315.931395 163.249805 316.912645 
Q 163.249805 317.893895 163.666992 318.457957 
Q 164.085742 319.02202 164.812305 319.02202 
Q 165.531055 319.02202 165.949805 318.456395 
Q 166.370117 317.889207 166.370117 316.912645 
Q 166.370117 315.94077 165.949805 315.37202 
Q 165.531055 314.80327 164.812305 314.80327 
z
M 164.812305 314.042332 
Q 165.98418 314.042332 166.65293 314.804832 
Q 167.323242 315.56577 167.323242 316.912645 
Q 167.323242 318.254832 166.65293 319.020457 
Q 165.98418 319.78452 164.812305 319.78452 
Q 163.635742 319.78452 162.968555 319.020457 
Q 162.30293 318.254832 162.30293 316.912645 
Q 162.30293 315.56577 162.968555 314.804832 
Q 163.635742 314.042332 164.812305 314.042332 
z
M 169.680469 318.82202 
L 169.680469 321.72202 
L 168.777344 321.72202 
L 168.777344 314.173582 
L 169.680469 314.173582 
L 169.680469 315.00327 
Q 169.964844 314.51577 170.396094 314.279832 
Q 170.828906 314.042332 171.428906 314.042332 
Q 172.425781 314.042332 173.047656 314.832957 
Q 173.671094 315.623582 173.671094 316.912645 
Q 173.671094 318.201707 173.047656 318.993895 
Q 172.425781 319.78452 171.428906 319.78452 
Q 170.828906 319.78452 170.396094 319.54702 
Q 169.964844 319.30952 169.680469 318.82202 
z
M 172.738281 316.912645 
Q 172.738281 315.92202 172.330469 315.357957 
Q 171.922656 314.793895 171.210156 314.793895 
Q 170.496094 314.793895 170.088281 315.357957 
Q 169.680469 315.92202 169.680469 316.912645 
Q 169.680469 317.90327 170.088281 318.467332 
Q 170.496094 319.031395 171.210156 319.031395 
Q 171.922656 319.031395 172.330469 318.467332 
Q 172.738281 317.90327 172.738281 316.912645 
z
M 175.067188 317.48452 
L 175.067188 314.173582 
L 175.965625 314.173582 
L 175.965625 317.450145 
Q 175.965625 318.226707 176.267188 318.61577 
Q 176.570313 319.00327 177.176563 319.00327 
Q 177.903125 319.00327 178.325 318.539207 
Q 178.748438 318.075145 178.748438 317.273582 
L 178.748438 314.173582 
L 179.646875 314.173582 
L 179.646875 319.642332 
L 178.748438 319.642332 
L 178.748438 318.801707 
Q 178.421875 319.300145 177.989063 319.542332 
Q 177.557813 319.78452 176.985938 319.78452 
Q 176.04375 319.78452 175.554688 319.198582 
Q 175.067188 318.612645 175.067188 317.48452 
z
M 177.328125 314.042332 
L 177.328125 314.042332 
z
M 181.497266 312.043895 
L 182.395703 312.043895 
L 182.395703 319.642332 
L 181.497266 319.642332 
L 181.497266 312.043895 
z
M 186.761523 316.893895 
Q 185.672461 316.893895 185.252148 317.142332 
Q 184.831836 317.39077 184.831836 317.992332 
Q 184.831836 318.470457 185.147461 318.751707 
Q 185.463086 319.031395 186.003711 319.031395 
Q 186.752148 319.031395 187.203711 318.501707 
Q 187.655273 317.97202 187.655273 317.093895 
L 187.655273 316.893895 
L 186.761523 316.893895 
z
M 188.553711 316.52202 
L 188.553711 319.642332 
L 187.655273 319.642332 
L 187.655273 318.812645 
Q 187.347461 319.30952 186.888086 319.54702 
Q 186.428711 319.78452 185.764648 319.78452 
Q 184.925586 319.78452 184.428711 319.312645 
Q 183.933398 318.84077 183.933398 318.050145 
Q 183.933398 317.12827 184.550586 316.65952 
Q 185.169336 316.19077 186.394336 316.19077 
L 187.655273 316.19077 
L 187.655273 316.101707 
Q 187.655273 315.481395 187.247461 315.142332 
Q 186.839648 314.80327 186.102148 314.80327 
Q 185.633398 314.80327 185.188086 314.91577 
Q 184.744336 315.02827 184.334961 315.25327 
L 184.334961 314.42202 
Q 184.827148 314.231395 185.291211 314.137645 
Q 185.755273 314.042332 186.194336 314.042332 
Q 187.381836 314.042332 187.967773 314.657957 
Q 188.553711 315.27202 188.553711 316.52202 
z
M 191.292578 312.620457 
L 191.292578 314.173582 
L 193.142578 314.173582 
L 193.142578 314.87202 
L 191.292578 314.87202 
L 191.292578 317.84077 
Q 191.292578 318.50952 191.475391 318.700145 
Q 191.658203 318.89077 192.220703 318.89077 
L 193.142578 318.89077 
L 193.142578 319.642332 
L 192.220703 319.642332 
Q 191.180078 319.642332 190.784766 319.254832 
Q 190.389453 318.86577 190.389453 317.84077 
L 190.389453 314.87202 
L 189.730078 314.87202 
L 189.730078 314.173582 
L 190.389453 314.173582 
L 190.389453 312.620457 
L 191.292578 312.620457 
z
M 194.324414 314.173582 
L 195.222852 314.173582 
L 195.222852 319.642332 
L 194.324414 319.642332 
L 194.324414 314.173582 
z
M 194.324414 312.043895 
L 195.222852 312.043895 
L 195.222852 313.182957 
L 194.324414 313.182957 
L 194.324414 312.043895 
z
M 199.221484 314.80327 
Q 198.499609 314.80327 198.079297 315.367332 
Q 197.658984 315.931395 197.658984 316.912645 
Q 197.658984 317.893895 198.076172 318.457957 
Q 198.494922 319.02202 199.221484 319.02202 
Q 199.940234 319.02202 200.358984 318.456395 
Q 200.779297 317.889207 200.779297 316.912645 
Q 200.779297 315.94077 200.358984 315.37202 
Q 199.940234 314.80327 199.221484 314.80327 
z
M 199.221484 314.042332 
Q 200.393359 314.042332 201.062109 314.804832 
Q 201.732422 315.56577 201.732422 316.912645 
Q 201.732422 318.254832 201.062109 319.020457 
Q 200.393359 319.78452 199.221484 319.78452 
Q 198.044922 319.78452 197.377734 319.020457 
Q 196.712109 318.254832 196.712109 316.912645 
Q 196.712109 315.56577 197.377734 314.804832 
Q 198.044922 314.042332 199.221484 314.042332 
z
M 207.767773 316.34077 
L 207.767773 319.642332 
L 206.869336 319.642332 
L 206.869336 316.370457 
Q 206.869336 315.593895 206.566211 315.20952 
Q 206.263086 314.823582 205.658398 314.823582 
Q 204.930273 314.823582 204.509961 315.287645 
Q 204.089648 315.750145 204.089648 316.551707 
L 204.089648 319.642332 
L 203.186523 319.642332 
L 203.186523 314.173582 
L 204.089648 314.173582 
L 204.089648 315.023582 
Q 204.413086 314.529832 204.849023 314.286082 
Q 205.286523 314.042332 205.858398 314.042332 
Q 206.800586 314.042332 207.283398 314.625145 
Q 207.767773 315.207957 207.767773 316.34077 
z
" clip-path="url(#pa18c0dea40)"/>
   </g>
   <g id="text_23">
    <path d="M 344.650625 345.573226 
Q 344.967813 345.681039 345.267812 346.032601 
Q 345.567813 346.384164 345.870938 346.999789 
L 346.8725 348.991976 
L 345.811563 348.991976 
L 344.880313 347.121664 
Q 344.517812 346.388851 344.17875 346.149789 
Q 343.839688 345.910726 343.25375 345.910726 
L 342.17875 345.910726 
L 342.17875 348.991976 
L 341.192813 348.991976 
L 341.192813 341.701351 
L 343.419375 341.701351 
Q 344.669375 341.701351 345.285 342.224789 
Q 345.900625 342.746664 345.900625 343.801351 
Q 345.900625 344.490414 345.580312 344.945101 
Q 345.26 345.398226 344.650625 345.573226 
z
M 342.17875 342.512289 
L 342.17875 345.099789 
L 343.419375 345.099789 
Q 344.131875 345.099789 344.495938 344.770101 
Q 344.86 344.440414 344.86 343.801351 
Q 344.86 343.162289 344.495938 342.837289 
Q 344.131875 342.512289 343.419375 342.512289 
L 342.17875 342.512289 
z
M 350.36293 346.243539 
Q 349.273867 346.243539 348.853555 346.491976 
Q 348.433242 346.740414 348.433242 347.341976 
Q 348.433242 347.820101 348.748867 348.101351 
Q 349.064492 348.381039 349.605117 348.381039 
Q 350.353555 348.381039 350.805117 347.851351 
Q 351.25668 347.321664 351.25668 346.443539 
L 351.25668 346.243539 
L 350.36293 346.243539 
z
M 352.155117 345.871664 
L 352.155117 348.991976 
L 351.25668 348.991976 
L 351.25668 348.162289 
Q 350.948867 348.659164 350.489492 348.896664 
Q 350.030117 349.134164 349.366055 349.134164 
Q 348.526992 349.134164 348.030117 348.662289 
Q 347.534805 348.190414 347.534805 347.399789 
Q 347.534805 346.477914 348.151992 346.009164 
Q 348.770742 345.540414 349.995742 345.540414 
L 351.25668 345.540414 
L 351.25668 345.451351 
Q 351.25668 344.831039 350.848867 344.491976 
Q 350.441055 344.152914 349.703555 344.152914 
Q 349.234805 344.152914 348.789492 344.265414 
Q 348.345742 344.377914 347.936367 344.602914 
L 347.936367 343.771664 
Q 348.428555 343.581039 348.892617 343.487289 
Q 349.35668 343.391976 349.795742 343.391976 
Q 350.983242 343.391976 351.56918 344.007601 
Q 352.155117 344.621664 352.155117 345.871664 
z
M 358.551797 345.690414 
L 358.551797 348.991976 
L 357.653359 348.991976 
L 357.653359 345.720101 
Q 357.653359 344.943539 357.350234 344.559164 
Q 357.047109 344.173226 356.442422 344.173226 
Q 355.714297 344.173226 355.293984 344.637289 
Q 354.873672 345.099789 354.873672 345.901351 
L 354.873672 348.991976 
L 353.970547 348.991976 
L 353.970547 343.523226 
L 354.873672 343.523226 
L 354.873672 344.373226 
Q 355.197109 343.879476 355.633047 343.635726 
Q 356.070547 343.391976 356.642422 343.391976 
Q 357.584609 343.391976 358.067422 343.974789 
Q 358.551797 344.557601 358.551797 345.690414 
z
M 363.94125 344.352914 
L 363.94125 341.393539 
L 364.839688 341.393539 
L 364.839688 348.991976 
L 363.94125 348.991976 
L 363.94125 348.171664 
Q 363.658437 348.659164 363.225625 348.896664 
Q 362.794375 349.134164 362.188125 349.134164 
Q 361.1975 349.134164 360.574063 348.343539 
Q 359.952188 347.551351 359.952188 346.262289 
Q 359.952188 344.973226 360.574063 344.182601 
Q 361.1975 343.391976 362.188125 343.391976 
Q 362.794375 343.391976 363.225625 343.629476 
Q 363.658437 343.865414 363.94125 344.352914 
z
M 360.880313 346.262289 
Q 360.880313 347.252914 361.288125 347.816976 
Q 361.695938 348.381039 362.408437 348.381039 
Q 363.120938 348.381039 363.530313 347.816976 
Q 363.94125 347.252914 363.94125 346.262289 
Q 363.94125 345.271664 363.530313 344.707601 
Q 363.120938 344.143539 362.408437 344.143539 
Q 361.695938 344.143539 361.288125 344.707601 
Q 360.880313 345.271664 360.880313 346.262289 
z
M 368.809219 344.152914 
Q 368.087344 344.152914 367.667031 344.716976 
Q 367.246719 345.281039 367.246719 346.262289 
Q 367.246719 347.243539 367.663906 347.807601 
Q 368.082656 348.371664 368.809219 348.371664 
Q 369.527969 348.371664 369.946719 347.806039 
Q 370.367031 347.238851 370.367031 346.262289 
Q 370.367031 345.290414 369.946719 344.721664 
Q 369.527969 344.152914 368.809219 344.152914 
z
M 368.809219 343.391976 
Q 369.981094 343.391976 370.649844 344.154476 
Q 371.320156 344.915414 371.320156 346.262289 
Q 371.320156 347.604476 370.649844 348.370101 
Q 369.981094 349.134164 368.809219 349.134164 
Q 367.632656 349.134164 366.965469 348.370101 
Q 366.299844 347.604476 366.299844 346.262289 
Q 366.299844 344.915414 366.965469 344.154476 
Q 367.632656 343.391976 368.809219 343.391976 
z
M 377.066445 344.573226 
Q 377.403945 343.966976 377.872695 343.679476 
Q 378.341445 343.391976 378.97582 343.391976 
Q 379.830508 343.391976 380.29457 343.990414 
Q 380.758633 344.587289 380.758633 345.690414 
L 380.758633 348.991976 
L 379.855508 348.991976 
L 379.855508 345.720101 
Q 379.855508 344.934164 379.57582 344.554476 
Q 379.297695 344.173226 378.727383 344.173226 
Q 378.028945 344.173226 377.622695 344.637289 
Q 377.218008 345.099789 377.218008 345.901351 
L 377.218008 348.991976 
L 376.314883 348.991976 
L 376.314883 345.720101 
Q 376.314883 344.929476 376.036758 344.551351 
Q 375.758633 344.173226 375.177383 344.173226 
Q 374.48832 344.173226 374.08207 344.638851 
Q 373.677383 345.104476 373.677383 345.901351 
L 373.677383 348.991976 
L 372.774258 348.991976 
L 372.774258 343.523226 
L 373.677383 343.523226 
L 373.677383 344.373226 
Q 373.985195 343.870101 374.414883 343.631039 
Q 374.84457 343.391976 375.435195 343.391976 
Q 376.03207 343.391976 376.449258 343.695101 
Q 376.866445 343.996664 377.066445 344.573226 
z
" clip-path="url(#pa18c0dea40)" style="fill: #808080; stroke: #ffffff; stroke-width: 5"/>
    <path d="M 344.650625 345.573226 
Q 344.967813 345.681039 345.267812 346.032601 
Q 345.567813 346.384164 345.870938 346.999789 
L 346.8725 348.991976 
L 345.811563 348.991976 
L 344.880313 347.121664 
Q 344.517812 346.388851 344.17875 346.149789 
Q 343.839688 345.910726 343.25375 345.910726 
L 342.17875 345.910726 
L 342.17875 348.991976 
L 341.192813 348.991976 
L 341.192813 341.701351 
L 343.419375 341.701351 
Q 344.669375 341.701351 345.285 342.224789 
Q 345.900625 342.746664 345.900625 343.801351 
Q 345.900625 344.490414 345.580312 344.945101 
Q 345.26 345.398226 344.650625 345.573226 
z
M 342.17875 342.512289 
L 342.17875 345.099789 
L 343.419375 345.099789 
Q 344.131875 345.099789 344.495938 344.770101 
Q 344.86 344.440414 344.86 343.801351 
Q 344.86 343.162289 344.495938 342.837289 
Q 344.131875 342.512289 343.419375 342.512289 
L 342.17875 342.512289 
z
M 350.36293 346.243539 
Q 349.273867 346.243539 348.853555 346.491976 
Q 348.433242 346.740414 348.433242 347.341976 
Q 348.433242 347.820101 348.748867 348.101351 
Q 349.064492 348.381039 349.605117 348.381039 
Q 350.353555 348.381039 350.805117 347.851351 
Q 351.25668 347.321664 351.25668 346.443539 
L 351.25668 346.243539 
L 350.36293 346.243539 
z
M 352.155117 345.871664 
L 352.155117 348.991976 
L 351.25668 348.991976 
L 351.25668 348.162289 
Q 350.948867 348.659164 350.489492 348.896664 
Q 350.030117 349.134164 349.366055 349.134164 
Q 348.526992 349.134164 348.030117 348.662289 
Q 347.534805 348.190414 347.534805 347.399789 
Q 347.534805 346.477914 348.151992 346.009164 
Q 348.770742 345.540414 349.995742 345.540414 
L 351.25668 345.540414 
L 351.25668 345.451351 
Q 351.25668 344.831039 350.848867 344.491976 
Q 350.441055 344.152914 349.703555 344.152914 
Q 349.234805 344.152914 348.789492 344.265414 
Q 348.345742 344.377914 347.936367 344.602914 
L 347.936367 343.771664 
Q 348.428555 343.581039 348.892617 343.487289 
Q 349.35668 343.391976 349.795742 343.391976 
Q 350.983242 343.391976 351.56918 344.007601 
Q 352.155117 344.621664 352.155117 345.871664 
z
M 358.551797 345.690414 
L 358.551797 348.991976 
L 357.653359 348.991976 
L 357.653359 345.720101 
Q 357.653359 344.943539 357.350234 344.559164 
Q 357.047109 344.173226 356.442422 344.173226 
Q 355.714297 344.173226 355.293984 344.637289 
Q 354.873672 345.099789 354.873672 345.901351 
L 354.873672 348.991976 
L 353.970547 348.991976 
L 353.970547 343.523226 
L 354.873672 343.523226 
L 354.873672 344.373226 
Q 355.197109 343.879476 355.633047 343.635726 
Q 356.070547 343.391976 356.642422 343.391976 
Q 357.584609 343.391976 358.067422 343.974789 
Q 358.551797 344.557601 358.551797 345.690414 
z
M 363.94125 344.352914 
L 363.94125 341.393539 
L 364.839688 341.393539 
L 364.839688 348.991976 
L 363.94125 348.991976 
L 363.94125 348.171664 
Q 363.658437 348.659164 363.225625 348.896664 
Q 362.794375 349.134164 362.188125 349.134164 
Q 361.1975 349.134164 360.574063 348.343539 
Q 359.952188 347.551351 359.952188 346.262289 
Q 359.952188 344.973226 360.574063 344.182601 
Q 361.1975 343.391976 362.188125 343.391976 
Q 362.794375 343.391976 363.225625 343.629476 
Q 363.658437 343.865414 363.94125 344.352914 
z
M 360.880313 346.262289 
Q 360.880313 347.252914 361.288125 347.816976 
Q 361.695938 348.381039 362.408437 348.381039 
Q 363.120938 348.381039 363.530313 347.816976 
Q 363.94125 347.252914 363.94125 346.262289 
Q 363.94125 345.271664 363.530313 344.707601 
Q 363.120938 344.143539 362.408437 344.143539 
Q 361.695938 344.143539 361.288125 344.707601 
Q 360.880313 345.271664 360.880313 346.262289 
z
M 368.809219 344.152914 
Q 368.087344 344.152914 367.667031 344.716976 
Q 367.246719 345.281039 367.246719 346.262289 
Q 367.246719 347.243539 367.663906 347.807601 
Q 368.082656 348.371664 368.809219 348.371664 
Q 369.527969 348.371664 369.946719 347.806039 
Q 370.367031 347.238851 370.367031 346.262289 
Q 370.367031 345.290414 369.946719 344.721664 
Q 369.527969 344.152914 368.809219 344.152914 
z
M 368.809219 343.391976 
Q 369.981094 343.391976 370.649844 344.154476 
Q 371.320156 344.915414 371.320156 346.262289 
Q 371.320156 347.604476 370.649844 348.370101 
Q 369.981094 349.134164 368.809219 349.134164 
Q 367.632656 349.134164 366.965469 348.370101 
Q 366.299844 347.604476 366.299844 346.262289 
Q 366.299844 344.915414 366.965469 344.154476 
Q 367.632656 343.391976 368.809219 343.391976 
z
M 377.066445 344.573226 
Q 377.403945 343.966976 377.872695 343.679476 
Q 378.341445 343.391976 378.97582 343.391976 
Q 379.830508 343.391976 380.29457 343.990414 
Q 380.758633 344.587289 380.758633 345.690414 
L 380.758633 348.991976 
L 379.855508 348.991976 
L 379.855508 345.720101 
Q 379.855508 344.934164 379.57582 344.554476 
Q 379.297695 344.173226 378.727383 344.173226 
Q 378.028945 344.173226 377.622695 344.637289 
Q 377.218008 345.099789 377.218008 345.901351 
L 377.218008 348.991976 
L 376.314883 348.991976 
L 376.314883 345.720101 
Q 376.314883 344.929476 376.036758 344.551351 
Q 375.758633 344.173226 375.177383 344.173226 
Q 374.48832 344.173226 374.08207 344.638851 
Q 373.677383 345.104476 373.677383 345.901351 
L 373.677383 348.991976 
L 372.774258 348.991976 
L 372.774258 343.523226 
L 373.677383 343.523226 
L 373.677383 344.373226 
Q 373.985195 343.870101 374.414883 343.631039 
Q 374.84457 343.391976 375.435195 343.391976 
Q 376.03207 343.391976 376.449258 343.695101 
Q 376.866445 343.996664 377.066445 344.573226 
z
" clip-path="url(#pa18c0dea40)" style="fill: #808080"/>
   </g>
   <g id="patch_3">
    <path d="M 63.31 395.28 
L 63.31 7.2 
" style="fill: none; stroke: #000000; stroke-width: 0.8; stroke-linejoin: miter; stroke-linecap: square"/>
   </g>
   <g id="patch_4">
    <path d="M 509.71 395.28 
L 509.71 7.2 
" style="fill: none; stroke: #000000; stroke-width: 0.8; stroke-linejoin: miter; stroke-linecap: square"/>
   </g>
   <g id="patch_5">
    <path d="M 63.31 395.28 
L 509.71 395.28 
" style="fill: none; stroke: #000000; stroke-width: 0.8; stroke-linejoin: miter; stroke-linecap: square"/>
   </g>
   <g id="patch_6">
    <path d="M 63.31 7.2 
L 509.71 7.2 
" style="fill: none; stroke: #000000; stroke-width: 0.8; stroke-linejoin: miter; stroke-linecap: square"/>
   </g>
  </g>
 </g>
 <defs>
  <clipPath id="pa18c0dea40">
   <rect x="63.31" y="7.2" width="446.4" height="388.08"/>
  </clipPath>
 </defs>
</svg>
