<?xml version="1.0" encoding="utf-8" standalone="no"?>
<!DOCTYPE svg PUBLIC "-//W3C//DTD SVG 1.1//EN"
  "http://www.w3.org/Graphics/SVG/1.1/DTD/svg11.dtd">
<svg xmlns:xlink="http://www.w3.org/1999/xlink" width="516.91pt" height="436.89pt" viewBox="0 0 516.91 436.89" xmlns="http://www.w3.org/2000/svg" version="1.1">
 <metadata>
  <rdf:RDF xmlns:dc="http://purl.org/dc/elements/1.1/" xmlns:cc="http://creativecommons.org/ns#" xmlns:rdf="http://www.w3.org/1999/02/22-rdf-syntax-ns#">
   <cc:Work>
    <dc:type rdf:resource="http://purl.org/dc/dcmitype/StillImage"/>
    <dc:date>2024-01-08T11:21:17.854102</dc:date>
    <dc:format>image/svg+xml</dc:format>
    <dc:creator>
     <cc:Agent>
      <dc:title>Matplotlib v3.8.0, https://matplotlib.org/</dc:title>
     </cc:Agent>
    </dc:creator>
   </cc:Work>
  </rdf:RDF>
 </metadata>
 <defs>
  <style type="text/css">*{stroke-linejoin: round; stroke-linecap: butt}</style>
 </defs>
 <g id="figure_1">
  <g id="patch_1">
   <path d="M 0 436.89 
L 516.91 436.89 
L 516.91 0 
L 0 0 
L 0 436.89 
z
" style="fill: none"/>
  </g>
  <g id="axes_1">
   <g id="patch_2">
    <path d="M 63.31 387.72 
L 509.71 387.72 
L 509.71 7.2 
L 63.31 7.2 
z
" style="fill: #ffffff"/>
   </g>
   <g id="matplotlib.axis_1">
    <g id="xtick_1">
     <g id="line2d_1">
      <path d="M 63.31 387.72 
L 63.31 7.2 
" clip-path="url(#p1461c95dac)" style="fill: none; stroke: #b0b0b0; stroke-width: 0.8; stroke-linecap: square"/>
     </g>
     <g id="line2d_2">
      <defs>
       <path id="mb837106098" d="M 0 0 
L 0 3.5 
" style="stroke: #000000; stroke-width: 0.8"/>
      </defs>
      <g>
       <use xlink:href="#mb837106098" x="63.31" y="387.72" style="stroke: #000000; stroke-width: 0.8"/>
      </g>
     </g>
     <g id="text_1">
      <!-- 0% -->
      <g transform="translate(50.61875 406.8775) scale(0.16 -0.16)">
       <defs>
        <path id="DejaVuSans-30" d="M 2034 4250 
Q 1547 4250 1301 3770 
Q 1056 3291 1056 2328 
Q 1056 1369 1301 889 
Q 1547 409 2034 409 
Q 2525 409 2770 889 
Q 3016 1369 3016 2328 
Q 3016 3291 2770 3770 
Q 2525 4250 2034 4250 
z
M 2034 4750 
Q 2819 4750 3233 4129 
Q 3647 3509 3647 2328 
Q 3647 1150 3233 529 
Q 2819 -91 2034 -91 
Q 1250 -91 836 529 
Q 422 1150 422 2328 
Q 422 3509 836 4129 
Q 1250 4750 2034 4750 
z
" transform="scale(0.015625)"/>
        <path id="DejaVuSans-25" d="M 4653 2053 
Q 4381 2053 4226 1822 
Q 4072 1591 4072 1178 
Q 4072 772 4226 539 
Q 4381 306 4653 306 
Q 4919 306 5073 539 
Q 5228 772 5228 1178 
Q 5228 1588 5073 1820 
Q 4919 2053 4653 2053 
z
M 4653 2450 
Q 5147 2450 5437 2106 
Q 5728 1763 5728 1178 
Q 5728 594 5436 251 
Q 5144 -91 4653 -91 
Q 4153 -91 3862 251 
Q 3572 594 3572 1178 
Q 3572 1766 3864 2108 
Q 4156 2450 4653 2450 
z
M 1428 4353 
Q 1159 4353 1004 4120 
Q 850 3888 850 3481 
Q 850 3069 1003 2837 
Q 1156 2606 1428 2606 
Q 1700 2606 1854 2837 
Q 2009 3069 2009 3481 
Q 2009 3884 1853 4118 
Q 1697 4353 1428 4353 
z
M 4250 4750 
L 4750 4750 
L 1831 -91 
L 1331 -91 
L 4250 4750 
z
M 1428 4750 
Q 1922 4750 2215 4408 
Q 2509 4066 2509 3481 
Q 2509 2891 2217 2550 
Q 1925 2209 1428 2209 
Q 931 2209 642 2551 
Q 353 2894 353 3481 
Q 353 4063 643 4406 
Q 934 4750 1428 4750 
z
" transform="scale(0.015625)"/>
       </defs>
       <use xlink:href="#DejaVuSans-30"/>
       <use xlink:href="#DejaVuSans-25" x="63.623047"/>
      </g>
     </g>
    </g>
    <g id="xtick_2">
     <g id="line2d_3">
      <path d="M 122.83 387.72 
L 122.83 7.2 
" clip-path="url(#p1461c95dac)" style="fill: none; stroke: #b0b0b0; stroke-width: 0.8; stroke-linecap: square"/>
     </g>
     <g id="line2d_4">
      <g>
       <use xlink:href="#mb837106098" x="122.83" y="387.72" style="stroke: #000000; stroke-width: 0.8"/>
      </g>
     </g>
     <g id="text_2">
      <!-- 2% -->
      <g transform="translate(110.13875 406.8775) scale(0.16 -0.16)">
       <defs>
        <path id="DejaVuSans-32" d="M 1228 531 
L 3431 531 
L 3431 0 
L 469 0 
L 469 531 
Q 828 903 1448 1529 
Q 2069 2156 2228 2338 
Q 2531 2678 2651 2914 
Q 2772 3150 2772 3378 
Q 2772 3750 2511 3984 
Q 2250 4219 1831 4219 
Q 1534 4219 1204 4116 
Q 875 4013 500 3803 
L 500 4441 
Q 881 4594 1212 4672 
Q 1544 4750 1819 4750 
Q 2544 4750 2975 4387 
Q 3406 4025 3406 3419 
Q 3406 3131 3298 2873 
Q 3191 2616 2906 2266 
Q 2828 2175 2409 1742 
Q 1991 1309 1228 531 
z
" transform="scale(0.015625)"/>
       </defs>
       <use xlink:href="#DejaVuSans-32"/>
       <use xlink:href="#DejaVuSans-25" x="63.623047"/>
      </g>
     </g>
    </g>
    <g id="xtick_3">
     <g id="line2d_5">
      <path d="M 182.35 387.72 
L 182.35 7.2 
" clip-path="url(#p1461c95dac)" style="fill: none; stroke: #b0b0b0; stroke-width: 0.8; stroke-linecap: square"/>
     </g>
     <g id="line2d_6">
      <g>
       <use xlink:href="#mb837106098" x="182.35" y="387.72" style="stroke: #000000; stroke-width: 0.8"/>
      </g>
     </g>
     <g id="text_3">
      <!-- 4% -->
      <g transform="translate(169.65875 406.8775) scale(0.16 -0.16)">
       <defs>
        <path id="DejaVuSans-34" d="M 2419 4116 
L 825 1625 
L 2419 1625 
L 2419 4116 
z
M 2253 4666 
L 3047 4666 
L 3047 1625 
L 3713 1625 
L 3713 1100 
L 3047 1100 
L 3047 0 
L 2419 0 
L 2419 1100 
L 313 1100 
L 313 1709 
L 2253 4666 
z
" transform="scale(0.015625)"/>
       </defs>
       <use xlink:href="#DejaVuSans-34"/>
       <use xlink:href="#DejaVuSans-25" x="63.623047"/>
      </g>
     </g>
    </g>
    <g id="xtick_4">
     <g id="line2d_7">
      <path d="M 241.87 387.72 
L 241.87 7.2 
" clip-path="url(#p1461c95dac)" style="fill: none; stroke: #b0b0b0; stroke-width: 0.8; stroke-linecap: square"/>
     </g>
     <g id="line2d_8">
      <g>
       <use xlink:href="#mb837106098" x="241.87" y="387.72" style="stroke: #000000; stroke-width: 0.8"/>
      </g>
     </g>
     <g id="text_4">
      <!-- 6% -->
      <g transform="translate(229.17875 406.8775) scale(0.16 -0.16)">
       <defs>
        <path id="DejaVuSans-36" d="M 2113 2584 
Q 1688 2584 1439 2293 
Q 1191 2003 1191 1497 
Q 1191 994 1439 701 
Q 1688 409 2113 409 
Q 2538 409 2786 701 
Q 3034 994 3034 1497 
Q 3034 2003 2786 2293 
Q 2538 2584 2113 2584 
z
M 3366 4563 
L 3366 3988 
Q 3128 4100 2886 4159 
Q 2644 4219 2406 4219 
Q 1781 4219 1451 3797 
Q 1122 3375 1075 2522 
Q 1259 2794 1537 2939 
Q 1816 3084 2150 3084 
Q 2853 3084 3261 2657 
Q 3669 2231 3669 1497 
Q 3669 778 3244 343 
Q 2819 -91 2113 -91 
Q 1303 -91 875 529 
Q 447 1150 447 2328 
Q 447 3434 972 4092 
Q 1497 4750 2381 4750 
Q 2619 4750 2861 4703 
Q 3103 4656 3366 4563 
z
" transform="scale(0.015625)"/>
       </defs>
       <use xlink:href="#DejaVuSans-36"/>
       <use xlink:href="#DejaVuSans-25" x="63.623047"/>
      </g>
     </g>
    </g>
    <g id="xtick_5">
     <g id="line2d_9">
      <path d="M 301.39 387.72 
L 301.39 7.2 
" clip-path="url(#p1461c95dac)" style="fill: none; stroke: #b0b0b0; stroke-width: 0.8; stroke-linecap: square"/>
     </g>
     <g id="line2d_10">
      <g>
       <use xlink:href="#mb837106098" x="301.39" y="387.72" style="stroke: #000000; stroke-width: 0.8"/>
      </g>
     </g>
     <g id="text_5">
      <!-- 8% -->
      <g transform="translate(288.69875 406.8775) scale(0.16 -0.16)">
       <defs>
        <path id="DejaVuSans-38" d="M 2034 2216 
Q 1584 2216 1326 1975 
Q 1069 1734 1069 1313 
Q 1069 891 1326 650 
Q 1584 409 2034 409 
Q 2484 409 2743 651 
Q 3003 894 3003 1313 
Q 3003 1734 2745 1975 
Q 2488 2216 2034 2216 
z
M 1403 2484 
Q 997 2584 770 2862 
Q 544 3141 544 3541 
Q 544 4100 942 4425 
Q 1341 4750 2034 4750 
Q 2731 4750 3128 4425 
Q 3525 4100 3525 3541 
Q 3525 3141 3298 2862 
Q 3072 2584 2669 2484 
Q 3125 2378 3379 2068 
Q 3634 1759 3634 1313 
Q 3634 634 3220 271 
Q 2806 -91 2034 -91 
Q 1263 -91 848 271 
Q 434 634 434 1313 
Q 434 1759 690 2068 
Q 947 2378 1403 2484 
z
M 1172 3481 
Q 1172 3119 1398 2916 
Q 1625 2713 2034 2713 
Q 2441 2713 2670 2916 
Q 2900 3119 2900 3481 
Q 2900 3844 2670 4047 
Q 2441 4250 2034 4250 
Q 1625 4250 1398 4047 
Q 1172 3844 1172 3481 
z
" transform="scale(0.015625)"/>
       </defs>
       <use xlink:href="#DejaVuSans-38"/>
       <use xlink:href="#DejaVuSans-25" x="63.623047"/>
      </g>
     </g>
    </g>
    <g id="xtick_6">
     <g id="line2d_11">
      <path d="M 360.91 387.72 
L 360.91 7.2 
" clip-path="url(#p1461c95dac)" style="fill: none; stroke: #b0b0b0; stroke-width: 0.8; stroke-linecap: square"/>
     </g>
     <g id="line2d_12">
      <g>
       <use xlink:href="#mb837106098" x="360.91" y="387.72" style="stroke: #000000; stroke-width: 0.8"/>
      </g>
     </g>
     <g id="text_6">
      <!-- 10% -->
      <g transform="translate(343.12875 406.8775) scale(0.16 -0.16)">
       <defs>
        <path id="DejaVuSans-31" d="M 794 531 
L 1825 531 
L 1825 4091 
L 703 3866 
L 703 4441 
L 1819 4666 
L 2450 4666 
L 2450 531 
L 3481 531 
L 3481 0 
L 794 0 
L 794 531 
z
" transform="scale(0.015625)"/>
       </defs>
       <use xlink:href="#DejaVuSans-31"/>
       <use xlink:href="#DejaVuSans-30" x="63.623047"/>
       <use xlink:href="#DejaVuSans-25" x="127.246094"/>
      </g>
     </g>
    </g>
    <g id="xtick_7">
     <g id="line2d_13">
      <path d="M 420.43 387.72 
L 420.43 7.2 
" clip-path="url(#p1461c95dac)" style="fill: none; stroke: #b0b0b0; stroke-width: 0.8; stroke-linecap: square"/>
     </g>
     <g id="line2d_14">
      <g>
       <use xlink:href="#mb837106098" x="420.43" y="387.72" style="stroke: #000000; stroke-width: 0.8"/>
      </g>
     </g>
     <g id="text_7">
      <!-- 12% -->
      <g transform="translate(402.64875 406.8775) scale(0.16 -0.16)">
       <use xlink:href="#DejaVuSans-31"/>
       <use xlink:href="#DejaVuSans-32" x="63.623047"/>
       <use xlink:href="#DejaVuSans-25" x="127.246094"/>
      </g>
     </g>
    </g>
    <g id="xtick_8">
     <g id="line2d_15">
      <path d="M 479.95 387.72 
L 479.95 7.2 
" clip-path="url(#p1461c95dac)" style="fill: none; stroke: #b0b0b0; stroke-width: 0.8; stroke-linecap: square"/>
     </g>
     <g id="line2d_16">
      <g>
       <use xlink:href="#mb837106098" x="479.95" y="387.72" style="stroke: #000000; stroke-width: 0.8"/>
      </g>
     </g>
     <g id="text_8">
      <!-- 14% -->
      <g transform="translate(462.16875 406.8775) scale(0.16 -0.16)">
       <use xlink:href="#DejaVuSans-31"/>
       <use xlink:href="#DejaVuSans-34" x="63.623047"/>
       <use xlink:href="#DejaVuSans-25" x="127.246094"/>
      </g>
     </g>
    </g>
    <g id="text_9">
     <!-- Population tested -->
     <g transform="translate(216.5775 426.3625) scale(0.16 -0.16)">
      <defs>
       <path id="DejaVuSans-50" d="M 1259 4147 
L 1259 2394 
L 2053 2394 
Q 2494 2394 2734 2622 
Q 2975 2850 2975 3272 
Q 2975 3691 2734 3919 
Q 2494 4147 2053 4147 
L 1259 4147 
z
M 628 4666 
L 2053 4666 
Q 2838 4666 3239 4311 
Q 3641 3956 3641 3272 
Q 3641 2581 3239 2228 
Q 2838 1875 2053 1875 
L 1259 1875 
L 1259 0 
L 628 0 
L 628 4666 
z
" transform="scale(0.015625)"/>
       <path id="DejaVuSans-6f" d="M 1959 3097 
Q 1497 3097 1228 2736 
Q 959 2375 959 1747 
Q 959 1119 1226 758 
Q 1494 397 1959 397 
Q 2419 397 2687 759 
Q 2956 1122 2956 1747 
Q 2956 2369 2687 2733 
Q 2419 3097 1959 3097 
z
M 1959 3584 
Q 2709 3584 3137 3096 
Q 3566 2609 3566 1747 
Q 3566 888 3137 398 
Q 2709 -91 1959 -91 
Q 1206 -91 779 398 
Q 353 888 353 1747 
Q 353 2609 779 3096 
Q 1206 3584 1959 3584 
z
" transform="scale(0.015625)"/>
       <path id="DejaVuSans-70" d="M 1159 525 
L 1159 -1331 
L 581 -1331 
L 581 3500 
L 1159 3500 
L 1159 2969 
Q 1341 3281 1617 3432 
Q 1894 3584 2278 3584 
Q 2916 3584 3314 3078 
Q 3713 2572 3713 1747 
Q 3713 922 3314 415 
Q 2916 -91 2278 -91 
Q 1894 -91 1617 61 
Q 1341 213 1159 525 
z
M 3116 1747 
Q 3116 2381 2855 2742 
Q 2594 3103 2138 3103 
Q 1681 3103 1420 2742 
Q 1159 2381 1159 1747 
Q 1159 1113 1420 752 
Q 1681 391 2138 391 
Q 2594 391 2855 752 
Q 3116 1113 3116 1747 
z
" transform="scale(0.015625)"/>
       <path id="DejaVuSans-75" d="M 544 1381 
L 544 3500 
L 1119 3500 
L 1119 1403 
Q 1119 906 1312 657 
Q 1506 409 1894 409 
Q 2359 409 2629 706 
Q 2900 1003 2900 1516 
L 2900 3500 
L 3475 3500 
L 3475 0 
L 2900 0 
L 2900 538 
Q 2691 219 2414 64 
Q 2138 -91 1772 -91 
Q 1169 -91 856 284 
Q 544 659 544 1381 
z
M 1991 3584 
L 1991 3584 
z
" transform="scale(0.015625)"/>
       <path id="DejaVuSans-6c" d="M 603 4863 
L 1178 4863 
L 1178 0 
L 603 0 
L 603 4863 
z
" transform="scale(0.015625)"/>
       <path id="DejaVuSans-61" d="M 2194 1759 
Q 1497 1759 1228 1600 
Q 959 1441 959 1056 
Q 959 750 1161 570 
Q 1363 391 1709 391 
Q 2188 391 2477 730 
Q 2766 1069 2766 1631 
L 2766 1759 
L 2194 1759 
z
M 3341 1997 
L 3341 0 
L 2766 0 
L 2766 531 
Q 2569 213 2275 61 
Q 1981 -91 1556 -91 
Q 1019 -91 701 211 
Q 384 513 384 1019 
Q 384 1609 779 1909 
Q 1175 2209 1959 2209 
L 2766 2209 
L 2766 2266 
Q 2766 2663 2505 2880 
Q 2244 3097 1772 3097 
Q 1472 3097 1187 3025 
Q 903 2953 641 2809 
L 641 3341 
Q 956 3463 1253 3523 
Q 1550 3584 1831 3584 
Q 2591 3584 2966 3190 
Q 3341 2797 3341 1997 
z
" transform="scale(0.015625)"/>
       <path id="DejaVuSans-74" d="M 1172 4494 
L 1172 3500 
L 2356 3500 
L 2356 3053 
L 1172 3053 
L 1172 1153 
Q 1172 725 1289 603 
Q 1406 481 1766 481 
L 2356 481 
L 2356 0 
L 1766 0 
Q 1100 0 847 248 
Q 594 497 594 1153 
L 594 3053 
L 172 3053 
L 172 3500 
L 594 3500 
L 594 4494 
L 1172 4494 
z
" transform="scale(0.015625)"/>
       <path id="DejaVuSans-69" d="M 603 3500 
L 1178 3500 
L 1178 0 
L 603 0 
L 603 3500 
z
M 603 4863 
L 1178 4863 
L 1178 4134 
L 603 4134 
L 603 4863 
z
" transform="scale(0.015625)"/>
       <path id="DejaVuSans-6e" d="M 3513 2113 
L 3513 0 
L 2938 0 
L 2938 2094 
Q 2938 2591 2744 2837 
Q 2550 3084 2163 3084 
Q 1697 3084 1428 2787 
Q 1159 2491 1159 1978 
L 1159 0 
L 581 0 
L 581 3500 
L 1159 3500 
L 1159 2956 
Q 1366 3272 1645 3428 
Q 1925 3584 2291 3584 
Q 2894 3584 3203 3211 
Q 3513 2838 3513 2113 
z
" transform="scale(0.015625)"/>
       <path id="DejaVuSans-20" transform="scale(0.015625)"/>
       <path id="DejaVuSans-65" d="M 3597 1894 
L 3597 1613 
L 953 1613 
Q 991 1019 1311 708 
Q 1631 397 2203 397 
Q 2534 397 2845 478 
Q 3156 559 3463 722 
L 3463 178 
Q 3153 47 2828 -22 
Q 2503 -91 2169 -91 
Q 1331 -91 842 396 
Q 353 884 353 1716 
Q 353 2575 817 3079 
Q 1281 3584 2069 3584 
Q 2775 3584 3186 3129 
Q 3597 2675 3597 1894 
z
M 3022 2063 
Q 3016 2534 2758 2815 
Q 2500 3097 2075 3097 
Q 1594 3097 1305 2825 
Q 1016 2553 972 2059 
L 3022 2063 
z
" transform="scale(0.015625)"/>
       <path id="DejaVuSans-73" d="M 2834 3397 
L 2834 2853 
Q 2591 2978 2328 3040 
Q 2066 3103 1784 3103 
Q 1356 3103 1142 2972 
Q 928 2841 928 2578 
Q 928 2378 1081 2264 
Q 1234 2150 1697 2047 
L 1894 2003 
Q 2506 1872 2764 1633 
Q 3022 1394 3022 966 
Q 3022 478 2636 193 
Q 2250 -91 1575 -91 
Q 1294 -91 989 -36 
Q 684 19 347 128 
L 347 722 
Q 666 556 975 473 
Q 1284 391 1588 391 
Q 1994 391 2212 530 
Q 2431 669 2431 922 
Q 2431 1156 2273 1281 
Q 2116 1406 1581 1522 
L 1381 1569 
Q 847 1681 609 1914 
Q 372 2147 372 2553 
Q 372 3047 722 3315 
Q 1072 3584 1716 3584 
Q 2034 3584 2315 3537 
Q 2597 3491 2834 3397 
z
" transform="scale(0.015625)"/>
       <path id="DejaVuSans-64" d="M 2906 2969 
L 2906 4863 
L 3481 4863 
L 3481 0 
L 2906 0 
L 2906 525 
Q 2725 213 2448 61 
Q 2172 -91 1784 -91 
Q 1150 -91 751 415 
Q 353 922 353 1747 
Q 353 2572 751 3078 
Q 1150 3584 1784 3584 
Q 2172 3584 2448 3432 
Q 2725 3281 2906 2969 
z
M 947 1747 
Q 947 1113 1208 752 
Q 1469 391 1925 391 
Q 2381 391 2643 752 
Q 2906 1113 2906 1747 
Q 2906 2381 2643 2742 
Q 2381 3103 1925 3103 
Q 1469 3103 1208 2742 
Q 947 2381 947 1747 
z
" transform="scale(0.015625)"/>
      </defs>
      <use xlink:href="#DejaVuSans-50"/>
      <use xlink:href="#DejaVuSans-6f" x="56.677734"/>
      <use xlink:href="#DejaVuSans-70" x="117.859375"/>
      <use xlink:href="#DejaVuSans-75" x="181.335938"/>
      <use xlink:href="#DejaVuSans-6c" x="244.714844"/>
      <use xlink:href="#DejaVuSans-61" x="272.498047"/>
      <use xlink:href="#DejaVuSans-74" x="333.777344"/>
      <use xlink:href="#DejaVuSans-69" x="372.986328"/>
      <use xlink:href="#DejaVuSans-6f" x="400.769531"/>
      <use xlink:href="#DejaVuSans-6e" x="461.951172"/>
      <use xlink:href="#DejaVuSans-20" x="525.330078"/>
      <use xlink:href="#DejaVuSans-74" x="557.117188"/>
      <use xlink:href="#DejaVuSans-65" x="596.326172"/>
      <use xlink:href="#DejaVuSans-73" x="657.849609"/>
      <use xlink:href="#DejaVuSans-74" x="709.949219"/>
      <use xlink:href="#DejaVuSans-65" x="749.158203"/>
      <use xlink:href="#DejaVuSans-64" x="810.681641"/>
     </g>
    </g>
   </g>
   <g id="matplotlib.axis_2">
    <g id="ytick_1">
     <g id="line2d_17">
      <path d="M 63.31 387.72 
L 509.71 387.72 
" clip-path="url(#p1461c95dac)" style="fill: none; stroke: #b0b0b0; stroke-width: 0.8; stroke-linecap: square"/>
     </g>
     <g id="line2d_18">
      <defs>
       <path id="mbf4a1e566b" d="M 0 0 
L -3.5 0 
" style="stroke: #000000; stroke-width: 0.8"/>
      </defs>
      <g>
       <use xlink:href="#mbf4a1e566b" x="63.31" y="387.72" style="stroke: #000000; stroke-width: 0.8"/>
      </g>
     </g>
     <g id="text_10">
      <!-- 0k -->
      <g transform="translate(36.865 393.79875) scale(0.16 -0.16)">
       <defs>
        <path id="DejaVuSans-6b" d="M 581 4863 
L 1159 4863 
L 1159 1991 
L 2875 3500 
L 3609 3500 
L 1753 1863 
L 3688 0 
L 2938 0 
L 1159 1709 
L 1159 0 
L 581 0 
L 581 4863 
z
" transform="scale(0.015625)"/>
       </defs>
       <use xlink:href="#DejaVuSans-30"/>
       <use xlink:href="#DejaVuSans-6b" x="63.623047"/>
      </g>
     </g>
    </g>
    <g id="ytick_2">
     <g id="line2d_19">
      <path d="M 63.31 342.472125 
L 509.71 342.472125 
" clip-path="url(#p1461c95dac)" style="fill: none; stroke: #b0b0b0; stroke-width: 0.8; stroke-linecap: square"/>
     </g>
     <g id="line2d_20">
      <g>
       <use xlink:href="#mbf4a1e566b" x="63.31" y="342.472125" style="stroke: #000000; stroke-width: 0.8"/>
      </g>
     </g>
     <g id="text_11">
      <!-- 2k -->
      <g transform="translate(36.865 348.550875) scale(0.16 -0.16)">
       <use xlink:href="#DejaVuSans-32"/>
       <use xlink:href="#DejaVuSans-6b" x="63.623047"/>
      </g>
     </g>
    </g>
    <g id="ytick_3">
     <g id="line2d_21">
      <path d="M 63.31 297.224251 
L 509.71 297.224251 
" clip-path="url(#p1461c95dac)" style="fill: none; stroke: #b0b0b0; stroke-width: 0.8; stroke-linecap: square"/>
     </g>
     <g id="line2d_22">
      <g>
       <use xlink:href="#mbf4a1e566b" x="63.31" y="297.224251" style="stroke: #000000; stroke-width: 0.8"/>
      </g>
     </g>
     <g id="text_12">
      <!-- 4k -->
      <g transform="translate(36.865 303.303001) scale(0.16 -0.16)">
       <use xlink:href="#DejaVuSans-34"/>
       <use xlink:href="#DejaVuSans-6b" x="63.623047"/>
      </g>
     </g>
    </g>
    <g id="ytick_4">
     <g id="line2d_23">
      <path d="M 63.31 251.976376 
L 509.71 251.976376 
" clip-path="url(#p1461c95dac)" style="fill: none; stroke: #b0b0b0; stroke-width: 0.8; stroke-linecap: square"/>
     </g>
     <g id="line2d_24">
      <g>
       <use xlink:href="#mbf4a1e566b" x="63.31" y="251.976376" style="stroke: #000000; stroke-width: 0.8"/>
      </g>
     </g>
     <g id="text_13">
      <!-- 6k -->
      <g transform="translate(36.865 258.055126) scale(0.16 -0.16)">
       <use xlink:href="#DejaVuSans-36"/>
       <use xlink:href="#DejaVuSans-6b" x="63.623047"/>
      </g>
     </g>
    </g>
    <g id="ytick_5">
     <g id="line2d_25">
      <path d="M 63.31 206.728501 
L 509.71 206.728501 
" clip-path="url(#p1461c95dac)" style="fill: none; stroke: #b0b0b0; stroke-width: 0.8; stroke-linecap: square"/>
     </g>
     <g id="line2d_26">
      <g>
       <use xlink:href="#mbf4a1e566b" x="63.31" y="206.728501" style="stroke: #000000; stroke-width: 0.8"/>
      </g>
     </g>
     <g id="text_14">
      <!-- 8k -->
      <g transform="translate(36.865 212.807251) scale(0.16 -0.16)">
       <use xlink:href="#DejaVuSans-38"/>
       <use xlink:href="#DejaVuSans-6b" x="63.623047"/>
      </g>
     </g>
    </g>
    <g id="ytick_6">
     <g id="line2d_27">
      <path d="M 63.31 161.480626 
L 509.71 161.480626 
" clip-path="url(#p1461c95dac)" style="fill: none; stroke: #b0b0b0; stroke-width: 0.8; stroke-linecap: square"/>
     </g>
     <g id="line2d_28">
      <g>
       <use xlink:href="#mbf4a1e566b" x="63.31" y="161.480626" style="stroke: #000000; stroke-width: 0.8"/>
      </g>
     </g>
     <g id="text_15">
      <!-- 10k -->
      <g transform="translate(26.685 167.559376) scale(0.16 -0.16)">
       <use xlink:href="#DejaVuSans-31"/>
       <use xlink:href="#DejaVuSans-30" x="63.623047"/>
       <use xlink:href="#DejaVuSans-6b" x="127.246094"/>
      </g>
     </g>
    </g>
    <g id="ytick_7">
     <g id="line2d_29">
      <path d="M 63.31 116.232752 
L 509.71 116.232752 
" clip-path="url(#p1461c95dac)" style="fill: none; stroke: #b0b0b0; stroke-width: 0.8; stroke-linecap: square"/>
     </g>
     <g id="line2d_30">
      <g>
       <use xlink:href="#mbf4a1e566b" x="63.31" y="116.232752" style="stroke: #000000; stroke-width: 0.8"/>
      </g>
     </g>
     <g id="text_16">
      <!-- 12k -->
      <g transform="translate(26.685 122.311502) scale(0.16 -0.16)">
       <use xlink:href="#DejaVuSans-31"/>
       <use xlink:href="#DejaVuSans-32" x="63.623047"/>
       <use xlink:href="#DejaVuSans-6b" x="127.246094"/>
      </g>
     </g>
    </g>
    <g id="ytick_8">
     <g id="line2d_31">
      <path d="M 63.31 70.984877 
L 509.71 70.984877 
" clip-path="url(#p1461c95dac)" style="fill: none; stroke: #b0b0b0; stroke-width: 0.8; stroke-linecap: square"/>
     </g>
     <g id="line2d_32">
      <g>
       <use xlink:href="#mbf4a1e566b" x="63.31" y="70.984877" style="stroke: #000000; stroke-width: 0.8"/>
      </g>
     </g>
     <g id="text_17">
      <!-- 14k -->
      <g transform="translate(26.685 77.063627) scale(0.16 -0.16)">
       <use xlink:href="#DejaVuSans-31"/>
       <use xlink:href="#DejaVuSans-34" x="63.623047"/>
       <use xlink:href="#DejaVuSans-6b" x="127.246094"/>
      </g>
     </g>
    </g>
    <g id="ytick_9">
     <g id="line2d_33">
      <path d="M 63.31 25.737002 
L 509.71 25.737002 
" clip-path="url(#p1461c95dac)" style="fill: none; stroke: #b0b0b0; stroke-width: 0.8; stroke-linecap: square"/>
     </g>
     <g id="line2d_34">
      <g>
       <use xlink:href="#mbf4a1e566b" x="63.31" y="25.737002" style="stroke: #000000; stroke-width: 0.8"/>
      </g>
     </g>
     <g id="text_18">
      <!-- 16k -->
      <g transform="translate(26.685 31.815752) scale(0.16 -0.16)">
       <use xlink:href="#DejaVuSans-31"/>
       <use xlink:href="#DejaVuSans-36" x="63.623047"/>
       <use xlink:href="#DejaVuSans-6b" x="127.246094"/>
      </g>
     </g>
    </g>
    <g id="text_19">
     <!-- Detected -->
     <g transform="translate(19.3575 234.1375) rotate(-90) scale(0.16 -0.16)">
      <defs>
       <path id="DejaVuSans-44" d="M 1259 4147 
L 1259 519 
L 2022 519 
Q 2988 519 3436 956 
Q 3884 1394 3884 2338 
Q 3884 3275 3436 3711 
Q 2988 4147 2022 4147 
L 1259 4147 
z
M 628 4666 
L 1925 4666 
Q 3281 4666 3915 4102 
Q 4550 3538 4550 2338 
Q 4550 1131 3912 565 
Q 3275 0 1925 0 
L 628 0 
L 628 4666 
z
" transform="scale(0.015625)"/>
       <path id="DejaVuSans-63" d="M 3122 3366 
L 3122 2828 
Q 2878 2963 2633 3030 
Q 2388 3097 2138 3097 
Q 1578 3097 1268 2742 
Q 959 2388 959 1747 
Q 959 1106 1268 751 
Q 1578 397 2138 397 
Q 2388 397 2633 464 
Q 2878 531 3122 666 
L 3122 134 
Q 2881 22 2623 -34 
Q 2366 -91 2075 -91 
Q 1284 -91 818 406 
Q 353 903 353 1747 
Q 353 2603 823 3093 
Q 1294 3584 2113 3584 
Q 2378 3584 2631 3529 
Q 2884 3475 3122 3366 
z
" transform="scale(0.015625)"/>
      </defs>
      <use xlink:href="#DejaVuSans-44"/>
      <use xlink:href="#DejaVuSans-65" x="77.001953"/>
      <use xlink:href="#DejaVuSans-74" x="138.525391"/>
      <use xlink:href="#DejaVuSans-65" x="177.734375"/>
      <use xlink:href="#DejaVuSans-63" x="239.257812"/>
      <use xlink:href="#DejaVuSans-74" x="294.238281"/>
      <use xlink:href="#DejaVuSans-65" x="333.447266"/>
      <use xlink:href="#DejaVuSans-64" x="394.970703"/>
     </g>
    </g>
   </g>
   <g id="line2d_35">
    <path d="M 67.445601 22.504042 
L 69.891764 22.936159 
L 71.659975 22.958783 
L 73.315891 52.989797 
L 74.757695 86.765073 
L 75.044295 88.936971 
L 75.638448 99.726327 
L 76.566548 109.527017 
L 83.944845 168.692911 
L 84.375166 169.554657 
L 88.436183 157.066696 
L 89.557446 162.766345 
L 90.11305 165.98098 
L 90.858044 168.718476 
L 92.03755 169.31507 
L 96.293824 182.369986 
L 101.470239 199.494497 
L 104.130934 205.158852 
L 105.106383 207.565587 
L 106.081412 211.401249 
L 108.033567 217.770792 
L 114.112523 224.28083 
L 119.252064 222.159836 
L 121.369727 219.060357 
L 124.579321 223.807764 
L 128.627768 230.786344 
L 130.520005 233.619766 
L 132.988795 236.848428 
L 135.333559 239.539771 
L 138.110738 242.065281 
L 145.127013 248.942958 
L 147.825419 250.247455 
L 151.74984 254.227458 
L 153.916107 255.30119 
L 155.829713 257.862446 
L 158.127548 260.185019 
L 160.934477 261.149477 
L 164.066137 260.968486 
L 168.208441 261.545396 
L 172.696427 264.50144 
L 175.187844 265.193506 
L 176.656464 264.58447 
L 177.862366 264.402573 
L 180.621947 265.120883 
L 181.719327 265.010479 
L 182.603432 264.791931 
L 183.326639 264.420446 
L 184.855596 262.446508 
L 185.451005 263.116855 
L 186.07365 262.677498 
L 186.485953 262.551257 
L 187.230947 262.158958 
L 187.587103 262.242892 
L 187.974685 261.702859 
L 189.024298 261.934754 
L 190.810944 261.229566 
L 196.494777 262.172306 
L 200.765297 264.002808 
L 204.035229 264.223392 
L 207.791628 266.061587 
L 211.186843 264.858898 
L 213.423085 265.649831 
L 215.184591 265.860007 
L 216.7676 265.832633 
L 218.605784 265.991905 
L 220.399135 266.895053 
L 223.468781 266.330359 
L 225.956846 267.614268 
L 228.199372 267.263597 
L 231.307148 266.331264 
L 233.210279 265.210474 
L 234.427494 265.585579 
L 235.604066 265.525399 
L 237.18959 265.745757 
L 238.731955 265.772227 
L 241.219181 266.313391 
L 243.572745 265.643044 
L 248.001231 264.140588 
L 250.780087 261.807382 
L 253.706852 260.24271 
L 256.401906 261.386124 
L 259.014415 261.440648 
L 262.051798 262.447413 
L 266.075105 260.261488 
L 268.65577 258.385511 
L 271.250262 256.971515 
L 274.159848 255.918597 
L 276.470672 256.467227 
L 281.805471 257.622858 
L 284.082775 258.139589 
L 286.300999 259.081197 
L 288.688502 259.079387 
L 290.232962 259.652452 
L 299.231141 262.368229 
L 301.564592 262.865051 
L 311.071026 265.959779 
L 314.211485 267.192784 
L 317.165485 267.603861 
L 319.580224 267.687795 
L 326.505993 270.254707 
L 328.180764 270.56194 
L 329.88361 270.024622 
L 332.250581 271.290657 
L 334.92678 271.810103 
L 337.203246 273.019352 
L 338.839887 272.612122 
L 343.014875 272.825239 
L 346.885244 274.299641 
L 349.563957 273.71617 
L 351.469182 274.016842 
L 354.158789 274.655063 
L 356.90999 275.055507 
L 360.160229 275.790785 
L 364.180183 275.968156 
L 373.690808 277.622419 
L 376.956549 277.466992 
L 380.151479 278.142769 
L 384.504125 279.639795 
L 388.723527 279.860379 
L 393.462498 281.029357 
L 398.752464 281.694727 
L 402.060106 282.506474 
L 414.533111 283.11076 
L 417.091569 282.414169 
L 419.660921 281.462832 
L 421.883335 281.470524 
L 424.125023 281.334781 
L 427.248302 281.872099 
L 433.219573 282.473443 
L 436.513808 282.460322 
L 438.492359 283.162569 
L 441.000117 283.565953 
L 444.55246 283.618667 
L 447.153656 284.016622 
L 449.210143 284.94986 
L 451.61273 284.028839 
L 455.576957 284.824523 
L 459.200112 284.692399 
L 461.168189 285.005514 
L 463.460996 284.085399 
L 465.980067 284.23155 
L 468.599281 283.652603 
L 472.566021 284.757556 
L 475.181464 285.208225 
L 477.088365 284.49444 
L 481.407072 285.509802 
L 483.871672 285.32225 
L 485.773546 285.459803 
L 487.698884 285.274966 
L 489.348515 285.264785 
L 491.573862 285.008229 
L 494.183857 284.098521 
L 497.127802 282.502628 
L 499.454129 282.235892 
L 501.808112 281.33184 
L 506.053073 281.853095 
L 510.324851 282.674344 
L 510.324851 282.674344 
" clip-path="url(#p1461c95dac)" style="fill: none; stroke: #0000ff; stroke-width: 1.4; stroke-linecap: square"/>
   </g>
   <g id="line2d_36">
    <path d="M 65.767477 109.079063 
L 68.932238 150.953708 
L 72.137224 181.185171 
L 73.893702 196.649537 
L 75.205613 204.610448 
L 75.929658 207.640925 
L 77.536131 217.046826 
L 78.164642 219.606273 
L 78.906703 224.137621 
L 79.730052 227.548179 
L 80.541669 229.452436 
L 82.319936 234.99055 
L 84.273347 239.959219 
L 85.235387 244.284237 
L 86.441709 244.689658 
L 87.381123 246.786897 
L 88.211595 247.14526 
L 93.214541 254.546003 
L 94.454802 256.028776 
L 96.727497 260.35583 
L 97.879347 259.625982 
L 98.5661 259.385715 
L 100.674544 259.640235 
L 101.913548 261.286126 
L 102.715947 260.942921 
L 103.833439 261.738605 
L 105.42399 260.837493 
L 106.88423 260.681841 
L 108.270306 260.839303 
L 111.026116 259.922129 
L 117.811518 263.261875 
L 119.287261 262.982016 
L 120.695963 263.423183 
L 122.437776 263.725665 
L 124.208081 265.235813 
L 125.640666 265.207533 
L 126.924085 266.722432 
L 128.717436 266.700713 
L 130.165106 266.277419 
L 133.727505 268.052493 
L 135.137883 268.140274 
L 136.695751 268.644562 
L 138.09733 269.951999 
L 139.587739 270.107652 
L 140.968786 270.708091 
L 142.707666 270.293168 
L 145.334841 271.477305 
L 147.108917 272.078649 
L 148.870842 271.694947 
L 150.745899 272.732028 
L 152.545116 273.000575 
L 155.949549 272.841302 
L 157.284506 272.02684 
L 162.245132 273.931097 
L 163.418771 273.889469 
L 165.936585 272.684744 
L 167.386349 273.308034 
L 169.049808 272.7999 
L 170.703629 273.370023 
L 172.237614 274.097836 
L 173.640031 273.873632 
L 176.480062 273.926346 
L 179.162127 274.634249 
L 180.49415 274.860488 
L 182.087634 275.276316 
L 184.404744 275.378124 
L 187.491989 275.855942 
L 191.80022 275.993495 
L 193.731843 276.847549 
L 199.128656 277.677169 
L 200.06807 278.211546 
L 205.855815 279.433239 
L 207.218846 279.415366 
L 212.341208 280.559911 
L 214.871592 280.923704 
L 216.327642 281.329125 
L 218.293624 280.997231 
L 219.412373 281.833412 
L 224.581664 282.135894 
L 225.855027 282.496067 
L 227.311077 282.235892 
L 229.517149 283.067322 
L 230.91789 282.067117 
L 232.305642 282.972075 
L 236.481886 283.154876 
L 237.753573 283.740384 
L 239.314375 283.331343 
L 240.536619 284.000559 
L 243.168822 284.085399 
L 244.600988 283.97884 
L 248.012963 284.525661 
L 249.560776 284.946014 
L 251.263202 285.123159 
L 253.152505 285.576769 
L 254.377682 286.152548 
L 259.075171 286.098024 
L 261.993556 286.240329 
L 264.768221 286.757965 
L 266.585456 287.421525 
L 269.37311 287.488492 
L 272.017045 287.6817 
L 274.896881 288.720365 
L 277.250864 288.548876 
L 278.558166 288.654529 
L 280.21911 289.049543 
L 282.974501 289.937533 
L 286.136329 289.571704 
L 287.772971 289.616952 
L 289.227345 290.606749 
L 291.500878 290.590686 
L 294.997493 290.405848 
L 296.173227 291.130946 
L 297.71643 291.517362 
L 301.974381 291.489082 
L 304.552951 292.016899 
L 306.584717 291.642699 
L 309.632156 292.461912 
L 315.374649 292.806022 
L 318.616926 292.578878 
L 319.943084 293.363023 
L 321.986582 293.88722 
L 324.318356 293.538359 
L 325.529287 294.084274 
L 329.203142 293.046288 
L 331.099568 294.585847 
L 332.889567 294.432004 
L 336.806027 294.6639 
L 338.765723 295.073167 
L 342.885402 295.246466 
L 345.32109 295.763197 
L 351.284819 296.680371 
L 353.707099 296.613404 
L 355.362178 297.124253 
L 357.594229 297.39212 
L 361.945618 297.226965 
L 363.761595 297.870843 
L 370.408306 297.882155 
L 372.566192 298.202736 
L 374.277837 298.164954 
L 377.323181 298.5111 
L 379.293352 299.052943 
L 381.466742 298.604311 
L 383.669463 298.935073 
L 385.910313 299.09344 
L 389.346172 299.568543 
L 390.975272 299.766729 
L 393.630939 300.336852 
L 396.967912 299.966498 
L 403.964913 301.053352 
L 405.891089 300.772363 
L 408.039338 300.870551 
L 411.236782 301.727319 
L 417.744382 301.194752 
L 420.139427 301.724604 
L 421.684725 301.574607 
L 424.443468 301.727319 
L 426.735438 302.04971 
L 427.915362 302.347667 
L 431.016434 302.836797 
L 432.303205 302.342011 
L 434.782889 303.100818 
L 436.391876 303.16869 
L 438.936088 303.0472 
L 440.434877 303.247874 
L 441.318982 303.125252 
L 443.173088 303.611667 
L 444.492123 303.635422 
L 445.921356 304.109393 
L 447.591938 303.978401 
L 450.520379 304.583591 
L 453.622708 304.412102 
L 454.923725 304.564813 
L 456.23396 304.17636 
L 457.374917 305.00417 
L 458.052451 304.699652 
L 461.582587 305.220907 
L 462.979976 304.904172 
L 465.448347 305.363212 
L 466.434271 305.9589 
L 467.419775 305.657323 
L 468.511289 305.200093 
L 469.857978 305.887409 
L 471.250758 305.762072 
L 473.30934 306.453007 
L 475.721564 306.431288 
L 477.979175 307.126974 
L 479.779648 306.775398 
L 481.766161 306.691463 
L 483.596804 307.396425 
L 487.37122 307.636918 
L 488.311472 307.35887 
L 489.520727 307.837592 
L 492.418161 307.830126 
L 493.846138 308.285546 
L 495.400235 308.62943 
L 496.933382 308.558843 
L 498.414573 308.982137 
L 499.1713 308.911324 
L 500.118256 309.175345 
L 501.231558 308.577621 
L 503.288464 309.323306 
L 506.586888 309.452489 
L 507.630216 309.705198 
L 509.141156 309.473303 
L 512.731628 310.057679 
L 516.111759 310.014241 
L 517.91 310.478852 
L 517.91 310.478852 
" clip-path="url(#p1461c95dac)" style="fill: none; stroke: #ff0000; stroke-width: 1.4; stroke-linecap: square"/>
   </g>
   <g id="line2d_37">
    <path d="M 68.079977 306.900735 
L 72.469077 295.082442 
L 79.00098 313.382493 
L 81.747572 316.040806 
L 84.009792 317.620635 
L 88.136593 322.311482 
L 90.040981 322.135016 
L 91.916876 322.897668 
L 95.293235 314.179987 
L 96.892586 314.425004 
L 99.70999 304.651463 
L 101.016035 306.423596 
L 102.306577 306.961141 
L 104.770339 310.661964 
L 105.965766 311.764881 
L 107.159937 312.154239 
L 109.373971 314.620248 
L 110.467998 315.390367 
L 111.557836 309.996368 
L 114.689076 312.70649 
L 116.639136 314.046053 
L 117.562628 314.094242 
L 118.46056 314.667306 
L 121.128797 316.855267 
L 121.997399 316.721334 
L 123.661277 318.157954 
L 124.451105 318.332384 
L 125.236325 318.97332 
L 129.803503 320.037777 
L 130.52629 318.683055 
L 131.916975 319.121507 
L 132.605822 319.11291 
L 133.285452 318.868798 
L 134.632979 319.267431 
L 135.304648 317.947777 
L 135.944052 317.664978 
L 137.221186 318.616088 
L 137.848021 318.580342 
L 139.09331 319.520141 
L 139.714698 319.678508 
L 140.325191 319.3439 
L 141.544921 319.808596 
L 142.154577 319.460866 
L 142.762137 319.875563 
L 143.962592 319.797284 
L 144.552973 320.296821 
L 145.131622 319.531453 
L 146.298976 319.741629 
L 146.869664 319.725566 
L 148.003497 319.059065 
L 148.566224 319.552267 
L 149.118475 319.808596 
L 150.212084 320.02737 
L 150.750089 319.496612 
L 151.287675 318.767895 
L 152.368714 318.878073 
L 152.904205 318.432382 
L 153.442629 318.700023 
L 154.478415 318.771741 
L 154.990023 318.388944 
L 155.991869 318.332384 
L 156.488392 318.850925 
L 156.985335 318.929204 
L 157.967069 318.90658 
L 158.453117 319.164719 
L 158.938746 319.230781 
L 159.908748 319.651133 
L 160.867855 319.588918 
L 163.632883 320.588217 
L 164.080383 320.952915 
L 164.962812 320.970788 
L 165.405284 321.538422 
L 165.845241 321.494984 
L 166.705463 321.675976 
L 167.130336 320.860609 
L 168.808879 320.71921 
L 169.637675 321.675976 
L 170.047045 321.592041 
L 170.456834 321.799503 
L 171.669441 321.692944 
L 172.069592 321.75335 
L 173.650506 322.468719 
L 174.427765 322.108772 
L 174.813251 322.417815 
L 175.582129 322.765771 
L 175.955046 322.786585 
L 176.332152 322.417815 
L 177.077985 322.248135 
L 177.442102 321.95968 
L 177.812504 321.886152 
L 178.547443 322.659212 
L 178.915331 322.013525 
L 179.280287 322.708306 
L 180.353783 322.960789 
L 181.061486 322.575277 
L 181.403396 322.037054 
L 181.7562 322.166237 
L 182.445048 322.161486 
L 182.7857 322.638398 
L 183.129286 322.883642 
L 183.808497 323.220965 
L 184.144122 323.006942 
L 184.808667 323.384988 
L 185.139264 323.273905 
L 185.46148 323.423675 
L 186.10298 323.033412 
L 187.354973 322.861923 
L 187.662525 322.678895 
L 187.967143 322.828892 
L 188.578474 322.550843 
L 188.879321 322.758079 
L 189.477245 322.421661 
L 189.773902 322.715772 
L 190.069302 322.568716 
L 190.657588 322.967576 
L 190.948798 322.948572 
L 191.237494 322.513062 
L 192.095201 323.237932 
L 192.373841 323.068253 
L 193.205151 322.902419 
L 194.024729 323.530234 
L 194.296246 323.45286 
L 194.839698 323.458516 
L 195.110377 323.239969 
L 195.375608 323.330464 
L 195.896434 323.05219 
L 196.1558 323.28137 
L 196.415165 323.173002 
L 196.933477 323.7386 
L 197.189071 323.162595 
L 197.697327 322.975947 
L 197.951245 323.467113 
L 198.206421 322.277546 
L 198.702106 322.726179 
L 198.953511 322.263293 
L 199.201563 322.408539 
L 199.690125 322.187051 
L 200.180363 322.908075 
L 200.66306 322.562155 
L 200.905665 322.585684 
L 201.38459 322.488628 
L 201.624262 322.744052 
L 201.861001 322.506501 
L 202.581693 322.476411 
L 202.821785 322.877986 
L 203.292749 323.168251 
L 203.529488 323.066443 
L 203.764551 322.770522 
L 204.240543 322.463063 
L 204.473511 322.535685 
L 205.169063 322.375508 
L 205.399098 322.383879 
L 205.858748 322.613964 
L 206.089202 322.506501 
L 206.313371 322.235013 
L 206.766737 322.299039 
L 206.990906 322.070085 
L 207.215494 322.200172 
L 207.649585 321.662854 
L 207.870821 321.578014 
L 208.312454 321.108567 
L 208.527824 321.095219 
L 208.746127 321.568512 
L 209.183151 321.099065 
L 209.402711 321.514893 
L 209.620176 321.61195 
L 210.050077 321.533671 
L 210.267542 321.849501 
L 210.481654 321.505391 
L 210.906109 321.761721 
L 211.120221 321.149969 
L 211.957398 321.166032 
L 212.782004 320.228044 
L 213.195983 320.589122 
L 213.401296 320.941603 
L 213.607867 320.650433 
L 214.009695 319.853844 
L 214.212075 320.504282 
L 214.617674 320.606995 
L 215.018245 320.361978 
L 215.420073 320.6079 
L 215.618263 320.226234 
L 216.208644 320.119675 
L 216.407673 320.297952 
L 216.603349 320.012211 
L 216.995121 320.388448 
L 217.192054 319.981217 
L 217.570417 320.089585 
L 217.761485 319.860405 
L 217.956742 320.376004 
L 218.532877 320.083024 
L 218.726458 320.435505 
L 219.105241 320.255419 
L 219.294213 319.892531 
L 219.481928 320.015153 
L 219.86113 320.57781 
L 220.049683 320.471251 
L 220.420085 320.127141 
L 220.605286 320.659935 
L 220.787554 320.29207 
L 221.34651 320.185737 
L 221.53213 320.347724 
L 221.89499 319.721041 
L 222.079353 319.962213 
L 222.446404 319.928277 
L 222.629091 320.14705 
L 223.163744 319.883934 
L 223.342241 319.88597 
L 223.5199 319.479644 
L 223.873961 319.063816 
L 224.049944 319.123317 
L 224.226346 319.055445 
L 224.581245 319.282589 
L 224.757647 319.078974 
L 225.112127 319.404306 
L 225.459903 319.092096 
L 225.809774 319.381682 
L 225.982824 319.064947 
L 226.496527 319.342995 
L 226.666644 318.991193 
L 226.838856 319.049789 
L 227.179509 318.619934 
L 227.351301 318.218359 
L 246.581216 316.117953 
L 255.693365 316.648711 
L 263.977136 315.605295 
L 271.635749 315.80891 
L 291.893907 314.068677 
L 297.971187 313.152407 
L 303.773179 313.084536 
L 309.27181 312.636808 
L 314.54711 312.623686 
L 319.643494 312.347448 
L 324.555515 312.213514 
L 333.784985 311.605609 
L 338.190845 311.462173 
L 342.439997 311.136162 
L 346.542496 310.581876 
L 354.262284 310.199984 
L 357.976782 309.437331 
L 361.581501 309.809721 
L 365.071411 309.730537 
L 368.448609 309.428055 
L 371.7441 308.912229 
L 374.954114 309.181001 
L 378.100439 309.224439 
L 381.165895 308.714496 
L 384.160539 309.159282 
L 387.078924 308.890736 
L 392.697391 308.706804 
L 395.39035 308.636217 
L 398.030095 308.128988 
L 403.136536 308.804992 
L 405.60784 307.842343 
L 408.027187 308.562689 
L 412.720486 308.2817 
L 415.007846 308.250705 
L 417.245344 308.39482 
L 419.434238 308.690741 
L 421.594639 308.112925 
L 425.76376 308.489161 
L 427.778346 308.557938 
L 429.751451 308.245954 
L 431.698158 308.399571 
L 433.607993 308.357943 
L 435.456233 308.738025 
L 437.293161 308.857705 
L 439.084835 308.528753 
L 440.82581 308.621059 
L 442.543321 308.562689 
L 444.220187 308.671963 
L 445.895378 308.406132 
L 449.141845 308.928292 
L 450.718988 308.648434 
L 452.264287 308.624 
L 453.763494 308.285546 
L 455.250551 308.833045 
L 458.159298 308.791643 
L 459.577637 309.004761 
L 460.975445 308.758613 
L 463.703182 309.007476 
L 465.036044 308.751147 
L 467.61629 308.6559 
L 468.880434 308.908609 
L 470.12321 308.984852 
L 471.350901 308.784178 
L 472.547166 308.900917 
L 473.726252 308.556128 
L 474.890673 308.912229 
L 476.03121 308.981232 
L 477.150379 308.373101 
L 478.254881 308.966074 
L 479.348909 309.231905 
L 481.46699 308.708614 
L 482.50948 309.123537 
L 483.529762 308.745491 
L 484.537056 309.470362 
L 485.526751 308.785988 
L 486.499685 309.293216 
L 487.455441 309.147066 
L 488.397369 309.350681 
L 489.318346 308.992544 
L 490.241 309.536424 
L 491.146475 309.072633 
L 492.025552 309.147066 
L 492.897086 309.465611 
L 493.754794 309.187562 
L 494.586104 309.486425 
L 495.421186 309.391178 
L 496.236154 309.178287 
L 497.03981 309.682574 
L 498.583014 309.31403 
L 499.346445 309.594793 
L 501.562573 309.449774 
L 502.271534 309.750446 
L 503.656352 309.852254 
L 504.333049 309.294121 
L 504.992147 309.722166 
L 505.639513 309.743885 
L 506.275566 310.213105 
L 506.89863 309.6052 
L 507.516246 309.469457 
L 508.121292 309.742754 
L 508.724663 309.502488 
L 509.311692 309.931437 
L 509.888665 309.834381 
L 511.01328 310.002929 
L 511.568045 310.039806 
L 512.102279 309.910623 
L 512.628552 309.547735 
L 513.153568 310.246136 
L 513.668109 310.105868 
L 515.143852 310.121705 
L 515.615654 309.701352 
L 516.079495 310.380975 
L 516.540822 310.362197 
L 516.989579 309.952025 
L 517.431212 310.14727 
L 517.91 310.666037 
L 517.91 310.666037 
" clip-path="url(#p1461c95dac)" style="fill: none; stroke: #000000; stroke-width: 1.4; stroke-linecap: square"/>
   </g>
   <g id="line2d_38">
    <path d="M 63.31 328.316101 
L 517.91 328.316101 
" clip-path="url(#p1461c95dac)" style="fill: none; stroke-dasharray: 7.4,3.2; stroke-dashoffset: 0; stroke: #808080; stroke-width: 2"/>
   </g>
   <g id="text_20">
    <path d="M 349.0475 257.718254 
L 350.033438 257.718254 
L 350.033438 264.179192 
L 353.583438 264.179192 
L 353.583438 265.008879 
L 349.0475 265.008879 
L 349.0475 257.718254 
z
M 354.579727 259.540129 
L 355.478164 259.540129 
L 355.478164 265.008879 
L 354.579727 265.008879 
L 354.579727 259.540129 
z
M 354.579727 257.410442 
L 355.478164 257.410442 
L 355.478164 258.549504 
L 354.579727 258.549504 
L 354.579727 257.410442 
z
M 361.904922 261.707317 
L 361.904922 265.008879 
L 361.006484 265.008879 
L 361.006484 261.737004 
Q 361.006484 260.960442 360.703359 260.576067 
Q 360.400234 260.190129 359.795547 260.190129 
Q 359.067422 260.190129 358.647109 260.654192 
Q 358.226797 261.116692 358.226797 261.918254 
L 358.226797 265.008879 
L 357.323672 265.008879 
L 357.323672 259.540129 
L 358.226797 259.540129 
L 358.226797 260.390129 
Q 358.550234 259.896379 358.986172 259.652629 
Q 359.423672 259.408879 359.995547 259.408879 
Q 360.937734 259.408879 361.420547 259.991692 
Q 361.904922 260.574504 361.904922 261.707317 
z
M 363.661563 257.410442 
L 364.564688 257.410442 
L 364.564688 261.897942 
L 367.245938 259.540129 
L 368.392813 259.540129 
L 365.492813 262.097942 
L 368.51625 265.008879 
L 367.344375 265.008879 
L 364.564688 262.338567 
L 364.564688 265.008879 
L 363.661563 265.008879 
L 363.661563 257.410442 
z
M 372.972891 259.701067 
L 372.972891 260.551067 
Q 372.593203 260.355754 372.182266 260.258879 
Q 371.772891 260.160442 371.332266 260.160442 
Q 370.663516 260.160442 370.329141 260.365129 
Q 369.994766 260.569817 369.994766 260.980754 
Q 369.994766 261.293254 370.233828 261.471379 
Q 370.472891 261.649504 371.196328 261.810442 
L 371.504141 261.879192 
Q 372.460391 262.083879 372.863516 262.457317 
Q 373.266641 262.830754 373.266641 263.499504 
Q 373.266641 264.262004 372.663516 264.707317 
Q 372.060391 265.151067 371.005703 265.151067 
Q 370.566641 265.151067 370.090078 265.065129 
Q 369.613516 264.979192 369.086953 264.808879 
L 369.086953 263.880754 
Q 369.585391 264.140129 370.068203 264.269817 
Q 370.551016 264.397942 371.026016 264.397942 
Q 371.660391 264.397942 372.001016 264.180754 
Q 372.343203 263.963567 372.343203 263.568254 
Q 372.343203 263.202629 372.096328 263.007317 
Q 371.851016 262.812004 371.015078 262.630754 
L 370.702578 262.557317 
Q 369.868203 262.382317 369.496328 262.018254 
Q 369.126016 261.654192 369.126016 261.019817 
Q 369.126016 260.247942 369.672891 259.829192 
Q 370.219766 259.408879 371.226016 259.408879 
Q 371.722891 259.408879 372.161953 259.482317 
Q 372.602578 259.554192 372.972891 259.701067 
z
" clip-path="url(#p1461c95dac)" style="fill: #414487; stroke: #ffffff; stroke-width: 5"/>
    <path d="M 349.0475 257.718254 
L 350.033438 257.718254 
L 350.033438 264.179192 
L 353.583438 264.179192 
L 353.583438 265.008879 
L 349.0475 265.008879 
L 349.0475 257.718254 
z
M 354.579727 259.540129 
L 355.478164 259.540129 
L 355.478164 265.008879 
L 354.579727 265.008879 
L 354.579727 259.540129 
z
M 354.579727 257.410442 
L 355.478164 257.410442 
L 355.478164 258.549504 
L 354.579727 258.549504 
L 354.579727 257.410442 
z
M 361.904922 261.707317 
L 361.904922 265.008879 
L 361.006484 265.008879 
L 361.006484 261.737004 
Q 361.006484 260.960442 360.703359 260.576067 
Q 360.400234 260.190129 359.795547 260.190129 
Q 359.067422 260.190129 358.647109 260.654192 
Q 358.226797 261.116692 358.226797 261.918254 
L 358.226797 265.008879 
L 357.323672 265.008879 
L 357.323672 259.540129 
L 358.226797 259.540129 
L 358.226797 260.390129 
Q 358.550234 259.896379 358.986172 259.652629 
Q 359.423672 259.408879 359.995547 259.408879 
Q 360.937734 259.408879 361.420547 259.991692 
Q 361.904922 260.574504 361.904922 261.707317 
z
M 363.661563 257.410442 
L 364.564688 257.410442 
L 364.564688 261.897942 
L 367.245938 259.540129 
L 368.392813 259.540129 
L 365.492813 262.097942 
L 368.51625 265.008879 
L 367.344375 265.008879 
L 364.564688 262.338567 
L 364.564688 265.008879 
L 363.661563 265.008879 
L 363.661563 257.410442 
z
M 372.972891 259.701067 
L 372.972891 260.551067 
Q 372.593203 260.355754 372.182266 260.258879 
Q 371.772891 260.160442 371.332266 260.160442 
Q 370.663516 260.160442 370.329141 260.365129 
Q 369.994766 260.569817 369.994766 260.980754 
Q 369.994766 261.293254 370.233828 261.471379 
Q 370.472891 261.649504 371.196328 261.810442 
L 371.504141 261.879192 
Q 372.460391 262.083879 372.863516 262.457317 
Q 373.266641 262.830754 373.266641 263.499504 
Q 373.266641 264.262004 372.663516 264.707317 
Q 372.060391 265.151067 371.005703 265.151067 
Q 370.566641 265.151067 370.090078 265.065129 
Q 369.613516 264.979192 369.086953 264.808879 
L 369.086953 263.880754 
Q 369.585391 264.140129 370.068203 264.269817 
Q 370.551016 264.397942 371.026016 264.397942 
Q 371.660391 264.397942 372.001016 264.180754 
Q 372.343203 263.963567 372.343203 263.568254 
Q 372.343203 263.202629 372.096328 263.007317 
Q 371.851016 262.812004 371.015078 262.630754 
L 370.702578 262.557317 
Q 369.868203 262.382317 369.496328 262.018254 
Q 369.126016 261.654192 369.126016 261.019817 
Q 369.126016 260.247942 369.672891 259.829192 
Q 370.219766 259.408879 371.226016 259.408879 
Q 371.722891 259.408879 372.161953 259.482317 
Q 372.602578 259.554192 372.972891 259.701067 
z
" clip-path="url(#p1461c95dac)" style="fill: #414487"/>
   </g>
   <g id="text_21">
    <path d="M 280.877719 296.496956 
L 287.044906 296.496956 
L 287.044906 297.328206 
L 284.457406 297.328206 
L 284.457406 303.787581 
L 283.466781 303.787581 
L 283.466781 297.328206 
L 280.877719 297.328206 
L 280.877719 296.496956 
z
M 289.651742 299.157894 
Q 289.50018 299.070394 289.322055 299.029769 
Q 289.14393 298.987581 288.929867 298.987581 
Q 288.167367 298.987581 287.759555 299.482894 
Q 287.351742 299.978206 287.351742 300.906331 
L 287.351742 303.787581 
L 286.448617 303.787581 
L 286.448617 298.318831 
L 287.351742 298.318831 
L 287.351742 299.168831 
Q 287.636117 298.670394 288.089242 298.429769 
Q 288.54393 298.187581 289.19393 298.187581 
Q 289.286117 298.187581 289.398617 298.200081 
Q 289.511117 298.211019 289.647055 298.236019 
L 289.651742 299.157894 
z
M 293.080258 301.039144 
Q 291.991195 301.039144 291.570883 301.287581 
Q 291.15057 301.536019 291.15057 302.137581 
Q 291.15057 302.615706 291.466195 302.896956 
Q 291.78182 303.176644 292.322445 303.176644 
Q 293.070883 303.176644 293.522445 302.646956 
Q 293.974008 302.117269 293.974008 301.239144 
L 293.974008 301.039144 
L 293.080258 301.039144 
z
M 294.872445 300.667269 
L 294.872445 303.787581 
L 293.974008 303.787581 
L 293.974008 302.957894 
Q 293.666195 303.454769 293.20682 303.692269 
Q 292.747445 303.929769 292.083383 303.929769 
Q 291.24432 303.929769 290.747445 303.457894 
Q 290.252133 302.986019 290.252133 302.195394 
Q 290.252133 301.273519 290.86932 300.804769 
Q 291.48807 300.336019 292.71307 300.336019 
L 293.974008 300.336019 
L 293.974008 300.246956 
Q 293.974008 299.626644 293.566195 299.287581 
Q 293.158383 298.948519 292.420883 298.948519 
Q 291.952133 298.948519 291.50682 299.061019 
Q 291.06307 299.173519 290.653695 299.398519 
L 290.653695 298.567269 
Q 291.145883 298.376644 291.609945 298.282894 
Q 292.074008 298.187581 292.51307 298.187581 
Q 293.70057 298.187581 294.286508 298.803206 
Q 294.872445 299.417269 294.872445 300.667269 
z
M 301.269125 300.486019 
L 301.269125 303.787581 
L 300.370688 303.787581 
L 300.370688 300.515706 
Q 300.370688 299.739144 300.067563 299.354769 
Q 299.764437 298.968831 299.15975 298.968831 
Q 298.431625 298.968831 298.011313 299.432894 
Q 297.591 299.895394 297.591 300.696956 
L 297.591 303.787581 
L 296.687875 303.787581 
L 296.687875 298.318831 
L 297.591 298.318831 
L 297.591 299.168831 
Q 297.914438 298.675081 298.350375 298.431331 
Q 298.787875 298.187581 299.35975 298.187581 
Q 300.301938 298.187581 300.78475 298.770394 
Q 301.269125 299.353206 301.269125 300.486019 
z
M 306.546078 298.479769 
L 306.546078 299.329769 
Q 306.166391 299.134456 305.755453 299.037581 
Q 305.346078 298.939144 304.905453 298.939144 
Q 304.236703 298.939144 303.902328 299.143831 
Q 303.567953 299.348519 303.567953 299.759456 
Q 303.567953 300.071956 303.807016 300.250081 
Q 304.046078 300.428206 304.769516 300.589144 
L 305.077328 300.657894 
Q 306.033578 300.862581 306.436703 301.236019 
Q 306.839828 301.609456 306.839828 302.278206 
Q 306.839828 303.040706 306.236703 303.486019 
Q 305.633578 303.929769 304.578891 303.929769 
Q 304.139828 303.929769 303.663266 303.843831 
Q 303.186703 303.757894 302.660141 303.587581 
L 302.660141 302.659456 
Q 303.158578 302.918831 303.641391 303.048519 
Q 304.124203 303.176644 304.599203 303.176644 
Q 305.233578 303.176644 305.574203 302.959456 
Q 305.916391 302.742269 305.916391 302.346956 
Q 305.916391 301.981331 305.669516 301.786019 
Q 305.424203 301.590706 304.588266 301.409456 
L 304.275766 301.336019 
Q 303.441391 301.161019 303.069516 300.796956 
Q 302.699203 300.432894 302.699203 299.798519 
Q 302.699203 299.026644 303.246078 298.607894 
Q 303.792953 298.187581 304.799203 298.187581 
Q 305.296078 298.187581 305.735141 298.261019 
Q 306.175766 298.332894 306.546078 298.479769 
z
M 309.138852 302.967269 
L 309.138852 305.867269 
L 308.235727 305.867269 
L 308.235727 298.318831 
L 309.138852 298.318831 
L 309.138852 299.148519 
Q 309.423227 298.661019 309.854477 298.425081 
Q 310.287289 298.187581 310.887289 298.187581 
Q 311.884164 298.187581 312.506039 298.978206 
Q 313.129477 299.768831 313.129477 301.057894 
Q 313.129477 302.346956 312.506039 303.139144 
Q 311.884164 303.929769 310.887289 303.929769 
Q 310.287289 303.929769 309.854477 303.692269 
Q 309.423227 303.454769 309.138852 302.967269 
z
M 312.196664 301.057894 
Q 312.196664 300.067269 311.788852 299.503206 
Q 311.381039 298.939144 310.668539 298.939144 
Q 309.954477 298.939144 309.546664 299.503206 
Q 309.138852 300.067269 309.138852 301.057894 
Q 309.138852 302.048519 309.546664 302.612581 
Q 309.954477 303.176644 310.668539 303.176644 
Q 311.381039 303.176644 311.788852 302.612581 
Q 312.196664 302.048519 312.196664 301.057894 
z
M 316.736508 298.948519 
Q 316.014633 298.948519 315.59432 299.512581 
Q 315.174008 300.076644 315.174008 301.057894 
Q 315.174008 302.039144 315.591195 302.603206 
Q 316.009945 303.167269 316.736508 303.167269 
Q 317.455258 303.167269 317.874008 302.601644 
Q 318.29432 302.034456 318.29432 301.057894 
Q 318.29432 300.086019 317.874008 299.517269 
Q 317.455258 298.948519 316.736508 298.948519 
z
M 316.736508 298.187581 
Q 317.908383 298.187581 318.577133 298.950081 
Q 319.247445 299.711019 319.247445 301.057894 
Q 319.247445 302.400081 318.577133 303.165706 
Q 317.908383 303.929769 316.736508 303.929769 
Q 315.559945 303.929769 314.892758 303.165706 
Q 314.227133 302.400081 314.227133 301.057894 
Q 314.227133 299.711019 314.892758 298.950081 
Q 315.559945 298.187581 316.736508 298.187581 
z
M 323.904672 299.157894 
Q 323.753109 299.070394 323.574984 299.029769 
Q 323.396859 298.987581 323.182797 298.987581 
Q 322.420297 298.987581 322.012484 299.482894 
Q 321.604672 299.978206 321.604672 300.906331 
L 321.604672 303.787581 
L 320.701547 303.787581 
L 320.701547 298.318831 
L 321.604672 298.318831 
L 321.604672 299.168831 
Q 321.889047 298.670394 322.342172 298.429769 
Q 322.796859 298.187581 323.446859 298.187581 
Q 323.539047 298.187581 323.651547 298.200081 
Q 323.764047 298.211019 323.899984 298.236019 
L 323.904672 299.157894 
z
M 325.736312 296.765706 
L 325.736312 298.318831 
L 327.586313 298.318831 
L 327.586313 299.017269 
L 325.736312 299.017269 
L 325.736312 301.986019 
Q 325.736312 302.654769 325.919125 302.845394 
Q 326.101938 303.036019 326.664438 303.036019 
L 327.586313 303.036019 
L 327.586313 303.787581 
L 326.664438 303.787581 
Q 325.623812 303.787581 325.2285 303.400081 
Q 324.833188 303.011019 324.833188 301.986019 
L 324.833188 299.017269 
L 324.173812 299.017269 
L 324.173812 298.318831 
L 324.833188 298.318831 
L 324.833188 296.765706 
L 325.736312 296.765706 
z
" clip-path="url(#p1461c95dac)" style="fill: #ff0000; stroke: #ffffff; stroke-width: 5"/>
    <path d="M 280.877719 296.496956 
L 287.044906 296.496956 
L 287.044906 297.328206 
L 284.457406 297.328206 
L 284.457406 303.787581 
L 283.466781 303.787581 
L 283.466781 297.328206 
L 280.877719 297.328206 
L 280.877719 296.496956 
z
M 289.651742 299.157894 
Q 289.50018 299.070394 289.322055 299.029769 
Q 289.14393 298.987581 288.929867 298.987581 
Q 288.167367 298.987581 287.759555 299.482894 
Q 287.351742 299.978206 287.351742 300.906331 
L 287.351742 303.787581 
L 286.448617 303.787581 
L 286.448617 298.318831 
L 287.351742 298.318831 
L 287.351742 299.168831 
Q 287.636117 298.670394 288.089242 298.429769 
Q 288.54393 298.187581 289.19393 298.187581 
Q 289.286117 298.187581 289.398617 298.200081 
Q 289.511117 298.211019 289.647055 298.236019 
L 289.651742 299.157894 
z
M 293.080258 301.039144 
Q 291.991195 301.039144 291.570883 301.287581 
Q 291.15057 301.536019 291.15057 302.137581 
Q 291.15057 302.615706 291.466195 302.896956 
Q 291.78182 303.176644 292.322445 303.176644 
Q 293.070883 303.176644 293.522445 302.646956 
Q 293.974008 302.117269 293.974008 301.239144 
L 293.974008 301.039144 
L 293.080258 301.039144 
z
M 294.872445 300.667269 
L 294.872445 303.787581 
L 293.974008 303.787581 
L 293.974008 302.957894 
Q 293.666195 303.454769 293.20682 303.692269 
Q 292.747445 303.929769 292.083383 303.929769 
Q 291.24432 303.929769 290.747445 303.457894 
Q 290.252133 302.986019 290.252133 302.195394 
Q 290.252133 301.273519 290.86932 300.804769 
Q 291.48807 300.336019 292.71307 300.336019 
L 293.974008 300.336019 
L 293.974008 300.246956 
Q 293.974008 299.626644 293.566195 299.287581 
Q 293.158383 298.948519 292.420883 298.948519 
Q 291.952133 298.948519 291.50682 299.061019 
Q 291.06307 299.173519 290.653695 299.398519 
L 290.653695 298.567269 
Q 291.145883 298.376644 291.609945 298.282894 
Q 292.074008 298.187581 292.51307 298.187581 
Q 293.70057 298.187581 294.286508 298.803206 
Q 294.872445 299.417269 294.872445 300.667269 
z
M 301.269125 300.486019 
L 301.269125 303.787581 
L 300.370688 303.787581 
L 300.370688 300.515706 
Q 300.370688 299.739144 300.067563 299.354769 
Q 299.764437 298.968831 299.15975 298.968831 
Q 298.431625 298.968831 298.011313 299.432894 
Q 297.591 299.895394 297.591 300.696956 
L 297.591 303.787581 
L 296.687875 303.787581 
L 296.687875 298.318831 
L 297.591 298.318831 
L 297.591 299.168831 
Q 297.914438 298.675081 298.350375 298.431331 
Q 298.787875 298.187581 299.35975 298.187581 
Q 300.301938 298.187581 300.78475 298.770394 
Q 301.269125 299.353206 301.269125 300.486019 
z
M 306.546078 298.479769 
L 306.546078 299.329769 
Q 306.166391 299.134456 305.755453 299.037581 
Q 305.346078 298.939144 304.905453 298.939144 
Q 304.236703 298.939144 303.902328 299.143831 
Q 303.567953 299.348519 303.567953 299.759456 
Q 303.567953 300.071956 303.807016 300.250081 
Q 304.046078 300.428206 304.769516 300.589144 
L 305.077328 300.657894 
Q 306.033578 300.862581 306.436703 301.236019 
Q 306.839828 301.609456 306.839828 302.278206 
Q 306.839828 303.040706 306.236703 303.486019 
Q 305.633578 303.929769 304.578891 303.929769 
Q 304.139828 303.929769 303.663266 303.843831 
Q 303.186703 303.757894 302.660141 303.587581 
L 302.660141 302.659456 
Q 303.158578 302.918831 303.641391 303.048519 
Q 304.124203 303.176644 304.599203 303.176644 
Q 305.233578 303.176644 305.574203 302.959456 
Q 305.916391 302.742269 305.916391 302.346956 
Q 305.916391 301.981331 305.669516 301.786019 
Q 305.424203 301.590706 304.588266 301.409456 
L 304.275766 301.336019 
Q 303.441391 301.161019 303.069516 300.796956 
Q 302.699203 300.432894 302.699203 299.798519 
Q 302.699203 299.026644 303.246078 298.607894 
Q 303.792953 298.187581 304.799203 298.187581 
Q 305.296078 298.187581 305.735141 298.261019 
Q 306.175766 298.332894 306.546078 298.479769 
z
M 309.138852 302.967269 
L 309.138852 305.867269 
L 308.235727 305.867269 
L 308.235727 298.318831 
L 309.138852 298.318831 
L 309.138852 299.148519 
Q 309.423227 298.661019 309.854477 298.425081 
Q 310.287289 298.187581 310.887289 298.187581 
Q 311.884164 298.187581 312.506039 298.978206 
Q 313.129477 299.768831 313.129477 301.057894 
Q 313.129477 302.346956 312.506039 303.139144 
Q 311.884164 303.929769 310.887289 303.929769 
Q 310.287289 303.929769 309.854477 303.692269 
Q 309.423227 303.454769 309.138852 302.967269 
z
M 312.196664 301.057894 
Q 312.196664 300.067269 311.788852 299.503206 
Q 311.381039 298.939144 310.668539 298.939144 
Q 309.954477 298.939144 309.546664 299.503206 
Q 309.138852 300.067269 309.138852 301.057894 
Q 309.138852 302.048519 309.546664 302.612581 
Q 309.954477 303.176644 310.668539 303.176644 
Q 311.381039 303.176644 311.788852 302.612581 
Q 312.196664 302.048519 312.196664 301.057894 
z
M 316.736508 298.948519 
Q 316.014633 298.948519 315.59432 299.512581 
Q 315.174008 300.076644 315.174008 301.057894 
Q 315.174008 302.039144 315.591195 302.603206 
Q 316.009945 303.167269 316.736508 303.167269 
Q 317.455258 303.167269 317.874008 302.601644 
Q 318.29432 302.034456 318.29432 301.057894 
Q 318.29432 300.086019 317.874008 299.517269 
Q 317.455258 298.948519 316.736508 298.948519 
z
M 316.736508 298.187581 
Q 317.908383 298.187581 318.577133 298.950081 
Q 319.247445 299.711019 319.247445 301.057894 
Q 319.247445 302.400081 318.577133 303.165706 
Q 317.908383 303.929769 316.736508 303.929769 
Q 315.559945 303.929769 314.892758 303.165706 
Q 314.227133 302.400081 314.227133 301.057894 
Q 314.227133 299.711019 314.892758 298.950081 
Q 315.559945 298.187581 316.736508 298.187581 
z
M 323.904672 299.157894 
Q 323.753109 299.070394 323.574984 299.029769 
Q 323.396859 298.987581 323.182797 298.987581 
Q 322.420297 298.987581 322.012484 299.482894 
Q 321.604672 299.978206 321.604672 300.906331 
L 321.604672 303.787581 
L 320.701547 303.787581 
L 320.701547 298.318831 
L 321.604672 298.318831 
L 321.604672 299.168831 
Q 321.889047 298.670394 322.342172 298.429769 
Q 322.796859 298.187581 323.446859 298.187581 
Q 323.539047 298.187581 323.651547 298.200081 
Q 323.764047 298.211019 323.899984 298.236019 
L 323.904672 299.157894 
z
M 325.736312 296.765706 
L 325.736312 298.318831 
L 327.586313 298.318831 
L 327.586313 299.017269 
L 325.736312 299.017269 
L 325.736312 301.986019 
Q 325.736312 302.654769 325.919125 302.845394 
Q 326.101938 303.036019 326.664438 303.036019 
L 327.586313 303.036019 
L 327.586313 303.787581 
L 326.664438 303.787581 
Q 325.623812 303.787581 325.2285 303.400081 
Q 324.833188 303.011019 324.833188 301.986019 
L 324.833188 299.017269 
L 324.173812 299.017269 
L 324.173812 298.318831 
L 324.833188 298.318831 
L 324.833188 296.765706 
L 325.736312 296.765706 
z
" clip-path="url(#p1461c95dac)" style="fill: #ff0000"/>
   </g>
   <g id="text_22">
    <path d="M 158.050781 307.12986 
L 158.050781 309.868922 
L 159.291406 309.868922 
Q 159.980469 309.868922 160.355469 309.512672 
Q 160.732031 309.156422 160.732031 308.497047 
Q 160.732031 307.84236 160.355469 307.48611 
Q 159.980469 307.12986 159.291406 307.12986 
L 158.050781 307.12986 
z
M 157.064844 306.318922 
L 159.291406 306.318922 
Q 160.517969 306.318922 161.144531 306.87361 
Q 161.772656 307.428297 161.772656 308.497047 
Q 161.772656 309.576735 161.144531 310.128297 
Q 160.517969 310.67986 159.291406 310.67986 
L 158.050781 310.67986 
L 158.050781 313.609547 
L 157.064844 313.609547 
L 157.064844 306.318922 
z
M 164.812305 308.770485 
Q 164.09043 308.770485 163.670117 309.334547 
Q 163.249805 309.89861 163.249805 310.87986 
Q 163.249805 311.86111 163.666992 312.425172 
Q 164.085742 312.989235 164.812305 312.989235 
Q 165.531055 312.989235 165.949805 312.42361 
Q 166.370117 311.856422 166.370117 310.87986 
Q 166.370117 309.907985 165.949805 309.339235 
Q 165.531055 308.770485 164.812305 308.770485 
z
M 164.812305 308.009547 
Q 165.98418 308.009547 166.65293 308.772047 
Q 167.323242 309.532985 167.323242 310.87986 
Q 167.323242 312.222047 166.65293 312.987672 
Q 165.98418 313.751735 164.812305 313.751735 
Q 163.635742 313.751735 162.968555 312.987672 
Q 162.30293 312.222047 162.30293 310.87986 
Q 162.30293 309.532985 162.968555 308.772047 
Q 163.635742 308.009547 164.812305 308.009547 
z
M 169.680469 312.789235 
L 169.680469 315.689235 
L 168.777344 315.689235 
L 168.777344 308.140797 
L 169.680469 308.140797 
L 169.680469 308.970485 
Q 169.964844 308.482985 170.396094 308.247047 
Q 170.828906 308.009547 171.428906 308.009547 
Q 172.425781 308.009547 173.047656 308.800172 
Q 173.671094 309.590797 173.671094 310.87986 
Q 173.671094 312.168922 173.047656 312.96111 
Q 172.425781 313.751735 171.428906 313.751735 
Q 170.828906 313.751735 170.396094 313.514235 
Q 169.964844 313.276735 169.680469 312.789235 
z
M 172.738281 310.87986 
Q 172.738281 309.889235 172.330469 309.325172 
Q 171.922656 308.76111 171.210156 308.76111 
Q 170.496094 308.76111 170.088281 309.325172 
Q 169.680469 309.889235 169.680469 310.87986 
Q 169.680469 311.870485 170.088281 312.434547 
Q 170.496094 312.99861 171.210156 312.99861 
Q 171.922656 312.99861 172.330469 312.434547 
Q 172.738281 311.870485 172.738281 310.87986 
z
M 175.067188 311.451735 
L 175.067188 308.140797 
L 175.965625 308.140797 
L 175.965625 311.41736 
Q 175.965625 312.193922 176.267188 312.582985 
Q 176.570313 312.970485 177.176563 312.970485 
Q 177.903125 312.970485 178.325 312.506422 
Q 178.748438 312.04236 178.748438 311.240797 
L 178.748438 308.140797 
L 179.646875 308.140797 
L 179.646875 313.609547 
L 178.748438 313.609547 
L 178.748438 312.768922 
Q 178.421875 313.26736 177.989063 313.509547 
Q 177.557813 313.751735 176.985938 313.751735 
Q 176.04375 313.751735 175.554688 313.165797 
Q 175.067188 312.57986 175.067188 311.451735 
z
M 177.328125 308.009547 
L 177.328125 308.009547 
z
M 181.497266 306.01111 
L 182.395703 306.01111 
L 182.395703 313.609547 
L 181.497266 313.609547 
L 181.497266 306.01111 
z
M 186.761523 310.86111 
Q 185.672461 310.86111 185.252148 311.109547 
Q 184.831836 311.357985 184.831836 311.959547 
Q 184.831836 312.437672 185.147461 312.718922 
Q 185.463086 312.99861 186.003711 312.99861 
Q 186.752148 312.99861 187.203711 312.468922 
Q 187.655273 311.939235 187.655273 311.06111 
L 187.655273 310.86111 
L 186.761523 310.86111 
z
M 188.553711 310.489235 
L 188.553711 313.609547 
L 187.655273 313.609547 
L 187.655273 312.77986 
Q 187.347461 313.276735 186.888086 313.514235 
Q 186.428711 313.751735 185.764648 313.751735 
Q 184.925586 313.751735 184.428711 313.27986 
Q 183.933398 312.807985 183.933398 312.01736 
Q 183.933398 311.095485 184.550586 310.626735 
Q 185.169336 310.157985 186.394336 310.157985 
L 187.655273 310.157985 
L 187.655273 310.068922 
Q 187.655273 309.44861 187.247461 309.109547 
Q 186.839648 308.770485 186.102148 308.770485 
Q 185.633398 308.770485 185.188086 308.882985 
Q 184.744336 308.995485 184.334961 309.220485 
L 184.334961 308.389235 
Q 184.827148 308.19861 185.291211 308.10486 
Q 185.755273 308.009547 186.194336 308.009547 
Q 187.381836 308.009547 187.967773 308.625172 
Q 188.553711 309.239235 188.553711 310.489235 
z
M 191.292578 306.587672 
L 191.292578 308.140797 
L 193.142578 308.140797 
L 193.142578 308.839235 
L 191.292578 308.839235 
L 191.292578 311.807985 
Q 191.292578 312.476735 191.475391 312.66736 
Q 191.658203 312.857985 192.220703 312.857985 
L 193.142578 312.857985 
L 193.142578 313.609547 
L 192.220703 313.609547 
Q 191.180078 313.609547 190.784766 313.222047 
Q 190.389453 312.832985 190.389453 311.807985 
L 190.389453 308.839235 
L 189.730078 308.839235 
L 189.730078 308.140797 
L 190.389453 308.140797 
L 190.389453 306.587672 
L 191.292578 306.587672 
z
M 194.324414 308.140797 
L 195.222852 308.140797 
L 195.222852 313.609547 
L 194.324414 313.609547 
L 194.324414 308.140797 
z
M 194.324414 306.01111 
L 195.222852 306.01111 
L 195.222852 307.150172 
L 194.324414 307.150172 
L 194.324414 306.01111 
z
M 199.221484 308.770485 
Q 198.499609 308.770485 198.079297 309.334547 
Q 197.658984 309.89861 197.658984 310.87986 
Q 197.658984 311.86111 198.076172 312.425172 
Q 198.494922 312.989235 199.221484 312.989235 
Q 199.940234 312.989235 200.358984 312.42361 
Q 200.779297 311.856422 200.779297 310.87986 
Q 200.779297 309.907985 200.358984 309.339235 
Q 199.940234 308.770485 199.221484 308.770485 
z
M 199.221484 308.009547 
Q 200.393359 308.009547 201.062109 308.772047 
Q 201.732422 309.532985 201.732422 310.87986 
Q 201.732422 312.222047 201.062109 312.987672 
Q 200.393359 313.751735 199.221484 313.751735 
Q 198.044922 313.751735 197.377734 312.987672 
Q 196.712109 312.222047 196.712109 310.87986 
Q 196.712109 309.532985 197.377734 308.772047 
Q 198.044922 308.009547 199.221484 308.009547 
z
M 207.767773 310.307985 
L 207.767773 313.609547 
L 206.869336 313.609547 
L 206.869336 310.337672 
Q 206.869336 309.56111 206.566211 309.176735 
Q 206.263086 308.790797 205.658398 308.790797 
Q 204.930273 308.790797 204.509961 309.25486 
Q 204.089648 309.71736 204.089648 310.518922 
L 204.089648 313.609547 
L 203.186523 313.609547 
L 203.186523 308.140797 
L 204.089648 308.140797 
L 204.089648 308.990797 
Q 204.413086 308.497047 204.849023 308.253297 
Q 205.286523 308.009547 205.858398 308.009547 
Q 206.800586 308.009547 207.283398 308.59236 
Q 207.767773 309.175172 207.767773 310.307985 
z
" clip-path="url(#p1461c95dac)" style="stroke: #ffffff; stroke-width: 5"/>
    <path d="M 158.050781 307.12986 
L 158.050781 309.868922 
L 159.291406 309.868922 
Q 159.980469 309.868922 160.355469 309.512672 
Q 160.732031 309.156422 160.732031 308.497047 
Q 160.732031 307.84236 160.355469 307.48611 
Q 159.980469 307.12986 159.291406 307.12986 
L 158.050781 307.12986 
z
M 157.064844 306.318922 
L 159.291406 306.318922 
Q 160.517969 306.318922 161.144531 306.87361 
Q 161.772656 307.428297 161.772656 308.497047 
Q 161.772656 309.576735 161.144531 310.128297 
Q 160.517969 310.67986 159.291406 310.67986 
L 158.050781 310.67986 
L 158.050781 313.609547 
L 157.064844 313.609547 
L 157.064844 306.318922 
z
M 164.812305 308.770485 
Q 164.09043 308.770485 163.670117 309.334547 
Q 163.249805 309.89861 163.249805 310.87986 
Q 163.249805 311.86111 163.666992 312.425172 
Q 164.085742 312.989235 164.812305 312.989235 
Q 165.531055 312.989235 165.949805 312.42361 
Q 166.370117 311.856422 166.370117 310.87986 
Q 166.370117 309.907985 165.949805 309.339235 
Q 165.531055 308.770485 164.812305 308.770485 
z
M 164.812305 308.009547 
Q 165.98418 308.009547 166.65293 308.772047 
Q 167.323242 309.532985 167.323242 310.87986 
Q 167.323242 312.222047 166.65293 312.987672 
Q 165.98418 313.751735 164.812305 313.751735 
Q 163.635742 313.751735 162.968555 312.987672 
Q 162.30293 312.222047 162.30293 310.87986 
Q 162.30293 309.532985 162.968555 308.772047 
Q 163.635742 308.009547 164.812305 308.009547 
z
M 169.680469 312.789235 
L 169.680469 315.689235 
L 168.777344 315.689235 
L 168.777344 308.140797 
L 169.680469 308.140797 
L 169.680469 308.970485 
Q 169.964844 308.482985 170.396094 308.247047 
Q 170.828906 308.009547 171.428906 308.009547 
Q 172.425781 308.009547 173.047656 308.800172 
Q 173.671094 309.590797 173.671094 310.87986 
Q 173.671094 312.168922 173.047656 312.96111 
Q 172.425781 313.751735 171.428906 313.751735 
Q 170.828906 313.751735 170.396094 313.514235 
Q 169.964844 313.276735 169.680469 312.789235 
z
M 172.738281 310.87986 
Q 172.738281 309.889235 172.330469 309.325172 
Q 171.922656 308.76111 171.210156 308.76111 
Q 170.496094 308.76111 170.088281 309.325172 
Q 169.680469 309.889235 169.680469 310.87986 
Q 169.680469 311.870485 170.088281 312.434547 
Q 170.496094 312.99861 171.210156 312.99861 
Q 171.922656 312.99861 172.330469 312.434547 
Q 172.738281 311.870485 172.738281 310.87986 
z
M 175.067188 311.451735 
L 175.067188 308.140797 
L 175.965625 308.140797 
L 175.965625 311.41736 
Q 175.965625 312.193922 176.267188 312.582985 
Q 176.570313 312.970485 177.176563 312.970485 
Q 177.903125 312.970485 178.325 312.506422 
Q 178.748438 312.04236 178.748438 311.240797 
L 178.748438 308.140797 
L 179.646875 308.140797 
L 179.646875 313.609547 
L 178.748438 313.609547 
L 178.748438 312.768922 
Q 178.421875 313.26736 177.989063 313.509547 
Q 177.557813 313.751735 176.985938 313.751735 
Q 176.04375 313.751735 175.554688 313.165797 
Q 175.067188 312.57986 175.067188 311.451735 
z
M 177.328125 308.009547 
L 177.328125 308.009547 
z
M 181.497266 306.01111 
L 182.395703 306.01111 
L 182.395703 313.609547 
L 181.497266 313.609547 
L 181.497266 306.01111 
z
M 186.761523 310.86111 
Q 185.672461 310.86111 185.252148 311.109547 
Q 184.831836 311.357985 184.831836 311.959547 
Q 184.831836 312.437672 185.147461 312.718922 
Q 185.463086 312.99861 186.003711 312.99861 
Q 186.752148 312.99861 187.203711 312.468922 
Q 187.655273 311.939235 187.655273 311.06111 
L 187.655273 310.86111 
L 186.761523 310.86111 
z
M 188.553711 310.489235 
L 188.553711 313.609547 
L 187.655273 313.609547 
L 187.655273 312.77986 
Q 187.347461 313.276735 186.888086 313.514235 
Q 186.428711 313.751735 185.764648 313.751735 
Q 184.925586 313.751735 184.428711 313.27986 
Q 183.933398 312.807985 183.933398 312.01736 
Q 183.933398 311.095485 184.550586 310.626735 
Q 185.169336 310.157985 186.394336 310.157985 
L 187.655273 310.157985 
L 187.655273 310.068922 
Q 187.655273 309.44861 187.247461 309.109547 
Q 186.839648 308.770485 186.102148 308.770485 
Q 185.633398 308.770485 185.188086 308.882985 
Q 184.744336 308.995485 184.334961 309.220485 
L 184.334961 308.389235 
Q 184.827148 308.19861 185.291211 308.10486 
Q 185.755273 308.009547 186.194336 308.009547 
Q 187.381836 308.009547 187.967773 308.625172 
Q 188.553711 309.239235 188.553711 310.489235 
z
M 191.292578 306.587672 
L 191.292578 308.140797 
L 193.142578 308.140797 
L 193.142578 308.839235 
L 191.292578 308.839235 
L 191.292578 311.807985 
Q 191.292578 312.476735 191.475391 312.66736 
Q 191.658203 312.857985 192.220703 312.857985 
L 193.142578 312.857985 
L 193.142578 313.609547 
L 192.220703 313.609547 
Q 191.180078 313.609547 190.784766 313.222047 
Q 190.389453 312.832985 190.389453 311.807985 
L 190.389453 308.839235 
L 189.730078 308.839235 
L 189.730078 308.140797 
L 190.389453 308.140797 
L 190.389453 306.587672 
L 191.292578 306.587672 
z
M 194.324414 308.140797 
L 195.222852 308.140797 
L 195.222852 313.609547 
L 194.324414 313.609547 
L 194.324414 308.140797 
z
M 194.324414 306.01111 
L 195.222852 306.01111 
L 195.222852 307.150172 
L 194.324414 307.150172 
L 194.324414 306.01111 
z
M 199.221484 308.770485 
Q 198.499609 308.770485 198.079297 309.334547 
Q 197.658984 309.89861 197.658984 310.87986 
Q 197.658984 311.86111 198.076172 312.425172 
Q 198.494922 312.989235 199.221484 312.989235 
Q 199.940234 312.989235 200.358984 312.42361 
Q 200.779297 311.856422 200.779297 310.87986 
Q 200.779297 309.907985 200.358984 309.339235 
Q 199.940234 308.770485 199.221484 308.770485 
z
M 199.221484 308.009547 
Q 200.393359 308.009547 201.062109 308.772047 
Q 201.732422 309.532985 201.732422 310.87986 
Q 201.732422 312.222047 201.062109 312.987672 
Q 200.393359 313.751735 199.221484 313.751735 
Q 198.044922 313.751735 197.377734 312.987672 
Q 196.712109 312.222047 196.712109 310.87986 
Q 196.712109 309.532985 197.377734 308.772047 
Q 198.044922 308.009547 199.221484 308.009547 
z
M 207.767773 310.307985 
L 207.767773 313.609547 
L 206.869336 313.609547 
L 206.869336 310.337672 
Q 206.869336 309.56111 206.566211 309.176735 
Q 206.263086 308.790797 205.658398 308.790797 
Q 204.930273 308.790797 204.509961 309.25486 
Q 204.089648 309.71736 204.089648 310.518922 
L 204.089648 313.609547 
L 203.186523 313.609547 
L 203.186523 308.140797 
L 204.089648 308.140797 
L 204.089648 308.990797 
Q 204.413086 308.497047 204.849023 308.253297 
Q 205.286523 308.009547 205.858398 308.009547 
Q 206.800586 308.009547 207.283398 308.59236 
Q 207.767773 309.175172 207.767773 310.307985 
z
" clip-path="url(#p1461c95dac)"/>
   </g>
   <g id="text_23">
    <path d="M 344.650625 338.968695 
Q 344.967813 339.076508 345.267812 339.42807 
Q 345.567813 339.779633 345.870938 340.395258 
L 346.8725 342.387445 
L 345.811563 342.387445 
L 344.880313 340.517133 
Q 344.517812 339.78432 344.17875 339.545258 
Q 343.839688 339.306195 343.25375 339.306195 
L 342.17875 339.306195 
L 342.17875 342.387445 
L 341.192813 342.387445 
L 341.192813 335.09682 
L 343.419375 335.09682 
Q 344.669375 335.09682 345.285 335.620258 
Q 345.900625 336.142133 345.900625 337.19682 
Q 345.900625 337.885883 345.580312 338.34057 
Q 345.26 338.793695 344.650625 338.968695 
z
M 342.17875 335.907758 
L 342.17875 338.495258 
L 343.419375 338.495258 
Q 344.131875 338.495258 344.495938 338.16557 
Q 344.86 337.835883 344.86 337.19682 
Q 344.86 336.557758 344.495938 336.232758 
Q 344.131875 335.907758 343.419375 335.907758 
L 342.17875 335.907758 
z
M 350.36293 339.639008 
Q 349.273867 339.639008 348.853555 339.887445 
Q 348.433242 340.135883 348.433242 340.737445 
Q 348.433242 341.21557 348.748867 341.49682 
Q 349.064492 341.776508 349.605117 341.776508 
Q 350.353555 341.776508 350.805117 341.24682 
Q 351.25668 340.717133 351.25668 339.839008 
L 351.25668 339.639008 
L 350.36293 339.639008 
z
M 352.155117 339.267133 
L 352.155117 342.387445 
L 351.25668 342.387445 
L 351.25668 341.557758 
Q 350.948867 342.054633 350.489492 342.292133 
Q 350.030117 342.529633 349.366055 342.529633 
Q 348.526992 342.529633 348.030117 342.057758 
Q 347.534805 341.585883 347.534805 340.795258 
Q 347.534805 339.873383 348.151992 339.404633 
Q 348.770742 338.935883 349.995742 338.935883 
L 351.25668 338.935883 
L 351.25668 338.84682 
Q 351.25668 338.226508 350.848867 337.887445 
Q 350.441055 337.548383 349.703555 337.548383 
Q 349.234805 337.548383 348.789492 337.660883 
Q 348.345742 337.773383 347.936367 337.998383 
L 347.936367 337.167133 
Q 348.428555 336.976508 348.892617 336.882758 
Q 349.35668 336.787445 349.795742 336.787445 
Q 350.983242 336.787445 351.56918 337.40307 
Q 352.155117 338.017133 352.155117 339.267133 
z
M 358.551797 339.085883 
L 358.551797 342.387445 
L 357.653359 342.387445 
L 357.653359 339.11557 
Q 357.653359 338.339008 357.350234 337.954633 
Q 357.047109 337.568695 356.442422 337.568695 
Q 355.714297 337.568695 355.293984 338.032758 
Q 354.873672 338.495258 354.873672 339.29682 
L 354.873672 342.387445 
L 353.970547 342.387445 
L 353.970547 336.918695 
L 354.873672 336.918695 
L 354.873672 337.768695 
Q 355.197109 337.274945 355.633047 337.031195 
Q 356.070547 336.787445 356.642422 336.787445 
Q 357.584609 336.787445 358.067422 337.370258 
Q 358.551797 337.95307 358.551797 339.085883 
z
M 363.94125 337.748383 
L 363.94125 334.789008 
L 364.839688 334.789008 
L 364.839688 342.387445 
L 363.94125 342.387445 
L 363.94125 341.567133 
Q 363.658437 342.054633 363.225625 342.292133 
Q 362.794375 342.529633 362.188125 342.529633 
Q 361.1975 342.529633 360.574063 341.739008 
Q 359.952188 340.94682 359.952188 339.657758 
Q 359.952188 338.368695 360.574063 337.57807 
Q 361.1975 336.787445 362.188125 336.787445 
Q 362.794375 336.787445 363.225625 337.024945 
Q 363.658437 337.260883 363.94125 337.748383 
z
M 360.880313 339.657758 
Q 360.880313 340.648383 361.288125 341.212445 
Q 361.695938 341.776508 362.408437 341.776508 
Q 363.120938 341.776508 363.530313 341.212445 
Q 363.94125 340.648383 363.94125 339.657758 
Q 363.94125 338.667133 363.530313 338.10307 
Q 363.120938 337.539008 362.408437 337.539008 
Q 361.695938 337.539008 361.288125 338.10307 
Q 360.880313 338.667133 360.880313 339.657758 
z
M 368.809219 337.548383 
Q 368.087344 337.548383 367.667031 338.112445 
Q 367.246719 338.676508 367.246719 339.657758 
Q 367.246719 340.639008 367.663906 341.20307 
Q 368.082656 341.767133 368.809219 341.767133 
Q 369.527969 341.767133 369.946719 341.201508 
Q 370.367031 340.63432 370.367031 339.657758 
Q 370.367031 338.685883 369.946719 338.117133 
Q 369.527969 337.548383 368.809219 337.548383 
z
M 368.809219 336.787445 
Q 369.981094 336.787445 370.649844 337.549945 
Q 371.320156 338.310883 371.320156 339.657758 
Q 371.320156 340.999945 370.649844 341.76557 
Q 369.981094 342.529633 368.809219 342.529633 
Q 367.632656 342.529633 366.965469 341.76557 
Q 366.299844 340.999945 366.299844 339.657758 
Q 366.299844 338.310883 366.965469 337.549945 
Q 367.632656 336.787445 368.809219 336.787445 
z
M 377.066445 337.968695 
Q 377.403945 337.362445 377.872695 337.074945 
Q 378.341445 336.787445 378.97582 336.787445 
Q 379.830508 336.787445 380.29457 337.385883 
Q 380.758633 337.982758 380.758633 339.085883 
L 380.758633 342.387445 
L 379.855508 342.387445 
L 379.855508 339.11557 
Q 379.855508 338.329633 379.57582 337.949945 
Q 379.297695 337.568695 378.727383 337.568695 
Q 378.028945 337.568695 377.622695 338.032758 
Q 377.218008 338.495258 377.218008 339.29682 
L 377.218008 342.387445 
L 376.314883 342.387445 
L 376.314883 339.11557 
Q 376.314883 338.324945 376.036758 337.94682 
Q 375.758633 337.568695 375.177383 337.568695 
Q 374.48832 337.568695 374.08207 338.03432 
Q 373.677383 338.499945 373.677383 339.29682 
L 373.677383 342.387445 
L 372.774258 342.387445 
L 372.774258 336.918695 
L 373.677383 336.918695 
L 373.677383 337.768695 
Q 373.985195 337.26557 374.414883 337.026508 
Q 374.84457 336.787445 375.435195 336.787445 
Q 376.03207 336.787445 376.449258 337.09057 
Q 376.866445 337.392133 377.066445 337.968695 
z
" clip-path="url(#p1461c95dac)" style="fill: #808080; stroke: #ffffff; stroke-width: 5"/>
    <path d="M 344.650625 338.968695 
Q 344.967813 339.076508 345.267812 339.42807 
Q 345.567813 339.779633 345.870938 340.395258 
L 346.8725 342.387445 
L 345.811563 342.387445 
L 344.880313 340.517133 
Q 344.517812 339.78432 344.17875 339.545258 
Q 343.839688 339.306195 343.25375 339.306195 
L 342.17875 339.306195 
L 342.17875 342.387445 
L 341.192813 342.387445 
L 341.192813 335.09682 
L 343.419375 335.09682 
Q 344.669375 335.09682 345.285 335.620258 
Q 345.900625 336.142133 345.900625 337.19682 
Q 345.900625 337.885883 345.580312 338.34057 
Q 345.26 338.793695 344.650625 338.968695 
z
M 342.17875 335.907758 
L 342.17875 338.495258 
L 343.419375 338.495258 
Q 344.131875 338.495258 344.495938 338.16557 
Q 344.86 337.835883 344.86 337.19682 
Q 344.86 336.557758 344.495938 336.232758 
Q 344.131875 335.907758 343.419375 335.907758 
L 342.17875 335.907758 
z
M 350.36293 339.639008 
Q 349.273867 339.639008 348.853555 339.887445 
Q 348.433242 340.135883 348.433242 340.737445 
Q 348.433242 341.21557 348.748867 341.49682 
Q 349.064492 341.776508 349.605117 341.776508 
Q 350.353555 341.776508 350.805117 341.24682 
Q 351.25668 340.717133 351.25668 339.839008 
L 351.25668 339.639008 
L 350.36293 339.639008 
z
M 352.155117 339.267133 
L 352.155117 342.387445 
L 351.25668 342.387445 
L 351.25668 341.557758 
Q 350.948867 342.054633 350.489492 342.292133 
Q 350.030117 342.529633 349.366055 342.529633 
Q 348.526992 342.529633 348.030117 342.057758 
Q 347.534805 341.585883 347.534805 340.795258 
Q 347.534805 339.873383 348.151992 339.404633 
Q 348.770742 338.935883 349.995742 338.935883 
L 351.25668 338.935883 
L 351.25668 338.84682 
Q 351.25668 338.226508 350.848867 337.887445 
Q 350.441055 337.548383 349.703555 337.548383 
Q 349.234805 337.548383 348.789492 337.660883 
Q 348.345742 337.773383 347.936367 337.998383 
L 347.936367 337.167133 
Q 348.428555 336.976508 348.892617 336.882758 
Q 349.35668 336.787445 349.795742 336.787445 
Q 350.983242 336.787445 351.56918 337.40307 
Q 352.155117 338.017133 352.155117 339.267133 
z
M 358.551797 339.085883 
L 358.551797 342.387445 
L 357.653359 342.387445 
L 357.653359 339.11557 
Q 357.653359 338.339008 357.350234 337.954633 
Q 357.047109 337.568695 356.442422 337.568695 
Q 355.714297 337.568695 355.293984 338.032758 
Q 354.873672 338.495258 354.873672 339.29682 
L 354.873672 342.387445 
L 353.970547 342.387445 
L 353.970547 336.918695 
L 354.873672 336.918695 
L 354.873672 337.768695 
Q 355.197109 337.274945 355.633047 337.031195 
Q 356.070547 336.787445 356.642422 336.787445 
Q 357.584609 336.787445 358.067422 337.370258 
Q 358.551797 337.95307 358.551797 339.085883 
z
M 363.94125 337.748383 
L 363.94125 334.789008 
L 364.839688 334.789008 
L 364.839688 342.387445 
L 363.94125 342.387445 
L 363.94125 341.567133 
Q 363.658437 342.054633 363.225625 342.292133 
Q 362.794375 342.529633 362.188125 342.529633 
Q 361.1975 342.529633 360.574063 341.739008 
Q 359.952188 340.94682 359.952188 339.657758 
Q 359.952188 338.368695 360.574063 337.57807 
Q 361.1975 336.787445 362.188125 336.787445 
Q 362.794375 336.787445 363.225625 337.024945 
Q 363.658437 337.260883 363.94125 337.748383 
z
M 360.880313 339.657758 
Q 360.880313 340.648383 361.288125 341.212445 
Q 361.695938 341.776508 362.408437 341.776508 
Q 363.120938 341.776508 363.530313 341.212445 
Q 363.94125 340.648383 363.94125 339.657758 
Q 363.94125 338.667133 363.530313 338.10307 
Q 363.120938 337.539008 362.408437 337.539008 
Q 361.695938 337.539008 361.288125 338.10307 
Q 360.880313 338.667133 360.880313 339.657758 
z
M 368.809219 337.548383 
Q 368.087344 337.548383 367.667031 338.112445 
Q 367.246719 338.676508 367.246719 339.657758 
Q 367.246719 340.639008 367.663906 341.20307 
Q 368.082656 341.767133 368.809219 341.767133 
Q 369.527969 341.767133 369.946719 341.201508 
Q 370.367031 340.63432 370.367031 339.657758 
Q 370.367031 338.685883 369.946719 338.117133 
Q 369.527969 337.548383 368.809219 337.548383 
z
M 368.809219 336.787445 
Q 369.981094 336.787445 370.649844 337.549945 
Q 371.320156 338.310883 371.320156 339.657758 
Q 371.320156 340.999945 370.649844 341.76557 
Q 369.981094 342.529633 368.809219 342.529633 
Q 367.632656 342.529633 366.965469 341.76557 
Q 366.299844 340.999945 366.299844 339.657758 
Q 366.299844 338.310883 366.965469 337.549945 
Q 367.632656 336.787445 368.809219 336.787445 
z
M 377.066445 337.968695 
Q 377.403945 337.362445 377.872695 337.074945 
Q 378.341445 336.787445 378.97582 336.787445 
Q 379.830508 336.787445 380.29457 337.385883 
Q 380.758633 337.982758 380.758633 339.085883 
L 380.758633 342.387445 
L 379.855508 342.387445 
L 379.855508 339.11557 
Q 379.855508 338.329633 379.57582 337.949945 
Q 379.297695 337.568695 378.727383 337.568695 
Q 378.028945 337.568695 377.622695 338.032758 
Q 377.218008 338.495258 377.218008 339.29682 
L 377.218008 342.387445 
L 376.314883 342.387445 
L 376.314883 339.11557 
Q 376.314883 338.324945 376.036758 337.94682 
Q 375.758633 337.568695 375.177383 337.568695 
Q 374.48832 337.568695 374.08207 338.03432 
Q 373.677383 338.499945 373.677383 339.29682 
L 373.677383 342.387445 
L 372.774258 342.387445 
L 372.774258 336.918695 
L 373.677383 336.918695 
L 373.677383 337.768695 
Q 373.985195 337.26557 374.414883 337.026508 
Q 374.84457 336.787445 375.435195 336.787445 
Q 376.03207 336.787445 376.449258 337.09057 
Q 376.866445 337.392133 377.066445 337.968695 
z
" clip-path="url(#p1461c95dac)" style="fill: #808080"/>
   </g>
   <g id="patch_3">
    <path d="M 63.31 387.72 
L 63.31 7.2 
" style="fill: none; stroke: #000000; stroke-width: 0.8; stroke-linejoin: miter; stroke-linecap: square"/>
   </g>
   <g id="patch_4">
    <path d="M 509.71 387.72 
L 509.71 7.2 
" style="fill: none; stroke: #000000; stroke-width: 0.8; stroke-linejoin: miter; stroke-linecap: square"/>
   </g>
   <g id="patch_5">
    <path d="M 63.31 387.72 
L 509.71 387.72 
" style="fill: none; stroke: #000000; stroke-width: 0.8; stroke-linejoin: miter; stroke-linecap: square"/>
   </g>
   <g id="patch_6">
    <path d="M 63.31 7.2 
L 509.71 7.2 
" style="fill: none; stroke: #000000; stroke-width: 0.8; stroke-linejoin: miter; stroke-linecap: square"/>
   </g>
  </g>
 </g>
 <defs>
  <clipPath id="p1461c95dac">
   <rect x="63.31" y="7.2" width="446.4" height="380.52"/>
  </clipPath>
 </defs>
</svg>
